%TF.GenerationSoftware,KiCad,Pcbnew,(7.0.0)*%
%TF.CreationDate,2023-04-15T14:43:56-07:00*%
%TF.ProjectId,LEDButton,4c454442-7574-4746-9f6e-2e6b69636164,rev?*%
%TF.SameCoordinates,Original*%
%TF.FileFunction,Copper,L1,Top*%
%TF.FilePolarity,Positive*%
%FSLAX46Y46*%
G04 Gerber Fmt 4.6, Leading zero omitted, Abs format (unit mm)*
G04 Created by KiCad (PCBNEW (7.0.0)) date 2023-04-15 14:43:57*
%MOMM*%
%LPD*%
G01*
G04 APERTURE LIST*
%TA.AperFunction,NonConductor*%
%ADD10C,0.200000*%
%TD*%
%TA.AperFunction,ComponentPad*%
%ADD11R,3.800000X3.800000*%
%TD*%
%TA.AperFunction,ComponentPad*%
%ADD12C,3.800000*%
%TD*%
%TA.AperFunction,SMDPad,CuDef*%
%ADD13R,2.500000X1.200000*%
%TD*%
%TA.AperFunction,ComponentPad*%
%ADD14R,1.800000X1.800000*%
%TD*%
%TA.AperFunction,ComponentPad*%
%ADD15C,1.800000*%
%TD*%
%TA.AperFunction,ComponentPad*%
%ADD16C,2.800000*%
%TD*%
%TA.AperFunction,ComponentPad*%
%ADD17O,2.800000X2.800000*%
%TD*%
%TA.AperFunction,Conductor*%
%ADD18C,0.250000*%
%TD*%
G04 APERTURE END LIST*
D10*
X82450000Y-74930000D02*
X143410000Y-74930000D01*
X143410000Y-74930000D02*
X143410000Y-113030000D01*
X143410000Y-113030000D02*
X82450000Y-113030000D01*
X82450000Y-113030000D02*
X82450000Y-74930000D01*
D11*
%TO.P,J1,1,Pin_1*%
%TO.N,+5V*%
X107769999Y-92709999D03*
D12*
%TO.P,J1,2,Pin_2*%
%TO.N,GND*%
X102770000Y-92710000D03*
%TD*%
D13*
%TO.P,SW2,1,A*%
%TO.N,Net-(R2-Pad2)*%
X124459999Y-104139999D03*
%TO.P,SW2,2,A*%
X136959999Y-104139999D03*
%TO.P,SW2,3,B*%
%TO.N,+5V*%
X124459999Y-96519999D03*
%TO.P,SW2,4,B*%
X136959999Y-96519999D03*
%TD*%
%TO.P,SW1,1,A*%
%TO.N,Net-(R1-Pad2)*%
X136959999Y-81279999D03*
%TO.P,SW1,2,A*%
X124459999Y-81279999D03*
%TO.P,SW1,3,B*%
%TO.N,+5V*%
X136959999Y-88899999D03*
%TO.P,SW1,4,B*%
X124459999Y-88899999D03*
%TD*%
D14*
%TO.P,D2,1,K*%
%TO.N,GND*%
X87529999Y-97789999D03*
D15*
%TO.P,D2,2,A*%
%TO.N,Net-(D2-A)*%
X90070000Y-97790000D03*
%TD*%
D14*
%TO.P,D1,1,K*%
%TO.N,GND*%
X87529999Y-87629999D03*
D15*
%TO.P,D1,2,A*%
%TO.N,Net-(D1-A)*%
X90070000Y-87630000D03*
%TD*%
D16*
%TO.P,R2,1*%
%TO.N,Net-(D2-A)*%
X90070000Y-105410000D03*
D17*
%TO.P,R2,2*%
%TO.N,Net-(R2-Pad2)*%
X115469999Y-105409999D03*
%TD*%
D16*
%TO.P,R1,1*%
%TO.N,Net-(D1-A)*%
X90070000Y-80010000D03*
D17*
%TO.P,R1,2*%
%TO.N,Net-(R1-Pad2)*%
X115469999Y-80009999D03*
%TD*%
D18*
%TO.N,Net-(D2-A)*%
X90070000Y-105410000D02*
X90070000Y-97790000D01*
%TO.N,Net-(R2-Pad2)*%
X123190000Y-105410000D02*
X124460000Y-104140000D01*
X115470000Y-105410000D02*
X123190000Y-105410000D01*
X124460000Y-104140000D02*
X136960000Y-104140000D01*
%TO.N,Net-(R1-Pad2)*%
X124460000Y-81280000D02*
X136960000Y-81280000D01*
X123190000Y-80010000D02*
X124460000Y-81280000D01*
X115470000Y-80010000D02*
X123190000Y-80010000D01*
%TO.N,Net-(D1-A)*%
X90070000Y-87630000D02*
X90070000Y-80010000D01*
%TD*%
%TA.AperFunction,Conductor*%
%TO.N,GND*%
G36*
X102708000Y-75547113D02*
G01*
X102753387Y-75592500D01*
X102770000Y-75654500D01*
X102770000Y-90186000D01*
X102753387Y-90248000D01*
X102708000Y-90293387D01*
X102646000Y-90310000D01*
X102622899Y-90310000D01*
X102615140Y-90310488D01*
X102323256Y-90347362D01*
X102315625Y-90348817D01*
X102030665Y-90421983D01*
X102023270Y-90424386D01*
X101749733Y-90532686D01*
X101742694Y-90535999D01*
X101484899Y-90677723D01*
X101478309Y-90681905D01*
X101267441Y-90835109D01*
X101260167Y-90843295D01*
X101266073Y-90852520D01*
X102770000Y-92356447D01*
X102770000Y-93063551D01*
X101266071Y-94567480D01*
X101260167Y-94576704D01*
X101267438Y-94584887D01*
X101478320Y-94738102D01*
X101484891Y-94742272D01*
X101742694Y-94884000D01*
X101749733Y-94887313D01*
X102023270Y-94995613D01*
X102030665Y-94998016D01*
X102315625Y-95071182D01*
X102323256Y-95072637D01*
X102615140Y-95109511D01*
X102622899Y-95110000D01*
X102646000Y-95110000D01*
X102708000Y-95126613D01*
X102753387Y-95172000D01*
X102770000Y-95234000D01*
X102770000Y-112305500D01*
X102753387Y-112367500D01*
X102708000Y-112412887D01*
X102646000Y-112429500D01*
X83174500Y-112429500D01*
X83112500Y-112412887D01*
X83067113Y-112367500D01*
X83050500Y-112305500D01*
X83050500Y-98734518D01*
X86130000Y-98734518D01*
X86130353Y-98741114D01*
X86135573Y-98789667D01*
X86139111Y-98804641D01*
X86183547Y-98923777D01*
X86191962Y-98939189D01*
X86267498Y-99040092D01*
X86279907Y-99052501D01*
X86380810Y-99128037D01*
X86396222Y-99136452D01*
X86515358Y-99180888D01*
X86530332Y-99184426D01*
X86578885Y-99189646D01*
X86585482Y-99190000D01*
X87263674Y-99190000D01*
X87276549Y-99186549D01*
X87280000Y-99173674D01*
X87780000Y-99173674D01*
X87783450Y-99186549D01*
X87796326Y-99190000D01*
X88474518Y-99190000D01*
X88481114Y-99189646D01*
X88529667Y-99184426D01*
X88544641Y-99180888D01*
X88663777Y-99136452D01*
X88679189Y-99128037D01*
X88780092Y-99052501D01*
X88792501Y-99040092D01*
X88868037Y-98939189D01*
X88876452Y-98923777D01*
X88902075Y-98855081D01*
X88938026Y-98803867D01*
X88994408Y-98776729D01*
X89056862Y-98780577D01*
X89109486Y-98814430D01*
X89118216Y-98823913D01*
X89301374Y-98966470D01*
X89364898Y-99000847D01*
X89379517Y-99008759D01*
X89427023Y-99054340D01*
X89444500Y-99117814D01*
X89444500Y-103528813D01*
X89434488Y-103577626D01*
X89406070Y-103618556D01*
X89363834Y-103644995D01*
X89282636Y-103675280D01*
X89282630Y-103675282D01*
X89278487Y-103676828D01*
X89274609Y-103678945D01*
X89274597Y-103678951D01*
X89043780Y-103804986D01*
X89043766Y-103804994D01*
X89039887Y-103807113D01*
X89036341Y-103809766D01*
X89036337Y-103809770D01*
X88825801Y-103967376D01*
X88825794Y-103967381D01*
X88822258Y-103970029D01*
X88819132Y-103973154D01*
X88819125Y-103973161D01*
X88633161Y-104159125D01*
X88633154Y-104159132D01*
X88630029Y-104162258D01*
X88627381Y-104165794D01*
X88627376Y-104165801D01*
X88469770Y-104376337D01*
X88469766Y-104376341D01*
X88467113Y-104379887D01*
X88464994Y-104383766D01*
X88464986Y-104383780D01*
X88338951Y-104614597D01*
X88338945Y-104614609D01*
X88336828Y-104618487D01*
X88335284Y-104622624D01*
X88335280Y-104622635D01*
X88243370Y-104869055D01*
X88243367Y-104869063D01*
X88241825Y-104873199D01*
X88240884Y-104877521D01*
X88240884Y-104877524D01*
X88184981Y-105134506D01*
X88184979Y-105134516D01*
X88184039Y-105138840D01*
X88183723Y-105143251D01*
X88183722Y-105143262D01*
X88165321Y-105400541D01*
X88164645Y-105410000D01*
X88164961Y-105414418D01*
X88183722Y-105676737D01*
X88183723Y-105676746D01*
X88184039Y-105681160D01*
X88184979Y-105685485D01*
X88184981Y-105685493D01*
X88236178Y-105920843D01*
X88241825Y-105946801D01*
X88336828Y-106201513D01*
X88338948Y-106205395D01*
X88338951Y-106205402D01*
X88464986Y-106436219D01*
X88464990Y-106436226D01*
X88467113Y-106440113D01*
X88630029Y-106657742D01*
X88822258Y-106849971D01*
X89039887Y-107012887D01*
X89278487Y-107143172D01*
X89533199Y-107238175D01*
X89798840Y-107295961D01*
X90070000Y-107315355D01*
X90341160Y-107295961D01*
X90606801Y-107238175D01*
X90861513Y-107143172D01*
X91100113Y-107012887D01*
X91317742Y-106849971D01*
X91509971Y-106657742D01*
X91672887Y-106440113D01*
X91803172Y-106201513D01*
X91898175Y-105946801D01*
X91955961Y-105681160D01*
X91975355Y-105410000D01*
X91955961Y-105138840D01*
X91898175Y-104873199D01*
X91803172Y-104618487D01*
X91672887Y-104379887D01*
X91509971Y-104162258D01*
X91317742Y-103970029D01*
X91100113Y-103807113D01*
X91096226Y-103804990D01*
X91096219Y-103804986D01*
X90865402Y-103678951D01*
X90865395Y-103678948D01*
X90861513Y-103676828D01*
X90776166Y-103644995D01*
X90733930Y-103618556D01*
X90705512Y-103577626D01*
X90695500Y-103528813D01*
X90695500Y-99117814D01*
X90712977Y-99054340D01*
X90760483Y-99008759D01*
X90766645Y-99005424D01*
X90838626Y-98966470D01*
X91021784Y-98823913D01*
X91178979Y-98653153D01*
X91305924Y-98458849D01*
X91399157Y-98246300D01*
X91456134Y-98021305D01*
X91475300Y-97790000D01*
X91456134Y-97558695D01*
X91399157Y-97333700D01*
X91305924Y-97121151D01*
X91178979Y-96926847D01*
X91021784Y-96756087D01*
X90873675Y-96640810D01*
X90842672Y-96616679D01*
X90842671Y-96616678D01*
X90838626Y-96613530D01*
X90702583Y-96539907D01*
X90639007Y-96505501D01*
X90639002Y-96505499D01*
X90634503Y-96503064D01*
X90629657Y-96501400D01*
X90629654Y-96501399D01*
X90419834Y-96429368D01*
X90419833Y-96429367D01*
X90414981Y-96427702D01*
X90409931Y-96426859D01*
X90409922Y-96426857D01*
X90191111Y-96390344D01*
X90191102Y-96390343D01*
X90186049Y-96389500D01*
X89953951Y-96389500D01*
X89948898Y-96390343D01*
X89948888Y-96390344D01*
X89730077Y-96426857D01*
X89730065Y-96426859D01*
X89725019Y-96427702D01*
X89720169Y-96429366D01*
X89720165Y-96429368D01*
X89510345Y-96501399D01*
X89510337Y-96501402D01*
X89505497Y-96503064D01*
X89501001Y-96505496D01*
X89500992Y-96505501D01*
X89305882Y-96611090D01*
X89305878Y-96611092D01*
X89301374Y-96613530D01*
X89297334Y-96616674D01*
X89297327Y-96616679D01*
X89122263Y-96752936D01*
X89122255Y-96752943D01*
X89118216Y-96756087D01*
X89114743Y-96759858D01*
X89114736Y-96759866D01*
X89109481Y-96765574D01*
X89056857Y-96799424D01*
X88994405Y-96803269D01*
X88938025Y-96776131D01*
X88902075Y-96724918D01*
X88876452Y-96656222D01*
X88868037Y-96640810D01*
X88792501Y-96539907D01*
X88780092Y-96527498D01*
X88679189Y-96451962D01*
X88663777Y-96443547D01*
X88544641Y-96399111D01*
X88529667Y-96395573D01*
X88481114Y-96390353D01*
X88474518Y-96390000D01*
X87796326Y-96390000D01*
X87783450Y-96393450D01*
X87780000Y-96406326D01*
X87780000Y-99173674D01*
X87280000Y-99173674D01*
X87280000Y-98056326D01*
X87276549Y-98043450D01*
X87263674Y-98040000D01*
X86146326Y-98040000D01*
X86133450Y-98043450D01*
X86130000Y-98056326D01*
X86130000Y-98734518D01*
X83050500Y-98734518D01*
X83050500Y-97523674D01*
X86130000Y-97523674D01*
X86133450Y-97536549D01*
X86146326Y-97540000D01*
X87263674Y-97540000D01*
X87276549Y-97536549D01*
X87280000Y-97523674D01*
X87280000Y-96406326D01*
X87276549Y-96393450D01*
X87263674Y-96390000D01*
X86585482Y-96390000D01*
X86578885Y-96390353D01*
X86530332Y-96395573D01*
X86515358Y-96399111D01*
X86396222Y-96443547D01*
X86380810Y-96451962D01*
X86279907Y-96527498D01*
X86267498Y-96539907D01*
X86191962Y-96640810D01*
X86183547Y-96656222D01*
X86139111Y-96775358D01*
X86135573Y-96790332D01*
X86130353Y-96838885D01*
X86130000Y-96845482D01*
X86130000Y-97523674D01*
X83050500Y-97523674D01*
X83050500Y-92713894D01*
X100365500Y-92713894D01*
X100383972Y-93007500D01*
X100384946Y-93015220D01*
X100440073Y-93304206D01*
X100442009Y-93311745D01*
X100532921Y-93591541D01*
X100535781Y-93598765D01*
X100661050Y-93864976D01*
X100664792Y-93871782D01*
X100822430Y-94120181D01*
X100827006Y-94126479D01*
X100894273Y-94207790D01*
X100905575Y-94215558D01*
X100917557Y-94208888D01*
X102404904Y-92721542D01*
X102411568Y-92710000D01*
X102404904Y-92698457D01*
X100917558Y-91211111D01*
X100905574Y-91204441D01*
X100894273Y-91212208D01*
X100827001Y-91293526D01*
X100822434Y-91299812D01*
X100664792Y-91548217D01*
X100661050Y-91555023D01*
X100535781Y-91821234D01*
X100532921Y-91828458D01*
X100442009Y-92108254D01*
X100440073Y-92115793D01*
X100384946Y-92404779D01*
X100383972Y-92412499D01*
X100365500Y-92706106D01*
X100365500Y-92713894D01*
X83050500Y-92713894D01*
X83050500Y-88574518D01*
X86130000Y-88574518D01*
X86130353Y-88581114D01*
X86135573Y-88629667D01*
X86139111Y-88644641D01*
X86183547Y-88763777D01*
X86191962Y-88779189D01*
X86267498Y-88880092D01*
X86279907Y-88892501D01*
X86380810Y-88968037D01*
X86396222Y-88976452D01*
X86515358Y-89020888D01*
X86530332Y-89024426D01*
X86578885Y-89029646D01*
X86585482Y-89030000D01*
X87263674Y-89030000D01*
X87276549Y-89026549D01*
X87280000Y-89013674D01*
X87780000Y-89013674D01*
X87783450Y-89026549D01*
X87796326Y-89030000D01*
X88474518Y-89030000D01*
X88481114Y-89029646D01*
X88529667Y-89024426D01*
X88544641Y-89020888D01*
X88663777Y-88976452D01*
X88679189Y-88968037D01*
X88780092Y-88892501D01*
X88792501Y-88880092D01*
X88868037Y-88779189D01*
X88876452Y-88763777D01*
X88902075Y-88695081D01*
X88938026Y-88643867D01*
X88994408Y-88616729D01*
X89056862Y-88620577D01*
X89109486Y-88654430D01*
X89118216Y-88663913D01*
X89301374Y-88806470D01*
X89505497Y-88916936D01*
X89725019Y-88992298D01*
X89953951Y-89030500D01*
X90180916Y-89030500D01*
X90186049Y-89030500D01*
X90414981Y-88992298D01*
X90634503Y-88916936D01*
X90838626Y-88806470D01*
X91021784Y-88663913D01*
X91178979Y-88493153D01*
X91305924Y-88298849D01*
X91399157Y-88086300D01*
X91456134Y-87861305D01*
X91475300Y-87630000D01*
X91456134Y-87398695D01*
X91399157Y-87173700D01*
X91305924Y-86961151D01*
X91178979Y-86766847D01*
X91021784Y-86596087D01*
X90873675Y-86480810D01*
X90842672Y-86456679D01*
X90842671Y-86456678D01*
X90838626Y-86453530D01*
X90760483Y-86411241D01*
X90712977Y-86365660D01*
X90695500Y-86302186D01*
X90695500Y-81891187D01*
X90705512Y-81842374D01*
X90733930Y-81801444D01*
X90776166Y-81775005D01*
X90779161Y-81773887D01*
X90861513Y-81743172D01*
X91100113Y-81612887D01*
X91317742Y-81449971D01*
X91509971Y-81257742D01*
X91672887Y-81040113D01*
X91803172Y-80801513D01*
X91898175Y-80546801D01*
X91955961Y-80281160D01*
X91975355Y-80010000D01*
X91955961Y-79738840D01*
X91898175Y-79473199D01*
X91803172Y-79218487D01*
X91672887Y-78979887D01*
X91509971Y-78762258D01*
X91317742Y-78570029D01*
X91100113Y-78407113D01*
X91096226Y-78404990D01*
X91096219Y-78404986D01*
X90865402Y-78278951D01*
X90865395Y-78278948D01*
X90861513Y-78276828D01*
X90857369Y-78275282D01*
X90857364Y-78275280D01*
X90610944Y-78183370D01*
X90610940Y-78183369D01*
X90606801Y-78181825D01*
X90580843Y-78176178D01*
X90345493Y-78124981D01*
X90345485Y-78124979D01*
X90341160Y-78124039D01*
X90336746Y-78123723D01*
X90336737Y-78123722D01*
X90074418Y-78104961D01*
X90070000Y-78104645D01*
X90065582Y-78104961D01*
X89803262Y-78123722D01*
X89803251Y-78123723D01*
X89798840Y-78124039D01*
X89794516Y-78124979D01*
X89794506Y-78124981D01*
X89537524Y-78180884D01*
X89537521Y-78180884D01*
X89533199Y-78181825D01*
X89529063Y-78183367D01*
X89529055Y-78183370D01*
X89282635Y-78275280D01*
X89282624Y-78275284D01*
X89278487Y-78276828D01*
X89274609Y-78278945D01*
X89274597Y-78278951D01*
X89043780Y-78404986D01*
X89043766Y-78404994D01*
X89039887Y-78407113D01*
X89036341Y-78409766D01*
X89036337Y-78409770D01*
X88825801Y-78567376D01*
X88825794Y-78567381D01*
X88822258Y-78570029D01*
X88819132Y-78573154D01*
X88819125Y-78573161D01*
X88633161Y-78759125D01*
X88633154Y-78759132D01*
X88630029Y-78762258D01*
X88627381Y-78765794D01*
X88627376Y-78765801D01*
X88469770Y-78976337D01*
X88469766Y-78976341D01*
X88467113Y-78979887D01*
X88464994Y-78983766D01*
X88464986Y-78983780D01*
X88338951Y-79214597D01*
X88338945Y-79214609D01*
X88336828Y-79218487D01*
X88335284Y-79222624D01*
X88335280Y-79222635D01*
X88243370Y-79469055D01*
X88243367Y-79469063D01*
X88241825Y-79473199D01*
X88240884Y-79477521D01*
X88240884Y-79477524D01*
X88184981Y-79734506D01*
X88184979Y-79734516D01*
X88184039Y-79738840D01*
X88183723Y-79743251D01*
X88183722Y-79743262D01*
X88165321Y-80000541D01*
X88164645Y-80010000D01*
X88164961Y-80014418D01*
X88183722Y-80276737D01*
X88183723Y-80276746D01*
X88184039Y-80281160D01*
X88184979Y-80285485D01*
X88184981Y-80285493D01*
X88236178Y-80520843D01*
X88241825Y-80546801D01*
X88336828Y-80801513D01*
X88338948Y-80805395D01*
X88338951Y-80805402D01*
X88464986Y-81036219D01*
X88464990Y-81036226D01*
X88467113Y-81040113D01*
X88630029Y-81257742D01*
X88822258Y-81449971D01*
X89039887Y-81612887D01*
X89278487Y-81743172D01*
X89358766Y-81773114D01*
X89363834Y-81775005D01*
X89406070Y-81801444D01*
X89434488Y-81842374D01*
X89444500Y-81891187D01*
X89444500Y-86302186D01*
X89427023Y-86365660D01*
X89379517Y-86411241D01*
X89305887Y-86451087D01*
X89305880Y-86451090D01*
X89301374Y-86453530D01*
X89297334Y-86456674D01*
X89297327Y-86456679D01*
X89122263Y-86592936D01*
X89122255Y-86592943D01*
X89118216Y-86596087D01*
X89114743Y-86599858D01*
X89114736Y-86599866D01*
X89109481Y-86605574D01*
X89056857Y-86639424D01*
X88994405Y-86643269D01*
X88938025Y-86616131D01*
X88902075Y-86564918D01*
X88876452Y-86496222D01*
X88868037Y-86480810D01*
X88792501Y-86379907D01*
X88780092Y-86367498D01*
X88679189Y-86291962D01*
X88663777Y-86283547D01*
X88544641Y-86239111D01*
X88529667Y-86235573D01*
X88481114Y-86230353D01*
X88474518Y-86230000D01*
X87796326Y-86230000D01*
X87783450Y-86233450D01*
X87780000Y-86246326D01*
X87780000Y-89013674D01*
X87280000Y-89013674D01*
X87280000Y-87896326D01*
X87276549Y-87883450D01*
X87263674Y-87880000D01*
X86146326Y-87880000D01*
X86133450Y-87883450D01*
X86130000Y-87896326D01*
X86130000Y-88574518D01*
X83050500Y-88574518D01*
X83050500Y-87363674D01*
X86130000Y-87363674D01*
X86133450Y-87376549D01*
X86146326Y-87380000D01*
X87263674Y-87380000D01*
X87276549Y-87376549D01*
X87280000Y-87363674D01*
X87280000Y-86246326D01*
X87276549Y-86233450D01*
X87263674Y-86230000D01*
X86585482Y-86230000D01*
X86578885Y-86230353D01*
X86530332Y-86235573D01*
X86515358Y-86239111D01*
X86396222Y-86283547D01*
X86380810Y-86291962D01*
X86279907Y-86367498D01*
X86267498Y-86379907D01*
X86191962Y-86480810D01*
X86183547Y-86496222D01*
X86139111Y-86615358D01*
X86135573Y-86630332D01*
X86130353Y-86678885D01*
X86130000Y-86685482D01*
X86130000Y-87363674D01*
X83050500Y-87363674D01*
X83050500Y-75654500D01*
X83067113Y-75592500D01*
X83112500Y-75547113D01*
X83174500Y-75530500D01*
X102646000Y-75530500D01*
X102708000Y-75547113D01*
G37*
%TD.AperFunction*%
%TD*%
%TA.AperFunction,Conductor*%
%TO.N,+5V*%
G36*
X142747500Y-75547113D02*
G01*
X142792887Y-75592500D01*
X142809500Y-75654500D01*
X142809500Y-112305500D01*
X142792887Y-112367500D01*
X142747500Y-112412887D01*
X142685500Y-112429500D01*
X107974000Y-112429500D01*
X107912000Y-112412887D01*
X107866613Y-112367500D01*
X107850000Y-112305500D01*
X107850000Y-105410000D01*
X113564645Y-105410000D01*
X113564961Y-105414418D01*
X113583722Y-105676737D01*
X113583723Y-105676746D01*
X113584039Y-105681160D01*
X113584979Y-105685485D01*
X113584981Y-105685493D01*
X113633421Y-105908170D01*
X113641825Y-105946801D01*
X113643369Y-105950940D01*
X113643370Y-105950944D01*
X113689241Y-106073930D01*
X113736828Y-106201513D01*
X113738948Y-106205395D01*
X113738951Y-106205402D01*
X113864986Y-106436219D01*
X113864990Y-106436226D01*
X113867113Y-106440113D01*
X114030029Y-106657742D01*
X114222258Y-106849971D01*
X114439887Y-107012887D01*
X114678487Y-107143172D01*
X114933199Y-107238175D01*
X115198840Y-107295961D01*
X115470000Y-107315355D01*
X115741160Y-107295961D01*
X116006801Y-107238175D01*
X116261513Y-107143172D01*
X116500113Y-107012887D01*
X116717742Y-106849971D01*
X116909971Y-106657742D01*
X117072887Y-106440113D01*
X117203172Y-106201513D01*
X117235004Y-106116166D01*
X117261444Y-106073930D01*
X117302374Y-106045512D01*
X117351187Y-106035500D01*
X123112225Y-106035500D01*
X123123280Y-106036021D01*
X123130667Y-106037673D01*
X123197872Y-106035561D01*
X123201768Y-106035500D01*
X123225448Y-106035500D01*
X123229350Y-106035500D01*
X123233313Y-106034999D01*
X123244963Y-106034080D01*
X123288627Y-106032709D01*
X123307861Y-106027119D01*
X123326917Y-106023174D01*
X123346792Y-106020664D01*
X123387395Y-106004587D01*
X123398450Y-106000802D01*
X123440390Y-105988618D01*
X123457629Y-105978422D01*
X123475103Y-105969862D01*
X123486474Y-105965360D01*
X123486476Y-105965358D01*
X123493732Y-105962486D01*
X123529069Y-105936811D01*
X123538824Y-105930403D01*
X123576420Y-105908170D01*
X123590584Y-105894005D01*
X123605379Y-105881368D01*
X123621587Y-105869594D01*
X123649428Y-105835938D01*
X123657279Y-105827309D01*
X124207770Y-105276818D01*
X124247999Y-105249938D01*
X124295452Y-105240499D01*
X125754561Y-105240499D01*
X125757872Y-105240499D01*
X125817483Y-105234091D01*
X125952331Y-105183796D01*
X126067546Y-105097546D01*
X126153796Y-104982331D01*
X126204091Y-104847483D01*
X126206140Y-104848247D01*
X126224033Y-104811693D01*
X126267068Y-104777643D01*
X126320584Y-104765500D01*
X135099416Y-104765500D01*
X135152932Y-104777643D01*
X135195967Y-104811693D01*
X135213859Y-104848247D01*
X135215909Y-104847483D01*
X135266204Y-104982331D01*
X135352454Y-105097546D01*
X135467669Y-105183796D01*
X135602517Y-105234091D01*
X135662127Y-105240500D01*
X138257872Y-105240499D01*
X138317483Y-105234091D01*
X138452331Y-105183796D01*
X138567546Y-105097546D01*
X138653796Y-104982331D01*
X138704091Y-104847483D01*
X138710500Y-104787873D01*
X138710499Y-103492128D01*
X138704091Y-103432517D01*
X138653796Y-103297669D01*
X138567546Y-103182454D01*
X138452331Y-103096204D01*
X138317483Y-103045909D01*
X138309770Y-103045079D01*
X138309767Y-103045079D01*
X138261180Y-103039855D01*
X138261169Y-103039854D01*
X138257873Y-103039500D01*
X138254550Y-103039500D01*
X135665439Y-103039500D01*
X135665420Y-103039500D01*
X135662128Y-103039501D01*
X135658850Y-103039853D01*
X135658838Y-103039854D01*
X135610231Y-103045079D01*
X135610225Y-103045080D01*
X135602517Y-103045909D01*
X135595252Y-103048618D01*
X135595246Y-103048620D01*
X135475980Y-103093104D01*
X135475978Y-103093104D01*
X135467669Y-103096204D01*
X135460572Y-103101516D01*
X135460568Y-103101519D01*
X135359550Y-103177141D01*
X135359546Y-103177144D01*
X135352454Y-103182454D01*
X135347144Y-103189546D01*
X135347141Y-103189550D01*
X135271519Y-103290568D01*
X135271516Y-103290572D01*
X135266204Y-103297669D01*
X135263104Y-103305978D01*
X135263104Y-103305980D01*
X135215909Y-103432517D01*
X135213859Y-103431752D01*
X135195967Y-103468307D01*
X135152932Y-103502357D01*
X135099416Y-103514500D01*
X126320584Y-103514500D01*
X126267068Y-103502357D01*
X126224033Y-103468307D01*
X126206140Y-103431752D01*
X126204091Y-103432517D01*
X126153796Y-103297669D01*
X126067546Y-103182454D01*
X125952331Y-103096204D01*
X125817483Y-103045909D01*
X125809770Y-103045079D01*
X125809767Y-103045079D01*
X125761180Y-103039855D01*
X125761169Y-103039854D01*
X125757873Y-103039500D01*
X125754550Y-103039500D01*
X123165439Y-103039500D01*
X123165420Y-103039500D01*
X123162128Y-103039501D01*
X123158850Y-103039853D01*
X123158838Y-103039854D01*
X123110231Y-103045079D01*
X123110225Y-103045080D01*
X123102517Y-103045909D01*
X123095252Y-103048618D01*
X123095246Y-103048620D01*
X122975980Y-103093104D01*
X122975978Y-103093104D01*
X122967669Y-103096204D01*
X122960572Y-103101516D01*
X122960568Y-103101519D01*
X122859550Y-103177141D01*
X122859546Y-103177144D01*
X122852454Y-103182454D01*
X122847144Y-103189546D01*
X122847141Y-103189550D01*
X122771519Y-103290568D01*
X122771516Y-103290572D01*
X122766204Y-103297669D01*
X122763104Y-103305978D01*
X122763104Y-103305980D01*
X122718620Y-103425247D01*
X122718619Y-103425250D01*
X122715909Y-103432517D01*
X122715079Y-103440227D01*
X122715079Y-103440232D01*
X122709855Y-103488819D01*
X122709854Y-103488831D01*
X122709500Y-103492127D01*
X122709500Y-103495448D01*
X122709500Y-103495449D01*
X122709501Y-104660500D01*
X122692888Y-104722500D01*
X122647501Y-104767887D01*
X122585501Y-104784500D01*
X117351187Y-104784500D01*
X117302374Y-104774488D01*
X117261444Y-104746070D01*
X117235005Y-104703834D01*
X117218842Y-104660500D01*
X117203172Y-104618487D01*
X117072887Y-104379887D01*
X116909971Y-104162258D01*
X116717742Y-103970029D01*
X116500113Y-103807113D01*
X116496226Y-103804990D01*
X116496219Y-103804986D01*
X116265402Y-103678951D01*
X116265395Y-103678948D01*
X116261513Y-103676828D01*
X116257369Y-103675282D01*
X116257364Y-103675280D01*
X116010944Y-103583370D01*
X116010940Y-103583369D01*
X116006801Y-103581825D01*
X115980843Y-103576178D01*
X115745493Y-103524981D01*
X115745485Y-103524979D01*
X115741160Y-103524039D01*
X115736746Y-103523723D01*
X115736737Y-103523722D01*
X115474418Y-103504961D01*
X115470000Y-103504645D01*
X115465582Y-103504961D01*
X115203262Y-103523722D01*
X115203251Y-103523723D01*
X115198840Y-103524039D01*
X115194516Y-103524979D01*
X115194506Y-103524981D01*
X114937524Y-103580884D01*
X114937521Y-103580884D01*
X114933199Y-103581825D01*
X114929063Y-103583367D01*
X114929055Y-103583370D01*
X114682635Y-103675280D01*
X114682624Y-103675284D01*
X114678487Y-103676828D01*
X114674609Y-103678945D01*
X114674597Y-103678951D01*
X114443780Y-103804986D01*
X114443766Y-103804994D01*
X114439887Y-103807113D01*
X114436341Y-103809766D01*
X114436337Y-103809770D01*
X114225801Y-103967376D01*
X114225794Y-103967381D01*
X114222258Y-103970029D01*
X114219132Y-103973154D01*
X114219125Y-103973161D01*
X114033161Y-104159125D01*
X114033154Y-104159132D01*
X114030029Y-104162258D01*
X114027381Y-104165794D01*
X114027376Y-104165801D01*
X113869770Y-104376337D01*
X113869766Y-104376341D01*
X113867113Y-104379887D01*
X113864994Y-104383766D01*
X113864986Y-104383780D01*
X113738951Y-104614597D01*
X113738945Y-104614609D01*
X113736828Y-104618487D01*
X113735284Y-104622624D01*
X113735280Y-104622635D01*
X113643370Y-104869055D01*
X113643367Y-104869063D01*
X113641825Y-104873199D01*
X113640884Y-104877521D01*
X113640884Y-104877524D01*
X113584981Y-105134506D01*
X113584979Y-105134516D01*
X113584039Y-105138840D01*
X113583723Y-105143251D01*
X113583722Y-105143262D01*
X113576793Y-105240145D01*
X113564645Y-105410000D01*
X107850000Y-105410000D01*
X107850000Y-97164518D01*
X122710000Y-97164518D01*
X122710353Y-97171114D01*
X122715573Y-97219667D01*
X122719111Y-97234641D01*
X122763547Y-97353777D01*
X122771962Y-97369189D01*
X122847498Y-97470092D01*
X122859907Y-97482501D01*
X122960810Y-97558037D01*
X122976222Y-97566452D01*
X123095358Y-97610888D01*
X123110332Y-97614426D01*
X123158885Y-97619646D01*
X123165482Y-97620000D01*
X124193674Y-97620000D01*
X124206549Y-97616549D01*
X124210000Y-97603674D01*
X124710000Y-97603674D01*
X124713450Y-97616549D01*
X124726326Y-97620000D01*
X125754518Y-97620000D01*
X125761114Y-97619646D01*
X125809667Y-97614426D01*
X125824641Y-97610888D01*
X125943777Y-97566452D01*
X125959189Y-97558037D01*
X126060092Y-97482501D01*
X126072501Y-97470092D01*
X126148037Y-97369189D01*
X126156452Y-97353777D01*
X126200888Y-97234641D01*
X126204426Y-97219667D01*
X126209646Y-97171114D01*
X126210000Y-97164518D01*
X135210000Y-97164518D01*
X135210353Y-97171114D01*
X135215573Y-97219667D01*
X135219111Y-97234641D01*
X135263547Y-97353777D01*
X135271962Y-97369189D01*
X135347498Y-97470092D01*
X135359907Y-97482501D01*
X135460810Y-97558037D01*
X135476222Y-97566452D01*
X135595358Y-97610888D01*
X135610332Y-97614426D01*
X135658885Y-97619646D01*
X135665482Y-97620000D01*
X136693674Y-97620000D01*
X136706549Y-97616549D01*
X136710000Y-97603674D01*
X137210000Y-97603674D01*
X137213450Y-97616549D01*
X137226326Y-97620000D01*
X138254518Y-97620000D01*
X138261114Y-97619646D01*
X138309667Y-97614426D01*
X138324641Y-97610888D01*
X138443777Y-97566452D01*
X138459189Y-97558037D01*
X138560092Y-97482501D01*
X138572501Y-97470092D01*
X138648037Y-97369189D01*
X138656452Y-97353777D01*
X138700888Y-97234641D01*
X138704426Y-97219667D01*
X138709646Y-97171114D01*
X138710000Y-97164518D01*
X138710000Y-96786326D01*
X138706549Y-96773450D01*
X138693674Y-96770000D01*
X137226326Y-96770000D01*
X137213450Y-96773450D01*
X137210000Y-96786326D01*
X137210000Y-97603674D01*
X136710000Y-97603674D01*
X136710000Y-96786326D01*
X136706549Y-96773450D01*
X136693674Y-96770000D01*
X135226326Y-96770000D01*
X135213450Y-96773450D01*
X135210000Y-96786326D01*
X135210000Y-97164518D01*
X126210000Y-97164518D01*
X126210000Y-96786326D01*
X126206549Y-96773450D01*
X126193674Y-96770000D01*
X124726326Y-96770000D01*
X124713450Y-96773450D01*
X124710000Y-96786326D01*
X124710000Y-97603674D01*
X124210000Y-97603674D01*
X124210000Y-96786326D01*
X124206549Y-96773450D01*
X124193674Y-96770000D01*
X122726326Y-96770000D01*
X122713450Y-96773450D01*
X122710000Y-96786326D01*
X122710000Y-97164518D01*
X107850000Y-97164518D01*
X107850000Y-96253674D01*
X122710000Y-96253674D01*
X122713450Y-96266549D01*
X122726326Y-96270000D01*
X124193674Y-96270000D01*
X124206549Y-96266549D01*
X124210000Y-96253674D01*
X124710000Y-96253674D01*
X124713450Y-96266549D01*
X124726326Y-96270000D01*
X126193674Y-96270000D01*
X126206549Y-96266549D01*
X126210000Y-96253674D01*
X135210000Y-96253674D01*
X135213450Y-96266549D01*
X135226326Y-96270000D01*
X136693674Y-96270000D01*
X136706549Y-96266549D01*
X136710000Y-96253674D01*
X137210000Y-96253674D01*
X137213450Y-96266549D01*
X137226326Y-96270000D01*
X138693674Y-96270000D01*
X138706549Y-96266549D01*
X138710000Y-96253674D01*
X138710000Y-95875482D01*
X138709646Y-95868885D01*
X138704426Y-95820332D01*
X138700888Y-95805358D01*
X138656452Y-95686222D01*
X138648037Y-95670810D01*
X138572501Y-95569907D01*
X138560092Y-95557498D01*
X138459189Y-95481962D01*
X138443777Y-95473547D01*
X138324641Y-95429111D01*
X138309667Y-95425573D01*
X138261114Y-95420353D01*
X138254518Y-95420000D01*
X137226326Y-95420000D01*
X137213450Y-95423450D01*
X137210000Y-95436326D01*
X137210000Y-96253674D01*
X136710000Y-96253674D01*
X136710000Y-95436326D01*
X136706549Y-95423450D01*
X136693674Y-95420000D01*
X135665482Y-95420000D01*
X135658885Y-95420353D01*
X135610332Y-95425573D01*
X135595358Y-95429111D01*
X135476222Y-95473547D01*
X135460810Y-95481962D01*
X135359907Y-95557498D01*
X135347498Y-95569907D01*
X135271962Y-95670810D01*
X135263547Y-95686222D01*
X135219111Y-95805358D01*
X135215573Y-95820332D01*
X135210353Y-95868885D01*
X135210000Y-95875482D01*
X135210000Y-96253674D01*
X126210000Y-96253674D01*
X126210000Y-95875482D01*
X126209646Y-95868885D01*
X126204426Y-95820332D01*
X126200888Y-95805358D01*
X126156452Y-95686222D01*
X126148037Y-95670810D01*
X126072501Y-95569907D01*
X126060092Y-95557498D01*
X125959189Y-95481962D01*
X125943777Y-95473547D01*
X125824641Y-95429111D01*
X125809667Y-95425573D01*
X125761114Y-95420353D01*
X125754518Y-95420000D01*
X124726326Y-95420000D01*
X124713450Y-95423450D01*
X124710000Y-95436326D01*
X124710000Y-96253674D01*
X124210000Y-96253674D01*
X124210000Y-95436326D01*
X124206549Y-95423450D01*
X124193674Y-95420000D01*
X123165482Y-95420000D01*
X123158885Y-95420353D01*
X123110332Y-95425573D01*
X123095358Y-95429111D01*
X122976222Y-95473547D01*
X122960810Y-95481962D01*
X122859907Y-95557498D01*
X122847498Y-95569907D01*
X122771962Y-95670810D01*
X122763547Y-95686222D01*
X122719111Y-95805358D01*
X122715573Y-95820332D01*
X122710353Y-95868885D01*
X122710000Y-95875482D01*
X122710000Y-96253674D01*
X107850000Y-96253674D01*
X107850000Y-95234000D01*
X107866613Y-95172000D01*
X107912000Y-95126613D01*
X107974000Y-95110000D01*
X109714518Y-95110000D01*
X109721114Y-95109646D01*
X109769667Y-95104426D01*
X109784641Y-95100888D01*
X109903777Y-95056452D01*
X109919189Y-95048037D01*
X110020092Y-94972501D01*
X110032501Y-94960092D01*
X110108037Y-94859189D01*
X110116452Y-94843777D01*
X110160888Y-94724641D01*
X110164426Y-94709667D01*
X110169646Y-94661114D01*
X110170000Y-94654518D01*
X110170000Y-92976326D01*
X110166549Y-92963450D01*
X110153674Y-92960000D01*
X107850000Y-92960000D01*
X107850000Y-92460000D01*
X110153674Y-92460000D01*
X110166549Y-92456549D01*
X110170000Y-92443674D01*
X110170000Y-90765482D01*
X110169646Y-90758885D01*
X110164426Y-90710332D01*
X110160888Y-90695358D01*
X110116452Y-90576222D01*
X110108037Y-90560810D01*
X110032501Y-90459907D01*
X110020092Y-90447498D01*
X109919189Y-90371962D01*
X109903777Y-90363547D01*
X109784641Y-90319111D01*
X109769667Y-90315573D01*
X109721114Y-90310353D01*
X109714518Y-90310000D01*
X107974000Y-90310000D01*
X107912000Y-90293387D01*
X107866613Y-90248000D01*
X107850000Y-90186000D01*
X107850000Y-89544518D01*
X122710000Y-89544518D01*
X122710353Y-89551114D01*
X122715573Y-89599667D01*
X122719111Y-89614641D01*
X122763547Y-89733777D01*
X122771962Y-89749189D01*
X122847498Y-89850092D01*
X122859907Y-89862501D01*
X122960810Y-89938037D01*
X122976222Y-89946452D01*
X123095358Y-89990888D01*
X123110332Y-89994426D01*
X123158885Y-89999646D01*
X123165482Y-90000000D01*
X124193674Y-90000000D01*
X124206549Y-89996549D01*
X124210000Y-89983674D01*
X124710000Y-89983674D01*
X124713450Y-89996549D01*
X124726326Y-90000000D01*
X125754518Y-90000000D01*
X125761114Y-89999646D01*
X125809667Y-89994426D01*
X125824641Y-89990888D01*
X125943777Y-89946452D01*
X125959189Y-89938037D01*
X126060092Y-89862501D01*
X126072501Y-89850092D01*
X126148037Y-89749189D01*
X126156452Y-89733777D01*
X126200888Y-89614641D01*
X126204426Y-89599667D01*
X126209646Y-89551114D01*
X126210000Y-89544518D01*
X135210000Y-89544518D01*
X135210353Y-89551114D01*
X135215573Y-89599667D01*
X135219111Y-89614641D01*
X135263547Y-89733777D01*
X135271962Y-89749189D01*
X135347498Y-89850092D01*
X135359907Y-89862501D01*
X135460810Y-89938037D01*
X135476222Y-89946452D01*
X135595358Y-89990888D01*
X135610332Y-89994426D01*
X135658885Y-89999646D01*
X135665482Y-90000000D01*
X136693674Y-90000000D01*
X136706549Y-89996549D01*
X136710000Y-89983674D01*
X137210000Y-89983674D01*
X137213450Y-89996549D01*
X137226326Y-90000000D01*
X138254518Y-90000000D01*
X138261114Y-89999646D01*
X138309667Y-89994426D01*
X138324641Y-89990888D01*
X138443777Y-89946452D01*
X138459189Y-89938037D01*
X138560092Y-89862501D01*
X138572501Y-89850092D01*
X138648037Y-89749189D01*
X138656452Y-89733777D01*
X138700888Y-89614641D01*
X138704426Y-89599667D01*
X138709646Y-89551114D01*
X138710000Y-89544518D01*
X138710000Y-89166326D01*
X138706549Y-89153450D01*
X138693674Y-89150000D01*
X137226326Y-89150000D01*
X137213450Y-89153450D01*
X137210000Y-89166326D01*
X137210000Y-89983674D01*
X136710000Y-89983674D01*
X136710000Y-89166326D01*
X136706549Y-89153450D01*
X136693674Y-89150000D01*
X135226326Y-89150000D01*
X135213450Y-89153450D01*
X135210000Y-89166326D01*
X135210000Y-89544518D01*
X126210000Y-89544518D01*
X126210000Y-89166326D01*
X126206549Y-89153450D01*
X126193674Y-89150000D01*
X124726326Y-89150000D01*
X124713450Y-89153450D01*
X124710000Y-89166326D01*
X124710000Y-89983674D01*
X124210000Y-89983674D01*
X124210000Y-89166326D01*
X124206549Y-89153450D01*
X124193674Y-89150000D01*
X122726326Y-89150000D01*
X122713450Y-89153450D01*
X122710000Y-89166326D01*
X122710000Y-89544518D01*
X107850000Y-89544518D01*
X107850000Y-88633674D01*
X122710000Y-88633674D01*
X122713450Y-88646549D01*
X122726326Y-88650000D01*
X124193674Y-88650000D01*
X124206549Y-88646549D01*
X124210000Y-88633674D01*
X124710000Y-88633674D01*
X124713450Y-88646549D01*
X124726326Y-88650000D01*
X126193674Y-88650000D01*
X126206549Y-88646549D01*
X126210000Y-88633674D01*
X135210000Y-88633674D01*
X135213450Y-88646549D01*
X135226326Y-88650000D01*
X136693674Y-88650000D01*
X136706549Y-88646549D01*
X136710000Y-88633674D01*
X137210000Y-88633674D01*
X137213450Y-88646549D01*
X137226326Y-88650000D01*
X138693674Y-88650000D01*
X138706549Y-88646549D01*
X138710000Y-88633674D01*
X138710000Y-88255482D01*
X138709646Y-88248885D01*
X138704426Y-88200332D01*
X138700888Y-88185358D01*
X138656452Y-88066222D01*
X138648037Y-88050810D01*
X138572501Y-87949907D01*
X138560092Y-87937498D01*
X138459189Y-87861962D01*
X138443777Y-87853547D01*
X138324641Y-87809111D01*
X138309667Y-87805573D01*
X138261114Y-87800353D01*
X138254518Y-87800000D01*
X137226326Y-87800000D01*
X137213450Y-87803450D01*
X137210000Y-87816326D01*
X137210000Y-88633674D01*
X136710000Y-88633674D01*
X136710000Y-87816326D01*
X136706549Y-87803450D01*
X136693674Y-87800000D01*
X135665482Y-87800000D01*
X135658885Y-87800353D01*
X135610332Y-87805573D01*
X135595358Y-87809111D01*
X135476222Y-87853547D01*
X135460810Y-87861962D01*
X135359907Y-87937498D01*
X135347498Y-87949907D01*
X135271962Y-88050810D01*
X135263547Y-88066222D01*
X135219111Y-88185358D01*
X135215573Y-88200332D01*
X135210353Y-88248885D01*
X135210000Y-88255482D01*
X135210000Y-88633674D01*
X126210000Y-88633674D01*
X126210000Y-88255482D01*
X126209646Y-88248885D01*
X126204426Y-88200332D01*
X126200888Y-88185358D01*
X126156452Y-88066222D01*
X126148037Y-88050810D01*
X126072501Y-87949907D01*
X126060092Y-87937498D01*
X125959189Y-87861962D01*
X125943777Y-87853547D01*
X125824641Y-87809111D01*
X125809667Y-87805573D01*
X125761114Y-87800353D01*
X125754518Y-87800000D01*
X124726326Y-87800000D01*
X124713450Y-87803450D01*
X124710000Y-87816326D01*
X124710000Y-88633674D01*
X124210000Y-88633674D01*
X124210000Y-87816326D01*
X124206549Y-87803450D01*
X124193674Y-87800000D01*
X123165482Y-87800000D01*
X123158885Y-87800353D01*
X123110332Y-87805573D01*
X123095358Y-87809111D01*
X122976222Y-87853547D01*
X122960810Y-87861962D01*
X122859907Y-87937498D01*
X122847498Y-87949907D01*
X122771962Y-88050810D01*
X122763547Y-88066222D01*
X122719111Y-88185358D01*
X122715573Y-88200332D01*
X122710353Y-88248885D01*
X122710000Y-88255482D01*
X122710000Y-88633674D01*
X107850000Y-88633674D01*
X107850000Y-80010000D01*
X113564645Y-80010000D01*
X113564961Y-80014418D01*
X113583722Y-80276737D01*
X113583723Y-80276746D01*
X113584039Y-80281160D01*
X113584979Y-80285485D01*
X113584981Y-80285493D01*
X113594565Y-80329550D01*
X113641825Y-80546801D01*
X113643369Y-80550940D01*
X113643370Y-80550944D01*
X113721157Y-80759500D01*
X113736828Y-80801513D01*
X113738948Y-80805395D01*
X113738951Y-80805402D01*
X113864986Y-81036219D01*
X113864990Y-81036226D01*
X113867113Y-81040113D01*
X114030029Y-81257742D01*
X114222258Y-81449971D01*
X114439887Y-81612887D01*
X114678487Y-81743172D01*
X114933199Y-81838175D01*
X115198840Y-81895961D01*
X115470000Y-81915355D01*
X115741160Y-81895961D01*
X116006801Y-81838175D01*
X116261513Y-81743172D01*
X116500113Y-81612887D01*
X116717742Y-81449971D01*
X116909971Y-81257742D01*
X117072887Y-81040113D01*
X117203172Y-80801513D01*
X117235004Y-80716166D01*
X117261444Y-80673930D01*
X117302374Y-80645512D01*
X117351187Y-80635500D01*
X122585500Y-80635500D01*
X122647500Y-80652113D01*
X122692887Y-80697500D01*
X122709500Y-80759500D01*
X122709500Y-81924560D01*
X122709500Y-81924578D01*
X122709501Y-81927872D01*
X122709853Y-81931150D01*
X122709854Y-81931161D01*
X122715079Y-81979768D01*
X122715080Y-81979773D01*
X122715909Y-81987483D01*
X122718619Y-81994749D01*
X122718620Y-81994753D01*
X122752217Y-82084831D01*
X122766204Y-82122331D01*
X122852454Y-82237546D01*
X122967669Y-82323796D01*
X123102517Y-82374091D01*
X123162127Y-82380500D01*
X125757872Y-82380499D01*
X125817483Y-82374091D01*
X125952331Y-82323796D01*
X126067546Y-82237546D01*
X126153796Y-82122331D01*
X126204091Y-81987483D01*
X126206140Y-81988247D01*
X126224033Y-81951693D01*
X126267068Y-81917643D01*
X126320584Y-81905500D01*
X135099416Y-81905500D01*
X135152932Y-81917643D01*
X135195967Y-81951693D01*
X135213859Y-81988247D01*
X135215909Y-81987483D01*
X135266204Y-82122331D01*
X135352454Y-82237546D01*
X135467669Y-82323796D01*
X135602517Y-82374091D01*
X135662127Y-82380500D01*
X138257872Y-82380499D01*
X138317483Y-82374091D01*
X138452331Y-82323796D01*
X138567546Y-82237546D01*
X138653796Y-82122331D01*
X138704091Y-81987483D01*
X138710500Y-81927873D01*
X138710499Y-80632128D01*
X138704091Y-80572517D01*
X138653796Y-80437669D01*
X138567546Y-80322454D01*
X138512384Y-80281160D01*
X138459431Y-80241519D01*
X138459430Y-80241518D01*
X138452331Y-80236204D01*
X138317483Y-80185909D01*
X138309770Y-80185079D01*
X138309767Y-80185079D01*
X138261180Y-80179855D01*
X138261169Y-80179854D01*
X138257873Y-80179500D01*
X138254550Y-80179500D01*
X135665439Y-80179500D01*
X135665420Y-80179500D01*
X135662128Y-80179501D01*
X135658850Y-80179853D01*
X135658838Y-80179854D01*
X135610231Y-80185079D01*
X135610225Y-80185080D01*
X135602517Y-80185909D01*
X135595252Y-80188618D01*
X135595246Y-80188620D01*
X135475980Y-80233104D01*
X135475978Y-80233104D01*
X135467669Y-80236204D01*
X135460572Y-80241516D01*
X135460568Y-80241519D01*
X135359550Y-80317141D01*
X135359546Y-80317144D01*
X135352454Y-80322454D01*
X135347144Y-80329546D01*
X135347141Y-80329550D01*
X135271519Y-80430568D01*
X135271516Y-80430572D01*
X135266204Y-80437669D01*
X135263104Y-80445978D01*
X135263104Y-80445980D01*
X135215909Y-80572517D01*
X135213859Y-80571752D01*
X135195967Y-80608307D01*
X135152932Y-80642357D01*
X135099416Y-80654500D01*
X126320584Y-80654500D01*
X126267068Y-80642357D01*
X126224033Y-80608307D01*
X126206140Y-80571752D01*
X126204091Y-80572517D01*
X126153796Y-80437669D01*
X126067546Y-80322454D01*
X126012384Y-80281160D01*
X125959431Y-80241519D01*
X125959430Y-80241518D01*
X125952331Y-80236204D01*
X125817483Y-80185909D01*
X125809770Y-80185079D01*
X125809767Y-80185079D01*
X125761180Y-80179855D01*
X125761169Y-80179854D01*
X125757873Y-80179500D01*
X125754551Y-80179500D01*
X124295453Y-80179500D01*
X124248000Y-80170061D01*
X124207772Y-80143181D01*
X123687286Y-79622695D01*
X123679842Y-79614514D01*
X123675786Y-79608123D01*
X123626775Y-79562098D01*
X123623978Y-79559387D01*
X123607227Y-79542636D01*
X123607226Y-79542635D01*
X123604471Y-79539880D01*
X123601290Y-79537412D01*
X123592414Y-79529830D01*
X123566269Y-79505278D01*
X123566267Y-79505276D01*
X123560582Y-79499938D01*
X123553749Y-79496182D01*
X123553743Y-79496177D01*
X123543025Y-79490285D01*
X123526766Y-79479606D01*
X123517095Y-79472104D01*
X123517092Y-79472102D01*
X123510936Y-79467327D01*
X123503779Y-79464229D01*
X123503776Y-79464228D01*
X123470849Y-79449978D01*
X123460363Y-79444841D01*
X123428932Y-79427562D01*
X123428923Y-79427558D01*
X123422092Y-79423803D01*
X123414535Y-79421862D01*
X123414531Y-79421861D01*
X123402688Y-79418820D01*
X123384284Y-79412519D01*
X123373057Y-79407660D01*
X123373050Y-79407658D01*
X123365896Y-79404562D01*
X123358192Y-79403341D01*
X123358190Y-79403341D01*
X123322759Y-79397729D01*
X123311324Y-79395361D01*
X123276571Y-79386438D01*
X123276563Y-79386437D01*
X123269019Y-79384500D01*
X123261223Y-79384500D01*
X123248983Y-79384500D01*
X123229597Y-79382974D01*
X123209804Y-79379840D01*
X123202038Y-79380574D01*
X123202035Y-79380574D01*
X123166324Y-79383950D01*
X123154655Y-79384500D01*
X117351187Y-79384500D01*
X117302374Y-79374488D01*
X117261444Y-79346070D01*
X117235005Y-79303834D01*
X117233114Y-79298766D01*
X117203172Y-79218487D01*
X117072887Y-78979887D01*
X116909971Y-78762258D01*
X116717742Y-78570029D01*
X116500113Y-78407113D01*
X116496226Y-78404990D01*
X116496219Y-78404986D01*
X116265402Y-78278951D01*
X116265395Y-78278948D01*
X116261513Y-78276828D01*
X116257369Y-78275282D01*
X116257364Y-78275280D01*
X116010944Y-78183370D01*
X116010940Y-78183369D01*
X116006801Y-78181825D01*
X115980843Y-78176178D01*
X115745493Y-78124981D01*
X115745485Y-78124979D01*
X115741160Y-78124039D01*
X115736746Y-78123723D01*
X115736737Y-78123722D01*
X115474418Y-78104961D01*
X115470000Y-78104645D01*
X115465582Y-78104961D01*
X115203262Y-78123722D01*
X115203251Y-78123723D01*
X115198840Y-78124039D01*
X115194516Y-78124979D01*
X115194506Y-78124981D01*
X114937524Y-78180884D01*
X114937521Y-78180884D01*
X114933199Y-78181825D01*
X114929063Y-78183367D01*
X114929055Y-78183370D01*
X114682635Y-78275280D01*
X114682624Y-78275284D01*
X114678487Y-78276828D01*
X114674609Y-78278945D01*
X114674597Y-78278951D01*
X114443780Y-78404986D01*
X114443766Y-78404994D01*
X114439887Y-78407113D01*
X114436341Y-78409766D01*
X114436337Y-78409770D01*
X114225801Y-78567376D01*
X114225794Y-78567381D01*
X114222258Y-78570029D01*
X114219132Y-78573154D01*
X114219125Y-78573161D01*
X114033161Y-78759125D01*
X114033154Y-78759132D01*
X114030029Y-78762258D01*
X114027381Y-78765794D01*
X114027376Y-78765801D01*
X113869770Y-78976337D01*
X113869766Y-78976341D01*
X113867113Y-78979887D01*
X113864994Y-78983766D01*
X113864986Y-78983780D01*
X113738951Y-79214597D01*
X113738945Y-79214609D01*
X113736828Y-79218487D01*
X113735284Y-79222624D01*
X113735280Y-79222635D01*
X113643370Y-79469055D01*
X113643367Y-79469063D01*
X113641825Y-79473199D01*
X113640884Y-79477521D01*
X113640884Y-79477524D01*
X113584981Y-79734506D01*
X113584979Y-79734516D01*
X113584039Y-79738840D01*
X113583723Y-79743251D01*
X113583722Y-79743262D01*
X113565321Y-80000541D01*
X113564645Y-80010000D01*
X107850000Y-80010000D01*
X107850000Y-75654500D01*
X107866613Y-75592500D01*
X107912000Y-75547113D01*
X107974000Y-75530500D01*
X142685500Y-75530500D01*
X142747500Y-75547113D01*
G37*
%TD.AperFunction*%
%TD*%
M02*
