  0
SECTION
  2
HEADER
  9
$ANGBASE
  50
0.0
  9
$ANGDIR
  70
1
  9
$MEASUREMENT
  70
1
  0
ENDSEC
  0
SECTION
  2
TABLES
  0
TABLE
  2
LTYPE
  70
4
  0
LTYPE
  5
40F
  2
CONTINUOUS
  70
0
  3
Solid line
  72
65
  73
0
  40
0.0
  0
LTYPE
  5
410
  2
DASHDOT
 70
0
  3
Dash Dot ____ _ ____ _
 72
65
 73
4
 40
2.0
 49
1.25
 49
-0.25
 49
0.25
 49
-0.25
  0
LTYPE
  5
411
  2
DASHED
 70
0
  3
Dashed __ __ __ __ __
 72
65
 73
2
 40
0.75
 49
0.5
 49
-0.25
  0
LTYPE
  5
43B
  2
DOTTED
 70
0
  3
Dotted .  .  .  .
 72
65
 73
2
 40
0.2
 49
0.0
 49
-0.2
  0
ENDTAB
  0
TABLE
  2
STYLE
  70
4
  0
STYLE
  2
KICAD
  70
0
  40
0
  41
1
  42
1
  50
0
  71
0
  3
isocp.shx
  0
STYLE
  2
KICADB
  70
0
  40
0
  41
1
  42
1
  50
0
  71
0
  3
isocp.shx
  0
STYLE
  2
KICADI
  70
0
  40
0
  41
1
  42
1
  50
15
  71
0
  3
isocp.shx
  0
STYLE
  2
KICADBI
  70
0
  40
0
  41
1
  42
1
  50
15
  71
0
  3
isocp.shx
  0
ENDTAB
  0
TABLE
  2
LAYER
  70
1
  0
LAYER
  2
BLACK
  70
0
  62
7
  6
CONTINUOUS
  0
ENDTAB
  0
ENDSEC
  0
SECTION
  2
ENTITIES
0
LINE
8
BLACK
6
CONTINUOUS
10
76.28
20
-41.785
11
86.28
21
-41.785
0
LINE
8
BLACK
6
CONTINUOUS
10
86.28
20
-41.785
11
86.28
21
-41.31
0
LINE
8
BLACK
6
CONTINUOUS
10
86.28
20
-41.31
11
88.78
21
-41.31
0
LINE
8
BLACK
6
CONTINUOUS
10
88.78
20
-41.31
11
88.78
21
-42.51
0
LINE
8
BLACK
6
CONTINUOUS
10
88.78
20
-42.51
11
86.28
21
-42.51
0
LINE
8
BLACK
6
CONTINUOUS
10
86.28
20
-42.51
11
86.28
21
-42.035
0
LINE
8
BLACK
6
CONTINUOUS
10
86.28
20
-42.035
11
76.28
21
-42.035
0
LINE
8
BLACK
6
CONTINUOUS
10
76.28
20
-42.035
11
76.28
21
-42.51
0
LINE
8
BLACK
6
CONTINUOUS
10
76.28
20
-42.51
11
74.6068
21
-42.51
0
LINE
8
BLACK
6
CONTINUOUS
10
74.6068
20
-42.51
11
73.8484
21
-43.2684
0
LINE
8
BLACK
6
CONTINUOUS
10
73.8484
20
-43.2684
11
73.8305
21
-43.2818
0
LINE
8
BLACK
6
CONTINUOUS
10
73.8305
20
-43.2818
11
73.8276
21
-43.2852
0
LINE
8
BLACK
6
CONTINUOUS
10
73.8276
20
-43.2852
11
73.825
21
-43.2859
0
LINE
8
BLACK
6
CONTINUOUS
10
73.825
20
-43.2859
11
73.8199
21
-43.2897
0
LINE
8
BLACK
6
CONTINUOUS
10
73.8199
20
-43.2897
11
73.7897
21
-43.2963
0
LINE
8
BLACK
6
CONTINUOUS
10
73.7897
20
-43.2963
11
73.76
21
-43.305
0
LINE
8
BLACK
6
CONTINUOUS
10
73.76
20
-43.305
11
67.4296
21
-43.305
0
LINE
8
BLACK
6
CONTINUOUS
10
67.4296
20
-43.305
11
67.4209
21
-43.4104
0
LINE
8
BLACK
6
CONTINUOUS
10
67.4209
20
-43.4104
11
67.3641
21
-43.6346
0
LINE
8
BLACK
6
CONTINUOUS
10
67.3641
20
-43.6346
11
67.2713
21
-43.8463
0
LINE
8
BLACK
6
CONTINUOUS
10
67.2713
20
-43.8463
11
67.1448
21
-44.0399
0
LINE
8
BLACK
6
CONTINUOUS
10
67.1448
20
-44.0399
11
66.9882
21
-44.21
0
LINE
8
BLACK
6
CONTINUOUS
10
66.9882
20
-44.21
11
66.8057
21
-44.352
0
LINE
8
BLACK
6
CONTINUOUS
10
66.8057
20
-44.352
11
66.6024
21
-44.4621
0
LINE
8
BLACK
6
CONTINUOUS
10
66.6024
20
-44.4621
11
66.3837
21
-44.5372
0
LINE
8
BLACK
6
CONTINUOUS
10
66.3837
20
-44.5372
11
66.1556
21
-44.5752
0
LINE
8
BLACK
6
CONTINUOUS
10
66.1556
20
-44.5752
11
65.9244
21
-44.5752
0
LINE
8
BLACK
6
CONTINUOUS
10
65.9244
20
-44.5752
11
65.6963
21
-44.5372
0
LINE
8
BLACK
6
CONTINUOUS
10
65.6963
20
-44.5372
11
65.4776
21
-44.4621
0
LINE
8
BLACK
6
CONTINUOUS
10
65.4776
20
-44.4621
11
65.2743
21
-44.352
0
LINE
8
BLACK
6
CONTINUOUS
10
65.2743
20
-44.352
11
65.0918
21
-44.21
0
LINE
8
BLACK
6
CONTINUOUS
10
65.0918
20
-44.21
11
64.9352
21
-44.0399
0
LINE
8
BLACK
6
CONTINUOUS
10
64.9352
20
-44.0399
11
64.8087
21
-43.8463
0
LINE
8
BLACK
6
CONTINUOUS
10
64.8087
20
-43.8463
11
64.7159
21
-43.6346
0
LINE
8
BLACK
6
CONTINUOUS
10
64.7159
20
-43.6346
11
64.6591
21
-43.4104
0
LINE
8
BLACK
6
CONTINUOUS
10
64.6591
20
-43.4104
11
64.64
21
-43.18
0
LINE
8
BLACK
6
CONTINUOUS
10
64.64
20
-43.18
11
64.6591
21
-42.9496
0
LINE
8
BLACK
6
CONTINUOUS
10
64.6591
20
-42.9496
11
64.7159
21
-42.7254
0
LINE
8
BLACK
6
CONTINUOUS
10
64.7159
20
-42.7254
11
64.8087
21
-42.5137
0
LINE
8
BLACK
6
CONTINUOUS
10
64.8087
20
-42.5137
11
64.9352
21
-42.3201
0
LINE
8
BLACK
6
CONTINUOUS
10
64.9352
20
-42.3201
11
65.0918
21
-42.15
0
LINE
8
BLACK
6
CONTINUOUS
10
65.0918
20
-42.15
11
65.2743
21
-42.008
0
LINE
8
BLACK
6
CONTINUOUS
10
65.2743
20
-42.008
11
65.4776
21
-41.8979
0
LINE
8
BLACK
6
CONTINUOUS
10
65.4776
20
-41.8979
11
65.6963
21
-41.8228
0
LINE
8
BLACK
6
CONTINUOUS
10
65.6963
20
-41.8228
11
65.9244
21
-41.7848
0
LINE
8
BLACK
6
CONTINUOUS
10
65.9244
20
-41.7848
11
66.1556
21
-41.7848
0
LINE
8
BLACK
6
CONTINUOUS
10
66.1556
20
-41.7848
11
66.3837
21
-41.8228
0
LINE
8
BLACK
6
CONTINUOUS
10
66.3837
20
-41.8228
11
66.6024
21
-41.8979
0
LINE
8
BLACK
6
CONTINUOUS
10
66.6024
20
-41.8979
11
66.8057
21
-42.008
0
LINE
8
BLACK
6
CONTINUOUS
10
66.8057
20
-42.008
11
66.9882
21
-42.15
0
LINE
8
BLACK
6
CONTINUOUS
10
66.9882
20
-42.15
11
67.1448
21
-42.3201
0
LINE
8
BLACK
6
CONTINUOUS
10
67.1448
20
-42.3201
11
67.2713
21
-42.5137
0
LINE
8
BLACK
6
CONTINUOUS
10
67.2713
20
-42.5137
11
67.3641
21
-42.7254
0
LINE
8
BLACK
6
CONTINUOUS
10
67.3641
20
-42.7254
11
67.4209
21
-42.9496
0
LINE
8
BLACK
6
CONTINUOUS
10
67.4209
20
-42.9496
11
67.4296
21
-43.055
0
LINE
8
BLACK
6
CONTINUOUS
10
67.4296
20
-43.055
11
73.7082
21
-43.055
0
LINE
8
BLACK
6
CONTINUOUS
10
73.7082
20
-43.055
11
74.2532
21
-42.51
0
LINE
8
BLACK
6
CONTINUOUS
10
74.2532
20
-42.51
11
73.78
21
-42.51
0
LINE
8
BLACK
6
CONTINUOUS
10
73.78
20
-42.51
11
73.78
21
-41.31
0
LINE
8
BLACK
6
CONTINUOUS
10
73.78
20
-41.31
11
76.28
21
-41.31
0
LINE
8
BLACK
6
CONTINUOUS
10
76.28
20
-41.31
11
76.28
21
-41.785
0
LINE
8
BLACK
6
CONTINUOUS
10
66.3837
20
-16.4228
11
66.6024
21
-16.4979
0
LINE
8
BLACK
6
CONTINUOUS
10
66.6024
20
-16.4979
11
66.8057
21
-16.608
0
LINE
8
BLACK
6
CONTINUOUS
10
66.8057
20
-16.608
11
66.9882
21
-16.75
0
LINE
8
BLACK
6
CONTINUOUS
10
66.9882
20
-16.75
11
67.1448
21
-16.9201
0
LINE
8
BLACK
6
CONTINUOUS
10
67.1448
20
-16.9201
11
67.2713
21
-17.1137
0
LINE
8
BLACK
6
CONTINUOUS
10
67.2713
20
-17.1137
11
67.3641
21
-17.3254
0
LINE
8
BLACK
6
CONTINUOUS
10
67.3641
20
-17.3254
11
67.4209
21
-17.5496
0
LINE
8
BLACK
6
CONTINUOUS
10
67.4209
20
-17.5496
11
67.4296
21
-17.655
0
LINE
8
BLACK
6
CONTINUOUS
10
67.4296
20
-17.655
11
73.76
21
-17.655
0
LINE
8
BLACK
6
CONTINUOUS
10
73.76
20
-17.655
11
73.7821
21
-17.6582
0
LINE
8
BLACK
6
CONTINUOUS
10
73.7821
20
-17.6582
11
73.7866
21
-17.6579
0
LINE
8
BLACK
6
CONTINUOUS
10
73.7866
20
-17.6579
11
73.789
21
-17.6592
0
LINE
8
BLACK
6
CONTINUOUS
10
73.789
20
-17.6592
11
73.7952
21
-17.6601
0
LINE
8
BLACK
6
CONTINUOUS
10
73.7952
20
-17.6601
11
73.8212
21
-17.6768
0
LINE
8
BLACK
6
CONTINUOUS
10
73.8212
20
-17.6768
11
73.8484
21
-17.6916
0
LINE
8
BLACK
6
CONTINUOUS
10
73.8484
20
-17.6916
11
74.6068
21
-18.45
0
LINE
8
BLACK
6
CONTINUOUS
10
74.6068
20
-18.45
11
76.28
21
-18.45
0
LINE
8
BLACK
6
CONTINUOUS
10
76.28
20
-18.45
11
76.28
21
-18.925
0
LINE
8
BLACK
6
CONTINUOUS
10
76.28
20
-18.925
11
86.28
21
-18.925
0
LINE
8
BLACK
6
CONTINUOUS
10
86.28
20
-18.925
11
86.28
21
-18.45
0
LINE
8
BLACK
6
CONTINUOUS
10
86.28
20
-18.45
11
88.78
21
-18.45
0
LINE
8
BLACK
6
CONTINUOUS
10
88.78
20
-18.45
11
88.78
21
-19.65
0
LINE
8
BLACK
6
CONTINUOUS
10
88.78
20
-19.65
11
86.28
21
-19.65
0
LINE
8
BLACK
6
CONTINUOUS
10
86.28
20
-19.65
11
86.28
21
-19.175
0
LINE
8
BLACK
6
CONTINUOUS
10
86.28
20
-19.175
11
76.28
21
-19.175
0
LINE
8
BLACK
6
CONTINUOUS
10
76.28
20
-19.175
11
76.28
21
-19.65
0
LINE
8
BLACK
6
CONTINUOUS
10
76.28
20
-19.65
11
73.78
21
-19.65
0
LINE
8
BLACK
6
CONTINUOUS
10
73.78
20
-19.65
11
73.78
21
-18.45
0
LINE
8
BLACK
6
CONTINUOUS
10
73.78
20
-18.45
11
74.2532
21
-18.45
0
LINE
8
BLACK
6
CONTINUOUS
10
74.2532
20
-18.45
11
73.7082
21
-17.905
0
LINE
8
BLACK
6
CONTINUOUS
10
73.7082
20
-17.905
11
67.4296
21
-17.905
0
LINE
8
BLACK
6
CONTINUOUS
10
67.4296
20
-17.905
11
67.4209
21
-18.0104
0
LINE
8
BLACK
6
CONTINUOUS
10
67.4209
20
-18.0104
11
67.3641
21
-18.2346
0
LINE
8
BLACK
6
CONTINUOUS
10
67.3641
20
-18.2346
11
67.2713
21
-18.4463
0
LINE
8
BLACK
6
CONTINUOUS
10
67.2713
20
-18.4463
11
67.1448
21
-18.6399
0
LINE
8
BLACK
6
CONTINUOUS
10
67.1448
20
-18.6399
11
66.9882
21
-18.81
0
LINE
8
BLACK
6
CONTINUOUS
10
66.9882
20
-18.81
11
66.8057
21
-18.952
0
LINE
8
BLACK
6
CONTINUOUS
10
66.8057
20
-18.952
11
66.6024
21
-19.0621
0
LINE
8
BLACK
6
CONTINUOUS
10
66.6024
20
-19.0621
11
66.3837
21
-19.1372
0
LINE
8
BLACK
6
CONTINUOUS
10
66.3837
20
-19.1372
11
66.1556
21
-19.1752
0
LINE
8
BLACK
6
CONTINUOUS
10
66.1556
20
-19.1752
11
65.9244
21
-19.1752
0
LINE
8
BLACK
6
CONTINUOUS
10
65.9244
20
-19.1752
11
65.6963
21
-19.1372
0
LINE
8
BLACK
6
CONTINUOUS
10
65.6963
20
-19.1372
11
65.4776
21
-19.0621
0
LINE
8
BLACK
6
CONTINUOUS
10
65.4776
20
-19.0621
11
65.2743
21
-18.952
0
LINE
8
BLACK
6
CONTINUOUS
10
65.2743
20
-18.952
11
65.0918
21
-18.81
0
LINE
8
BLACK
6
CONTINUOUS
10
65.0918
20
-18.81
11
64.9352
21
-18.6399
0
LINE
8
BLACK
6
CONTINUOUS
10
64.9352
20
-18.6399
11
64.8087
21
-18.4463
0
LINE
8
BLACK
6
CONTINUOUS
10
64.8087
20
-18.4463
11
64.7159
21
-18.2346
0
LINE
8
BLACK
6
CONTINUOUS
10
64.7159
20
-18.2346
11
64.6591
21
-18.0104
0
LINE
8
BLACK
6
CONTINUOUS
10
64.6591
20
-18.0104
11
64.64
21
-17.78
0
LINE
8
BLACK
6
CONTINUOUS
10
64.64
20
-17.78
11
64.6591
21
-17.5496
0
LINE
8
BLACK
6
CONTINUOUS
10
64.6591
20
-17.5496
11
64.7159
21
-17.3254
0
LINE
8
BLACK
6
CONTINUOUS
10
64.7159
20
-17.3254
11
64.8087
21
-17.1137
0
LINE
8
BLACK
6
CONTINUOUS
10
64.8087
20
-17.1137
11
64.9352
21
-16.9201
0
LINE
8
BLACK
6
CONTINUOUS
10
64.9352
20
-16.9201
11
65.0918
21
-16.75
0
LINE
8
BLACK
6
CONTINUOUS
10
65.0918
20
-16.75
11
65.2743
21
-16.608
0
LINE
8
BLACK
6
CONTINUOUS
10
65.2743
20
-16.608
11
65.4776
21
-16.4979
0
LINE
8
BLACK
6
CONTINUOUS
10
65.4776
20
-16.4979
11
65.6963
21
-16.4228
0
LINE
8
BLACK
6
CONTINUOUS
10
65.6963
20
-16.4228
11
65.9244
21
-16.3848
0
LINE
8
BLACK
6
CONTINUOUS
10
65.9244
20
-16.3848
11
66.1556
21
-16.3848
0
LINE
8
BLACK
6
CONTINUOUS
10
66.1556
20
-16.3848
11
66.3837
21
-16.4228
0
LINE
8
BLACK
6
CONTINUOUS
10
58.42
20
-17.78
11
58.42
21
-12.824
0
LINE
8
BLACK
6
CONTINUOUS
10
58.42
20
-12.824
11
58.4366
21
-12.762
0
LINE
8
BLACK
6
CONTINUOUS
10
58.4366
20
-12.762
11
58.482
21
-12.7166
0
LINE
8
BLACK
6
CONTINUOUS
10
58.482
20
-12.7166
11
58.544
21
-12.7
0
LINE
8
BLACK
6
CONTINUOUS
10
58.544
20
-12.7
11
93.856
21
-12.7
0
LINE
8
BLACK
6
CONTINUOUS
10
93.856
20
-12.7
11
93.918
21
-12.7166
0
LINE
8
BLACK
6
CONTINUOUS
10
93.918
20
-12.7166
11
93.9634
21
-12.762
0
LINE
8
BLACK
6
CONTINUOUS
10
93.9634
20
-12.762
11
93.98
21
-12.824
0
LINE
8
BLACK
6
CONTINUOUS
10
93.98
20
-12.824
11
93.98
21
-50.676
0
LINE
8
BLACK
6
CONTINUOUS
10
93.98
20
-50.676
11
93.9634
21
-50.738
0
LINE
8
BLACK
6
CONTINUOUS
10
93.9634
20
-50.738
11
93.918
21
-50.7834
0
LINE
8
BLACK
6
CONTINUOUS
10
93.918
20
-50.7834
11
93.856
21
-50.8
0
LINE
8
BLACK
6
CONTINUOUS
10
93.856
20
-50.8
11
58.544
21
-50.8
0
LINE
8
BLACK
6
CONTINUOUS
10
58.544
20
-50.8
11
58.482
21
-50.7834
0
LINE
8
BLACK
6
CONTINUOUS
10
58.482
20
-50.7834
11
58.4366
21
-50.738
0
LINE
8
BLACK
6
CONTINUOUS
10
58.4366
20
-50.738
11
58.42
21
-50.676
0
LINE
8
BLACK
6
CONTINUOUS
10
58.42
20
-50.676
11
58.42
21
-43.18
0
LINE
8
BLACK
6
CONTINUOUS
10
58.42
20
-43.18
11
58.42
21
-34.9345
0
LINE
8
BLACK
6
CONTINUOUS
10
58.42
20
-34.9345
11
58.42
21
-34.0237
0
LINE
8
BLACK
6
CONTINUOUS
10
58.42
20
-34.0237
11
58.42
21
-33.004
0
LINE
8
BLACK
6
CONTINUOUS
10
58.42
20
-33.004
11
58.4366
21
-32.942
0
LINE
8
BLACK
6
CONTINUOUS
10
58.4366
20
-32.942
11
58.482
21
-32.8966
0
LINE
8
BLACK
6
CONTINUOUS
10
58.482
20
-32.8966
11
58.544
21
-32.88
0
LINE
8
BLACK
6
CONTINUOUS
10
58.544
20
-32.88
11
60.2845
21
-32.88
0
LINE
8
BLACK
6
CONTINUOUS
10
60.2845
20
-32.88
11
60.2911
21
-32.8796
0
LINE
8
BLACK
6
CONTINUOUS
10
60.2911
20
-32.8796
11
60.3397
21
-32.8744
0
LINE
8
BLACK
6
CONTINUOUS
10
60.3397
20
-32.8744
11
60.3546
21
-32.8709
0
LINE
8
BLACK
6
CONTINUOUS
10
60.3546
20
-32.8709
11
60.4738
21
-32.8265
0
LINE
8
BLACK
6
CONTINUOUS
10
60.4738
20
-32.8265
11
60.4892
21
-32.818
0
LINE
8
BLACK
6
CONTINUOUS
10
60.4892
20
-32.818
11
60.5901
21
-32.7425
0
LINE
8
BLACK
6
CONTINUOUS
10
60.5901
20
-32.7425
11
60.6025
21
-32.7301
0
LINE
8
BLACK
6
CONTINUOUS
10
60.6025
20
-32.7301
11
60.678
21
-32.6292
0
LINE
8
BLACK
6
CONTINUOUS
10
60.678
20
-32.6292
11
60.6865
21
-32.6138
0
LINE
8
BLACK
6
CONTINUOUS
10
60.6865
20
-32.6138
11
60.7309
21
-32.4946
0
LINE
8
BLACK
6
CONTINUOUS
10
60.7309
20
-32.4946
11
60.7344
21
-32.4797
0
LINE
8
BLACK
6
CONTINUOUS
10
60.7344
20
-32.4797
11
60.7396
21
-32.4311
0
LINE
8
BLACK
6
CONTINUOUS
10
60.7396
20
-32.4311
11
60.74
21
-32.4245
0
LINE
8
BLACK
6
CONTINUOUS
10
60.74
20
-32.4245
11
60.74
21
-30.7463
0
LINE
8
BLACK
6
CONTINUOUS
10
60.74
20
-30.7463
11
60.7365
21
-30.7334
0
LINE
8
BLACK
6
CONTINUOUS
10
60.7365
20
-30.7334
11
60.7237
21
-30.73
0
LINE
8
BLACK
6
CONTINUOUS
10
60.7237
20
-30.73
11
60.24
21
-30.73
0
LINE
8
BLACK
6
CONTINUOUS
10
60.24
20
-30.73
11
60.24
21
-32.38
0
LINE
8
BLACK
6
CONTINUOUS
10
60.24
20
-32.38
11
56.44
21
-32.38
0
LINE
8
BLACK
6
CONTINUOUS
10
56.44
20
-32.38
11
56.44
21
-28.58
0
LINE
8
BLACK
6
CONTINUOUS
10
56.44
20
-28.58
11
60.24
21
-28.58
0
LINE
8
BLACK
6
CONTINUOUS
10
60.24
20
-28.58
11
60.24
21
-30.23
0
LINE
8
BLACK
6
CONTINUOUS
10
60.24
20
-30.23
11
60.7237
21
-30.23
0
LINE
8
BLACK
6
CONTINUOUS
10
60.7237
20
-30.23
11
60.7365
21
-30.2265
0
LINE
8
BLACK
6
CONTINUOUS
10
60.7365
20
-30.2265
11
60.74
21
-30.2137
0
LINE
8
BLACK
6
CONTINUOUS
10
60.74
20
-30.2137
11
60.74
21
-28.5355
0
LINE
8
BLACK
6
CONTINUOUS
10
60.74
20
-28.5355
11
60.7396
21
-28.5289
0
LINE
8
BLACK
6
CONTINUOUS
10
60.7396
20
-28.5289
11
60.7344
21
-28.4803
0
LINE
8
BLACK
6
CONTINUOUS
10
60.7344
20
-28.4803
11
60.7309
21
-28.4654
0
LINE
8
BLACK
6
CONTINUOUS
10
60.7309
20
-28.4654
11
60.6865
21
-28.3462
0
LINE
8
BLACK
6
CONTINUOUS
10
60.6865
20
-28.3462
11
60.678
21
-28.3308
0
LINE
8
BLACK
6
CONTINUOUS
10
60.678
20
-28.3308
11
60.6025
21
-28.2299
0
LINE
8
BLACK
6
CONTINUOUS
10
60.6025
20
-28.2299
11
60.5901
21
-28.2175
0
LINE
8
BLACK
6
CONTINUOUS
10
60.5901
20
-28.2175
11
60.4892
21
-28.142
0
LINE
8
BLACK
6
CONTINUOUS
10
60.4892
20
-28.142
11
60.4738
21
-28.1335
0
LINE
8
BLACK
6
CONTINUOUS
10
60.4738
20
-28.1335
11
60.3546
21
-28.0891
0
LINE
8
BLACK
6
CONTINUOUS
10
60.3546
20
-28.0891
11
60.3397
21
-28.0856
0
LINE
8
BLACK
6
CONTINUOUS
10
60.3397
20
-28.0856
11
60.2911
21
-28.0804
0
LINE
8
BLACK
6
CONTINUOUS
10
60.2911
20
-28.0804
11
60.2845
21
-28.08
0
LINE
8
BLACK
6
CONTINUOUS
10
60.2845
20
-28.08
11
58.544
21
-28.08
0
LINE
8
BLACK
6
CONTINUOUS
10
58.544
20
-28.08
11
58.482
21
-28.0634
0
LINE
8
BLACK
6
CONTINUOUS
10
58.482
20
-28.0634
11
58.4366
21
-28.018
0
LINE
8
BLACK
6
CONTINUOUS
10
58.4366
20
-28.018
11
58.42
21
-27.956
0
LINE
8
BLACK
6
CONTINUOUS
10
58.42
20
-27.956
11
58.42
21
-27.3145
0
LINE
8
BLACK
6
CONTINUOUS
10
58.42
20
-27.3145
11
58.42
21
-26.4037
0
LINE
8
BLACK
6
CONTINUOUS
10
58.42
20
-26.4037
11
58.42
21
-17.78
0
LINE
8
BLACK
6
CONTINUOUS
10
64.1346
20
-43.18
11
64.135
21
-43.1844
0
LINE
8
BLACK
6
CONTINUOUS
10
64.135
20
-43.1844
11
64.1537
21
-43.4467
0
LINE
8
BLACK
6
CONTINUOUS
10
64.1537
20
-43.4467
11
64.1537
21
-43.4467
0
LINE
8
BLACK
6
CONTINUOUS
10
64.1537
20
-43.4467
11
64.154
21
-43.4512
0
LINE
8
BLACK
6
CONTINUOUS
10
64.154
20
-43.4512
11
64.155
21
-43.4555
0
LINE
8
BLACK
6
CONTINUOUS
10
64.155
20
-43.4555
11
64.155
21
-43.4555
0
LINE
8
BLACK
6
CONTINUOUS
10
64.155
20
-43.4555
11
64.2034
21
-43.6782
0
LINE
8
BLACK
6
CONTINUOUS
10
64.2034
20
-43.6782
11
64.2118
21
-43.7168
0
LINE
8
BLACK
6
CONTINUOUS
10
64.2118
20
-43.7168
11
64.2134
21
-43.7209
0
LINE
8
BLACK
6
CONTINUOUS
10
64.2134
20
-43.7209
11
64.2134
21
-43.7209
0
LINE
8
BLACK
6
CONTINUOUS
10
64.2134
20
-43.7209
11
64.2592
21
-43.8439
0
LINE
8
BLACK
6
CONTINUOUS
10
64.2592
20
-43.8439
11
64.3068
21
-43.9715
0
LINE
8
BLACK
6
CONTINUOUS
10
64.3068
20
-43.9715
11
64.3089
21
-43.9754
0
LINE
8
BLACK
6
CONTINUOUS
10
64.3089
20
-43.9754
11
64.309
21
-43.9754
0
LINE
8
BLACK
6
CONTINUOUS
10
64.309
20
-43.9754
11
64.435
21
-44.2062
0
LINE
8
BLACK
6
CONTINUOUS
10
64.435
20
-44.2062
11
64.435
21
-44.2062
0
LINE
8
BLACK
6
CONTINUOUS
10
64.435
20
-44.2062
11
64.4371
21
-44.2101
0
LINE
8
BLACK
6
CONTINUOUS
10
64.4371
20
-44.2101
11
64.6
21
-44.4277
0
LINE
8
BLACK
6
CONTINUOUS
10
64.6
20
-44.4277
11
64.7923
21
-44.62
0
LINE
8
BLACK
6
CONTINUOUS
10
64.7923
20
-44.62
11
65.0099
21
-44.7829
0
LINE
8
BLACK
6
CONTINUOUS
10
65.0099
20
-44.7829
11
65.2485
21
-44.9132
0
LINE
8
BLACK
6
CONTINUOUS
10
65.2485
20
-44.9132
11
65.5032
21
-45.0082
0
LINE
8
BLACK
6
CONTINUOUS
10
65.5032
20
-45.0082
11
65.7688
21
-45.066
0
LINE
8
BLACK
6
CONTINUOUS
10
65.7688
20
-45.066
11
66.04
21
-45.0854
0
LINE
8
BLACK
6
CONTINUOUS
10
66.04
20
-45.0854
11
66.3112
21
-45.066
0
LINE
8
BLACK
6
CONTINUOUS
10
66.3112
20
-45.066
11
66.5768
21
-45.0082
0
LINE
8
BLACK
6
CONTINUOUS
10
66.5768
20
-45.0082
11
66.8315
21
-44.9132
0
LINE
8
BLACK
6
CONTINUOUS
10
66.8315
20
-44.9132
11
67.0701
21
-44.7829
0
LINE
8
BLACK
6
CONTINUOUS
10
67.0701
20
-44.7829
11
67.2877
21
-44.62
0
LINE
8
BLACK
6
CONTINUOUS
10
67.2877
20
-44.62
11
67.48
21
-44.4277
0
LINE
8
BLACK
6
CONTINUOUS
10
67.48
20
-44.4277
11
67.6429
21
-44.2101
0
LINE
8
BLACK
6
CONTINUOUS
10
67.6429
20
-44.2101
11
67.7732
21
-43.9715
0
LINE
8
BLACK
6
CONTINUOUS
10
67.7732
20
-43.9715
11
67.805
21
-43.8862
0
LINE
8
BLACK
6
CONTINUOUS
10
67.805
20
-43.8862
11
67.8314
21
-43.8439
0
LINE
8
BLACK
6
CONTINUOUS
10
67.8314
20
-43.8439
11
67.8724
21
-43.8155
0
LINE
8
BLACK
6
CONTINUOUS
10
67.8724
20
-43.8155
11
67.9212
21
-43.8055
0
LINE
8
BLACK
6
CONTINUOUS
10
67.9212
20
-43.8055
11
73.6822
21
-43.8055
0
LINE
8
BLACK
6
CONTINUOUS
10
73.6822
20
-43.8055
11
73.6933
21
-43.806
0
LINE
8
BLACK
6
CONTINUOUS
10
73.6933
20
-43.806
11
73.7007
21
-43.8077
0
LINE
8
BLACK
6
CONTINUOUS
10
73.7007
20
-43.8077
11
73.7679
21
-43.8056
0
LINE
8
BLACK
6
CONTINUOUS
10
73.7679
20
-43.8056
11
73.7718
21
-43.8055
0
LINE
8
BLACK
6
CONTINUOUS
10
73.7718
20
-43.8055
11
73.7954
21
-43.8055
0
LINE
8
BLACK
6
CONTINUOUS
10
73.7954
20
-43.8055
11
73.7993
21
-43.8055
0
LINE
8
BLACK
6
CONTINUOUS
10
73.7993
20
-43.8055
11
73.8033
21
-43.805
0
LINE
8
BLACK
6
CONTINUOUS
10
73.8033
20
-43.805
11
73.815
21
-43.8041
0
LINE
8
BLACK
6
CONTINUOUS
10
73.815
20
-43.8041
11
73.8586
21
-43.8027
0
LINE
8
BLACK
6
CONTINUOUS
10
73.8586
20
-43.8027
11
73.8779
21
-43.7971
0
LINE
8
BLACK
6
CONTINUOUS
10
73.8779
20
-43.7971
11
73.8969
21
-43.7932
0
LINE
8
BLACK
6
CONTINUOUS
10
73.8969
20
-43.7932
11
73.9168
21
-43.7907
0
LINE
8
BLACK
6
CONTINUOUS
10
73.9168
20
-43.7907
11
73.9574
21
-43.7746
0
LINE
8
BLACK
6
CONTINUOUS
10
73.9574
20
-43.7746
11
73.9684
21
-43.7708
0
LINE
8
BLACK
6
CONTINUOUS
10
73.9684
20
-43.7708
11
74.0104
21
-43.7586
0
LINE
8
BLACK
6
CONTINUOUS
10
74.0104
20
-43.7586
11
74.0276
21
-43.7484
0
LINE
8
BLACK
6
CONTINUOUS
10
74.0276
20
-43.7484
11
74.0451
21
-43.7399
0
LINE
8
BLACK
6
CONTINUOUS
10
74.0451
20
-43.7399
11
74.0565
21
-43.7354
0
LINE
8
BLACK
6
CONTINUOUS
10
74.0565
20
-43.7354
11
74.0565
21
-43.7354
0
LINE
8
BLACK
6
CONTINUOUS
10
74.0565
20
-43.7354
11
74.0637
21
-43.7325
0
LINE
8
BLACK
6
CONTINUOUS
10
74.0637
20
-43.7325
11
74.0991
21
-43.7068
0
LINE
8
BLACK
6
CONTINUOUS
10
74.0991
20
-43.7068
11
74.1088
21
-43.7004
0
LINE
8
BLACK
6
CONTINUOUS
10
74.1088
20
-43.7004
11
74.1464
21
-43.6782
0
LINE
8
BLACK
6
CONTINUOUS
10
74.1464
20
-43.6782
11
74.1606
21
-43.664
0
LINE
8
BLACK
6
CONTINUOUS
10
74.1606
20
-43.664
11
74.1754
21
-43.6514
0
LINE
8
BLACK
6
CONTINUOUS
10
74.1754
20
-43.6514
11
74.1916
21
-43.6396
0
LINE
8
BLACK
6
CONTINUOUS
10
74.1916
20
-43.6396
11
74.2194
21
-43.6059
0
LINE
8
BLACK
6
CONTINUOUS
10
74.2194
20
-43.6059
11
74.2273
21
-43.5973
0
LINE
8
BLACK
6
CONTINUOUS
10
74.2273
20
-43.5973
11
74.7778
21
-43.0468
0
LINE
8
BLACK
6
CONTINUOUS
10
74.7778
20
-43.0468
11
74.818
21
-43.0199
0
LINE
8
BLACK
6
CONTINUOUS
10
74.818
20
-43.0199
11
74.8655
21
-43.0105
0
LINE
8
BLACK
6
CONTINUOUS
10
74.8655
20
-43.0105
11
76.3246
21
-43.0105
0
LINE
8
BLACK
6
CONTINUOUS
10
76.3246
20
-43.0105
11
76.3279
21
-43.0105
0
LINE
8
BLACK
6
CONTINUOUS
10
76.3279
20
-43.0105
11
76.3875
21
-43.0041
0
LINE
8
BLACK
6
CONTINUOUS
10
76.3875
20
-43.0041
11
76.5223
21
-42.9538
0
LINE
8
BLACK
6
CONTINUOUS
10
76.5223
20
-42.9538
11
76.6375
21
-42.8675
0
LINE
8
BLACK
6
CONTINUOUS
10
76.6375
20
-42.8675
11
76.7238
21
-42.7523
0
LINE
8
BLACK
6
CONTINUOUS
10
76.7238
20
-42.7523
11
76.7741
21
-42.6175
0
LINE
8
BLACK
6
CONTINUOUS
10
76.7741
20
-42.6175
11
76.7761
21
-42.6182
0
LINE
8
BLACK
6
CONTINUOUS
10
76.7761
20
-42.6182
11
76.794
21
-42.5817
0
LINE
8
BLACK
6
CONTINUOUS
10
76.794
20
-42.5817
11
76.8371
21
-42.5476
0
LINE
8
BLACK
6
CONTINUOUS
10
76.8371
20
-42.5476
11
76.8906
21
-42.5355
0
LINE
8
BLACK
6
CONTINUOUS
10
76.8906
20
-42.5355
11
85.6694
21
-42.5355
0
LINE
8
BLACK
6
CONTINUOUS
10
85.6694
20
-42.5355
11
85.7229
21
-42.5476
0
LINE
8
BLACK
6
CONTINUOUS
10
85.7229
20
-42.5476
11
85.766
21
-42.5817
0
LINE
8
BLACK
6
CONTINUOUS
10
85.766
20
-42.5817
11
85.7839
21
-42.6182
0
LINE
8
BLACK
6
CONTINUOUS
10
85.7839
20
-42.6182
11
85.7859
21
-42.6175
0
LINE
8
BLACK
6
CONTINUOUS
10
85.7859
20
-42.6175
11
85.8362
21
-42.7523
0
LINE
8
BLACK
6
CONTINUOUS
10
85.8362
20
-42.7523
11
85.9225
21
-42.8675
0
LINE
8
BLACK
6
CONTINUOUS
10
85.9225
20
-42.8675
11
86.0377
21
-42.9538
0
LINE
8
BLACK
6
CONTINUOUS
10
86.0377
20
-42.9538
11
86.1725
21
-43.0041
0
LINE
8
BLACK
6
CONTINUOUS
10
86.1725
20
-43.0041
11
86.2321
21
-43.0105
0
LINE
8
BLACK
6
CONTINUOUS
10
86.2321
20
-43.0105
11
88.8279
21
-43.0105
0
LINE
8
BLACK
6
CONTINUOUS
10
88.8279
20
-43.0105
11
88.8875
21
-43.0041
0
LINE
8
BLACK
6
CONTINUOUS
10
88.8875
20
-43.0041
11
89.0223
21
-42.9538
0
LINE
8
BLACK
6
CONTINUOUS
10
89.0223
20
-42.9538
11
89.1375
21
-42.8675
0
LINE
8
BLACK
6
CONTINUOUS
10
89.1375
20
-42.8675
11
89.2238
21
-42.7523
0
LINE
8
BLACK
6
CONTINUOUS
10
89.2238
20
-42.7523
11
89.2741
21
-42.6175
0
LINE
8
BLACK
6
CONTINUOUS
10
89.2741
20
-42.6175
11
89.2805
21
-42.5579
0
LINE
8
BLACK
6
CONTINUOUS
10
89.2805
20
-42.5579
11
89.2805
21
-41.2621
0
LINE
8
BLACK
6
CONTINUOUS
10
89.2805
20
-41.2621
11
89.2741
21
-41.2025
0
LINE
8
BLACK
6
CONTINUOUS
10
89.2741
20
-41.2025
11
89.2238
21
-41.0677
0
LINE
8
BLACK
6
CONTINUOUS
10
89.2238
20
-41.0677
11
89.1375
21
-40.9525
0
LINE
8
BLACK
6
CONTINUOUS
10
89.1375
20
-40.9525
11
89.0223
21
-40.8662
0
LINE
8
BLACK
6
CONTINUOUS
10
89.0223
20
-40.8662
11
88.8875
21
-40.8159
0
LINE
8
BLACK
6
CONTINUOUS
10
88.8875
20
-40.8159
11
88.8798
21
-40.8151
0
LINE
8
BLACK
6
CONTINUOUS
10
88.8798
20
-40.8151
11
88.8798
21
-40.8151
0
LINE
8
BLACK
6
CONTINUOUS
10
88.8798
20
-40.8151
11
88.8312
21
-40.8099
0
LINE
8
BLACK
6
CONTINUOUS
10
88.8312
20
-40.8099
11
88.8312
21
-40.8099
0
LINE
8
BLACK
6
CONTINUOUS
10
88.8312
20
-40.8099
11
88.8279
21
-40.8095
0
LINE
8
BLACK
6
CONTINUOUS
10
88.8279
20
-40.8095
11
88.8246
21
-40.8095
0
LINE
8
BLACK
6
CONTINUOUS
10
88.8246
20
-40.8095
11
86.2354
21
-40.8095
0
LINE
8
BLACK
6
CONTINUOUS
10
86.2354
20
-40.8095
11
86.2354
21
-40.8095
0
LINE
8
BLACK
6
CONTINUOUS
10
86.2354
20
-40.8095
11
86.2321
21
-40.8095
0
LINE
8
BLACK
6
CONTINUOUS
10
86.2321
20
-40.8095
11
86.2288
21
-40.8099
0
LINE
8
BLACK
6
CONTINUOUS
10
86.2288
20
-40.8099
11
86.2288
21
-40.8099
0
LINE
8
BLACK
6
CONTINUOUS
10
86.2288
20
-40.8099
11
86.1802
21
-40.8151
0
LINE
8
BLACK
6
CONTINUOUS
10
86.1802
20
-40.8151
11
86.1802
21
-40.8151
0
LINE
8
BLACK
6
CONTINUOUS
10
86.1802
20
-40.8151
11
86.1725
21
-40.8159
0
LINE
8
BLACK
6
CONTINUOUS
10
86.1725
20
-40.8159
11
86.1653
21
-40.8186
0
LINE
8
BLACK
6
CONTINUOUS
10
86.1653
20
-40.8186
11
86.1652
21
-40.8186
0
LINE
8
BLACK
6
CONTINUOUS
10
86.1652
20
-40.8186
11
86.046
21
-40.8631
0
LINE
8
BLACK
6
CONTINUOUS
10
86.046
20
-40.8631
11
86.046
21
-40.8631
0
LINE
8
BLACK
6
CONTINUOUS
10
86.046
20
-40.8631
11
86.0377
21
-40.8662
0
LINE
8
BLACK
6
CONTINUOUS
10
86.0377
20
-40.8662
11
86.0306
21
-40.8715
0
LINE
8
BLACK
6
CONTINUOUS
10
86.0306
20
-40.8715
11
86.0306
21
-40.8715
0
LINE
8
BLACK
6
CONTINUOUS
10
86.0306
20
-40.8715
11
85.9295
21
-40.9471
0
LINE
8
BLACK
6
CONTINUOUS
10
85.9295
20
-40.9471
11
85.9295
21
-40.9471
0
LINE
8
BLACK
6
CONTINUOUS
10
85.9295
20
-40.9471
11
85.9225
21
-40.9525
0
LINE
8
BLACK
6
CONTINUOUS
10
85.9225
20
-40.9525
11
85.9171
21
-40.9595
0
LINE
8
BLACK
6
CONTINUOUS
10
85.9171
20
-40.9595
11
85.9171
21
-40.9596
0
LINE
8
BLACK
6
CONTINUOUS
10
85.9171
20
-40.9596
11
85.8415
21
-41.0606
0
LINE
8
BLACK
6
CONTINUOUS
10
85.8415
20
-41.0606
11
85.8415
21
-41.0606
0
LINE
8
BLACK
6
CONTINUOUS
10
85.8415
20
-41.0606
11
85.8362
21
-41.0677
0
LINE
8
BLACK
6
CONTINUOUS
10
85.8362
20
-41.0677
11
85.8331
21
-41.076
0
LINE
8
BLACK
6
CONTINUOUS
10
85.8331
20
-41.076
11
85.8331
21
-41.076
0
LINE
8
BLACK
6
CONTINUOUS
10
85.8331
20
-41.076
11
85.7859
21
-41.2025
0
LINE
8
BLACK
6
CONTINUOUS
10
85.7859
20
-41.2025
11
85.7839
21
-41.2018
0
LINE
8
BLACK
6
CONTINUOUS
10
85.7839
20
-41.2018
11
85.766
21
-41.2383
0
LINE
8
BLACK
6
CONTINUOUS
10
85.766
20
-41.2383
11
85.7229
21
-41.2724
0
LINE
8
BLACK
6
CONTINUOUS
10
85.7229
20
-41.2724
11
85.6694
21
-41.2845
0
LINE
8
BLACK
6
CONTINUOUS
10
85.6694
20
-41.2845
11
76.8906
21
-41.2845
0
LINE
8
BLACK
6
CONTINUOUS
10
76.8906
20
-41.2845
11
76.8371
21
-41.2724
0
LINE
8
BLACK
6
CONTINUOUS
10
76.8371
20
-41.2724
11
76.794
21
-41.2383
0
LINE
8
BLACK
6
CONTINUOUS
10
76.794
20
-41.2383
11
76.7761
21
-41.2018
0
LINE
8
BLACK
6
CONTINUOUS
10
76.7761
20
-41.2018
11
76.7741
21
-41.2025
0
LINE
8
BLACK
6
CONTINUOUS
10
76.7741
20
-41.2025
11
76.7238
21
-41.0677
0
LINE
8
BLACK
6
CONTINUOUS
10
76.7238
20
-41.0677
11
76.6375
21
-40.9525
0
LINE
8
BLACK
6
CONTINUOUS
10
76.6375
20
-40.9525
11
76.5223
21
-40.8662
0
LINE
8
BLACK
6
CONTINUOUS
10
76.5223
20
-40.8662
11
76.3875
21
-40.8159
0
LINE
8
BLACK
6
CONTINUOUS
10
76.3875
20
-40.8159
11
76.3798
21
-40.8151
0
LINE
8
BLACK
6
CONTINUOUS
10
76.3798
20
-40.8151
11
76.3798
21
-40.8151
0
LINE
8
BLACK
6
CONTINUOUS
10
76.3798
20
-40.8151
11
76.3312
21
-40.8099
0
LINE
8
BLACK
6
CONTINUOUS
10
76.3312
20
-40.8099
11
76.3312
21
-40.8099
0
LINE
8
BLACK
6
CONTINUOUS
10
76.3312
20
-40.8099
11
76.3279
21
-40.8095
0
LINE
8
BLACK
6
CONTINUOUS
10
76.3279
20
-40.8095
11
76.3246
21
-40.8095
0
LINE
8
BLACK
6
CONTINUOUS
10
76.3246
20
-40.8095
11
73.7354
21
-40.8095
0
LINE
8
BLACK
6
CONTINUOUS
10
73.7354
20
-40.8095
11
73.7354
21
-40.8095
0
LINE
8
BLACK
6
CONTINUOUS
10
73.7354
20
-40.8095
11
73.7321
21
-40.8095
0
LINE
8
BLACK
6
CONTINUOUS
10
73.7321
20
-40.8095
11
73.7288
21
-40.8099
0
LINE
8
BLACK
6
CONTINUOUS
10
73.7288
20
-40.8099
11
73.7288
21
-40.8099
0
LINE
8
BLACK
6
CONTINUOUS
10
73.7288
20
-40.8099
11
73.6802
21
-40.8151
0
LINE
8
BLACK
6
CONTINUOUS
10
73.6802
20
-40.8151
11
73.6802
21
-40.8151
0
LINE
8
BLACK
6
CONTINUOUS
10
73.6802
20
-40.8151
11
73.6725
21
-40.8159
0
LINE
8
BLACK
6
CONTINUOUS
10
73.6725
20
-40.8159
11
73.6653
21
-40.8186
0
LINE
8
BLACK
6
CONTINUOUS
10
73.6653
20
-40.8186
11
73.6652
21
-40.8186
0
LINE
8
BLACK
6
CONTINUOUS
10
73.6652
20
-40.8186
11
73.546
21
-40.8631
0
LINE
8
BLACK
6
CONTINUOUS
10
73.546
20
-40.8631
11
73.546
21
-40.8631
0
LINE
8
BLACK
6
CONTINUOUS
10
73.546
20
-40.8631
11
73.5377
21
-40.8662
0
LINE
8
BLACK
6
CONTINUOUS
10
73.5377
20
-40.8662
11
73.5306
21
-40.8715
0
LINE
8
BLACK
6
CONTINUOUS
10
73.5306
20
-40.8715
11
73.5306
21
-40.8715
0
LINE
8
BLACK
6
CONTINUOUS
10
73.5306
20
-40.8715
11
73.4295
21
-40.9471
0
LINE
8
BLACK
6
CONTINUOUS
10
73.4295
20
-40.9471
11
73.4295
21
-40.9471
0
LINE
8
BLACK
6
CONTINUOUS
10
73.4295
20
-40.9471
11
73.4225
21
-40.9525
0
LINE
8
BLACK
6
CONTINUOUS
10
73.4225
20
-40.9525
11
73.4171
21
-40.9595
0
LINE
8
BLACK
6
CONTINUOUS
10
73.4171
20
-40.9595
11
73.4171
21
-40.9596
0
LINE
8
BLACK
6
CONTINUOUS
10
73.4171
20
-40.9596
11
73.3415
21
-41.0606
0
LINE
8
BLACK
6
CONTINUOUS
10
73.3415
20
-41.0606
11
73.3415
21
-41.0606
0
LINE
8
BLACK
6
CONTINUOUS
10
73.3415
20
-41.0606
11
73.3362
21
-41.0677
0
LINE
8
BLACK
6
CONTINUOUS
10
73.3362
20
-41.0677
11
73.3331
21
-41.076
0
LINE
8
BLACK
6
CONTINUOUS
10
73.3331
20
-41.076
11
73.3331
21
-41.076
0
LINE
8
BLACK
6
CONTINUOUS
10
73.3331
20
-41.076
11
73.2886
21
-41.1952
0
LINE
8
BLACK
6
CONTINUOUS
10
73.2886
20
-41.1952
11
73.2886
21
-41.1953
0
LINE
8
BLACK
6
CONTINUOUS
10
73.2886
20
-41.1953
11
73.2859
21
-41.2025
0
LINE
8
BLACK
6
CONTINUOUS
10
73.2859
20
-41.2025
11
73.2851
21
-41.2102
0
LINE
8
BLACK
6
CONTINUOUS
10
73.2851
20
-41.2102
11
73.2851
21
-41.2102
0
LINE
8
BLACK
6
CONTINUOUS
10
73.2851
20
-41.2102
11
73.2799
21
-41.2588
0
LINE
8
BLACK
6
CONTINUOUS
10
73.2799
20
-41.2588
11
73.2799
21
-41.2588
0
LINE
8
BLACK
6
CONTINUOUS
10
73.2799
20
-41.2588
11
73.2795
21
-41.2621
0
LINE
8
BLACK
6
CONTINUOUS
10
73.2795
20
-41.2621
11
73.2795
21
-41.2654
0
LINE
8
BLACK
6
CONTINUOUS
10
73.2795
20
-41.2654
11
73.2795
21
-41.2654
0
LINE
8
BLACK
6
CONTINUOUS
10
73.2795
20
-41.2654
11
73.2795
21
-42.4305
0
LINE
8
BLACK
6
CONTINUOUS
10
73.2795
20
-42.4305
11
73.2629
21
-42.4925
0
LINE
8
BLACK
6
CONTINUOUS
10
73.2629
20
-42.4925
11
73.2175
21
-42.5379
0
LINE
8
BLACK
6
CONTINUOUS
10
73.2175
20
-42.5379
11
73.1555
21
-42.5545
0
LINE
8
BLACK
6
CONTINUOUS
10
73.1555
20
-42.5545
11
67.9212
21
-42.5545
0
LINE
8
BLACK
6
CONTINUOUS
10
67.9212
20
-42.5545
11
67.8724
21
-42.5445
0
LINE
8
BLACK
6
CONTINUOUS
10
67.8724
20
-42.5445
11
67.8314
21
-42.5161
0
LINE
8
BLACK
6
CONTINUOUS
10
67.8314
20
-42.5161
11
67.805
21
-42.4738
0
LINE
8
BLACK
6
CONTINUOUS
10
67.805
20
-42.4738
11
67.7888
21
-42.4305
0
LINE
8
BLACK
6
CONTINUOUS
10
67.7888
20
-42.4305
11
67.7732
21
-42.3885
0
LINE
8
BLACK
6
CONTINUOUS
10
67.7732
20
-42.3885
11
67.6429
21
-42.1499
0
LINE
8
BLACK
6
CONTINUOUS
10
67.6429
20
-42.1499
11
67.48
21
-41.9323
0
LINE
8
BLACK
6
CONTINUOUS
10
67.48
20
-41.9323
11
67.2877
21
-41.74
0
LINE
8
BLACK
6
CONTINUOUS
10
67.2877
20
-41.74
11
67.0701
21
-41.5771
0
LINE
8
BLACK
6
CONTINUOUS
10
67.0701
20
-41.5771
11
67.0662
21
-41.575
0
LINE
8
BLACK
6
CONTINUOUS
10
67.0662
20
-41.575
11
67.0662
21
-41.575
0
LINE
8
BLACK
6
CONTINUOUS
10
67.0662
20
-41.575
11
66.8354
21
-41.449
0
LINE
8
BLACK
6
CONTINUOUS
10
66.8354
20
-41.449
11
66.8354
21
-41.4489
0
LINE
8
BLACK
6
CONTINUOUS
10
66.8354
20
-41.4489
11
66.8315
21
-41.4468
0
LINE
8
BLACK
6
CONTINUOUS
10
66.8315
20
-41.4468
11
66.8274
21
-41.4453
0
LINE
8
BLACK
6
CONTINUOUS
10
66.8274
20
-41.4453
11
66.8274
21
-41.4453
0
LINE
8
BLACK
6
CONTINUOUS
10
66.8274
20
-41.4453
11
66.5809
21
-41.3534
0
LINE
8
BLACK
6
CONTINUOUS
10
66.5809
20
-41.3534
11
66.5809
21
-41.3534
0
LINE
8
BLACK
6
CONTINUOUS
10
66.5809
20
-41.3534
11
66.5768
21
-41.3518
0
LINE
8
BLACK
6
CONTINUOUS
10
66.5768
20
-41.3518
11
66.5508
21
-41.3462
0
LINE
8
BLACK
6
CONTINUOUS
10
66.5508
20
-41.3462
11
66.3155
21
-41.295
0
LINE
8
BLACK
6
CONTINUOUS
10
66.3155
20
-41.295
11
66.3155
21
-41.295
0
LINE
8
BLACK
6
CONTINUOUS
10
66.3155
20
-41.295
11
66.3112
21
-41.294
0
LINE
8
BLACK
6
CONTINUOUS
10
66.3112
20
-41.294
11
66.3067
21
-41.2937
0
LINE
8
BLACK
6
CONTINUOUS
10
66.3067
20
-41.2937
11
66.3067
21
-41.2937
0
LINE
8
BLACK
6
CONTINUOUS
10
66.3067
20
-41.2937
11
66.0444
21
-41.275
0
LINE
8
BLACK
6
CONTINUOUS
10
66.0444
20
-41.275
11
66.04
21
-41.2746
0
LINE
8
BLACK
6
CONTINUOUS
10
66.04
20
-41.2746
11
66.0356
21
-41.275
0
LINE
8
BLACK
6
CONTINUOUS
10
66.0356
20
-41.275
11
65.7733
21
-41.2937
0
LINE
8
BLACK
6
CONTINUOUS
10
65.7733
20
-41.2937
11
65.7733
21
-41.2937
0
LINE
8
BLACK
6
CONTINUOUS
10
65.7733
20
-41.2937
11
65.7688
21
-41.294
0
LINE
8
BLACK
6
CONTINUOUS
10
65.7688
20
-41.294
11
65.7645
21
-41.295
0
LINE
8
BLACK
6
CONTINUOUS
10
65.7645
20
-41.295
11
65.7645
21
-41.295
0
LINE
8
BLACK
6
CONTINUOUS
10
65.7645
20
-41.295
11
65.5075
21
-41.3509
0
LINE
8
BLACK
6
CONTINUOUS
10
65.5075
20
-41.3509
11
65.5075
21
-41.3509
0
LINE
8
BLACK
6
CONTINUOUS
10
65.5075
20
-41.3509
11
65.5032
21
-41.3518
0
LINE
8
BLACK
6
CONTINUOUS
10
65.5032
20
-41.3518
11
65.4991
21
-41.3534
0
LINE
8
BLACK
6
CONTINUOUS
10
65.4991
20
-41.3534
11
65.4991
21
-41.3534
0
LINE
8
BLACK
6
CONTINUOUS
10
65.4991
20
-41.3534
11
65.2526
21
-41.4453
0
LINE
8
BLACK
6
CONTINUOUS
10
65.2526
20
-41.4453
11
65.2526
21
-41.4453
0
LINE
8
BLACK
6
CONTINUOUS
10
65.2526
20
-41.4453
11
65.2485
21
-41.4468
0
LINE
8
BLACK
6
CONTINUOUS
10
65.2485
20
-41.4468
11
65.2446
21
-41.4489
0
LINE
8
BLACK
6
CONTINUOUS
10
65.2446
20
-41.4489
11
65.2446
21
-41.449
0
LINE
8
BLACK
6
CONTINUOUS
10
65.2446
20
-41.449
11
65.0138
21
-41.575
0
LINE
8
BLACK
6
CONTINUOUS
10
65.0138
20
-41.575
11
65.0138
21
-41.575
0
LINE
8
BLACK
6
CONTINUOUS
10
65.0138
20
-41.575
11
65.0099
21
-41.5771
0
LINE
8
BLACK
6
CONTINUOUS
10
65.0099
20
-41.5771
11
65.0063
21
-41.5798
0
LINE
8
BLACK
6
CONTINUOUS
10
65.0063
20
-41.5798
11
65.0063
21
-41.5798
0
LINE
8
BLACK
6
CONTINUOUS
10
65.0063
20
-41.5798
11
64.7958
21
-41.7374
0
LINE
8
BLACK
6
CONTINUOUS
10
64.7958
20
-41.7374
11
64.7958
21
-41.7374
0
LINE
8
BLACK
6
CONTINUOUS
10
64.7958
20
-41.7374
11
64.7923
21
-41.74
0
LINE
8
BLACK
6
CONTINUOUS
10
64.7923
20
-41.74
11
64.7891
21
-41.7432
0
LINE
8
BLACK
6
CONTINUOUS
10
64.7891
20
-41.7432
11
64.7891
21
-41.7432
0
LINE
8
BLACK
6
CONTINUOUS
10
64.7891
20
-41.7432
11
64.6032
21
-41.9291
0
LINE
8
BLACK
6
CONTINUOUS
10
64.6032
20
-41.9291
11
64.6032
21
-41.9291
0
LINE
8
BLACK
6
CONTINUOUS
10
64.6032
20
-41.9291
11
64.6
21
-41.9323
0
LINE
8
BLACK
6
CONTINUOUS
10
64.6
20
-41.9323
11
64.5974
21
-41.9358
0
LINE
8
BLACK
6
CONTINUOUS
10
64.5974
20
-41.9358
11
64.5974
21
-41.9358
0
LINE
8
BLACK
6
CONTINUOUS
10
64.5974
20
-41.9358
11
64.4398
21
-42.1463
0
LINE
8
BLACK
6
CONTINUOUS
10
64.4398
20
-42.1463
11
64.4398
21
-42.1463
0
LINE
8
BLACK
6
CONTINUOUS
10
64.4398
20
-42.1463
11
64.4371
21
-42.1499
0
LINE
8
BLACK
6
CONTINUOUS
10
64.4371
20
-42.1499
11
64.435
21
-42.1538
0
LINE
8
BLACK
6
CONTINUOUS
10
64.435
20
-42.1538
11
64.435
21
-42.1538
0
LINE
8
BLACK
6
CONTINUOUS
10
64.435
20
-42.1538
11
64.309
21
-42.3846
0
LINE
8
BLACK
6
CONTINUOUS
10
64.309
20
-42.3846
11
64.3089
21
-42.3846
0
LINE
8
BLACK
6
CONTINUOUS
10
64.3089
20
-42.3846
11
64.3068
21
-42.3885
0
LINE
8
BLACK
6
CONTINUOUS
10
64.3068
20
-42.3885
11
64.3053
21
-42.3926
0
LINE
8
BLACK
6
CONTINUOUS
10
64.3053
20
-42.3926
11
64.3053
21
-42.3926
0
LINE
8
BLACK
6
CONTINUOUS
10
64.3053
20
-42.3926
11
64.2134
21
-42.6391
0
LINE
8
BLACK
6
CONTINUOUS
10
64.2134
20
-42.6391
11
64.2134
21
-42.6391
0
LINE
8
BLACK
6
CONTINUOUS
10
64.2134
20
-42.6391
11
64.2118
21
-42.6432
0
LINE
8
BLACK
6
CONTINUOUS
10
64.2118
20
-42.6432
11
64.2109
21
-42.6475
0
LINE
8
BLACK
6
CONTINUOUS
10
64.2109
20
-42.6475
11
64.2109
21
-42.6475
0
LINE
8
BLACK
6
CONTINUOUS
10
64.2109
20
-42.6475
11
64.155
21
-42.9045
0
LINE
8
BLACK
6
CONTINUOUS
10
64.155
20
-42.9045
11
64.155
21
-42.9045
0
LINE
8
BLACK
6
CONTINUOUS
10
64.155
20
-42.9045
11
64.154
21
-42.9088
0
LINE
8
BLACK
6
CONTINUOUS
10
64.154
20
-42.9088
11
64.1537
21
-42.9133
0
LINE
8
BLACK
6
CONTINUOUS
10
64.1537
20
-42.9133
11
64.1537
21
-42.9133
0
LINE
8
BLACK
6
CONTINUOUS
10
64.1537
20
-42.9133
11
64.1468
21
-43.0101
0
LINE
8
BLACK
6
CONTINUOUS
10
64.1468
20
-43.0101
11
64.1346
21
-43.18
0
LINE
8
BLACK
6
CONTINUOUS
10
87.7835
20
-33.1934
11
87.78
21
-33.2063
0
LINE
8
BLACK
6
CONTINUOUS
10
87.78
20
-33.2063
11
87.78
21
-33.69
0
LINE
8
BLACK
6
CONTINUOUS
10
87.78
20
-33.69
11
88.78
21
-33.69
0
LINE
8
BLACK
6
CONTINUOUS
10
88.78
20
-33.69
11
88.78
21
-34.04
0
LINE
8
BLACK
6
CONTINUOUS
10
88.78
20
-34.04
11
89.2637
21
-34.04
0
LINE
8
BLACK
6
CONTINUOUS
10
89.2637
20
-34.04
11
89.2765
21
-34.0365
0
LINE
8
BLACK
6
CONTINUOUS
10
89.2765
20
-34.0365
11
89.28
21
-34.0237
0
LINE
8
BLACK
6
CONTINUOUS
10
89.28
20
-34.0237
11
89.28
21
-33.6455
0
LINE
8
BLACK
6
CONTINUOUS
10
89.28
20
-33.6455
11
89.2796
21
-33.6389
0
LINE
8
BLACK
6
CONTINUOUS
10
89.2796
20
-33.6389
11
89.2744
21
-33.5903
0
LINE
8
BLACK
6
CONTINUOUS
10
89.2744
20
-33.5903
11
89.2709
21
-33.5754
0
LINE
8
BLACK
6
CONTINUOUS
10
89.2709
20
-33.5754
11
89.2265
21
-33.4562
0
LINE
8
BLACK
6
CONTINUOUS
10
89.2265
20
-33.4562
11
89.218
21
-33.4408
0
LINE
8
BLACK
6
CONTINUOUS
10
89.218
20
-33.4408
11
89.1425
21
-33.3399
0
LINE
8
BLACK
6
CONTINUOUS
10
89.1425
20
-33.3399
11
89.1301
21
-33.3275
0
LINE
8
BLACK
6
CONTINUOUS
10
89.1301
20
-33.3275
11
89.0292
21
-33.252
0
LINE
8
BLACK
6
CONTINUOUS
10
89.0292
20
-33.252
11
89.0138
21
-33.2435
0
LINE
8
BLACK
6
CONTINUOUS
10
89.0138
20
-33.2435
11
88.8946
21
-33.1991
0
LINE
8
BLACK
6
CONTINUOUS
10
88.8946
20
-33.1991
11
88.8797
21
-33.1956
0
LINE
8
BLACK
6
CONTINUOUS
10
88.8797
20
-33.1956
11
88.8311
21
-33.1904
0
LINE
8
BLACK
6
CONTINUOUS
10
88.8311
20
-33.1904
11
88.8245
21
-33.19
0
LINE
8
BLACK
6
CONTINUOUS
10
88.8245
20
-33.19
11
87.7963
21
-33.19
0
LINE
8
BLACK
6
CONTINUOUS
10
87.7963
20
-33.19
11
87.7835
21
-33.1934
0
LINE
8
BLACK
6
CONTINUOUS
10
85.78
20
-34.0237
11
85.7835
21
-34.0365
0
LINE
8
BLACK
6
CONTINUOUS
10
85.7835
20
-34.0365
11
85.7963
21
-34.04
0
LINE
8
BLACK
6
CONTINUOUS
10
85.7963
20
-34.04
11
86.28
21
-34.04
0
LINE
8
BLACK
6
CONTINUOUS
10
86.28
20
-34.04
11
86.28
21
-33.69
0
LINE
8
BLACK
6
CONTINUOUS
10
86.28
20
-33.69
11
87.28
21
-33.69
0
LINE
8
BLACK
6
CONTINUOUS
10
87.28
20
-33.69
11
87.28
21
-33.2063
0
LINE
8
BLACK
6
CONTINUOUS
10
87.28
20
-33.2063
11
87.2765
21
-33.1934
0
LINE
8
BLACK
6
CONTINUOUS
10
87.2765
20
-33.1934
11
87.2637
21
-33.19
0
LINE
8
BLACK
6
CONTINUOUS
10
87.2637
20
-33.19
11
86.2355
21
-33.19
0
LINE
8
BLACK
6
CONTINUOUS
10
86.2355
20
-33.19
11
86.2289
21
-33.1904
0
LINE
8
BLACK
6
CONTINUOUS
10
86.2289
20
-33.1904
11
86.1803
21
-33.1956
0
LINE
8
BLACK
6
CONTINUOUS
10
86.1803
20
-33.1956
11
86.1654
21
-33.1991
0
LINE
8
BLACK
6
CONTINUOUS
10
86.1654
20
-33.1991
11
86.0462
21
-33.2435
0
LINE
8
BLACK
6
CONTINUOUS
10
86.0462
20
-33.2435
11
86.0308
21
-33.252
0
LINE
8
BLACK
6
CONTINUOUS
10
86.0308
20
-33.252
11
85.9299
21
-33.3275
0
LINE
8
BLACK
6
CONTINUOUS
10
85.9299
20
-33.3275
11
85.9175
21
-33.3399
0
LINE
8
BLACK
6
CONTINUOUS
10
85.9175
20
-33.3399
11
85.842
21
-33.4408
0
LINE
8
BLACK
6
CONTINUOUS
10
85.842
20
-33.4408
11
85.8335
21
-33.4562
0
LINE
8
BLACK
6
CONTINUOUS
10
85.8335
20
-33.4562
11
85.7891
21
-33.5754
0
LINE
8
BLACK
6
CONTINUOUS
10
85.7891
20
-33.5754
11
85.7856
21
-33.5903
0
LINE
8
BLACK
6
CONTINUOUS
10
85.7856
20
-33.5903
11
85.7804
21
-33.6389
0
LINE
8
BLACK
6
CONTINUOUS
10
85.7804
20
-33.6389
11
85.78
21
-33.6455
0
LINE
8
BLACK
6
CONTINUOUS
10
85.78
20
-33.6455
11
85.78
21
-34.0237
0
LINE
8
BLACK
6
CONTINUOUS
10
87.7835
20
-25.5734
11
87.78
21
-25.5863
0
LINE
8
BLACK
6
CONTINUOUS
10
87.78
20
-25.5863
11
87.78
21
-26.07
0
LINE
8
BLACK
6
CONTINUOUS
10
87.78
20
-26.07
11
88.78
21
-26.07
0
LINE
8
BLACK
6
CONTINUOUS
10
88.78
20
-26.07
11
88.78
21
-26.42
0
LINE
8
BLACK
6
CONTINUOUS
10
88.78
20
-26.42
11
89.2637
21
-26.42
0
LINE
8
BLACK
6
CONTINUOUS
10
89.2637
20
-26.42
11
89.2765
21
-26.4165
0
LINE
8
BLACK
6
CONTINUOUS
10
89.2765
20
-26.4165
11
89.28
21
-26.4037
0
LINE
8
BLACK
6
CONTINUOUS
10
89.28
20
-26.4037
11
89.28
21
-26.0255
0
LINE
8
BLACK
6
CONTINUOUS
10
89.28
20
-26.0255
11
89.2796
21
-26.0189
0
LINE
8
BLACK
6
CONTINUOUS
10
89.2796
20
-26.0189
11
89.2744
21
-25.9703
0
LINE
8
BLACK
6
CONTINUOUS
10
89.2744
20
-25.9703
11
89.2709
21
-25.9554
0
LINE
8
BLACK
6
CONTINUOUS
10
89.2709
20
-25.9554
11
89.2265
21
-25.8362
0
LINE
8
BLACK
6
CONTINUOUS
10
89.2265
20
-25.8362
11
89.218
21
-25.8208
0
LINE
8
BLACK
6
CONTINUOUS
10
89.218
20
-25.8208
11
89.1425
21
-25.7199
0
LINE
8
BLACK
6
CONTINUOUS
10
89.1425
20
-25.7199
11
89.1301
21
-25.7075
0
LINE
8
BLACK
6
CONTINUOUS
10
89.1301
20
-25.7075
11
89.0292
21
-25.632
0
LINE
8
BLACK
6
CONTINUOUS
10
89.0292
20
-25.632
11
89.0138
21
-25.6235
0
LINE
8
BLACK
6
CONTINUOUS
10
89.0138
20
-25.6235
11
88.8946
21
-25.5791
0
LINE
8
BLACK
6
CONTINUOUS
10
88.8946
20
-25.5791
11
88.8797
21
-25.5756
0
LINE
8
BLACK
6
CONTINUOUS
10
88.8797
20
-25.5756
11
88.8311
21
-25.5704
0
LINE
8
BLACK
6
CONTINUOUS
10
88.8311
20
-25.5704
11
88.8245
21
-25.57
0
LINE
8
BLACK
6
CONTINUOUS
10
88.8245
20
-25.57
11
87.7963
21
-25.57
0
LINE
8
BLACK
6
CONTINUOUS
10
87.7963
20
-25.57
11
87.7835
21
-25.5734
0
LINE
8
BLACK
6
CONTINUOUS
10
85.78
20
-26.4037
11
85.7835
21
-26.4165
0
LINE
8
BLACK
6
CONTINUOUS
10
85.7835
20
-26.4165
11
85.7963
21
-26.42
0
LINE
8
BLACK
6
CONTINUOUS
10
85.7963
20
-26.42
11
86.28
21
-26.42
0
LINE
8
BLACK
6
CONTINUOUS
10
86.28
20
-26.42
11
86.28
21
-26.07
0
LINE
8
BLACK
6
CONTINUOUS
10
86.28
20
-26.07
11
87.28
21
-26.07
0
LINE
8
BLACK
6
CONTINUOUS
10
87.28
20
-26.07
11
87.28
21
-25.5863
0
LINE
8
BLACK
6
CONTINUOUS
10
87.28
20
-25.5863
11
87.2765
21
-25.5734
0
LINE
8
BLACK
6
CONTINUOUS
10
87.2765
20
-25.5734
11
87.2637
21
-25.57
0
LINE
8
BLACK
6
CONTINUOUS
10
87.2637
20
-25.57
11
86.2355
21
-25.57
0
LINE
8
BLACK
6
CONTINUOUS
10
86.2355
20
-25.57
11
86.2289
21
-25.5704
0
LINE
8
BLACK
6
CONTINUOUS
10
86.2289
20
-25.5704
11
86.1803
21
-25.5756
0
LINE
8
BLACK
6
CONTINUOUS
10
86.1803
20
-25.5756
11
86.1654
21
-25.5791
0
LINE
8
BLACK
6
CONTINUOUS
10
86.1654
20
-25.5791
11
86.0462
21
-25.6235
0
LINE
8
BLACK
6
CONTINUOUS
10
86.0462
20
-25.6235
11
86.0308
21
-25.632
0
LINE
8
BLACK
6
CONTINUOUS
10
86.0308
20
-25.632
11
85.9299
21
-25.7075
0
LINE
8
BLACK
6
CONTINUOUS
10
85.9299
20
-25.7075
11
85.9175
21
-25.7199
0
LINE
8
BLACK
6
CONTINUOUS
10
85.9175
20
-25.7199
11
85.842
21
-25.8208
0
LINE
8
BLACK
6
CONTINUOUS
10
85.842
20
-25.8208
11
85.8335
21
-25.8362
0
LINE
8
BLACK
6
CONTINUOUS
10
85.8335
20
-25.8362
11
85.7891
21
-25.9554
0
LINE
8
BLACK
6
CONTINUOUS
10
85.7891
20
-25.9554
11
85.7856
21
-25.9703
0
LINE
8
BLACK
6
CONTINUOUS
10
85.7856
20
-25.9703
11
85.7804
21
-26.0189
0
LINE
8
BLACK
6
CONTINUOUS
10
85.7804
20
-26.0189
11
85.78
21
-26.0255
0
LINE
8
BLACK
6
CONTINUOUS
10
85.78
20
-26.0255
11
85.78
21
-26.4037
0
LINE
8
BLACK
6
CONTINUOUS
10
64.1346
20
-17.78
11
64.135
21
-17.7844
0
LINE
8
BLACK
6
CONTINUOUS
10
64.135
20
-17.7844
11
64.1537
21
-18.0467
0
LINE
8
BLACK
6
CONTINUOUS
10
64.1537
20
-18.0467
11
64.1537
21
-18.0467
0
LINE
8
BLACK
6
CONTINUOUS
10
64.1537
20
-18.0467
11
64.154
21
-18.0512
0
LINE
8
BLACK
6
CONTINUOUS
10
64.154
20
-18.0512
11
64.155
21
-18.0555
0
LINE
8
BLACK
6
CONTINUOUS
10
64.155
20
-18.0555
11
64.155
21
-18.0555
0
LINE
8
BLACK
6
CONTINUOUS
10
64.155
20
-18.0555
11
64.1646
21
-18.0996
0
LINE
8
BLACK
6
CONTINUOUS
10
64.1646
20
-18.0996
11
64.2118
21
-18.3168
0
LINE
8
BLACK
6
CONTINUOUS
10
64.2118
20
-18.3168
11
64.2134
21
-18.3209
0
LINE
8
BLACK
6
CONTINUOUS
10
64.2134
20
-18.3209
11
64.2134
21
-18.3209
0
LINE
8
BLACK
6
CONTINUOUS
10
64.2134
20
-18.3209
11
64.2912
21
-18.5295
0
LINE
8
BLACK
6
CONTINUOUS
10
64.2912
20
-18.5295
11
64.3068
21
-18.5715
0
LINE
8
BLACK
6
CONTINUOUS
10
64.3068
20
-18.5715
11
64.3089
21
-18.5754
0
LINE
8
BLACK
6
CONTINUOUS
10
64.3089
20
-18.5754
11
64.309
21
-18.5754
0
LINE
8
BLACK
6
CONTINUOUS
10
64.309
20
-18.5754
11
64.435
21
-18.8062
0
LINE
8
BLACK
6
CONTINUOUS
10
64.435
20
-18.8062
11
64.435
21
-18.8062
0
LINE
8
BLACK
6
CONTINUOUS
10
64.435
20
-18.8062
11
64.4371
21
-18.8101
0
LINE
8
BLACK
6
CONTINUOUS
10
64.4371
20
-18.8101
11
64.6
21
-19.0277
0
LINE
8
BLACK
6
CONTINUOUS
10
64.6
20
-19.0277
11
64.7923
21
-19.22
0
LINE
8
BLACK
6
CONTINUOUS
10
64.7923
20
-19.22
11
65.0099
21
-19.3829
0
LINE
8
BLACK
6
CONTINUOUS
10
65.0099
20
-19.3829
11
65.2485
21
-19.5132
0
LINE
8
BLACK
6
CONTINUOUS
10
65.2485
20
-19.5132
11
65.5032
21
-19.6082
0
LINE
8
BLACK
6
CONTINUOUS
10
65.5032
20
-19.6082
11
65.7688
21
-19.666
0
LINE
8
BLACK
6
CONTINUOUS
10
65.7688
20
-19.666
11
66.04
21
-19.6854
0
LINE
8
BLACK
6
CONTINUOUS
10
66.04
20
-19.6854
11
66.3112
21
-19.666
0
LINE
8
BLACK
6
CONTINUOUS
10
66.3112
20
-19.666
11
66.5768
21
-19.6082
0
LINE
8
BLACK
6
CONTINUOUS
10
66.5768
20
-19.6082
11
66.8315
21
-19.5132
0
LINE
8
BLACK
6
CONTINUOUS
10
66.8315
20
-19.5132
11
67.0701
21
-19.3829
0
LINE
8
BLACK
6
CONTINUOUS
10
67.0701
20
-19.3829
11
67.2877
21
-19.22
0
LINE
8
BLACK
6
CONTINUOUS
10
67.2877
20
-19.22
11
67.48
21
-19.0277
0
LINE
8
BLACK
6
CONTINUOUS
10
67.48
20
-19.0277
11
67.6429
21
-18.8101
0
LINE
8
BLACK
6
CONTINUOUS
10
67.6429
20
-18.8101
11
67.7732
21
-18.5715
0
LINE
8
BLACK
6
CONTINUOUS
10
67.7732
20
-18.5715
11
67.805
21
-18.4862
0
LINE
8
BLACK
6
CONTINUOUS
10
67.805
20
-18.4862
11
67.8314
21
-18.4439
0
LINE
8
BLACK
6
CONTINUOUS
10
67.8314
20
-18.4439
11
67.8724
21
-18.4155
0
LINE
8
BLACK
6
CONTINUOUS
10
67.8724
20
-18.4155
11
67.9212
21
-18.4055
0
LINE
8
BLACK
6
CONTINUOUS
10
67.9212
20
-18.4055
11
73.1555
21
-18.4055
0
LINE
8
BLACK
6
CONTINUOUS
10
73.1555
20
-18.4055
11
73.2175
21
-18.4221
0
LINE
8
BLACK
6
CONTINUOUS
10
73.2175
20
-18.4221
11
73.2629
21
-18.4675
0
LINE
8
BLACK
6
CONTINUOUS
10
73.2629
20
-18.4675
11
73.2795
21
-18.5295
0
LINE
8
BLACK
6
CONTINUOUS
10
73.2795
20
-18.5295
11
73.2795
21
-19.6946
0
LINE
8
BLACK
6
CONTINUOUS
10
73.2795
20
-19.6946
11
73.2795
21
-19.6946
0
LINE
8
BLACK
6
CONTINUOUS
10
73.2795
20
-19.6946
11
73.2795
21
-19.6979
0
LINE
8
BLACK
6
CONTINUOUS
10
73.2795
20
-19.6979
11
73.2799
21
-19.7011
0
LINE
8
BLACK
6
CONTINUOUS
10
73.2799
20
-19.7011
11
73.2799
21
-19.7012
0
LINE
8
BLACK
6
CONTINUOUS
10
73.2799
20
-19.7012
11
73.2851
21
-19.7498
0
LINE
8
BLACK
6
CONTINUOUS
10
73.2851
20
-19.7498
11
73.2851
21
-19.7498
0
LINE
8
BLACK
6
CONTINUOUS
10
73.2851
20
-19.7498
11
73.2859
21
-19.7575
0
LINE
8
BLACK
6
CONTINUOUS
10
73.2859
20
-19.7575
11
73.2886
21
-19.7647
0
LINE
8
BLACK
6
CONTINUOUS
10
73.2886
20
-19.7647
11
73.2886
21
-19.7648
0
LINE
8
BLACK
6
CONTINUOUS
10
73.2886
20
-19.7648
11
73.3222
21
-19.8548
0
LINE
8
BLACK
6
CONTINUOUS
10
73.3222
20
-19.8548
11
73.3362
21
-19.8923
0
LINE
8
BLACK
6
CONTINUOUS
10
73.3362
20
-19.8923
11
73.4225
21
-20.0075
0
LINE
8
BLACK
6
CONTINUOUS
10
73.4225
20
-20.0075
11
73.5377
21
-20.0938
0
LINE
8
BLACK
6
CONTINUOUS
10
73.5377
20
-20.0938
11
73.6725
21
-20.1441
0
LINE
8
BLACK
6
CONTINUOUS
10
73.6725
20
-20.1441
11
73.7321
21
-20.1505
0
LINE
8
BLACK
6
CONTINUOUS
10
73.7321
20
-20.1505
11
76.3279
21
-20.1505
0
LINE
8
BLACK
6
CONTINUOUS
10
76.3279
20
-20.1505
11
76.3875
21
-20.1441
0
LINE
8
BLACK
6
CONTINUOUS
10
76.3875
20
-20.1441
11
76.5223
21
-20.0938
0
LINE
8
BLACK
6
CONTINUOUS
10
76.5223
20
-20.0938
11
76.6375
21
-20.0075
0
LINE
8
BLACK
6
CONTINUOUS
10
76.6375
20
-20.0075
11
76.7238
21
-19.8923
0
LINE
8
BLACK
6
CONTINUOUS
10
76.7238
20
-19.8923
11
76.7741
21
-19.7575
0
LINE
8
BLACK
6
CONTINUOUS
10
76.7741
20
-19.7575
11
76.7761
21
-19.7582
0
LINE
8
BLACK
6
CONTINUOUS
10
76.7761
20
-19.7582
11
76.794
21
-19.7217
0
LINE
8
BLACK
6
CONTINUOUS
10
76.794
20
-19.7217
11
76.8371
21
-19.6876
0
LINE
8
BLACK
6
CONTINUOUS
10
76.8371
20
-19.6876
11
76.8906
21
-19.6755
0
LINE
8
BLACK
6
CONTINUOUS
10
76.8906
20
-19.6755
11
85.6694
21
-19.6755
0
LINE
8
BLACK
6
CONTINUOUS
10
85.6694
20
-19.6755
11
85.7229
21
-19.6876
0
LINE
8
BLACK
6
CONTINUOUS
10
85.7229
20
-19.6876
11
85.766
21
-19.7217
0
LINE
8
BLACK
6
CONTINUOUS
10
85.766
20
-19.7217
11
85.7839
21
-19.7582
0
LINE
8
BLACK
6
CONTINUOUS
10
85.7839
20
-19.7582
11
85.7859
21
-19.7575
0
LINE
8
BLACK
6
CONTINUOUS
10
85.7859
20
-19.7575
11
85.8362
21
-19.8923
0
LINE
8
BLACK
6
CONTINUOUS
10
85.8362
20
-19.8923
11
85.9225
21
-20.0075
0
LINE
8
BLACK
6
CONTINUOUS
10
85.9225
20
-20.0075
11
86.0377
21
-20.0938
0
LINE
8
BLACK
6
CONTINUOUS
10
86.0377
20
-20.0938
11
86.1725
21
-20.1441
0
LINE
8
BLACK
6
CONTINUOUS
10
86.1725
20
-20.1441
11
86.2321
21
-20.1505
0
LINE
8
BLACK
6
CONTINUOUS
10
86.2321
20
-20.1505
11
88.8279
21
-20.1505
0
LINE
8
BLACK
6
CONTINUOUS
10
88.8279
20
-20.1505
11
88.8875
21
-20.1441
0
LINE
8
BLACK
6
CONTINUOUS
10
88.8875
20
-20.1441
11
89.0223
21
-20.0938
0
LINE
8
BLACK
6
CONTINUOUS
10
89.0223
20
-20.0938
11
89.1375
21
-20.0075
0
LINE
8
BLACK
6
CONTINUOUS
10
89.1375
20
-20.0075
11
89.2238
21
-19.8923
0
LINE
8
BLACK
6
CONTINUOUS
10
89.2238
20
-19.8923
11
89.2741
21
-19.7575
0
LINE
8
BLACK
6
CONTINUOUS
10
89.2741
20
-19.7575
11
89.2805
21
-19.6979
0
LINE
8
BLACK
6
CONTINUOUS
10
89.2805
20
-19.6979
11
89.2805
21
-18.4021
0
LINE
8
BLACK
6
CONTINUOUS
10
89.2805
20
-18.4021
11
89.2741
21
-18.3425
0
LINE
8
BLACK
6
CONTINUOUS
10
89.2741
20
-18.3425
11
89.2238
21
-18.2077
0
LINE
8
BLACK
6
CONTINUOUS
10
89.2238
20
-18.2077
11
89.1375
21
-18.0925
0
LINE
8
BLACK
6
CONTINUOUS
10
89.1375
20
-18.0925
11
89.0824
21
-18.0512
0
LINE
8
BLACK
6
CONTINUOUS
10
89.0824
20
-18.0512
11
89.0294
21
-18.0115
0
LINE
8
BLACK
6
CONTINUOUS
10
89.0294
20
-18.0115
11
89.0294
21
-18.0115
0
LINE
8
BLACK
6
CONTINUOUS
10
89.0294
20
-18.0115
11
89.0223
21
-18.0062
0
LINE
8
BLACK
6
CONTINUOUS
10
89.0223
20
-18.0062
11
88.8875
21
-17.9559
0
LINE
8
BLACK
6
CONTINUOUS
10
88.8875
20
-17.9559
11
88.8798
21
-17.9551
0
LINE
8
BLACK
6
CONTINUOUS
10
88.8798
20
-17.9551
11
88.8798
21
-17.9551
0
LINE
8
BLACK
6
CONTINUOUS
10
88.8798
20
-17.9551
11
88.8312
21
-17.9499
0
LINE
8
BLACK
6
CONTINUOUS
10
88.8312
20
-17.9499
11
88.8312
21
-17.9499
0
LINE
8
BLACK
6
CONTINUOUS
10
88.8312
20
-17.9499
11
88.8279
21
-17.9495
0
LINE
8
BLACK
6
CONTINUOUS
10
88.8279
20
-17.9495
11
88.8246
21
-17.9495
0
LINE
8
BLACK
6
CONTINUOUS
10
88.8246
20
-17.9495
11
86.2354
21
-17.9495
0
LINE
8
BLACK
6
CONTINUOUS
10
86.2354
20
-17.9495
11
86.2354
21
-17.9495
0
LINE
8
BLACK
6
CONTINUOUS
10
86.2354
20
-17.9495
11
86.2321
21
-17.9495
0
LINE
8
BLACK
6
CONTINUOUS
10
86.2321
20
-17.9495
11
86.2288
21
-17.9499
0
LINE
8
BLACK
6
CONTINUOUS
10
86.2288
20
-17.9499
11
86.2288
21
-17.9499
0
LINE
8
BLACK
6
CONTINUOUS
10
86.2288
20
-17.9499
11
86.1802
21
-17.9551
0
LINE
8
BLACK
6
CONTINUOUS
10
86.1802
20
-17.9551
11
86.1802
21
-17.9551
0
LINE
8
BLACK
6
CONTINUOUS
10
86.1802
20
-17.9551
11
86.1725
21
-17.9559
0
LINE
8
BLACK
6
CONTINUOUS
10
86.1725
20
-17.9559
11
86.1653
21
-17.9586
0
LINE
8
BLACK
6
CONTINUOUS
10
86.1653
20
-17.9586
11
86.1652
21
-17.9586
0
LINE
8
BLACK
6
CONTINUOUS
10
86.1652
20
-17.9586
11
86.046
21
-18.0031
0
LINE
8
BLACK
6
CONTINUOUS
10
86.046
20
-18.0031
11
86.046
21
-18.0031
0
LINE
8
BLACK
6
CONTINUOUS
10
86.046
20
-18.0031
11
86.0377
21
-18.0062
0
LINE
8
BLACK
6
CONTINUOUS
10
86.0377
20
-18.0062
11
86.0306
21
-18.0115
0
LINE
8
BLACK
6
CONTINUOUS
10
86.0306
20
-18.0115
11
86.0306
21
-18.0115
0
LINE
8
BLACK
6
CONTINUOUS
10
86.0306
20
-18.0115
11
85.9295
21
-18.0871
0
LINE
8
BLACK
6
CONTINUOUS
10
85.9295
20
-18.0871
11
85.9295
21
-18.0871
0
LINE
8
BLACK
6
CONTINUOUS
10
85.9295
20
-18.0871
11
85.9225
21
-18.0925
0
LINE
8
BLACK
6
CONTINUOUS
10
85.9225
20
-18.0925
11
85.9171
21
-18.0995
0
LINE
8
BLACK
6
CONTINUOUS
10
85.9171
20
-18.0995
11
85.9171
21
-18.0996
0
LINE
8
BLACK
6
CONTINUOUS
10
85.9171
20
-18.0996
11
85.8415
21
-18.2006
0
LINE
8
BLACK
6
CONTINUOUS
10
85.8415
20
-18.2006
11
85.8415
21
-18.2006
0
LINE
8
BLACK
6
CONTINUOUS
10
85.8415
20
-18.2006
11
85.8362
21
-18.2077
0
LINE
8
BLACK
6
CONTINUOUS
10
85.8362
20
-18.2077
11
85.8331
21
-18.216
0
LINE
8
BLACK
6
CONTINUOUS
10
85.8331
20
-18.216
11
85.8331
21
-18.216
0
LINE
8
BLACK
6
CONTINUOUS
10
85.8331
20
-18.216
11
85.7859
21
-18.3425
0
LINE
8
BLACK
6
CONTINUOUS
10
85.7859
20
-18.3425
11
85.7839
21
-18.3418
0
LINE
8
BLACK
6
CONTINUOUS
10
85.7839
20
-18.3418
11
85.766
21
-18.3783
0
LINE
8
BLACK
6
CONTINUOUS
10
85.766
20
-18.3783
11
85.7229
21
-18.4124
0
LINE
8
BLACK
6
CONTINUOUS
10
85.7229
20
-18.4124
11
85.6694
21
-18.4245
0
LINE
8
BLACK
6
CONTINUOUS
10
85.6694
20
-18.4245
11
76.8906
21
-18.4245
0
LINE
8
BLACK
6
CONTINUOUS
10
76.8906
20
-18.4245
11
76.8371
21
-18.4124
0
LINE
8
BLACK
6
CONTINUOUS
10
76.8371
20
-18.4124
11
76.794
21
-18.3783
0
LINE
8
BLACK
6
CONTINUOUS
10
76.794
20
-18.3783
11
76.7761
21
-18.3418
0
LINE
8
BLACK
6
CONTINUOUS
10
76.7761
20
-18.3418
11
76.7741
21
-18.3425
0
LINE
8
BLACK
6
CONTINUOUS
10
76.7741
20
-18.3425
11
76.7238
21
-18.2077
0
LINE
8
BLACK
6
CONTINUOUS
10
76.7238
20
-18.2077
11
76.6375
21
-18.0925
0
LINE
8
BLACK
6
CONTINUOUS
10
76.6375
20
-18.0925
11
76.5824
21
-18.0512
0
LINE
8
BLACK
6
CONTINUOUS
10
76.5824
20
-18.0512
11
76.5294
21
-18.0115
0
LINE
8
BLACK
6
CONTINUOUS
10
76.5294
20
-18.0115
11
76.5294
21
-18.0115
0
LINE
8
BLACK
6
CONTINUOUS
10
76.5294
20
-18.0115
11
76.5223
21
-18.0062
0
LINE
8
BLACK
6
CONTINUOUS
10
76.5223
20
-18.0062
11
76.3875
21
-17.9559
0
LINE
8
BLACK
6
CONTINUOUS
10
76.3875
20
-17.9559
11
76.3798
21
-17.9551
0
LINE
8
BLACK
6
CONTINUOUS
10
76.3798
20
-17.9551
11
76.3798
21
-17.9551
0
LINE
8
BLACK
6
CONTINUOUS
10
76.3798
20
-17.9551
11
76.3312
21
-17.9499
0
LINE
8
BLACK
6
CONTINUOUS
10
76.3312
20
-17.9499
11
76.3312
21
-17.9499
0
LINE
8
BLACK
6
CONTINUOUS
10
76.3312
20
-17.9499
11
76.3279
21
-17.9495
0
LINE
8
BLACK
6
CONTINUOUS
10
76.3279
20
-17.9495
11
76.3246
21
-17.9495
0
LINE
8
BLACK
6
CONTINUOUS
10
76.3246
20
-17.9495
11
74.8655
21
-17.9495
0
LINE
8
BLACK
6
CONTINUOUS
10
74.8655
20
-17.9495
11
74.818
21
-17.9401
0
LINE
8
BLACK
6
CONTINUOUS
10
74.818
20
-17.9401
11
74.7778
21
-17.9132
0
LINE
8
BLACK
6
CONTINUOUS
10
74.7778
20
-17.9132
11
74.2573
21
-17.3927
0
LINE
8
BLACK
6
CONTINUOUS
10
74.2573
20
-17.3927
11
74.2498
21
-17.3845
0
LINE
8
BLACK
6
CONTINUOUS
10
74.2498
20
-17.3845
11
74.2458
21
-17.3781
0
LINE
8
BLACK
6
CONTINUOUS
10
74.2458
20
-17.3781
11
74.1968
21
-17.3321
0
LINE
8
BLACK
6
CONTINUOUS
10
74.1968
20
-17.3321
11
74.194
21
-17.3294
0
LINE
8
BLACK
6
CONTINUOUS
10
74.194
20
-17.3294
11
74.1772
21
-17.3126
0
LINE
8
BLACK
6
CONTINUOUS
10
74.1772
20
-17.3126
11
74.1772
21
-17.3126
0
LINE
8
BLACK
6
CONTINUOUS
10
74.1772
20
-17.3126
11
74.1745
21
-17.3099
0
LINE
8
BLACK
6
CONTINUOUS
10
74.1745
20
-17.3099
11
74.1713
21
-17.3074
0
LINE
8
BLACK
6
CONTINUOUS
10
74.1713
20
-17.3074
11
74.1624
21
-17.2998
0
LINE
8
BLACK
6
CONTINUOUS
10
74.1624
20
-17.2998
11
74.1363
21
-17.2753
0
LINE
8
BLACK
6
CONTINUOUS
10
74.1363
20
-17.2753
11
74.1363
21
-17.2753
0
LINE
8
BLACK
6
CONTINUOUS
10
74.1363
20
-17.2753
11
74.1306
21
-17.2699
0
LINE
8
BLACK
6
CONTINUOUS
10
74.1306
20
-17.2699
11
74.1237
21
-17.2662
0
LINE
8
BLACK
6
CONTINUOUS
10
74.1237
20
-17.2662
11
74.1237
21
-17.2662
0
LINE
8
BLACK
6
CONTINUOUS
10
74.1237
20
-17.2662
11
74.113
21
-17.2603
0
LINE
8
BLACK
6
CONTINUOUS
10
74.113
20
-17.2603
11
74.0968
21
-17.2496
0
LINE
8
BLACK
6
CONTINUOUS
10
74.0968
20
-17.2496
11
74.0871
21
-17.2421
0
LINE
8
BLACK
6
CONTINUOUS
10
74.0871
20
-17.2421
11
74.0871
21
-17.2421
0
LINE
8
BLACK
6
CONTINUOUS
10
74.0871
20
-17.2421
11
74.0809
21
-17.2373
0
LINE
8
BLACK
6
CONTINUOUS
10
74.0809
20
-17.2373
11
74.0738
21
-17.2342
0
LINE
8
BLACK
6
CONTINUOUS
10
74.0738
20
-17.2342
11
74.0738
21
-17.2342
0
LINE
8
BLACK
6
CONTINUOUS
10
74.0738
20
-17.2342
11
74.0408
21
-17.22
0
LINE
8
BLACK
6
CONTINUOUS
10
74.0408
20
-17.22
11
74.0304
21
-17.2148
0
LINE
8
BLACK
6
CONTINUOUS
10
74.0304
20
-17.2148
11
73.9989
21
-17.1976
0
LINE
8
BLACK
6
CONTINUOUS
10
73.9989
20
-17.1976
11
73.9989
21
-17.1976
0
LINE
8
BLACK
6
CONTINUOUS
10
73.9989
20
-17.1976
11
73.9921
21
-17.1938
0
LINE
8
BLACK
6
CONTINUOUS
10
73.9921
20
-17.1938
11
73.9845
21
-17.1919
0
LINE
8
BLACK
6
CONTINUOUS
10
73.9845
20
-17.1919
11
73.9845
21
-17.1919
0
LINE
8
BLACK
6
CONTINUOUS
10
73.9845
20
-17.1919
11
73.9727
21
-17.1888
0
LINE
8
BLACK
6
CONTINUOUS
10
73.9727
20
-17.1888
11
73.9543
21
-17.1825
0
LINE
8
BLACK
6
CONTINUOUS
10
73.9543
20
-17.1825
11
73.9431
21
-17.1777
0
LINE
8
BLACK
6
CONTINUOUS
10
73.9431
20
-17.1777
11
73.943
21
-17.1777
0
LINE
8
BLACK
6
CONTINUOUS
10
73.943
20
-17.1777
11
73.9359
21
-17.1746
0
LINE
8
BLACK
6
CONTINUOUS
10
73.9359
20
-17.1746
11
73.9282
21
-17.1733
0
LINE
8
BLACK
6
CONTINUOUS
10
73.9282
20
-17.1733
11
73.9282
21
-17.1733
0
LINE
8
BLACK
6
CONTINUOUS
10
73.9282
20
-17.1733
11
73.8928
21
-17.1677
0
LINE
8
BLACK
6
CONTINUOUS
10
73.8928
20
-17.1677
11
73.8813
21
-17.1654
0
LINE
8
BLACK
6
CONTINUOUS
10
73.8813
20
-17.1654
11
73.8466
21
-17.1564
0
LINE
8
BLACK
6
CONTINUOUS
10
73.8466
20
-17.1564
11
73.8466
21
-17.1564
0
LINE
8
BLACK
6
CONTINUOUS
10
73.8466
20
-17.1564
11
73.839
21
-17.1545
0
LINE
8
BLACK
6
CONTINUOUS
10
73.839
20
-17.1545
11
73.8312
21
-17.1545
0
LINE
8
BLACK
6
CONTINUOUS
10
73.8312
20
-17.1545
11
73.819
21
-17.1545
0
LINE
8
BLACK
6
CONTINUOUS
10
73.819
20
-17.1545
11
73.7996
21
-17.153
0
LINE
8
BLACK
6
CONTINUOUS
10
73.7996
20
-17.153
11
73.7798
21
-17.1498
0
LINE
8
BLACK
6
CONTINUOUS
10
73.7798
20
-17.1498
11
73.772
21
-17.1506
0
LINE
8
BLACK
6
CONTINUOUS
10
73.772
20
-17.1506
11
73.772
21
-17.1506
0
LINE
8
BLACK
6
CONTINUOUS
10
73.772
20
-17.1506
11
73.7363
21
-17.1539
0
LINE
8
BLACK
6
CONTINUOUS
10
73.7363
20
-17.1539
11
73.7247
21
-17.1545
0
LINE
8
BLACK
6
CONTINUOUS
10
73.7247
20
-17.1545
11
67.9212
21
-17.1545
0
LINE
8
BLACK
6
CONTINUOUS
10
67.9212
20
-17.1545
11
67.8724
21
-17.1445
0
LINE
8
BLACK
6
CONTINUOUS
10
67.8724
20
-17.1445
11
67.8314
21
-17.1161
0
LINE
8
BLACK
6
CONTINUOUS
10
67.8314
20
-17.1161
11
67.805
21
-17.0738
0
LINE
8
BLACK
6
CONTINUOUS
10
67.805
20
-17.0738
11
67.8031
21
-17.0688
0
LINE
8
BLACK
6
CONTINUOUS
10
67.8031
20
-17.0688
11
67.7732
21
-16.9885
0
LINE
8
BLACK
6
CONTINUOUS
10
67.7732
20
-16.9885
11
67.6429
21
-16.7499
0
LINE
8
BLACK
6
CONTINUOUS
10
67.6429
20
-16.7499
11
67.48
21
-16.5323
0
LINE
8
BLACK
6
CONTINUOUS
10
67.48
20
-16.5323
11
67.2877
21
-16.34
0
LINE
8
BLACK
6
CONTINUOUS
10
67.2877
20
-16.34
11
67.0701
21
-16.1771
0
LINE
8
BLACK
6
CONTINUOUS
10
67.0701
20
-16.1771
11
67.0662
21
-16.175
0
LINE
8
BLACK
6
CONTINUOUS
10
67.0662
20
-16.175
11
67.0662
21
-16.175
0
LINE
8
BLACK
6
CONTINUOUS
10
67.0662
20
-16.175
11
66.8354
21
-16.049
0
LINE
8
BLACK
6
CONTINUOUS
10
66.8354
20
-16.049
11
66.8354
21
-16.0489
0
LINE
8
BLACK
6
CONTINUOUS
10
66.8354
20
-16.0489
11
66.8315
21
-16.0468
0
LINE
8
BLACK
6
CONTINUOUS
10
66.8315
20
-16.0468
11
66.8274
21
-16.0453
0
LINE
8
BLACK
6
CONTINUOUS
10
66.8274
20
-16.0453
11
66.8274
21
-16.0453
0
LINE
8
BLACK
6
CONTINUOUS
10
66.8274
20
-16.0453
11
66.5809
21
-15.9534
0
LINE
8
BLACK
6
CONTINUOUS
10
66.5809
20
-15.9534
11
66.5809
21
-15.9534
0
LINE
8
BLACK
6
CONTINUOUS
10
66.5809
20
-15.9534
11
66.5768
21
-15.9518
0
LINE
8
BLACK
6
CONTINUOUS
10
66.5768
20
-15.9518
11
66.5508
21
-15.9462
0
LINE
8
BLACK
6
CONTINUOUS
10
66.5508
20
-15.9462
11
66.3155
21
-15.895
0
LINE
8
BLACK
6
CONTINUOUS
10
66.3155
20
-15.895
11
66.3155
21
-15.895
0
LINE
8
BLACK
6
CONTINUOUS
10
66.3155
20
-15.895
11
66.3112
21
-15.894
0
LINE
8
BLACK
6
CONTINUOUS
10
66.3112
20
-15.894
11
66.3067
21
-15.8937
0
LINE
8
BLACK
6
CONTINUOUS
10
66.3067
20
-15.8937
11
66.3067
21
-15.8937
0
LINE
8
BLACK
6
CONTINUOUS
10
66.3067
20
-15.8937
11
66.0444
21
-15.875
0
LINE
8
BLACK
6
CONTINUOUS
10
66.0444
20
-15.875
11
66.04
21
-15.8746
0
LINE
8
BLACK
6
CONTINUOUS
10
66.04
20
-15.8746
11
66.0356
21
-15.875
0
LINE
8
BLACK
6
CONTINUOUS
10
66.0356
20
-15.875
11
65.7733
21
-15.8937
0
LINE
8
BLACK
6
CONTINUOUS
10
65.7733
20
-15.8937
11
65.7733
21
-15.8937
0
LINE
8
BLACK
6
CONTINUOUS
10
65.7733
20
-15.8937
11
65.7688
21
-15.894
0
LINE
8
BLACK
6
CONTINUOUS
10
65.7688
20
-15.894
11
65.7645
21
-15.895
0
LINE
8
BLACK
6
CONTINUOUS
10
65.7645
20
-15.895
11
65.7645
21
-15.895
0
LINE
8
BLACK
6
CONTINUOUS
10
65.7645
20
-15.895
11
65.5075
21
-15.9509
0
LINE
8
BLACK
6
CONTINUOUS
10
65.5075
20
-15.9509
11
65.5075
21
-15.9509
0
LINE
8
BLACK
6
CONTINUOUS
10
65.5075
20
-15.9509
11
65.5032
21
-15.9518
0
LINE
8
BLACK
6
CONTINUOUS
10
65.5032
20
-15.9518
11
65.4991
21
-15.9534
0
LINE
8
BLACK
6
CONTINUOUS
10
65.4991
20
-15.9534
11
65.4991
21
-15.9534
0
LINE
8
BLACK
6
CONTINUOUS
10
65.4991
20
-15.9534
11
65.2526
21
-16.0453
0
LINE
8
BLACK
6
CONTINUOUS
10
65.2526
20
-16.0453
11
65.2526
21
-16.0453
0
LINE
8
BLACK
6
CONTINUOUS
10
65.2526
20
-16.0453
11
65.2485
21
-16.0468
0
LINE
8
BLACK
6
CONTINUOUS
10
65.2485
20
-16.0468
11
65.2446
21
-16.0489
0
LINE
8
BLACK
6
CONTINUOUS
10
65.2446
20
-16.0489
11
65.2446
21
-16.049
0
LINE
8
BLACK
6
CONTINUOUS
10
65.2446
20
-16.049
11
65.0138
21
-16.175
0
LINE
8
BLACK
6
CONTINUOUS
10
65.0138
20
-16.175
11
65.0138
21
-16.175
0
LINE
8
BLACK
6
CONTINUOUS
10
65.0138
20
-16.175
11
65.0099
21
-16.1771
0
LINE
8
BLACK
6
CONTINUOUS
10
65.0099
20
-16.1771
11
65.0063
21
-16.1798
0
LINE
8
BLACK
6
CONTINUOUS
10
65.0063
20
-16.1798
11
65.0063
21
-16.1798
0
LINE
8
BLACK
6
CONTINUOUS
10
65.0063
20
-16.1798
11
64.7958
21
-16.3374
0
LINE
8
BLACK
6
CONTINUOUS
10
64.7958
20
-16.3374
11
64.7958
21
-16.3374
0
LINE
8
BLACK
6
CONTINUOUS
10
64.7958
20
-16.3374
11
64.7923
21
-16.34
0
LINE
8
BLACK
6
CONTINUOUS
10
64.7923
20
-16.34
11
64.7891
21
-16.3432
0
LINE
8
BLACK
6
CONTINUOUS
10
64.7891
20
-16.3432
11
64.7891
21
-16.3432
0
LINE
8
BLACK
6
CONTINUOUS
10
64.7891
20
-16.3432
11
64.6032
21
-16.5291
0
LINE
8
BLACK
6
CONTINUOUS
10
64.6032
20
-16.5291
11
64.6032
21
-16.5291
0
LINE
8
BLACK
6
CONTINUOUS
10
64.6032
20
-16.5291
11
64.6
21
-16.5323
0
LINE
8
BLACK
6
CONTINUOUS
10
64.6
20
-16.5323
11
64.5974
21
-16.5358
0
LINE
8
BLACK
6
CONTINUOUS
10
64.5974
20
-16.5358
11
64.5974
21
-16.5358
0
LINE
8
BLACK
6
CONTINUOUS
10
64.5974
20
-16.5358
11
64.4398
21
-16.7463
0
LINE
8
BLACK
6
CONTINUOUS
10
64.4398
20
-16.7463
11
64.4398
21
-16.7463
0
LINE
8
BLACK
6
CONTINUOUS
10
64.4398
20
-16.7463
11
64.4371
21
-16.7499
0
LINE
8
BLACK
6
CONTINUOUS
10
64.4371
20
-16.7499
11
64.435
21
-16.7538
0
LINE
8
BLACK
6
CONTINUOUS
10
64.435
20
-16.7538
11
64.435
21
-16.7538
0
LINE
8
BLACK
6
CONTINUOUS
10
64.435
20
-16.7538
11
64.309
21
-16.9846
0
LINE
8
BLACK
6
CONTINUOUS
10
64.309
20
-16.9846
11
64.3089
21
-16.9846
0
LINE
8
BLACK
6
CONTINUOUS
10
64.3089
20
-16.9846
11
64.3068
21
-16.9885
0
LINE
8
BLACK
6
CONTINUOUS
10
64.3068
20
-16.9885
11
64.3053
21
-16.9926
0
LINE
8
BLACK
6
CONTINUOUS
10
64.3053
20
-16.9926
11
64.3053
21
-16.9926
0
LINE
8
BLACK
6
CONTINUOUS
10
64.3053
20
-16.9926
11
64.2134
21
-17.2391
0
LINE
8
BLACK
6
CONTINUOUS
10
64.2134
20
-17.2391
11
64.2134
21
-17.2391
0
LINE
8
BLACK
6
CONTINUOUS
10
64.2134
20
-17.2391
11
64.2118
21
-17.2432
0
LINE
8
BLACK
6
CONTINUOUS
10
64.2118
20
-17.2432
11
64.2109
21
-17.2475
0
LINE
8
BLACK
6
CONTINUOUS
10
64.2109
20
-17.2475
11
64.2109
21
-17.2475
0
LINE
8
BLACK
6
CONTINUOUS
10
64.2109
20
-17.2475
11
64.155
21
-17.5045
0
LINE
8
BLACK
6
CONTINUOUS
10
64.155
20
-17.5045
11
64.155
21
-17.5045
0
LINE
8
BLACK
6
CONTINUOUS
10
64.155
20
-17.5045
11
64.154
21
-17.5088
0
LINE
8
BLACK
6
CONTINUOUS
10
64.154
20
-17.5088
11
64.1537
21
-17.5133
0
LINE
8
BLACK
6
CONTINUOUS
10
64.1537
20
-17.5133
11
64.1537
21
-17.5133
0
LINE
8
BLACK
6
CONTINUOUS
10
64.1537
20
-17.5133
11
64.1353
21
-17.7705
0
LINE
8
BLACK
6
CONTINUOUS
10
64.1353
20
-17.7705
11
64.1346
21
-17.78
0
LINE
8
BLACK
6
CONTINUOUS
10
87.78
20
-35.3737
11
87.7835
21
-35.3865
0
LINE
8
BLACK
6
CONTINUOUS
10
87.7835
20
-35.3865
11
87.7963
21
-35.39
0
LINE
8
BLACK
6
CONTINUOUS
10
87.7963
20
-35.39
11
88.8245
21
-35.39
0
LINE
8
BLACK
6
CONTINUOUS
10
88.8245
20
-35.39
11
88.8311
21
-35.3896
0
LINE
8
BLACK
6
CONTINUOUS
10
88.8311
20
-35.3896
11
88.8797
21
-35.3844
0
LINE
8
BLACK
6
CONTINUOUS
10
88.8797
20
-35.3844
11
88.8946
21
-35.3809
0
LINE
8
BLACK
6
CONTINUOUS
10
88.8946
20
-35.3809
11
89.0138
21
-35.3365
0
LINE
8
BLACK
6
CONTINUOUS
10
89.0138
20
-35.3365
11
89.0292
21
-35.328
0
LINE
8
BLACK
6
CONTINUOUS
10
89.0292
20
-35.328
11
89.1301
21
-35.2525
0
LINE
8
BLACK
6
CONTINUOUS
10
89.1301
20
-35.2525
11
89.1425
21
-35.2401
0
LINE
8
BLACK
6
CONTINUOUS
10
89.1425
20
-35.2401
11
89.218
21
-35.1392
0
LINE
8
BLACK
6
CONTINUOUS
10
89.218
20
-35.1392
11
89.2265
21
-35.1238
0
LINE
8
BLACK
6
CONTINUOUS
10
89.2265
20
-35.1238
11
89.2709
21
-35.0046
0
LINE
8
BLACK
6
CONTINUOUS
10
89.2709
20
-35.0046
11
89.2744
21
-34.9897
0
LINE
8
BLACK
6
CONTINUOUS
10
89.2744
20
-34.9897
11
89.2796
21
-34.9411
0
LINE
8
BLACK
6
CONTINUOUS
10
89.2796
20
-34.9411
11
89.28
21
-34.9345
0
LINE
8
BLACK
6
CONTINUOUS
10
89.28
20
-34.9345
11
89.28
21
-34.5563
0
LINE
8
BLACK
6
CONTINUOUS
10
89.28
20
-34.5563
11
89.2765
21
-34.5434
0
LINE
8
BLACK
6
CONTINUOUS
10
89.2765
20
-34.5434
11
89.2637
21
-34.54
0
LINE
8
BLACK
6
CONTINUOUS
10
89.2637
20
-34.54
11
88.78
21
-34.54
0
LINE
8
BLACK
6
CONTINUOUS
10
88.78
20
-34.54
11
88.78
21
-34.89
0
LINE
8
BLACK
6
CONTINUOUS
10
88.78
20
-34.89
11
87.78
21
-34.89
0
LINE
8
BLACK
6
CONTINUOUS
10
87.78
20
-34.89
11
87.78
21
-35.3737
0
LINE
8
BLACK
6
CONTINUOUS
10
85.78
20
-34.9345
11
85.7804
21
-34.9411
0
LINE
8
BLACK
6
CONTINUOUS
10
85.7804
20
-34.9411
11
85.7856
21
-34.9897
0
LINE
8
BLACK
6
CONTINUOUS
10
85.7856
20
-34.9897
11
85.7891
21
-35.0046
0
LINE
8
BLACK
6
CONTINUOUS
10
85.7891
20
-35.0046
11
85.8335
21
-35.1238
0
LINE
8
BLACK
6
CONTINUOUS
10
85.8335
20
-35.1238
11
85.842
21
-35.1392
0
LINE
8
BLACK
6
CONTINUOUS
10
85.842
20
-35.1392
11
85.9175
21
-35.2401
0
LINE
8
BLACK
6
CONTINUOUS
10
85.9175
20
-35.2401
11
85.9299
21
-35.2525
0
LINE
8
BLACK
6
CONTINUOUS
10
85.9299
20
-35.2525
11
86.0308
21
-35.328
0
LINE
8
BLACK
6
CONTINUOUS
10
86.0308
20
-35.328
11
86.0462
21
-35.3365
0
LINE
8
BLACK
6
CONTINUOUS
10
86.0462
20
-35.3365
11
86.1654
21
-35.3809
0
LINE
8
BLACK
6
CONTINUOUS
10
86.1654
20
-35.3809
11
86.1803
21
-35.3844
0
LINE
8
BLACK
6
CONTINUOUS
10
86.1803
20
-35.3844
11
86.2289
21
-35.3896
0
LINE
8
BLACK
6
CONTINUOUS
10
86.2289
20
-35.3896
11
86.2355
21
-35.39
0
LINE
8
BLACK
6
CONTINUOUS
10
86.2355
20
-35.39
11
87.2637
21
-35.39
0
LINE
8
BLACK
6
CONTINUOUS
10
87.2637
20
-35.39
11
87.2765
21
-35.3865
0
LINE
8
BLACK
6
CONTINUOUS
10
87.2765
20
-35.3865
11
87.28
21
-35.3737
0
LINE
8
BLACK
6
CONTINUOUS
10
87.28
20
-35.3737
11
87.28
21
-34.89
0
LINE
8
BLACK
6
CONTINUOUS
10
87.28
20
-34.89
11
86.28
21
-34.89
0
LINE
8
BLACK
6
CONTINUOUS
10
86.28
20
-34.89
11
86.28
21
-34.54
0
LINE
8
BLACK
6
CONTINUOUS
10
86.28
20
-34.54
11
85.7963
21
-34.54
0
LINE
8
BLACK
6
CONTINUOUS
10
85.7963
20
-34.54
11
85.7835
21
-34.5434
0
LINE
8
BLACK
6
CONTINUOUS
10
85.7835
20
-34.5434
11
85.78
21
-34.5563
0
LINE
8
BLACK
6
CONTINUOUS
10
85.78
20
-34.5563
11
85.78
21
-34.9345
0
LINE
8
BLACK
6
CONTINUOUS
10
76.78
20
-34.9345
11
76.78
21
-34.5563
0
LINE
8
BLACK
6
CONTINUOUS
10
76.78
20
-34.5563
11
76.7765
21
-34.5434
0
LINE
8
BLACK
6
CONTINUOUS
10
76.7765
20
-34.5434
11
76.7637
21
-34.54
0
LINE
8
BLACK
6
CONTINUOUS
10
76.7637
20
-34.54
11
76.28
21
-34.54
0
LINE
8
BLACK
6
CONTINUOUS
10
76.28
20
-34.54
11
76.28
21
-34.89
0
LINE
8
BLACK
6
CONTINUOUS
10
76.28
20
-34.89
11
75.28
21
-34.89
0
LINE
8
BLACK
6
CONTINUOUS
10
75.28
20
-34.89
11
75.28
21
-35.3737
0
LINE
8
BLACK
6
CONTINUOUS
10
75.28
20
-35.3737
11
75.2835
21
-35.3865
0
LINE
8
BLACK
6
CONTINUOUS
10
75.2835
20
-35.3865
11
75.2963
21
-35.39
0
LINE
8
BLACK
6
CONTINUOUS
10
75.2963
20
-35.39
11
76.3245
21
-35.39
0
LINE
8
BLACK
6
CONTINUOUS
10
76.3245
20
-35.39
11
76.3311
21
-35.3896
0
LINE
8
BLACK
6
CONTINUOUS
10
76.3311
20
-35.3896
11
76.3797
21
-35.3844
0
LINE
8
BLACK
6
CONTINUOUS
10
76.3797
20
-35.3844
11
76.3946
21
-35.3809
0
LINE
8
BLACK
6
CONTINUOUS
10
76.3946
20
-35.3809
11
76.5138
21
-35.3365
0
LINE
8
BLACK
6
CONTINUOUS
10
76.5138
20
-35.3365
11
76.5292
21
-35.328
0
LINE
8
BLACK
6
CONTINUOUS
10
76.5292
20
-35.328
11
76.6301
21
-35.2525
0
LINE
8
BLACK
6
CONTINUOUS
10
76.6301
20
-35.2525
11
76.6425
21
-35.2401
0
LINE
8
BLACK
6
CONTINUOUS
10
76.6425
20
-35.2401
11
76.718
21
-35.1392
0
LINE
8
BLACK
6
CONTINUOUS
10
76.718
20
-35.1392
11
76.7265
21
-35.1238
0
LINE
8
BLACK
6
CONTINUOUS
10
76.7265
20
-35.1238
11
76.7709
21
-35.0046
0
LINE
8
BLACK
6
CONTINUOUS
10
76.7709
20
-35.0046
11
76.7744
21
-34.9897
0
LINE
8
BLACK
6
CONTINUOUS
10
76.7744
20
-34.9897
11
76.7796
21
-34.9411
0
LINE
8
BLACK
6
CONTINUOUS
10
76.7796
20
-34.9411
11
76.78
21
-34.9345
0
LINE
8
BLACK
6
CONTINUOUS
10
73.28
20
-34.9345
11
73.2804
21
-34.9411
0
LINE
8
BLACK
6
CONTINUOUS
10
73.2804
20
-34.9411
11
73.2856
21
-34.9897
0
LINE
8
BLACK
6
CONTINUOUS
10
73.2856
20
-34.9897
11
73.2891
21
-35.0046
0
LINE
8
BLACK
6
CONTINUOUS
10
73.2891
20
-35.0046
11
73.3335
21
-35.1238
0
LINE
8
BLACK
6
CONTINUOUS
10
73.3335
20
-35.1238
11
73.342
21
-35.1392
0
LINE
8
BLACK
6
CONTINUOUS
10
73.342
20
-35.1392
11
73.4175
21
-35.2401
0
LINE
8
BLACK
6
CONTINUOUS
10
73.4175
20
-35.2401
11
73.4299
21
-35.2525
0
LINE
8
BLACK
6
CONTINUOUS
10
73.4299
20
-35.2525
11
73.5308
21
-35.328
0
LINE
8
BLACK
6
CONTINUOUS
10
73.5308
20
-35.328
11
73.5462
21
-35.3365
0
LINE
8
BLACK
6
CONTINUOUS
10
73.5462
20
-35.3365
11
73.6654
21
-35.3809
0
LINE
8
BLACK
6
CONTINUOUS
10
73.6654
20
-35.3809
11
73.6803
21
-35.3844
0
LINE
8
BLACK
6
CONTINUOUS
10
73.6803
20
-35.3844
11
73.7289
21
-35.3896
0
LINE
8
BLACK
6
CONTINUOUS
10
73.7289
20
-35.3896
11
73.7355
21
-35.39
0
LINE
8
BLACK
6
CONTINUOUS
10
73.7355
20
-35.39
11
74.7637
21
-35.39
0
LINE
8
BLACK
6
CONTINUOUS
10
74.7637
20
-35.39
11
74.7765
21
-35.3865
0
LINE
8
BLACK
6
CONTINUOUS
10
74.7765
20
-35.3865
11
74.78
21
-35.3737
0
LINE
8
BLACK
6
CONTINUOUS
10
74.78
20
-35.3737
11
74.78
21
-34.89
0
LINE
8
BLACK
6
CONTINUOUS
10
74.78
20
-34.89
11
73.78
21
-34.89
0
LINE
8
BLACK
6
CONTINUOUS
10
73.78
20
-34.89
11
73.78
21
-34.54
0
LINE
8
BLACK
6
CONTINUOUS
10
73.78
20
-34.54
11
73.2963
21
-34.54
0
LINE
8
BLACK
6
CONTINUOUS
10
73.2963
20
-34.54
11
73.2835
21
-34.5434
0
LINE
8
BLACK
6
CONTINUOUS
10
73.2835
20
-34.5434
11
73.28
21
-34.5563
0
LINE
8
BLACK
6
CONTINUOUS
10
73.28
20
-34.5563
11
73.28
21
-34.9345
0
LINE
8
BLACK
6
CONTINUOUS
10
76.78
20
-34.0237
11
76.78
21
-33.6455
0
LINE
8
BLACK
6
CONTINUOUS
10
76.78
20
-33.6455
11
76.7796
21
-33.6389
0
LINE
8
BLACK
6
CONTINUOUS
10
76.7796
20
-33.6389
11
76.7744
21
-33.5903
0
LINE
8
BLACK
6
CONTINUOUS
10
76.7744
20
-33.5903
11
76.7709
21
-33.5754
0
LINE
8
BLACK
6
CONTINUOUS
10
76.7709
20
-33.5754
11
76.7265
21
-33.4562
0
LINE
8
BLACK
6
CONTINUOUS
10
76.7265
20
-33.4562
11
76.718
21
-33.4408
0
LINE
8
BLACK
6
CONTINUOUS
10
76.718
20
-33.4408
11
76.6425
21
-33.3399
0
LINE
8
BLACK
6
CONTINUOUS
10
76.6425
20
-33.3399
11
76.6301
21
-33.3275
0
LINE
8
BLACK
6
CONTINUOUS
10
76.6301
20
-33.3275
11
76.5292
21
-33.252
0
LINE
8
BLACK
6
CONTINUOUS
10
76.5292
20
-33.252
11
76.5138
21
-33.2435
0
LINE
8
BLACK
6
CONTINUOUS
10
76.5138
20
-33.2435
11
76.3946
21
-33.1991
0
LINE
8
BLACK
6
CONTINUOUS
10
76.3946
20
-33.1991
11
76.3797
21
-33.1956
0
LINE
8
BLACK
6
CONTINUOUS
10
76.3797
20
-33.1956
11
76.3311
21
-33.1904
0
LINE
8
BLACK
6
CONTINUOUS
10
76.3311
20
-33.1904
11
76.3245
21
-33.19
0
LINE
8
BLACK
6
CONTINUOUS
10
76.3245
20
-33.19
11
75.2963
21
-33.19
0
LINE
8
BLACK
6
CONTINUOUS
10
75.2963
20
-33.19
11
75.2835
21
-33.1934
0
LINE
8
BLACK
6
CONTINUOUS
10
75.2835
20
-33.1934
11
75.28
21
-33.2063
0
LINE
8
BLACK
6
CONTINUOUS
10
75.28
20
-33.2063
11
75.28
21
-33.69
0
LINE
8
BLACK
6
CONTINUOUS
10
75.28
20
-33.69
11
76.28
21
-33.69
0
LINE
8
BLACK
6
CONTINUOUS
10
76.28
20
-33.69
11
76.28
21
-34.04
0
LINE
8
BLACK
6
CONTINUOUS
10
76.28
20
-34.04
11
76.7637
21
-34.04
0
LINE
8
BLACK
6
CONTINUOUS
10
76.7637
20
-34.04
11
76.7765
21
-34.0365
0
LINE
8
BLACK
6
CONTINUOUS
10
76.7765
20
-34.0365
11
76.78
21
-34.0237
0
LINE
8
BLACK
6
CONTINUOUS
10
73.28
20
-34.0237
11
73.2835
21
-34.0365
0
LINE
8
BLACK
6
CONTINUOUS
10
73.2835
20
-34.0365
11
73.2963
21
-34.04
0
LINE
8
BLACK
6
CONTINUOUS
10
73.2963
20
-34.04
11
73.78
21
-34.04
0
LINE
8
BLACK
6
CONTINUOUS
10
73.78
20
-34.04
11
73.78
21
-33.69
0
LINE
8
BLACK
6
CONTINUOUS
10
73.78
20
-33.69
11
74.78
21
-33.69
0
LINE
8
BLACK
6
CONTINUOUS
10
74.78
20
-33.69
11
74.78
21
-33.2063
0
LINE
8
BLACK
6
CONTINUOUS
10
74.78
20
-33.2063
11
74.7765
21
-33.1934
0
LINE
8
BLACK
6
CONTINUOUS
10
74.7765
20
-33.1934
11
74.7637
21
-33.19
0
LINE
8
BLACK
6
CONTINUOUS
10
74.7637
20
-33.19
11
73.7355
21
-33.19
0
LINE
8
BLACK
6
CONTINUOUS
10
73.7355
20
-33.19
11
73.7289
21
-33.1904
0
LINE
8
BLACK
6
CONTINUOUS
10
73.7289
20
-33.1904
11
73.6803
21
-33.1956
0
LINE
8
BLACK
6
CONTINUOUS
10
73.6803
20
-33.1956
11
73.6654
21
-33.1991
0
LINE
8
BLACK
6
CONTINUOUS
10
73.6654
20
-33.1991
11
73.5462
21
-33.2435
0
LINE
8
BLACK
6
CONTINUOUS
10
73.5462
20
-33.2435
11
73.5308
21
-33.252
0
LINE
8
BLACK
6
CONTINUOUS
10
73.5308
20
-33.252
11
73.4299
21
-33.3275
0
LINE
8
BLACK
6
CONTINUOUS
10
73.4299
20
-33.3275
11
73.4175
21
-33.3399
0
LINE
8
BLACK
6
CONTINUOUS
10
73.4175
20
-33.3399
11
73.342
21
-33.4408
0
LINE
8
BLACK
6
CONTINUOUS
10
73.342
20
-33.4408
11
73.3335
21
-33.4562
0
LINE
8
BLACK
6
CONTINUOUS
10
73.3335
20
-33.4562
11
73.2891
21
-33.5754
0
LINE
8
BLACK
6
CONTINUOUS
10
73.2891
20
-33.5754
11
73.2856
21
-33.5903
0
LINE
8
BLACK
6
CONTINUOUS
10
73.2856
20
-33.5903
11
73.2804
21
-33.6389
0
LINE
8
BLACK
6
CONTINUOUS
10
73.2804
20
-33.6389
11
73.28
21
-33.6455
0
LINE
8
BLACK
6
CONTINUOUS
10
73.28
20
-33.6455
11
73.28
21
-34.0237
0
LINE
8
BLACK
6
CONTINUOUS
10
87.78
20
-27.7537
11
87.7835
21
-27.7665
0
LINE
8
BLACK
6
CONTINUOUS
10
87.7835
20
-27.7665
11
87.7963
21
-27.77
0
LINE
8
BLACK
6
CONTINUOUS
10
87.7963
20
-27.77
11
88.8245
21
-27.77
0
LINE
8
BLACK
6
CONTINUOUS
10
88.8245
20
-27.77
11
88.8311
21
-27.7696
0
LINE
8
BLACK
6
CONTINUOUS
10
88.8311
20
-27.7696
11
88.8797
21
-27.7644
0
LINE
8
BLACK
6
CONTINUOUS
10
88.8797
20
-27.7644
11
88.8946
21
-27.7609
0
LINE
8
BLACK
6
CONTINUOUS
10
88.8946
20
-27.7609
11
89.0138
21
-27.7165
0
LINE
8
BLACK
6
CONTINUOUS
10
89.0138
20
-27.7165
11
89.0292
21
-27.708
0
LINE
8
BLACK
6
CONTINUOUS
10
89.0292
20
-27.708
11
89.1301
21
-27.6325
0
LINE
8
BLACK
6
CONTINUOUS
10
89.1301
20
-27.6325
11
89.1425
21
-27.6201
0
LINE
8
BLACK
6
CONTINUOUS
10
89.1425
20
-27.6201
11
89.218
21
-27.5192
0
LINE
8
BLACK
6
CONTINUOUS
10
89.218
20
-27.5192
11
89.2265
21
-27.5038
0
LINE
8
BLACK
6
CONTINUOUS
10
89.2265
20
-27.5038
11
89.2709
21
-27.3846
0
LINE
8
BLACK
6
CONTINUOUS
10
89.2709
20
-27.3846
11
89.2744
21
-27.3697
0
LINE
8
BLACK
6
CONTINUOUS
10
89.2744
20
-27.3697
11
89.2796
21
-27.3211
0
LINE
8
BLACK
6
CONTINUOUS
10
89.2796
20
-27.3211
11
89.28
21
-27.3145
0
LINE
8
BLACK
6
CONTINUOUS
10
89.28
20
-27.3145
11
89.28
21
-26.9363
0
LINE
8
BLACK
6
CONTINUOUS
10
89.28
20
-26.9363
11
89.2765
21
-26.9234
0
LINE
8
BLACK
6
CONTINUOUS
10
89.2765
20
-26.9234
11
89.2637
21
-26.92
0
LINE
8
BLACK
6
CONTINUOUS
10
89.2637
20
-26.92
11
88.78
21
-26.92
0
LINE
8
BLACK
6
CONTINUOUS
10
88.78
20
-26.92
11
88.78
21
-27.27
0
LINE
8
BLACK
6
CONTINUOUS
10
88.78
20
-27.27
11
87.78
21
-27.27
0
LINE
8
BLACK
6
CONTINUOUS
10
87.78
20
-27.27
11
87.78
21
-27.7537
0
LINE
8
BLACK
6
CONTINUOUS
10
85.78
20
-27.3145
11
85.7804
21
-27.3211
0
LINE
8
BLACK
6
CONTINUOUS
10
85.7804
20
-27.3211
11
85.7856
21
-27.3697
0
LINE
8
BLACK
6
CONTINUOUS
10
85.7856
20
-27.3697
11
85.7891
21
-27.3846
0
LINE
8
BLACK
6
CONTINUOUS
10
85.7891
20
-27.3846
11
85.8335
21
-27.5038
0
LINE
8
BLACK
6
CONTINUOUS
10
85.8335
20
-27.5038
11
85.842
21
-27.5192
0
LINE
8
BLACK
6
CONTINUOUS
10
85.842
20
-27.5192
11
85.9175
21
-27.6201
0
LINE
8
BLACK
6
CONTINUOUS
10
85.9175
20
-27.6201
11
85.9299
21
-27.6325
0
LINE
8
BLACK
6
CONTINUOUS
10
85.9299
20
-27.6325
11
86.0308
21
-27.708
0
LINE
8
BLACK
6
CONTINUOUS
10
86.0308
20
-27.708
11
86.0462
21
-27.7165
0
LINE
8
BLACK
6
CONTINUOUS
10
86.0462
20
-27.7165
11
86.1654
21
-27.7609
0
LINE
8
BLACK
6
CONTINUOUS
10
86.1654
20
-27.7609
11
86.1803
21
-27.7644
0
LINE
8
BLACK
6
CONTINUOUS
10
86.1803
20
-27.7644
11
86.2289
21
-27.7696
0
LINE
8
BLACK
6
CONTINUOUS
10
86.2289
20
-27.7696
11
86.2355
21
-27.77
0
LINE
8
BLACK
6
CONTINUOUS
10
86.2355
20
-27.77
11
87.2637
21
-27.77
0
LINE
8
BLACK
6
CONTINUOUS
10
87.2637
20
-27.77
11
87.2765
21
-27.7665
0
LINE
8
BLACK
6
CONTINUOUS
10
87.2765
20
-27.7665
11
87.28
21
-27.7537
0
LINE
8
BLACK
6
CONTINUOUS
10
87.28
20
-27.7537
11
87.28
21
-27.27
0
LINE
8
BLACK
6
CONTINUOUS
10
87.28
20
-27.27
11
86.28
21
-27.27
0
LINE
8
BLACK
6
CONTINUOUS
10
86.28
20
-27.27
11
86.28
21
-26.92
0
LINE
8
BLACK
6
CONTINUOUS
10
86.28
20
-26.92
11
85.7963
21
-26.92
0
LINE
8
BLACK
6
CONTINUOUS
10
85.7963
20
-26.92
11
85.7835
21
-26.9234
0
LINE
8
BLACK
6
CONTINUOUS
10
85.7835
20
-26.9234
11
85.78
21
-26.9363
0
LINE
8
BLACK
6
CONTINUOUS
10
85.78
20
-26.9363
11
85.78
21
-27.3145
0
LINE
8
BLACK
6
CONTINUOUS
10
76.78
20
-27.3145
11
76.78
21
-26.9363
0
LINE
8
BLACK
6
CONTINUOUS
10
76.78
20
-26.9363
11
76.7765
21
-26.9234
0
LINE
8
BLACK
6
CONTINUOUS
10
76.7765
20
-26.9234
11
76.7637
21
-26.92
0
LINE
8
BLACK
6
CONTINUOUS
10
76.7637
20
-26.92
11
76.28
21
-26.92
0
LINE
8
BLACK
6
CONTINUOUS
10
76.28
20
-26.92
11
76.28
21
-27.27
0
LINE
8
BLACK
6
CONTINUOUS
10
76.28
20
-27.27
11
75.28
21
-27.27
0
LINE
8
BLACK
6
CONTINUOUS
10
75.28
20
-27.27
11
75.28
21
-27.7537
0
LINE
8
BLACK
6
CONTINUOUS
10
75.28
20
-27.7537
11
75.2835
21
-27.7665
0
LINE
8
BLACK
6
CONTINUOUS
10
75.2835
20
-27.7665
11
75.2963
21
-27.77
0
LINE
8
BLACK
6
CONTINUOUS
10
75.2963
20
-27.77
11
76.3245
21
-27.77
0
LINE
8
BLACK
6
CONTINUOUS
10
76.3245
20
-27.77
11
76.3311
21
-27.7696
0
LINE
8
BLACK
6
CONTINUOUS
10
76.3311
20
-27.7696
11
76.3797
21
-27.7644
0
LINE
8
BLACK
6
CONTINUOUS
10
76.3797
20
-27.7644
11
76.3946
21
-27.7609
0
LINE
8
BLACK
6
CONTINUOUS
10
76.3946
20
-27.7609
11
76.5138
21
-27.7165
0
LINE
8
BLACK
6
CONTINUOUS
10
76.5138
20
-27.7165
11
76.5292
21
-27.708
0
LINE
8
BLACK
6
CONTINUOUS
10
76.5292
20
-27.708
11
76.6301
21
-27.6325
0
LINE
8
BLACK
6
CONTINUOUS
10
76.6301
20
-27.6325
11
76.6425
21
-27.6201
0
LINE
8
BLACK
6
CONTINUOUS
10
76.6425
20
-27.6201
11
76.718
21
-27.5192
0
LINE
8
BLACK
6
CONTINUOUS
10
76.718
20
-27.5192
11
76.7265
21
-27.5038
0
LINE
8
BLACK
6
CONTINUOUS
10
76.7265
20
-27.5038
11
76.7709
21
-27.3846
0
LINE
8
BLACK
6
CONTINUOUS
10
76.7709
20
-27.3846
11
76.7744
21
-27.3697
0
LINE
8
BLACK
6
CONTINUOUS
10
76.7744
20
-27.3697
11
76.7796
21
-27.3211
0
LINE
8
BLACK
6
CONTINUOUS
10
76.7796
20
-27.3211
11
76.78
21
-27.3145
0
LINE
8
BLACK
6
CONTINUOUS
10
73.28
20
-27.3145
11
73.2804
21
-27.3211
0
LINE
8
BLACK
6
CONTINUOUS
10
73.2804
20
-27.3211
11
73.2856
21
-27.3697
0
LINE
8
BLACK
6
CONTINUOUS
10
73.2856
20
-27.3697
11
73.2891
21
-27.3846
0
LINE
8
BLACK
6
CONTINUOUS
10
73.2891
20
-27.3846
11
73.3335
21
-27.5038
0
LINE
8
BLACK
6
CONTINUOUS
10
73.3335
20
-27.5038
11
73.342
21
-27.5192
0
LINE
8
BLACK
6
CONTINUOUS
10
73.342
20
-27.5192
11
73.4175
21
-27.6201
0
LINE
8
BLACK
6
CONTINUOUS
10
73.4175
20
-27.6201
11
73.4299
21
-27.6325
0
LINE
8
BLACK
6
CONTINUOUS
10
73.4299
20
-27.6325
11
73.5308
21
-27.708
0
LINE
8
BLACK
6
CONTINUOUS
10
73.5308
20
-27.708
11
73.5462
21
-27.7165
0
LINE
8
BLACK
6
CONTINUOUS
10
73.5462
20
-27.7165
11
73.6654
21
-27.7609
0
LINE
8
BLACK
6
CONTINUOUS
10
73.6654
20
-27.7609
11
73.6803
21
-27.7644
0
LINE
8
BLACK
6
CONTINUOUS
10
73.6803
20
-27.7644
11
73.7289
21
-27.7696
0
LINE
8
BLACK
6
CONTINUOUS
10
73.7289
20
-27.7696
11
73.7355
21
-27.77
0
LINE
8
BLACK
6
CONTINUOUS
10
73.7355
20
-27.77
11
74.7637
21
-27.77
0
LINE
8
BLACK
6
CONTINUOUS
10
74.7637
20
-27.77
11
74.7765
21
-27.7665
0
LINE
8
BLACK
6
CONTINUOUS
10
74.7765
20
-27.7665
11
74.78
21
-27.7537
0
LINE
8
BLACK
6
CONTINUOUS
10
74.78
20
-27.7537
11
74.78
21
-27.27
0
LINE
8
BLACK
6
CONTINUOUS
10
74.78
20
-27.27
11
73.78
21
-27.27
0
LINE
8
BLACK
6
CONTINUOUS
10
73.78
20
-27.27
11
73.78
21
-26.92
0
LINE
8
BLACK
6
CONTINUOUS
10
73.78
20
-26.92
11
73.2963
21
-26.92
0
LINE
8
BLACK
6
CONTINUOUS
10
73.2963
20
-26.92
11
73.2835
21
-26.9234
0
LINE
8
BLACK
6
CONTINUOUS
10
73.2835
20
-26.9234
11
73.28
21
-26.9363
0
LINE
8
BLACK
6
CONTINUOUS
10
73.28
20
-26.9363
11
73.28
21
-27.3145
0
LINE
8
BLACK
6
CONTINUOUS
10
76.78
20
-26.4037
11
76.78
21
-26.0255
0
LINE
8
BLACK
6
CONTINUOUS
10
76.78
20
-26.0255
11
76.7796
21
-26.0189
0
LINE
8
BLACK
6
CONTINUOUS
10
76.7796
20
-26.0189
11
76.7744
21
-25.9703
0
LINE
8
BLACK
6
CONTINUOUS
10
76.7744
20
-25.9703
11
76.7709
21
-25.9554
0
LINE
8
BLACK
6
CONTINUOUS
10
76.7709
20
-25.9554
11
76.7265
21
-25.8362
0
LINE
8
BLACK
6
CONTINUOUS
10
76.7265
20
-25.8362
11
76.718
21
-25.8208
0
LINE
8
BLACK
6
CONTINUOUS
10
76.718
20
-25.8208
11
76.6425
21
-25.7199
0
LINE
8
BLACK
6
CONTINUOUS
10
76.6425
20
-25.7199
11
76.6301
21
-25.7075
0
LINE
8
BLACK
6
CONTINUOUS
10
76.6301
20
-25.7075
11
76.5292
21
-25.632
0
LINE
8
BLACK
6
CONTINUOUS
10
76.5292
20
-25.632
11
76.5138
21
-25.6235
0
LINE
8
BLACK
6
CONTINUOUS
10
76.5138
20
-25.6235
11
76.3946
21
-25.5791
0
LINE
8
BLACK
6
CONTINUOUS
10
76.3946
20
-25.5791
11
76.3797
21
-25.5756
0
LINE
8
BLACK
6
CONTINUOUS
10
76.3797
20
-25.5756
11
76.3311
21
-25.5704
0
LINE
8
BLACK
6
CONTINUOUS
10
76.3311
20
-25.5704
11
76.3245
21
-25.57
0
LINE
8
BLACK
6
CONTINUOUS
10
76.3245
20
-25.57
11
75.2963
21
-25.57
0
LINE
8
BLACK
6
CONTINUOUS
10
75.2963
20
-25.57
11
75.2835
21
-25.5734
0
LINE
8
BLACK
6
CONTINUOUS
10
75.2835
20
-25.5734
11
75.28
21
-25.5863
0
LINE
8
BLACK
6
CONTINUOUS
10
75.28
20
-25.5863
11
75.28
21
-26.07
0
LINE
8
BLACK
6
CONTINUOUS
10
75.28
20
-26.07
11
76.28
21
-26.07
0
LINE
8
BLACK
6
CONTINUOUS
10
76.28
20
-26.07
11
76.28
21
-26.42
0
LINE
8
BLACK
6
CONTINUOUS
10
76.28
20
-26.42
11
76.7637
21
-26.42
0
LINE
8
BLACK
6
CONTINUOUS
10
76.7637
20
-26.42
11
76.7765
21
-26.4165
0
LINE
8
BLACK
6
CONTINUOUS
10
76.7765
20
-26.4165
11
76.78
21
-26.4037
0
LINE
8
BLACK
6
CONTINUOUS
10
73.28
20
-26.4037
11
73.2835
21
-26.4165
0
LINE
8
BLACK
6
CONTINUOUS
10
73.2835
20
-26.4165
11
73.2963
21
-26.42
0
LINE
8
BLACK
6
CONTINUOUS
10
73.2963
20
-26.42
11
73.78
21
-26.42
0
LINE
8
BLACK
6
CONTINUOUS
10
73.78
20
-26.42
11
73.78
21
-26.07
0
LINE
8
BLACK
6
CONTINUOUS
10
73.78
20
-26.07
11
74.78
21
-26.07
0
LINE
8
BLACK
6
CONTINUOUS
10
74.78
20
-26.07
11
74.78
21
-25.5863
0
LINE
8
BLACK
6
CONTINUOUS
10
74.78
20
-25.5863
11
74.7765
21
-25.5734
0
LINE
8
BLACK
6
CONTINUOUS
10
74.7765
20
-25.5734
11
74.7637
21
-25.57
0
LINE
8
BLACK
6
CONTINUOUS
10
74.7637
20
-25.57
11
73.7355
21
-25.57
0
LINE
8
BLACK
6
CONTINUOUS
10
73.7355
20
-25.57
11
73.7289
21
-25.5704
0
LINE
8
BLACK
6
CONTINUOUS
10
73.7289
20
-25.5704
11
73.6803
21
-25.5756
0
LINE
8
BLACK
6
CONTINUOUS
10
73.6803
20
-25.5756
11
73.6654
21
-25.5791
0
LINE
8
BLACK
6
CONTINUOUS
10
73.6654
20
-25.5791
11
73.5462
21
-25.6235
0
LINE
8
BLACK
6
CONTINUOUS
10
73.5462
20
-25.6235
11
73.5308
21
-25.632
0
LINE
8
BLACK
6
CONTINUOUS
10
73.5308
20
-25.632
11
73.4299
21
-25.7075
0
LINE
8
BLACK
6
CONTINUOUS
10
73.4299
20
-25.7075
11
73.4175
21
-25.7199
0
LINE
8
BLACK
6
CONTINUOUS
10
73.4175
20
-25.7199
11
73.342
21
-25.8208
0
LINE
8
BLACK
6
CONTINUOUS
10
73.342
20
-25.8208
11
73.3335
21
-25.8362
0
LINE
8
BLACK
6
CONTINUOUS
10
73.3335
20
-25.8362
11
73.2891
21
-25.9554
0
LINE
8
BLACK
6
CONTINUOUS
10
73.2891
20
-25.9554
11
73.2856
21
-25.9703
0
LINE
8
BLACK
6
CONTINUOUS
10
73.2856
20
-25.9703
11
73.2804
21
-26.0189
0
LINE
8
BLACK
6
CONTINUOUS
10
73.2804
20
-26.0189
11
73.28
21
-26.0255
0
LINE
8
BLACK
6
CONTINUOUS
10
73.28
20
-26.0255
11
73.28
21
-26.4037
0
LINE
8
BLACK
6
CONTINUOUS
10
40.9181
20
-34.704
11
41.09
21
-34.7806
0
LINE
8
BLACK
6
CONTINUOUS
10
41.09
20
-34.7806
11
41.2422
21
-34.8912
0
LINE
8
BLACK
6
CONTINUOUS
10
41.2422
20
-34.8912
11
41.3681
21
-35.031
0
LINE
8
BLACK
6
CONTINUOUS
10
41.3681
20
-35.031
11
41.4622
21
-35.1939
0
LINE
8
BLACK
6
CONTINUOUS
10
41.4622
20
-35.1939
11
41.5203
21
-35.3729
0
LINE
8
BLACK
6
CONTINUOUS
10
41.5203
20
-35.3729
11
41.54
21
-35.56
0
LINE
8
BLACK
6
CONTINUOUS
10
41.54
20
-35.56
11
41.5203
21
-35.7471
0
LINE
8
BLACK
6
CONTINUOUS
10
41.5203
20
-35.7471
11
41.4622
21
-35.9261
0
LINE
8
BLACK
6
CONTINUOUS
10
41.4622
20
-35.9261
11
41.3681
21
-36.089
0
LINE
8
BLACK
6
CONTINUOUS
10
41.3681
20
-36.089
11
41.2422
21
-36.2288
0
LINE
8
BLACK
6
CONTINUOUS
10
41.2422
20
-36.2288
11
41.09
21
-36.3394
0
LINE
8
BLACK
6
CONTINUOUS
10
41.09
20
-36.3394
11
40.9181
21
-36.416
0
LINE
8
BLACK
6
CONTINUOUS
10
40.9181
20
-36.416
11
40.765
21
-36.4485
0
LINE
8
BLACK
6
CONTINUOUS
10
40.765
20
-36.4485
11
40.765
21
-41.7863
0
LINE
8
BLACK
6
CONTINUOUS
10
40.765
20
-41.7863
11
40.9837
21
-41.8228
0
LINE
8
BLACK
6
CONTINUOUS
10
40.9837
20
-41.8228
11
41.2024
21
-41.8979
0
LINE
8
BLACK
6
CONTINUOUS
10
41.2024
20
-41.8979
11
41.4057
21
-42.008
0
LINE
8
BLACK
6
CONTINUOUS
10
41.4057
20
-42.008
11
41.5882
21
-42.15
0
LINE
8
BLACK
6
CONTINUOUS
10
41.5882
20
-42.15
11
41.7448
21
-42.3201
0
LINE
8
BLACK
6
CONTINUOUS
10
41.7448
20
-42.3201
11
41.8713
21
-42.5137
0
LINE
8
BLACK
6
CONTINUOUS
10
41.8713
20
-42.5137
11
41.9641
21
-42.7254
0
LINE
8
BLACK
6
CONTINUOUS
10
41.9641
20
-42.7254
11
42.0209
21
-42.9496
0
LINE
8
BLACK
6
CONTINUOUS
10
42.0209
20
-42.9496
11
42.04
21
-43.18
0
LINE
8
BLACK
6
CONTINUOUS
10
42.04
20
-43.18
11
42.0209
21
-43.4104
0
LINE
8
BLACK
6
CONTINUOUS
10
42.0209
20
-43.4104
11
41.9641
21
-43.6346
0
LINE
8
BLACK
6
CONTINUOUS
10
41.9641
20
-43.6346
11
41.8713
21
-43.8463
0
LINE
8
BLACK
6
CONTINUOUS
10
41.8713
20
-43.8463
11
41.7448
21
-44.0399
0
LINE
8
BLACK
6
CONTINUOUS
10
41.7448
20
-44.0399
11
41.5882
21
-44.21
0
LINE
8
BLACK
6
CONTINUOUS
10
41.5882
20
-44.21
11
41.4057
21
-44.352
0
LINE
8
BLACK
6
CONTINUOUS
10
41.4057
20
-44.352
11
41.2024
21
-44.4621
0
LINE
8
BLACK
6
CONTINUOUS
10
41.2024
20
-44.4621
11
40.9837
21
-44.5372
0
LINE
8
BLACK
6
CONTINUOUS
10
40.9837
20
-44.5372
11
40.7556
21
-44.5752
0
LINE
8
BLACK
6
CONTINUOUS
10
40.7556
20
-44.5752
11
40.5244
21
-44.5752
0
LINE
8
BLACK
6
CONTINUOUS
10
40.5244
20
-44.5752
11
40.2963
21
-44.5372
0
LINE
8
BLACK
6
CONTINUOUS
10
40.2963
20
-44.5372
11
40.0776
21
-44.4621
0
LINE
8
BLACK
6
CONTINUOUS
10
40.0776
20
-44.4621
11
39.8743
21
-44.352
0
LINE
8
BLACK
6
CONTINUOUS
10
39.8743
20
-44.352
11
39.6918
21
-44.21
0
LINE
8
BLACK
6
CONTINUOUS
10
39.6918
20
-44.21
11
39.5352
21
-44.0399
0
LINE
8
BLACK
6
CONTINUOUS
10
39.5352
20
-44.0399
11
39.4087
21
-43.8463
0
LINE
8
BLACK
6
CONTINUOUS
10
39.4087
20
-43.8463
11
39.3159
21
-43.6346
0
LINE
8
BLACK
6
CONTINUOUS
10
39.3159
20
-43.6346
11
39.2591
21
-43.4104
0
LINE
8
BLACK
6
CONTINUOUS
10
39.2591
20
-43.4104
11
39.24
21
-43.18
0
LINE
8
BLACK
6
CONTINUOUS
10
39.24
20
-43.18
11
39.2591
21
-42.9496
0
LINE
8
BLACK
6
CONTINUOUS
10
39.2591
20
-42.9496
11
39.3159
21
-42.7254
0
LINE
8
BLACK
6
CONTINUOUS
10
39.3159
20
-42.7254
11
39.4087
21
-42.5137
0
LINE
8
BLACK
6
CONTINUOUS
10
39.4087
20
-42.5137
11
39.5352
21
-42.3201
0
LINE
8
BLACK
6
CONTINUOUS
10
39.5352
20
-42.3201
11
39.6918
21
-42.15
0
LINE
8
BLACK
6
CONTINUOUS
10
39.6918
20
-42.15
11
39.8743
21
-42.008
0
LINE
8
BLACK
6
CONTINUOUS
10
39.8743
20
-42.008
11
40.0776
21
-41.8979
0
LINE
8
BLACK
6
CONTINUOUS
10
40.0776
20
-41.8979
11
40.2963
21
-41.8228
0
LINE
8
BLACK
6
CONTINUOUS
10
40.2963
20
-41.8228
11
40.515
21
-41.7863
0
LINE
8
BLACK
6
CONTINUOUS
10
40.515
20
-41.7863
11
40.515
21
-36.4485
0
LINE
8
BLACK
6
CONTINUOUS
10
40.515
20
-36.4485
11
40.3619
21
-36.416
0
LINE
8
BLACK
6
CONTINUOUS
10
40.3619
20
-36.416
11
40.19
21
-36.3394
0
LINE
8
BLACK
6
CONTINUOUS
10
40.19
20
-36.3394
11
40.0378
21
-36.2288
0
LINE
8
BLACK
6
CONTINUOUS
10
40.0378
20
-36.2288
11
39.9119
21
-36.089
0
LINE
8
BLACK
6
CONTINUOUS
10
39.9119
20
-36.089
11
39.8178
21
-35.9261
0
LINE
8
BLACK
6
CONTINUOUS
10
39.8178
20
-35.9261
11
39.7597
21
-35.7471
0
LINE
8
BLACK
6
CONTINUOUS
10
39.7597
20
-35.7471
11
39.74
21
-35.56
0
LINE
8
BLACK
6
CONTINUOUS
10
39.74
20
-35.56
11
39.7597
21
-35.3729
0
LINE
8
BLACK
6
CONTINUOUS
10
39.7597
20
-35.3729
11
39.8178
21
-35.1939
0
LINE
8
BLACK
6
CONTINUOUS
10
39.8178
20
-35.1939
11
39.9119
21
-35.031
0
LINE
8
BLACK
6
CONTINUOUS
10
39.9119
20
-35.031
11
40.0378
21
-34.8912
0
LINE
8
BLACK
6
CONTINUOUS
10
40.0378
20
-34.8912
11
40.19
21
-34.7806
0
LINE
8
BLACK
6
CONTINUOUS
10
40.19
20
-34.7806
11
40.3619
21
-34.704
0
LINE
8
BLACK
6
CONTINUOUS
10
40.3619
20
-34.704
11
40.5459
21
-34.6649
0
LINE
8
BLACK
6
CONTINUOUS
10
40.5459
20
-34.6649
11
40.7341
21
-34.6649
0
LINE
8
BLACK
6
CONTINUOUS
10
40.7341
20
-34.6649
11
40.9181
21
-34.704
0
LINE
8
BLACK
6
CONTINUOUS
10
40.9837
20
-16.4228
11
41.2024
21
-16.4979
0
LINE
8
BLACK
6
CONTINUOUS
10
41.2024
20
-16.4979
11
41.4057
21
-16.608
0
LINE
8
BLACK
6
CONTINUOUS
10
41.4057
20
-16.608
11
41.5882
21
-16.75
0
LINE
8
BLACK
6
CONTINUOUS
10
41.5882
20
-16.75
11
41.7448
21
-16.9201
0
LINE
8
BLACK
6
CONTINUOUS
10
41.7448
20
-16.9201
11
41.8713
21
-17.1137
0
LINE
8
BLACK
6
CONTINUOUS
10
41.8713
20
-17.1137
11
41.9641
21
-17.3254
0
LINE
8
BLACK
6
CONTINUOUS
10
41.9641
20
-17.3254
11
42.0209
21
-17.5496
0
LINE
8
BLACK
6
CONTINUOUS
10
42.0209
20
-17.5496
11
42.04
21
-17.78
0
LINE
8
BLACK
6
CONTINUOUS
10
42.04
20
-17.78
11
42.0209
21
-18.0104
0
LINE
8
BLACK
6
CONTINUOUS
10
42.0209
20
-18.0104
11
41.9641
21
-18.2346
0
LINE
8
BLACK
6
CONTINUOUS
10
41.9641
20
-18.2346
11
41.8713
21
-18.4463
0
LINE
8
BLACK
6
CONTINUOUS
10
41.8713
20
-18.4463
11
41.7448
21
-18.6399
0
LINE
8
BLACK
6
CONTINUOUS
10
41.7448
20
-18.6399
11
41.5882
21
-18.81
0
LINE
8
BLACK
6
CONTINUOUS
10
41.5882
20
-18.81
11
41.4057
21
-18.952
0
LINE
8
BLACK
6
CONTINUOUS
10
41.4057
20
-18.952
11
41.2024
21
-19.0621
0
LINE
8
BLACK
6
CONTINUOUS
10
41.2024
20
-19.0621
11
40.9837
21
-19.1372
0
LINE
8
BLACK
6
CONTINUOUS
10
40.9837
20
-19.1372
11
40.765
21
-19.1737
0
LINE
8
BLACK
6
CONTINUOUS
10
40.765
20
-19.1737
11
40.765
21
-24.5115
0
LINE
8
BLACK
6
CONTINUOUS
10
40.765
20
-24.5115
11
40.9181
21
-24.544
0
LINE
8
BLACK
6
CONTINUOUS
10
40.9181
20
-24.544
11
41.09
21
-24.6206
0
LINE
8
BLACK
6
CONTINUOUS
10
41.09
20
-24.6206
11
41.2422
21
-24.7312
0
LINE
8
BLACK
6
CONTINUOUS
10
41.2422
20
-24.7312
11
41.3681
21
-24.871
0
LINE
8
BLACK
6
CONTINUOUS
10
41.3681
20
-24.871
11
41.4622
21
-25.0339
0
LINE
8
BLACK
6
CONTINUOUS
10
41.4622
20
-25.0339
11
41.5203
21
-25.2129
0
LINE
8
BLACK
6
CONTINUOUS
10
41.5203
20
-25.2129
11
41.54
21
-25.4
0
LINE
8
BLACK
6
CONTINUOUS
10
41.54
20
-25.4
11
41.5203
21
-25.5871
0
LINE
8
BLACK
6
CONTINUOUS
10
41.5203
20
-25.5871
11
41.4622
21
-25.7661
0
LINE
8
BLACK
6
CONTINUOUS
10
41.4622
20
-25.7661
11
41.3681
21
-25.929
0
LINE
8
BLACK
6
CONTINUOUS
10
41.3681
20
-25.929
11
41.2422
21
-26.0688
0
LINE
8
BLACK
6
CONTINUOUS
10
41.2422
20
-26.0688
11
41.09
21
-26.1794
0
LINE
8
BLACK
6
CONTINUOUS
10
41.09
20
-26.1794
11
40.9181
21
-26.256
0
LINE
8
BLACK
6
CONTINUOUS
10
40.9181
20
-26.256
11
40.7341
21
-26.2951
0
LINE
8
BLACK
6
CONTINUOUS
10
40.7341
20
-26.2951
11
40.5459
21
-26.2951
0
LINE
8
BLACK
6
CONTINUOUS
10
40.5459
20
-26.2951
11
40.3619
21
-26.256
0
LINE
8
BLACK
6
CONTINUOUS
10
40.3619
20
-26.256
11
40.19
21
-26.1794
0
LINE
8
BLACK
6
CONTINUOUS
10
40.19
20
-26.1794
11
40.0378
21
-26.0688
0
LINE
8
BLACK
6
CONTINUOUS
10
40.0378
20
-26.0688
11
39.9119
21
-25.929
0
LINE
8
BLACK
6
CONTINUOUS
10
39.9119
20
-25.929
11
39.8178
21
-25.7661
0
LINE
8
BLACK
6
CONTINUOUS
10
39.8178
20
-25.7661
11
39.7597
21
-25.5871
0
LINE
8
BLACK
6
CONTINUOUS
10
39.7597
20
-25.5871
11
39.74
21
-25.4
0
LINE
8
BLACK
6
CONTINUOUS
10
39.74
20
-25.4
11
39.7597
21
-25.2129
0
LINE
8
BLACK
6
CONTINUOUS
10
39.7597
20
-25.2129
11
39.8178
21
-25.0339
0
LINE
8
BLACK
6
CONTINUOUS
10
39.8178
20
-25.0339
11
39.9119
21
-24.871
0
LINE
8
BLACK
6
CONTINUOUS
10
39.9119
20
-24.871
11
40.0378
21
-24.7312
0
LINE
8
BLACK
6
CONTINUOUS
10
40.0378
20
-24.7312
11
40.19
21
-24.6206
0
LINE
8
BLACK
6
CONTINUOUS
10
40.19
20
-24.6206
11
40.3619
21
-24.544
0
LINE
8
BLACK
6
CONTINUOUS
10
40.3619
20
-24.544
11
40.515
21
-24.5115
0
LINE
8
BLACK
6
CONTINUOUS
10
40.515
20
-24.5115
11
40.515
21
-19.1737
0
LINE
8
BLACK
6
CONTINUOUS
10
40.515
20
-19.1737
11
40.2963
21
-19.1372
0
LINE
8
BLACK
6
CONTINUOUS
10
40.2963
20
-19.1372
11
40.0776
21
-19.0621
0
LINE
8
BLACK
6
CONTINUOUS
10
40.0776
20
-19.0621
11
39.8743
21
-18.952
0
LINE
8
BLACK
6
CONTINUOUS
10
39.8743
20
-18.952
11
39.6918
21
-18.81
0
LINE
8
BLACK
6
CONTINUOUS
10
39.6918
20
-18.81
11
39.5352
21
-18.6399
0
LINE
8
BLACK
6
CONTINUOUS
10
39.5352
20
-18.6399
11
39.4087
21
-18.4463
0
LINE
8
BLACK
6
CONTINUOUS
10
39.4087
20
-18.4463
11
39.3159
21
-18.2346
0
LINE
8
BLACK
6
CONTINUOUS
10
39.3159
20
-18.2346
11
39.2591
21
-18.0104
0
LINE
8
BLACK
6
CONTINUOUS
10
39.2591
20
-18.0104
11
39.24
21
-17.78
0
LINE
8
BLACK
6
CONTINUOUS
10
39.24
20
-17.78
11
39.2591
21
-17.5496
0
LINE
8
BLACK
6
CONTINUOUS
10
39.2591
20
-17.5496
11
39.3159
21
-17.3254
0
LINE
8
BLACK
6
CONTINUOUS
10
39.3159
20
-17.3254
11
39.4087
21
-17.1137
0
LINE
8
BLACK
6
CONTINUOUS
10
39.4087
20
-17.1137
11
39.5352
21
-16.9201
0
LINE
8
BLACK
6
CONTINUOUS
10
39.5352
20
-16.9201
11
39.6918
21
-16.75
0
LINE
8
BLACK
6
CONTINUOUS
10
39.6918
20
-16.75
11
39.8743
21
-16.608
0
LINE
8
BLACK
6
CONTINUOUS
10
39.8743
20
-16.608
11
40.0776
21
-16.4979
0
LINE
8
BLACK
6
CONTINUOUS
10
40.0776
20
-16.4979
11
40.2963
21
-16.4228
0
LINE
8
BLACK
6
CONTINUOUS
10
40.2963
20
-16.4228
11
40.5244
21
-16.3848
0
LINE
8
BLACK
6
CONTINUOUS
10
40.5244
20
-16.3848
11
40.7556
21
-16.3848
0
LINE
8
BLACK
6
CONTINUOUS
10
40.7556
20
-16.3848
11
40.9837
21
-16.4228
0
LINE
8
BLACK
6
CONTINUOUS
10
33.02
20
-25.1337
11
33.02
21
-12.824
0
LINE
8
BLACK
6
CONTINUOUS
10
33.02
20
-12.824
11
33.0366
21
-12.762
0
LINE
8
BLACK
6
CONTINUOUS
10
33.0366
20
-12.762
11
33.082
21
-12.7166
0
LINE
8
BLACK
6
CONTINUOUS
10
33.082
20
-12.7166
11
33.144
21
-12.7
0
LINE
8
BLACK
6
CONTINUOUS
10
33.144
20
-12.7
11
53.216
21
-12.7
0
LINE
8
BLACK
6
CONTINUOUS
10
53.216
20
-12.7
11
53.278
21
-12.7166
0
LINE
8
BLACK
6
CONTINUOUS
10
53.278
20
-12.7166
11
53.3234
21
-12.762
0
LINE
8
BLACK
6
CONTINUOUS
10
53.3234
20
-12.762
11
53.34
21
-12.824
0
LINE
8
BLACK
6
CONTINUOUS
10
53.34
20
-12.824
11
53.34
21
-27.956
0
LINE
8
BLACK
6
CONTINUOUS
10
53.34
20
-27.956
11
53.3234
21
-28.018
0
LINE
8
BLACK
6
CONTINUOUS
10
53.3234
20
-28.018
11
53.278
21
-28.0634
0
LINE
8
BLACK
6
CONTINUOUS
10
53.278
20
-28.0634
11
53.216
21
-28.08
0
LINE
8
BLACK
6
CONTINUOUS
10
53.216
20
-28.08
11
53.1929
21
-28.08
0
LINE
8
BLACK
6
CONTINUOUS
10
53.1929
20
-28.08
11
53.1851
21
-28.0805
0
LINE
8
BLACK
6
CONTINUOUS
10
53.1851
20
-28.0805
11
52.8933
21
-28.1174
0
LINE
8
BLACK
6
CONTINUOUS
10
52.8933
20
-28.1174
11
52.8856
21
-28.1188
0
LINE
8
BLACK
6
CONTINUOUS
10
52.8856
20
-28.1188
11
52.6007
21
-28.192
0
LINE
8
BLACK
6
CONTINUOUS
10
52.6007
20
-28.192
11
52.5933
21
-28.1944
0
LINE
8
BLACK
6
CONTINUOUS
10
52.5933
20
-28.1944
11
52.3197
21
-28.3027
0
LINE
8
BLACK
6
CONTINUOUS
10
52.3197
20
-28.3027
11
52.3127
21
-28.306
0
LINE
8
BLACK
6
CONTINUOUS
10
52.3127
20
-28.306
11
52.0549
21
-28.4477
0
LINE
8
BLACK
6
CONTINUOUS
10
52.0549
20
-28.4477
11
52.0483
21
-28.4519
0
LINE
8
BLACK
6
CONTINUOUS
10
52.0483
20
-28.4519
11
51.8374
21
-28.6051
0
LINE
8
BLACK
6
CONTINUOUS
10
51.8374
20
-28.6051
11
51.8302
21
-28.6133
0
LINE
8
BLACK
6
CONTINUOUS
10
51.8302
20
-28.6133
11
51.8361
21
-28.6225
0
LINE
8
BLACK
6
CONTINUOUS
10
51.8361
20
-28.6225
11
52.1883
21
-28.9748
0
LINE
8
BLACK
6
CONTINUOUS
10
52.1883
20
-28.9748
11
52.3128
21
-28.8816
0
LINE
8
BLACK
6
CONTINUOUS
10
52.3128
20
-28.8816
11
52.5507
21
-28.7517
0
LINE
8
BLACK
6
CONTINUOUS
10
52.5507
20
-28.7517
11
52.8047
21
-28.657
0
LINE
8
BLACK
6
CONTINUOUS
10
52.8047
20
-28.657
11
53.0696
21
-28.5993
0
LINE
8
BLACK
6
CONTINUOUS
10
53.0696
20
-28.5993
11
53.34
21
-28.58
0
LINE
8
BLACK
6
CONTINUOUS
10
53.34
20
-28.58
11
53.6104
21
-28.5993
0
LINE
8
BLACK
6
CONTINUOUS
10
53.6104
20
-28.5993
11
53.8753
21
-28.657
0
LINE
8
BLACK
6
CONTINUOUS
10
53.8753
20
-28.657
11
54.1293
21
-28.7517
0
LINE
8
BLACK
6
CONTINUOUS
10
54.1293
20
-28.7517
11
54.3672
21
-28.8816
0
LINE
8
BLACK
6
CONTINUOUS
10
54.3672
20
-28.8816
11
54.5842
21
-29.0441
0
LINE
8
BLACK
6
CONTINUOUS
10
54.5842
20
-29.0441
11
54.7759
21
-29.2358
0
LINE
8
BLACK
6
CONTINUOUS
10
54.7759
20
-29.2358
11
54.9384
21
-29.4528
0
LINE
8
BLACK
6
CONTINUOUS
10
54.9384
20
-29.4528
11
55.0683
21
-29.6907
0
LINE
8
BLACK
6
CONTINUOUS
10
55.0683
20
-29.6907
11
55.163
21
-29.9447
0
LINE
8
BLACK
6
CONTINUOUS
10
55.163
20
-29.9447
11
55.2207
21
-30.2096
0
LINE
8
BLACK
6
CONTINUOUS
10
55.2207
20
-30.2096
11
55.24
21
-30.48
0
LINE
8
BLACK
6
CONTINUOUS
10
55.24
20
-30.48
11
55.2207
21
-30.7504
0
LINE
8
BLACK
6
CONTINUOUS
10
55.2207
20
-30.7504
11
55.163
21
-31.0153
0
LINE
8
BLACK
6
CONTINUOUS
10
55.163
20
-31.0153
11
55.0683
21
-31.2693
0
LINE
8
BLACK
6
CONTINUOUS
10
55.0683
20
-31.2693
11
54.9384
21
-31.5072
0
LINE
8
BLACK
6
CONTINUOUS
10
54.9384
20
-31.5072
11
54.7759
21
-31.7242
0
LINE
8
BLACK
6
CONTINUOUS
10
54.7759
20
-31.7242
11
54.5842
21
-31.9159
0
LINE
8
BLACK
6
CONTINUOUS
10
54.5842
20
-31.9159
11
54.3672
21
-32.0784
0
LINE
8
BLACK
6
CONTINUOUS
10
54.3672
20
-32.0784
11
54.1293
21
-32.2083
0
LINE
8
BLACK
6
CONTINUOUS
10
54.1293
20
-32.2083
11
53.8753
21
-32.303
0
LINE
8
BLACK
6
CONTINUOUS
10
53.8753
20
-32.303
11
53.6104
21
-32.3607
0
LINE
8
BLACK
6
CONTINUOUS
10
53.6104
20
-32.3607
11
53.34
21
-32.38
0
LINE
8
BLACK
6
CONTINUOUS
10
53.34
20
-32.38
11
53.0696
21
-32.3607
0
LINE
8
BLACK
6
CONTINUOUS
10
53.0696
20
-32.3607
11
52.8047
21
-32.303
0
LINE
8
BLACK
6
CONTINUOUS
10
52.8047
20
-32.303
11
52.5507
21
-32.2083
0
LINE
8
BLACK
6
CONTINUOUS
10
52.5507
20
-32.2083
11
52.3128
21
-32.0784
0
LINE
8
BLACK
6
CONTINUOUS
10
52.3128
20
-32.0784
11
52.1883
21
-31.9852
0
LINE
8
BLACK
6
CONTINUOUS
10
52.1883
20
-31.9852
11
51.8361
21
-32.3375
0
LINE
8
BLACK
6
CONTINUOUS
10
51.8361
20
-32.3375
11
51.8302
21
-32.3467
0
LINE
8
BLACK
6
CONTINUOUS
10
51.8302
20
-32.3467
11
51.8374
21
-32.3549
0
LINE
8
BLACK
6
CONTINUOUS
10
51.8374
20
-32.3549
11
52.0483
21
-32.5081
0
LINE
8
BLACK
6
CONTINUOUS
10
52.0483
20
-32.5081
11
52.0549
21
-32.5123
0
LINE
8
BLACK
6
CONTINUOUS
10
52.0549
20
-32.5123
11
52.3127
21
-32.654
0
LINE
8
BLACK
6
CONTINUOUS
10
52.3127
20
-32.654
11
52.3197
21
-32.6573
0
LINE
8
BLACK
6
CONTINUOUS
10
52.3197
20
-32.6573
11
52.5933
21
-32.7656
0
LINE
8
BLACK
6
CONTINUOUS
10
52.5933
20
-32.7656
11
52.6007
21
-32.768
0
LINE
8
BLACK
6
CONTINUOUS
10
52.6007
20
-32.768
11
52.8856
21
-32.8412
0
LINE
8
BLACK
6
CONTINUOUS
10
52.8856
20
-32.8412
11
52.8933
21
-32.8426
0
LINE
8
BLACK
6
CONTINUOUS
10
52.8933
20
-32.8426
11
53.1851
21
-32.8795
0
LINE
8
BLACK
6
CONTINUOUS
10
53.1851
20
-32.8795
11
53.1929
21
-32.88
0
LINE
8
BLACK
6
CONTINUOUS
10
53.1929
20
-32.88
11
53.216
21
-32.88
0
LINE
8
BLACK
6
CONTINUOUS
10
53.216
20
-32.88
11
53.278
21
-32.8966
0
LINE
8
BLACK
6
CONTINUOUS
10
53.278
20
-32.8966
11
53.3234
21
-32.942
0
LINE
8
BLACK
6
CONTINUOUS
10
53.3234
20
-32.942
11
53.34
21
-33.004
0
LINE
8
BLACK
6
CONTINUOUS
10
53.34
20
-33.004
11
53.34
21
-50.676
0
LINE
8
BLACK
6
CONTINUOUS
10
53.34
20
-50.676
11
53.3234
21
-50.738
0
LINE
8
BLACK
6
CONTINUOUS
10
53.3234
20
-50.738
11
53.278
21
-50.7834
0
LINE
8
BLACK
6
CONTINUOUS
10
53.278
20
-50.7834
11
53.216
21
-50.8
0
LINE
8
BLACK
6
CONTINUOUS
10
53.216
20
-50.8
11
33.144
21
-50.8
0
LINE
8
BLACK
6
CONTINUOUS
10
33.144
20
-50.8
11
33.082
21
-50.7834
0
LINE
8
BLACK
6
CONTINUOUS
10
33.082
20
-50.7834
11
33.0366
21
-50.738
0
LINE
8
BLACK
6
CONTINUOUS
10
33.0366
20
-50.738
11
33.02
21
-50.676
0
LINE
8
BLACK
6
CONTINUOUS
10
33.02
20
-50.676
11
33.02
21
-36.5045
0
LINE
8
BLACK
6
CONTINUOUS
10
33.02
20
-36.5045
11
33.02
21
-35.2937
0
LINE
8
BLACK
6
CONTINUOUS
10
33.02
20
-35.2937
11
33.02
21
-30.4839
0
LINE
8
BLACK
6
CONTINUOUS
10
33.02
20
-30.4839
11
33.02
21
-26.3445
0
LINE
8
BLACK
6
CONTINUOUS
10
33.02
20
-26.3445
11
33.02
21
-25.1337
0
LINE
8
BLACK
6
CONTINUOUS
10
38.35
20
-36.9437
11
38.3534
21
-36.9565
0
LINE
8
BLACK
6
CONTINUOUS
10
38.3534
20
-36.9565
11
38.3663
21
-36.96
0
LINE
8
BLACK
6
CONTINUOUS
10
38.3663
20
-36.96
11
39.0445
21
-36.96
0
LINE
8
BLACK
6
CONTINUOUS
10
39.0445
20
-36.96
11
39.0511
21
-36.9596
0
LINE
8
BLACK
6
CONTINUOUS
10
39.0511
20
-36.9596
11
39.0997
21
-36.9544
0
LINE
8
BLACK
6
CONTINUOUS
10
39.0997
20
-36.9544
11
39.1146
21
-36.9509
0
LINE
8
BLACK
6
CONTINUOUS
10
39.1146
20
-36.9509
11
39.2338
21
-36.9065
0
LINE
8
BLACK
6
CONTINUOUS
10
39.2338
20
-36.9065
11
39.2492
21
-36.898
0
LINE
8
BLACK
6
CONTINUOUS
10
39.2492
20
-36.898
11
39.3501
21
-36.8225
0
LINE
8
BLACK
6
CONTINUOUS
10
39.3501
20
-36.8225
11
39.3625
21
-36.8101
0
LINE
8
BLACK
6
CONTINUOUS
10
39.3625
20
-36.8101
11
39.438
21
-36.7092
0
LINE
8
BLACK
6
CONTINUOUS
10
39.438
20
-36.7092
11
39.4465
21
-36.6938
0
LINE
8
BLACK
6
CONTINUOUS
10
39.4465
20
-36.6938
11
39.4721
21
-36.6251
0
LINE
8
BLACK
6
CONTINUOUS
10
39.4721
20
-36.6251
11
39.508
21
-36.5739
0
LINE
8
BLACK
6
CONTINUOUS
10
39.508
20
-36.5739
11
39.5644
21
-36.5467
0
LINE
8
BLACK
6
CONTINUOUS
10
39.5644
20
-36.5467
11
39.6269
21
-36.5506
0
LINE
8
BLACK
6
CONTINUOUS
10
39.6269
20
-36.5506
11
39.6795
21
-36.5844
0
LINE
8
BLACK
6
CONTINUOUS
10
39.6795
20
-36.5844
11
39.6882
21
-36.5939
0
LINE
8
BLACK
6
CONTINUOUS
10
39.6882
20
-36.5939
11
39.8714
21
-36.7365
0
LINE
8
BLACK
6
CONTINUOUS
10
39.8714
20
-36.7365
11
39.9349
21
-36.7708
0
LINE
8
BLACK
6
CONTINUOUS
10
39.9349
20
-36.7708
11
39.9495
21
-36.7788
0
LINE
8
BLACK
6
CONTINUOUS
10
39.9495
20
-36.7788
11
39.997
21
-36.8243
0
LINE
8
BLACK
6
CONTINUOUS
10
39.997
20
-36.8243
11
40.0145
21
-36.8878
0
LINE
8
BLACK
6
CONTINUOUS
10
40.0145
20
-36.8878
11
40.0145
21
-41.2988
0
LINE
8
BLACK
6
CONTINUOUS
10
40.0145
20
-41.2988
11
40.0045
21
-41.3476
0
LINE
8
BLACK
6
CONTINUOUS
10
40.0045
20
-41.3476
11
39.9761
21
-41.3886
0
LINE
8
BLACK
6
CONTINUOUS
10
39.9761
20
-41.3886
11
39.9338
21
-41.415
0
LINE
8
BLACK
6
CONTINUOUS
10
39.9338
20
-41.415
11
39.8526
21
-41.4453
0
LINE
8
BLACK
6
CONTINUOUS
10
39.8526
20
-41.4453
11
39.8526
21
-41.4453
0
LINE
8
BLACK
6
CONTINUOUS
10
39.8526
20
-41.4453
11
39.8485
21
-41.4468
0
LINE
8
BLACK
6
CONTINUOUS
10
39.8485
20
-41.4468
11
39.8446
21
-41.4489
0
LINE
8
BLACK
6
CONTINUOUS
10
39.8446
20
-41.4489
11
39.8446
21
-41.449
0
LINE
8
BLACK
6
CONTINUOUS
10
39.8446
20
-41.449
11
39.6138
21
-41.575
0
LINE
8
BLACK
6
CONTINUOUS
10
39.6138
20
-41.575
11
39.6138
21
-41.575
0
LINE
8
BLACK
6
CONTINUOUS
10
39.6138
20
-41.575
11
39.6099
21
-41.5771
0
LINE
8
BLACK
6
CONTINUOUS
10
39.6099
20
-41.5771
11
39.6063
21
-41.5798
0
LINE
8
BLACK
6
CONTINUOUS
10
39.6063
20
-41.5798
11
39.6063
21
-41.5798
0
LINE
8
BLACK
6
CONTINUOUS
10
39.6063
20
-41.5798
11
39.3958
21
-41.7374
0
LINE
8
BLACK
6
CONTINUOUS
10
39.3958
20
-41.7374
11
39.3958
21
-41.7374
0
LINE
8
BLACK
6
CONTINUOUS
10
39.3958
20
-41.7374
11
39.3923
21
-41.74
0
LINE
8
BLACK
6
CONTINUOUS
10
39.3923
20
-41.74
11
39.3891
21
-41.7432
0
LINE
8
BLACK
6
CONTINUOUS
10
39.3891
20
-41.7432
11
39.3891
21
-41.7432
0
LINE
8
BLACK
6
CONTINUOUS
10
39.3891
20
-41.7432
11
39.2032
21
-41.9291
0
LINE
8
BLACK
6
CONTINUOUS
10
39.2032
20
-41.9291
11
39.2032
21
-41.9291
0
LINE
8
BLACK
6
CONTINUOUS
10
39.2032
20
-41.9291
11
39.2
21
-41.9323
0
LINE
8
BLACK
6
CONTINUOUS
10
39.2
20
-41.9323
11
39.1974
21
-41.9358
0
LINE
8
BLACK
6
CONTINUOUS
10
39.1974
20
-41.9358
11
39.1974
21
-41.9358
0
LINE
8
BLACK
6
CONTINUOUS
10
39.1974
20
-41.9358
11
39.0398
21
-42.1463
0
LINE
8
BLACK
6
CONTINUOUS
10
39.0398
20
-42.1463
11
39.0398
21
-42.1463
0
LINE
8
BLACK
6
CONTINUOUS
10
39.0398
20
-42.1463
11
39.0371
21
-42.1499
0
LINE
8
BLACK
6
CONTINUOUS
10
39.0371
20
-42.1499
11
39.035
21
-42.1538
0
LINE
8
BLACK
6
CONTINUOUS
10
39.035
20
-42.1538
11
39.035
21
-42.1538
0
LINE
8
BLACK
6
CONTINUOUS
10
39.035
20
-42.1538
11
38.909
21
-42.3846
0
LINE
8
BLACK
6
CONTINUOUS
10
38.909
20
-42.3846
11
38.9089
21
-42.3846
0
LINE
8
BLACK
6
CONTINUOUS
10
38.9089
20
-42.3846
11
38.9068
21
-42.3885
0
LINE
8
BLACK
6
CONTINUOUS
10
38.9068
20
-42.3885
11
38.9053
21
-42.3926
0
LINE
8
BLACK
6
CONTINUOUS
10
38.9053
20
-42.3926
11
38.9053
21
-42.3926
0
LINE
8
BLACK
6
CONTINUOUS
10
38.9053
20
-42.3926
11
38.8134
21
-42.6391
0
LINE
8
BLACK
6
CONTINUOUS
10
38.8134
20
-42.6391
11
38.8134
21
-42.6391
0
LINE
8
BLACK
6
CONTINUOUS
10
38.8134
20
-42.6391
11
38.8118
21
-42.6432
0
LINE
8
BLACK
6
CONTINUOUS
10
38.8118
20
-42.6432
11
38.8109
21
-42.6475
0
LINE
8
BLACK
6
CONTINUOUS
10
38.8109
20
-42.6475
11
38.8109
21
-42.6475
0
LINE
8
BLACK
6
CONTINUOUS
10
38.8109
20
-42.6475
11
38.755
21
-42.9045
0
LINE
8
BLACK
6
CONTINUOUS
10
38.755
20
-42.9045
11
38.755
21
-42.9045
0
LINE
8
BLACK
6
CONTINUOUS
10
38.755
20
-42.9045
11
38.754
21
-42.9088
0
LINE
8
BLACK
6
CONTINUOUS
10
38.754
20
-42.9088
11
38.7537
21
-42.9133
0
LINE
8
BLACK
6
CONTINUOUS
10
38.7537
20
-42.9133
11
38.7537
21
-42.9133
0
LINE
8
BLACK
6
CONTINUOUS
10
38.7537
20
-42.9133
11
38.7353
21
-43.1705
0
LINE
8
BLACK
6
CONTINUOUS
10
38.7353
20
-43.1705
11
38.7346
21
-43.18
0
LINE
8
BLACK
6
CONTINUOUS
10
38.7346
20
-43.18
11
38.735
21
-43.1844
0
LINE
8
BLACK
6
CONTINUOUS
10
38.735
20
-43.1844
11
38.7537
21
-43.4467
0
LINE
8
BLACK
6
CONTINUOUS
10
38.7537
20
-43.4467
11
38.7537
21
-43.4467
0
LINE
8
BLACK
6
CONTINUOUS
10
38.7537
20
-43.4467
11
38.754
21
-43.4512
0
LINE
8
BLACK
6
CONTINUOUS
10
38.754
20
-43.4512
11
38.755
21
-43.4555
0
LINE
8
BLACK
6
CONTINUOUS
10
38.755
20
-43.4555
11
38.755
21
-43.4555
0
LINE
8
BLACK
6
CONTINUOUS
10
38.755
20
-43.4555
11
38.8062
21
-43.6908
0
LINE
8
BLACK
6
CONTINUOUS
10
38.8062
20
-43.6908
11
38.8118
21
-43.7168
0
LINE
8
BLACK
6
CONTINUOUS
10
38.8118
20
-43.7168
11
38.9068
21
-43.9715
0
LINE
8
BLACK
6
CONTINUOUS
10
38.9068
20
-43.9715
11
38.9089
21
-43.9754
0
LINE
8
BLACK
6
CONTINUOUS
10
38.9089
20
-43.9754
11
38.909
21
-43.9754
0
LINE
8
BLACK
6
CONTINUOUS
10
38.909
20
-43.9754
11
39.035
21
-44.2062
0
LINE
8
BLACK
6
CONTINUOUS
10
39.035
20
-44.2062
11
39.035
21
-44.2062
0
LINE
8
BLACK
6
CONTINUOUS
10
39.035
20
-44.2062
11
39.0371
21
-44.2101
0
LINE
8
BLACK
6
CONTINUOUS
10
39.0371
20
-44.2101
11
39.2
21
-44.4277
0
LINE
8
BLACK
6
CONTINUOUS
10
39.2
20
-44.4277
11
39.3923
21
-44.62
0
LINE
8
BLACK
6
CONTINUOUS
10
39.3923
20
-44.62
11
39.6099
21
-44.7829
0
LINE
8
BLACK
6
CONTINUOUS
10
39.6099
20
-44.7829
11
39.8485
21
-44.9132
0
LINE
8
BLACK
6
CONTINUOUS
10
39.8485
20
-44.9132
11
40.1032
21
-45.0082
0
LINE
8
BLACK
6
CONTINUOUS
10
40.1032
20
-45.0082
11
40.3688
21
-45.066
0
LINE
8
BLACK
6
CONTINUOUS
10
40.3688
20
-45.066
11
40.64
21
-45.0854
0
LINE
8
BLACK
6
CONTINUOUS
10
40.64
20
-45.0854
11
40.9112
21
-45.066
0
LINE
8
BLACK
6
CONTINUOUS
10
40.9112
20
-45.066
11
41.1768
21
-45.0082
0
LINE
8
BLACK
6
CONTINUOUS
10
41.1768
20
-45.0082
11
41.4315
21
-44.9132
0
LINE
8
BLACK
6
CONTINUOUS
10
41.4315
20
-44.9132
11
41.6701
21
-44.7829
0
LINE
8
BLACK
6
CONTINUOUS
10
41.6701
20
-44.7829
11
41.8877
21
-44.62
0
LINE
8
BLACK
6
CONTINUOUS
10
41.8877
20
-44.62
11
42.08
21
-44.4277
0
LINE
8
BLACK
6
CONTINUOUS
10
42.08
20
-44.4277
11
42.2429
21
-44.2101
0
LINE
8
BLACK
6
CONTINUOUS
10
42.2429
20
-44.2101
11
42.3732
21
-43.9715
0
LINE
8
BLACK
6
CONTINUOUS
10
42.3732
20
-43.9715
11
42.4682
21
-43.7168
0
LINE
8
BLACK
6
CONTINUOUS
10
42.4682
20
-43.7168
11
42.526
21
-43.4512
0
LINE
8
BLACK
6
CONTINUOUS
10
42.526
20
-43.4512
11
42.5454
21
-43.18
0
LINE
8
BLACK
6
CONTINUOUS
10
42.5454
20
-43.18
11
42.526
21
-42.9088
0
LINE
8
BLACK
6
CONTINUOUS
10
42.526
20
-42.9088
11
42.4682
21
-42.6432
0
LINE
8
BLACK
6
CONTINUOUS
10
42.4682
20
-42.6432
11
42.3732
21
-42.3885
0
LINE
8
BLACK
6
CONTINUOUS
10
42.3732
20
-42.3885
11
42.2429
21
-42.1499
0
LINE
8
BLACK
6
CONTINUOUS
10
42.2429
20
-42.1499
11
42.08
21
-41.9323
0
LINE
8
BLACK
6
CONTINUOUS
10
42.08
20
-41.9323
11
41.8877
21
-41.74
0
LINE
8
BLACK
6
CONTINUOUS
10
41.8877
20
-41.74
11
41.6701
21
-41.5771
0
LINE
8
BLACK
6
CONTINUOUS
10
41.6701
20
-41.5771
11
41.6662
21
-41.575
0
LINE
8
BLACK
6
CONTINUOUS
10
41.6662
20
-41.575
11
41.6662
21
-41.575
0
LINE
8
BLACK
6
CONTINUOUS
10
41.6662
20
-41.575
11
41.4354
21
-41.449
0
LINE
8
BLACK
6
CONTINUOUS
10
41.4354
20
-41.449
11
41.4354
21
-41.4489
0
LINE
8
BLACK
6
CONTINUOUS
10
41.4354
20
-41.4489
11
41.4315
21
-41.4468
0
LINE
8
BLACK
6
CONTINUOUS
10
41.4315
20
-41.4468
11
41.3462
21
-41.415
0
LINE
8
BLACK
6
CONTINUOUS
10
41.3462
20
-41.415
11
41.3039
21
-41.3886
0
LINE
8
BLACK
6
CONTINUOUS
10
41.3039
20
-41.3886
11
41.2755
21
-41.3476
0
LINE
8
BLACK
6
CONTINUOUS
10
41.2755
20
-41.3476
11
41.2655
21
-41.2988
0
LINE
8
BLACK
6
CONTINUOUS
10
41.2655
20
-41.2988
11
41.2655
21
-36.8878
0
LINE
8
BLACK
6
CONTINUOUS
10
41.2655
20
-36.8878
11
41.283
21
-36.8243
0
LINE
8
BLACK
6
CONTINUOUS
10
41.283
20
-36.8243
11
41.3305
21
-36.7788
0
LINE
8
BLACK
6
CONTINUOUS
10
41.3305
20
-36.7788
11
41.3366
21
-36.7754
0
LINE
8
BLACK
6
CONTINUOUS
10
41.3366
20
-36.7754
11
41.4086
21
-36.7365
0
LINE
8
BLACK
6
CONTINUOUS
10
41.4086
20
-36.7365
11
41.5918
21
-36.5939
0
LINE
8
BLACK
6
CONTINUOUS
10
41.5918
20
-36.5939
11
41.749
21
-36.4232
0
LINE
8
BLACK
6
CONTINUOUS
10
41.749
20
-36.4232
11
41.8759
21
-36.2288
0
LINE
8
BLACK
6
CONTINUOUS
10
41.8759
20
-36.2288
11
41.9692
21
-36.0163
0
LINE
8
BLACK
6
CONTINUOUS
10
41.9692
20
-36.0163
11
42.0261
21
-35.7913
0
LINE
8
BLACK
6
CONTINUOUS
10
42.0261
20
-35.7913
11
42.0453
21
-35.56
0
LINE
8
BLACK
6
CONTINUOUS
10
42.0453
20
-35.56
11
42.0261
21
-35.3287
0
LINE
8
BLACK
6
CONTINUOUS
10
42.0261
20
-35.3287
11
41.9692
21
-35.1037
0
LINE
8
BLACK
6
CONTINUOUS
10
41.9692
20
-35.1037
11
41.8759
21
-34.8912
0
LINE
8
BLACK
6
CONTINUOUS
10
41.8759
20
-34.8912
11
41.749
21
-34.6968
0
LINE
8
BLACK
6
CONTINUOUS
10
41.749
20
-34.6968
11
41.5918
21
-34.5261
0
LINE
8
BLACK
6
CONTINUOUS
10
41.5918
20
-34.5261
11
41.4437
21
-34.4108
0
LINE
8
BLACK
6
CONTINUOUS
10
41.4437
20
-34.4108
11
41.4127
21
-34.3867
0
LINE
8
BLACK
6
CONTINUOUS
10
41.4127
20
-34.3867
11
41.4127
21
-34.3867
0
LINE
8
BLACK
6
CONTINUOUS
10
41.4127
20
-34.3867
11
41.4086
21
-34.3835
0
LINE
8
BLACK
6
CONTINUOUS
10
41.4086
20
-34.3835
11
41.2726
21
-34.3099
0
LINE
8
BLACK
6
CONTINUOUS
10
41.2726
20
-34.3099
11
41.209
21
-34.2755
0
LINE
8
BLACK
6
CONTINUOUS
10
41.209
20
-34.2755
11
41.209
21
-34.2755
0
LINE
8
BLACK
6
CONTINUOUS
10
41.209
20
-34.2755
11
41.2045
21
-34.2731
0
LINE
8
BLACK
6
CONTINUOUS
10
41.2045
20
-34.2731
11
41.1997
21
-34.2714
0
LINE
8
BLACK
6
CONTINUOUS
10
41.1997
20
-34.2714
11
41.1997
21
-34.2714
0
LINE
8
BLACK
6
CONTINUOUS
10
41.1997
20
-34.2714
11
40.9898
21
-34.1994
0
LINE
8
BLACK
6
CONTINUOUS
10
40.9898
20
-34.1994
11
40.9898
21
-34.1994
0
LINE
8
BLACK
6
CONTINUOUS
10
40.9898
20
-34.1994
11
40.985
21
-34.1977
0
LINE
8
BLACK
6
CONTINUOUS
10
40.985
20
-34.1977
11
40.9799
21
-34.1969
0
LINE
8
BLACK
6
CONTINUOUS
10
40.9799
20
-34.1969
11
40.9799
21
-34.1969
0
LINE
8
BLACK
6
CONTINUOUS
10
40.9799
20
-34.1969
11
40.7611
21
-34.1603
0
LINE
8
BLACK
6
CONTINUOUS
10
40.7611
20
-34.1603
11
40.7611
21
-34.1603
0
LINE
8
BLACK
6
CONTINUOUS
10
40.7611
20
-34.1603
11
40.756
21
-34.1595
0
LINE
8
BLACK
6
CONTINUOUS
10
40.756
20
-34.1595
11
40.524
21
-34.1595
0
LINE
8
BLACK
6
CONTINUOUS
10
40.524
20
-34.1595
11
40.5189
21
-34.1603
0
LINE
8
BLACK
6
CONTINUOUS
10
40.5189
20
-34.1603
11
40.5189
21
-34.1603
0
LINE
8
BLACK
6
CONTINUOUS
10
40.5189
20
-34.1603
11
40.3001
21
-34.1969
0
LINE
8
BLACK
6
CONTINUOUS
10
40.3001
20
-34.1969
11
40.3001
21
-34.1969
0
LINE
8
BLACK
6
CONTINUOUS
10
40.3001
20
-34.1969
11
40.295
21
-34.1977
0
LINE
8
BLACK
6
CONTINUOUS
10
40.295
20
-34.1977
11
40.2902
21
-34.1994
0
LINE
8
BLACK
6
CONTINUOUS
10
40.2902
20
-34.1994
11
40.2902
21
-34.1994
0
LINE
8
BLACK
6
CONTINUOUS
10
40.2902
20
-34.1994
11
40.0803
21
-34.2714
0
LINE
8
BLACK
6
CONTINUOUS
10
40.0803
20
-34.2714
11
40.0803
21
-34.2714
0
LINE
8
BLACK
6
CONTINUOUS
10
40.0803
20
-34.2714
11
40.0755
21
-34.2731
0
LINE
8
BLACK
6
CONTINUOUS
10
40.0755
20
-34.2731
11
40.071
21
-34.2755
0
LINE
8
BLACK
6
CONTINUOUS
10
40.071
20
-34.2755
11
40.071
21
-34.2755
0
LINE
8
BLACK
6
CONTINUOUS
10
40.071
20
-34.2755
11
39.8759
21
-34.3811
0
LINE
8
BLACK
6
CONTINUOUS
10
39.8759
20
-34.3811
11
39.8759
21
-34.3811
0
LINE
8
BLACK
6
CONTINUOUS
10
39.8759
20
-34.3811
11
39.8714
21
-34.3835
0
LINE
8
BLACK
6
CONTINUOUS
10
39.8714
20
-34.3835
11
39.8673
21
-34.3867
0
LINE
8
BLACK
6
CONTINUOUS
10
39.8673
20
-34.3867
11
39.8673
21
-34.3867
0
LINE
8
BLACK
6
CONTINUOUS
10
39.8673
20
-34.3867
11
39.6923
21
-34.5229
0
LINE
8
BLACK
6
CONTINUOUS
10
39.6923
20
-34.5229
11
39.6923
21
-34.5229
0
LINE
8
BLACK
6
CONTINUOUS
10
39.6923
20
-34.5229
11
39.6882
21
-34.5261
0
LINE
8
BLACK
6
CONTINUOUS
10
39.6882
20
-34.5261
11
39.6847
21
-34.5299
0
LINE
8
BLACK
6
CONTINUOUS
10
39.6847
20
-34.5299
11
39.6847
21
-34.5299
0
LINE
8
BLACK
6
CONTINUOUS
10
39.6847
20
-34.5299
11
39.6795
21
-34.5356
0
LINE
8
BLACK
6
CONTINUOUS
10
39.6795
20
-34.5356
11
39.6269
21
-34.5694
0
LINE
8
BLACK
6
CONTINUOUS
10
39.6269
20
-34.5694
11
39.5644
21
-34.5733
0
LINE
8
BLACK
6
CONTINUOUS
10
39.5644
20
-34.5733
11
39.508
21
-34.5461
0
LINE
8
BLACK
6
CONTINUOUS
10
39.508
20
-34.5461
11
39.4721
21
-34.4949
0
LINE
8
BLACK
6
CONTINUOUS
10
39.4721
20
-34.4949
11
39.4465
21
-34.4262
0
LINE
8
BLACK
6
CONTINUOUS
10
39.4465
20
-34.4262
11
39.438
21
-34.4108
0
LINE
8
BLACK
6
CONTINUOUS
10
39.438
20
-34.4108
11
39.3625
21
-34.3099
0
LINE
8
BLACK
6
CONTINUOUS
10
39.3625
20
-34.3099
11
39.3501
21
-34.2975
0
LINE
8
BLACK
6
CONTINUOUS
10
39.3501
20
-34.2975
11
39.2492
21
-34.222
0
LINE
8
BLACK
6
CONTINUOUS
10
39.2492
20
-34.222
11
39.2338
21
-34.2135
0
LINE
8
BLACK
6
CONTINUOUS
10
39.2338
20
-34.2135
11
39.1146
21
-34.1691
0
LINE
8
BLACK
6
CONTINUOUS
10
39.1146
20
-34.1691
11
39.0997
21
-34.1656
0
LINE
8
BLACK
6
CONTINUOUS
10
39.0997
20
-34.1656
11
39.0511
21
-34.1604
0
LINE
8
BLACK
6
CONTINUOUS
10
39.0511
20
-34.1604
11
39.0445
21
-34.16
0
LINE
8
BLACK
6
CONTINUOUS
10
39.0445
20
-34.16
11
38.3663
21
-34.16
0
LINE
8
BLACK
6
CONTINUOUS
10
38.3663
20
-34.16
11
38.3534
21
-34.1634
0
LINE
8
BLACK
6
CONTINUOUS
10
38.3534
20
-34.1634
11
38.35
21
-34.1763
0
LINE
8
BLACK
6
CONTINUOUS
10
38.35
20
-34.1763
11
38.35
21
-34.66
0
LINE
8
BLACK
6
CONTINUOUS
10
38.35
20
-34.66
11
39
21
-34.66
0
LINE
8
BLACK
6
CONTINUOUS
10
39
20
-34.66
11
39
21
-36.46
0
LINE
8
BLACK
6
CONTINUOUS
10
39
20
-36.46
11
38.35
21
-36.46
0
LINE
8
BLACK
6
CONTINUOUS
10
38.35
20
-36.46
11
38.35
21
-36.9437
0
LINE
8
BLACK
6
CONTINUOUS
10
38.35
20
-26.7837
11
38.3534
21
-26.7965
0
LINE
8
BLACK
6
CONTINUOUS
10
38.3534
20
-26.7965
11
38.3663
21
-26.8
0
LINE
8
BLACK
6
CONTINUOUS
10
38.3663
20
-26.8
11
39.0445
21
-26.8
0
LINE
8
BLACK
6
CONTINUOUS
10
39.0445
20
-26.8
11
39.0511
21
-26.7996
0
LINE
8
BLACK
6
CONTINUOUS
10
39.0511
20
-26.7996
11
39.0997
21
-26.7944
0
LINE
8
BLACK
6
CONTINUOUS
10
39.0997
20
-26.7944
11
39.1146
21
-26.7909
0
LINE
8
BLACK
6
CONTINUOUS
10
39.1146
20
-26.7909
11
39.2338
21
-26.7465
0
LINE
8
BLACK
6
CONTINUOUS
10
39.2338
20
-26.7465
11
39.2492
21
-26.738
0
LINE
8
BLACK
6
CONTINUOUS
10
39.2492
20
-26.738
11
39.3501
21
-26.6625
0
LINE
8
BLACK
6
CONTINUOUS
10
39.3501
20
-26.6625
11
39.3625
21
-26.6501
0
LINE
8
BLACK
6
CONTINUOUS
10
39.3625
20
-26.6501
11
39.438
21
-26.5492
0
LINE
8
BLACK
6
CONTINUOUS
10
39.438
20
-26.5492
11
39.4465
21
-26.5338
0
LINE
8
BLACK
6
CONTINUOUS
10
39.4465
20
-26.5338
11
39.4721
21
-26.4651
0
LINE
8
BLACK
6
CONTINUOUS
10
39.4721
20
-26.4651
11
39.508
21
-26.4139
0
LINE
8
BLACK
6
CONTINUOUS
10
39.508
20
-26.4139
11
39.5644
21
-26.3867
0
LINE
8
BLACK
6
CONTINUOUS
10
39.5644
20
-26.3867
11
39.6269
21
-26.3906
0
LINE
8
BLACK
6
CONTINUOUS
10
39.6269
20
-26.3906
11
39.6795
21
-26.4244
0
LINE
8
BLACK
6
CONTINUOUS
10
39.6795
20
-26.4244
11
39.6882
21
-26.4339
0
LINE
8
BLACK
6
CONTINUOUS
10
39.6882
20
-26.4339
11
39.8714
21
-26.5765
0
LINE
8
BLACK
6
CONTINUOUS
10
39.8714
20
-26.5765
11
40.0755
21
-26.6869
0
LINE
8
BLACK
6
CONTINUOUS
10
40.0755
20
-26.6869
11
40.295
21
-26.7623
0
LINE
8
BLACK
6
CONTINUOUS
10
40.295
20
-26.7623
11
40.524
21
-26.8005
0
LINE
8
BLACK
6
CONTINUOUS
10
40.524
20
-26.8005
11
40.7509
21
-26.8005
0
LINE
8
BLACK
6
CONTINUOUS
10
40.7509
20
-26.8005
11
40.756
21
-26.8005
0
LINE
8
BLACK
6
CONTINUOUS
10
40.756
20
-26.8005
11
40.985
21
-26.7623
0
LINE
8
BLACK
6
CONTINUOUS
10
40.985
20
-26.7623
11
41.2045
21
-26.6869
0
LINE
8
BLACK
6
CONTINUOUS
10
41.2045
20
-26.6869
11
41.4086
21
-26.5765
0
LINE
8
BLACK
6
CONTINUOUS
10
41.4086
20
-26.5765
11
41.5918
21
-26.4339
0
LINE
8
BLACK
6
CONTINUOUS
10
41.5918
20
-26.4339
11
41.749
21
-26.2632
0
LINE
8
BLACK
6
CONTINUOUS
10
41.749
20
-26.2632
11
41.8759
21
-26.0688
0
LINE
8
BLACK
6
CONTINUOUS
10
41.8759
20
-26.0688
11
41.9692
21
-25.8563
0
LINE
8
BLACK
6
CONTINUOUS
10
41.9692
20
-25.8563
11
42.0261
21
-25.6313
0
LINE
8
BLACK
6
CONTINUOUS
10
42.0261
20
-25.6313
11
42.0453
21
-25.4
0
LINE
8
BLACK
6
CONTINUOUS
10
42.0453
20
-25.4
11
42.0261
21
-25.1687
0
LINE
8
BLACK
6
CONTINUOUS
10
42.0261
20
-25.1687
11
41.9692
21
-24.9437
0
LINE
8
BLACK
6
CONTINUOUS
10
41.9692
20
-24.9437
11
41.8759
21
-24.7312
0
LINE
8
BLACK
6
CONTINUOUS
10
41.8759
20
-24.7312
11
41.749
21
-24.5368
0
LINE
8
BLACK
6
CONTINUOUS
10
41.749
20
-24.5368
11
41.5918
21
-24.3661
0
LINE
8
BLACK
6
CONTINUOUS
10
41.5918
20
-24.3661
11
41.4437
21
-24.2508
0
LINE
8
BLACK
6
CONTINUOUS
10
41.4437
20
-24.2508
11
41.4127
21
-24.2267
0
LINE
8
BLACK
6
CONTINUOUS
10
41.4127
20
-24.2267
11
41.4127
21
-24.2267
0
LINE
8
BLACK
6
CONTINUOUS
10
41.4127
20
-24.2267
11
41.4086
21
-24.2235
0
LINE
8
BLACK
6
CONTINUOUS
10
41.4086
20
-24.2235
11
41.3305
21
-24.1812
0
LINE
8
BLACK
6
CONTINUOUS
10
41.3305
20
-24.1812
11
41.283
21
-24.1357
0
LINE
8
BLACK
6
CONTINUOUS
10
41.283
20
-24.1357
11
41.2655
21
-24.0722
0
LINE
8
BLACK
6
CONTINUOUS
10
41.2655
20
-24.0722
11
41.2655
21
-19.6612
0
LINE
8
BLACK
6
CONTINUOUS
10
41.2655
20
-19.6612
11
41.2755
21
-19.6124
0
LINE
8
BLACK
6
CONTINUOUS
10
41.2755
20
-19.6124
11
41.3039
21
-19.5714
0
LINE
8
BLACK
6
CONTINUOUS
10
41.3039
20
-19.5714
11
41.3462
21
-19.545
0
LINE
8
BLACK
6
CONTINUOUS
10
41.3462
20
-19.545
11
41.3492
21
-19.5439
0
LINE
8
BLACK
6
CONTINUOUS
10
41.3492
20
-19.5439
11
41.4315
21
-19.5132
0
LINE
8
BLACK
6
CONTINUOUS
10
41.4315
20
-19.5132
11
41.6701
21
-19.3829
0
LINE
8
BLACK
6
CONTINUOUS
10
41.6701
20
-19.3829
11
41.8877
21
-19.22
0
LINE
8
BLACK
6
CONTINUOUS
10
41.8877
20
-19.22
11
42.08
21
-19.0277
0
LINE
8
BLACK
6
CONTINUOUS
10
42.08
20
-19.0277
11
42.2429
21
-18.8101
0
LINE
8
BLACK
6
CONTINUOUS
10
42.2429
20
-18.8101
11
42.3732
21
-18.5715
0
LINE
8
BLACK
6
CONTINUOUS
10
42.3732
20
-18.5715
11
42.4682
21
-18.3168
0
LINE
8
BLACK
6
CONTINUOUS
10
42.4682
20
-18.3168
11
42.526
21
-18.0512
0
LINE
8
BLACK
6
CONTINUOUS
10
42.526
20
-18.0512
11
42.5454
21
-17.78
0
LINE
8
BLACK
6
CONTINUOUS
10
42.5454
20
-17.78
11
42.526
21
-17.5088
0
LINE
8
BLACK
6
CONTINUOUS
10
42.526
20
-17.5088
11
42.4682
21
-17.2432
0
LINE
8
BLACK
6
CONTINUOUS
10
42.4682
20
-17.2432
11
42.3732
21
-16.9885
0
LINE
8
BLACK
6
CONTINUOUS
10
42.3732
20
-16.9885
11
42.2429
21
-16.7499
0
LINE
8
BLACK
6
CONTINUOUS
10
42.2429
20
-16.7499
11
42.08
21
-16.5323
0
LINE
8
BLACK
6
CONTINUOUS
10
42.08
20
-16.5323
11
41.8877
21
-16.34
0
LINE
8
BLACK
6
CONTINUOUS
10
41.8877
20
-16.34
11
41.6701
21
-16.1771
0
LINE
8
BLACK
6
CONTINUOUS
10
41.6701
20
-16.1771
11
41.6662
21
-16.175
0
LINE
8
BLACK
6
CONTINUOUS
10
41.6662
20
-16.175
11
41.6662
21
-16.175
0
LINE
8
BLACK
6
CONTINUOUS
10
41.6662
20
-16.175
11
41.4354
21
-16.049
0
LINE
8
BLACK
6
CONTINUOUS
10
41.4354
20
-16.049
11
41.4354
21
-16.0489
0
LINE
8
BLACK
6
CONTINUOUS
10
41.4354
20
-16.0489
11
41.4315
21
-16.0468
0
LINE
8
BLACK
6
CONTINUOUS
10
41.4315
20
-16.0468
11
41.4274
21
-16.0453
0
LINE
8
BLACK
6
CONTINUOUS
10
41.4274
20
-16.0453
11
41.4274
21
-16.0453
0
LINE
8
BLACK
6
CONTINUOUS
10
41.4274
20
-16.0453
11
41.1809
21
-15.9534
0
LINE
8
BLACK
6
CONTINUOUS
10
41.1809
20
-15.9534
11
41.1809
21
-15.9534
0
LINE
8
BLACK
6
CONTINUOUS
10
41.1809
20
-15.9534
11
41.1768
21
-15.9518
0
LINE
8
BLACK
6
CONTINUOUS
10
41.1768
20
-15.9518
11
41.1508
21
-15.9462
0
LINE
8
BLACK
6
CONTINUOUS
10
41.1508
20
-15.9462
11
40.9155
21
-15.895
0
LINE
8
BLACK
6
CONTINUOUS
10
40.9155
20
-15.895
11
40.9155
21
-15.895
0
LINE
8
BLACK
6
CONTINUOUS
10
40.9155
20
-15.895
11
40.9112
21
-15.894
0
LINE
8
BLACK
6
CONTINUOUS
10
40.9112
20
-15.894
11
40.9067
21
-15.8937
0
LINE
8
BLACK
6
CONTINUOUS
10
40.9067
20
-15.8937
11
40.9067
21
-15.8937
0
LINE
8
BLACK
6
CONTINUOUS
10
40.9067
20
-15.8937
11
40.6444
21
-15.875
0
LINE
8
BLACK
6
CONTINUOUS
10
40.6444
20
-15.875
11
40.64
21
-15.8746
0
LINE
8
BLACK
6
CONTINUOUS
10
40.64
20
-15.8746
11
40.6356
21
-15.875
0
LINE
8
BLACK
6
CONTINUOUS
10
40.6356
20
-15.875
11
40.3733
21
-15.8937
0
LINE
8
BLACK
6
CONTINUOUS
10
40.3733
20
-15.8937
11
40.3733
21
-15.8937
0
LINE
8
BLACK
6
CONTINUOUS
10
40.3733
20
-15.8937
11
40.3688
21
-15.894
0
LINE
8
BLACK
6
CONTINUOUS
10
40.3688
20
-15.894
11
40.3645
21
-15.895
0
LINE
8
BLACK
6
CONTINUOUS
10
40.3645
20
-15.895
11
40.3645
21
-15.895
0
LINE
8
BLACK
6
CONTINUOUS
10
40.3645
20
-15.895
11
40.1075
21
-15.9509
0
LINE
8
BLACK
6
CONTINUOUS
10
40.1075
20
-15.9509
11
40.1075
21
-15.9509
0
LINE
8
BLACK
6
CONTINUOUS
10
40.1075
20
-15.9509
11
40.1032
21
-15.9518
0
LINE
8
BLACK
6
CONTINUOUS
10
40.1032
20
-15.9518
11
40.0991
21
-15.9534
0
LINE
8
BLACK
6
CONTINUOUS
10
40.0991
20
-15.9534
11
40.0991
21
-15.9534
0
LINE
8
BLACK
6
CONTINUOUS
10
40.0991
20
-15.9534
11
39.8526
21
-16.0453
0
LINE
8
BLACK
6
CONTINUOUS
10
39.8526
20
-16.0453
11
39.8526
21
-16.0453
0
LINE
8
BLACK
6
CONTINUOUS
10
39.8526
20
-16.0453
11
39.8485
21
-16.0468
0
LINE
8
BLACK
6
CONTINUOUS
10
39.8485
20
-16.0468
11
39.8446
21
-16.0489
0
LINE
8
BLACK
6
CONTINUOUS
10
39.8446
20
-16.0489
11
39.8446
21
-16.049
0
LINE
8
BLACK
6
CONTINUOUS
10
39.8446
20
-16.049
11
39.6138
21
-16.175
0
LINE
8
BLACK
6
CONTINUOUS
10
39.6138
20
-16.175
11
39.6138
21
-16.175
0
LINE
8
BLACK
6
CONTINUOUS
10
39.6138
20
-16.175
11
39.6099
21
-16.1771
0
LINE
8
BLACK
6
CONTINUOUS
10
39.6099
20
-16.1771
11
39.6063
21
-16.1798
0
LINE
8
BLACK
6
CONTINUOUS
10
39.6063
20
-16.1798
11
39.6063
21
-16.1798
0
LINE
8
BLACK
6
CONTINUOUS
10
39.6063
20
-16.1798
11
39.3958
21
-16.3374
0
LINE
8
BLACK
6
CONTINUOUS
10
39.3958
20
-16.3374
11
39.3958
21
-16.3374
0
LINE
8
BLACK
6
CONTINUOUS
10
39.3958
20
-16.3374
11
39.3923
21
-16.34
0
LINE
8
BLACK
6
CONTINUOUS
10
39.3923
20
-16.34
11
39.3891
21
-16.3432
0
LINE
8
BLACK
6
CONTINUOUS
10
39.3891
20
-16.3432
11
39.3891
21
-16.3432
0
LINE
8
BLACK
6
CONTINUOUS
10
39.3891
20
-16.3432
11
39.2032
21
-16.5291
0
LINE
8
BLACK
6
CONTINUOUS
10
39.2032
20
-16.5291
11
39.2032
21
-16.5291
0
LINE
8
BLACK
6
CONTINUOUS
10
39.2032
20
-16.5291
11
39.2
21
-16.5323
0
LINE
8
BLACK
6
CONTINUOUS
10
39.2
20
-16.5323
11
39.1974
21
-16.5358
0
LINE
8
BLACK
6
CONTINUOUS
10
39.1974
20
-16.5358
11
39.1974
21
-16.5358
0
LINE
8
BLACK
6
CONTINUOUS
10
39.1974
20
-16.5358
11
39.0398
21
-16.7463
0
LINE
8
BLACK
6
CONTINUOUS
10
39.0398
20
-16.7463
11
39.0398
21
-16.7463
0
LINE
8
BLACK
6
CONTINUOUS
10
39.0398
20
-16.7463
11
39.0371
21
-16.7499
0
LINE
8
BLACK
6
CONTINUOUS
10
39.0371
20
-16.7499
11
39.035
21
-16.7538
0
LINE
8
BLACK
6
CONTINUOUS
10
39.035
20
-16.7538
11
39.035
21
-16.7538
0
LINE
8
BLACK
6
CONTINUOUS
10
39.035
20
-16.7538
11
38.909
21
-16.9846
0
LINE
8
BLACK
6
CONTINUOUS
10
38.909
20
-16.9846
11
38.9089
21
-16.9846
0
LINE
8
BLACK
6
CONTINUOUS
10
38.9089
20
-16.9846
11
38.9068
21
-16.9885
0
LINE
8
BLACK
6
CONTINUOUS
10
38.9068
20
-16.9885
11
38.9053
21
-16.9926
0
LINE
8
BLACK
6
CONTINUOUS
10
38.9053
20
-16.9926
11
38.9053
21
-16.9926
0
LINE
8
BLACK
6
CONTINUOUS
10
38.9053
20
-16.9926
11
38.8134
21
-17.2391
0
LINE
8
BLACK
6
CONTINUOUS
10
38.8134
20
-17.2391
11
38.8134
21
-17.2391
0
LINE
8
BLACK
6
CONTINUOUS
10
38.8134
20
-17.2391
11
38.8118
21
-17.2432
0
LINE
8
BLACK
6
CONTINUOUS
10
38.8118
20
-17.2432
11
38.8109
21
-17.2475
0
LINE
8
BLACK
6
CONTINUOUS
10
38.8109
20
-17.2475
11
38.8109
21
-17.2475
0
LINE
8
BLACK
6
CONTINUOUS
10
38.8109
20
-17.2475
11
38.755
21
-17.5045
0
LINE
8
BLACK
6
CONTINUOUS
10
38.755
20
-17.5045
11
38.755
21
-17.5045
0
LINE
8
BLACK
6
CONTINUOUS
10
38.755
20
-17.5045
11
38.754
21
-17.5088
0
LINE
8
BLACK
6
CONTINUOUS
10
38.754
20
-17.5088
11
38.7537
21
-17.5133
0
LINE
8
BLACK
6
CONTINUOUS
10
38.7537
20
-17.5133
11
38.7537
21
-17.5133
0
LINE
8
BLACK
6
CONTINUOUS
10
38.7537
20
-17.5133
11
38.7353
21
-17.7705
0
LINE
8
BLACK
6
CONTINUOUS
10
38.7353
20
-17.7705
11
38.7346
21
-17.78
0
LINE
8
BLACK
6
CONTINUOUS
10
38.7346
20
-17.78
11
38.735
21
-17.7844
0
LINE
8
BLACK
6
CONTINUOUS
10
38.735
20
-17.7844
11
38.7537
21
-18.0467
0
LINE
8
BLACK
6
CONTINUOUS
10
38.7537
20
-18.0467
11
38.7537
21
-18.0467
0
LINE
8
BLACK
6
CONTINUOUS
10
38.7537
20
-18.0467
11
38.754
21
-18.0512
0
LINE
8
BLACK
6
CONTINUOUS
10
38.754
20
-18.0512
11
38.755
21
-18.0555
0
LINE
8
BLACK
6
CONTINUOUS
10
38.755
20
-18.0555
11
38.755
21
-18.0555
0
LINE
8
BLACK
6
CONTINUOUS
10
38.755
20
-18.0555
11
38.8062
21
-18.2908
0
LINE
8
BLACK
6
CONTINUOUS
10
38.8062
20
-18.2908
11
38.8118
21
-18.3168
0
LINE
8
BLACK
6
CONTINUOUS
10
38.8118
20
-18.3168
11
38.9068
21
-18.5715
0
LINE
8
BLACK
6
CONTINUOUS
10
38.9068
20
-18.5715
11
38.9089
21
-18.5754
0
LINE
8
BLACK
6
CONTINUOUS
10
38.9089
20
-18.5754
11
38.909
21
-18.5754
0
LINE
8
BLACK
6
CONTINUOUS
10
38.909
20
-18.5754
11
39.035
21
-18.8062
0
LINE
8
BLACK
6
CONTINUOUS
10
39.035
20
-18.8062
11
39.035
21
-18.8062
0
LINE
8
BLACK
6
CONTINUOUS
10
39.035
20
-18.8062
11
39.0371
21
-18.8101
0
LINE
8
BLACK
6
CONTINUOUS
10
39.0371
20
-18.8101
11
39.2
21
-19.0277
0
LINE
8
BLACK
6
CONTINUOUS
10
39.2
20
-19.0277
11
39.3923
21
-19.22
0
LINE
8
BLACK
6
CONTINUOUS
10
39.3923
20
-19.22
11
39.6099
21
-19.3829
0
LINE
8
BLACK
6
CONTINUOUS
10
39.6099
20
-19.3829
11
39.8485
21
-19.5132
0
LINE
8
BLACK
6
CONTINUOUS
10
39.8485
20
-19.5132
11
39.9288
21
-19.5431
0
LINE
8
BLACK
6
CONTINUOUS
10
39.9288
20
-19.5431
11
39.9338
21
-19.545
0
LINE
8
BLACK
6
CONTINUOUS
10
39.9338
20
-19.545
11
39.9761
21
-19.5714
0
LINE
8
BLACK
6
CONTINUOUS
10
39.9761
20
-19.5714
11
40.0045
21
-19.6124
0
LINE
8
BLACK
6
CONTINUOUS
10
40.0045
20
-19.6124
11
40.0145
21
-19.6612
0
LINE
8
BLACK
6
CONTINUOUS
10
40.0145
20
-19.6612
11
40.0145
21
-24.0722
0
LINE
8
BLACK
6
CONTINUOUS
10
40.0145
20
-24.0722
11
39.997
21
-24.1357
0
LINE
8
BLACK
6
CONTINUOUS
10
39.997
20
-24.1357
11
39.9495
21
-24.1812
0
LINE
8
BLACK
6
CONTINUOUS
10
39.9495
20
-24.1812
11
39.8759
21
-24.2211
0
LINE
8
BLACK
6
CONTINUOUS
10
39.8759
20
-24.2211
11
39.8759
21
-24.2211
0
LINE
8
BLACK
6
CONTINUOUS
10
39.8759
20
-24.2211
11
39.8714
21
-24.2235
0
LINE
8
BLACK
6
CONTINUOUS
10
39.8714
20
-24.2235
11
39.8673
21
-24.2267
0
LINE
8
BLACK
6
CONTINUOUS
10
39.8673
20
-24.2267
11
39.8673
21
-24.2267
0
LINE
8
BLACK
6
CONTINUOUS
10
39.8673
20
-24.2267
11
39.6923
21
-24.3629
0
LINE
8
BLACK
6
CONTINUOUS
10
39.6923
20
-24.3629
11
39.6923
21
-24.3629
0
LINE
8
BLACK
6
CONTINUOUS
10
39.6923
20
-24.3629
11
39.6882
21
-24.3661
0
LINE
8
BLACK
6
CONTINUOUS
10
39.6882
20
-24.3661
11
39.6847
21
-24.3699
0
LINE
8
BLACK
6
CONTINUOUS
10
39.6847
20
-24.3699
11
39.6847
21
-24.3699
0
LINE
8
BLACK
6
CONTINUOUS
10
39.6847
20
-24.3699
11
39.6795
21
-24.3756
0
LINE
8
BLACK
6
CONTINUOUS
10
39.6795
20
-24.3756
11
39.6269
21
-24.4094
0
LINE
8
BLACK
6
CONTINUOUS
10
39.6269
20
-24.4094
11
39.5644
21
-24.4133
0
LINE
8
BLACK
6
CONTINUOUS
10
39.5644
20
-24.4133
11
39.508
21
-24.3861
0
LINE
8
BLACK
6
CONTINUOUS
10
39.508
20
-24.3861
11
39.4721
21
-24.3349
0
LINE
8
BLACK
6
CONTINUOUS
10
39.4721
20
-24.3349
11
39.4465
21
-24.2662
0
LINE
8
BLACK
6
CONTINUOUS
10
39.4465
20
-24.2662
11
39.438
21
-24.2508
0
LINE
8
BLACK
6
CONTINUOUS
10
39.438
20
-24.2508
11
39.3625
21
-24.1499
0
LINE
8
BLACK
6
CONTINUOUS
10
39.3625
20
-24.1499
11
39.3501
21
-24.1375
0
LINE
8
BLACK
6
CONTINUOUS
10
39.3501
20
-24.1375
11
39.2492
21
-24.062
0
LINE
8
BLACK
6
CONTINUOUS
10
39.2492
20
-24.062
11
39.2338
21
-24.0535
0
LINE
8
BLACK
6
CONTINUOUS
10
39.2338
20
-24.0535
11
39.1146
21
-24.0091
0
LINE
8
BLACK
6
CONTINUOUS
10
39.1146
20
-24.0091
11
39.0997
21
-24.0056
0
LINE
8
BLACK
6
CONTINUOUS
10
39.0997
20
-24.0056
11
39.0511
21
-24.0004
0
LINE
8
BLACK
6
CONTINUOUS
10
39.0511
20
-24.0004
11
39.0445
21
-24
0
LINE
8
BLACK
6
CONTINUOUS
10
39.0445
20
-24
11
38.3663
21
-24
0
LINE
8
BLACK
6
CONTINUOUS
10
38.3663
20
-24
11
38.3534
21
-24.0034
0
LINE
8
BLACK
6
CONTINUOUS
10
38.3534
20
-24.0034
11
38.35
21
-24.0163
0
LINE
8
BLACK
6
CONTINUOUS
10
38.35
20
-24.0163
11
38.35
21
-24.5
0
LINE
8
BLACK
6
CONTINUOUS
10
38.35
20
-24.5
11
39
21
-24.5
0
LINE
8
BLACK
6
CONTINUOUS
10
39
20
-24.5
11
39
21
-26.3
0
LINE
8
BLACK
6
CONTINUOUS
10
39
20
-26.3
11
38.35
21
-26.3
0
LINE
8
BLACK
6
CONTINUOUS
10
38.35
20
-26.3
11
38.35
21
-26.7837
0
LINE
8
BLACK
6
CONTINUOUS
10
36.7
20
-36.5045
11
36.7004
21
-36.5111
0
LINE
8
BLACK
6
CONTINUOUS
10
36.7004
20
-36.5111
11
36.7056
21
-36.5597
0
LINE
8
BLACK
6
CONTINUOUS
10
36.7056
20
-36.5597
11
36.7091
21
-36.5746
0
LINE
8
BLACK
6
CONTINUOUS
10
36.7091
20
-36.5746
11
36.7535
21
-36.6938
0
LINE
8
BLACK
6
CONTINUOUS
10
36.7535
20
-36.6938
11
36.762
21
-36.7092
0
LINE
8
BLACK
6
CONTINUOUS
10
36.762
20
-36.7092
11
36.8375
21
-36.8101
0
LINE
8
BLACK
6
CONTINUOUS
10
36.8375
20
-36.8101
11
36.8499
21
-36.8225
0
LINE
8
BLACK
6
CONTINUOUS
10
36.8499
20
-36.8225
11
36.9508
21
-36.898
0
LINE
8
BLACK
6
CONTINUOUS
10
36.9508
20
-36.898
11
36.9662
21
-36.9065
0
LINE
8
BLACK
6
CONTINUOUS
10
36.9662
20
-36.9065
11
37.0854
21
-36.9509
0
LINE
8
BLACK
6
CONTINUOUS
10
37.0854
20
-36.9509
11
37.1003
21
-36.9544
0
LINE
8
BLACK
6
CONTINUOUS
10
37.1003
20
-36.9544
11
37.1489
21
-36.9596
0
LINE
8
BLACK
6
CONTINUOUS
10
37.1489
20
-36.9596
11
37.1555
21
-36.96
0
LINE
8
BLACK
6
CONTINUOUS
10
37.1555
20
-36.96
11
37.8337
21
-36.96
0
LINE
8
BLACK
6
CONTINUOUS
10
37.8337
20
-36.96
11
37.8465
21
-36.9565
0
LINE
8
BLACK
6
CONTINUOUS
10
37.8465
20
-36.9565
11
37.85
21
-36.9437
0
LINE
8
BLACK
6
CONTINUOUS
10
37.85
20
-36.9437
11
37.85
21
-36.46
0
LINE
8
BLACK
6
CONTINUOUS
10
37.85
20
-36.46
11
37.2
21
-36.46
0
LINE
8
BLACK
6
CONTINUOUS
10
37.2
20
-36.46
11
37.2
21
-35.81
0
LINE
8
BLACK
6
CONTINUOUS
10
37.2
20
-35.81
11
36.7163
21
-35.81
0
LINE
8
BLACK
6
CONTINUOUS
10
36.7163
20
-35.81
11
36.7034
21
-35.8134
0
LINE
8
BLACK
6
CONTINUOUS
10
36.7034
20
-35.8134
11
36.7
21
-35.8263
0
LINE
8
BLACK
6
CONTINUOUS
10
36.7
20
-35.8263
11
36.7
21
-36.5045
0
LINE
8
BLACK
6
CONTINUOUS
10
36.7
20
-35.2937
11
36.7034
21
-35.3065
0
LINE
8
BLACK
6
CONTINUOUS
10
36.7034
20
-35.3065
11
36.7163
21
-35.31
0
LINE
8
BLACK
6
CONTINUOUS
10
36.7163
20
-35.31
11
37.2
21
-35.31
0
LINE
8
BLACK
6
CONTINUOUS
10
37.2
20
-35.31
11
37.2
21
-34.66
0
LINE
8
BLACK
6
CONTINUOUS
10
37.2
20
-34.66
11
37.85
21
-34.66
0
LINE
8
BLACK
6
CONTINUOUS
10
37.85
20
-34.66
11
37.85
21
-34.1763
0
LINE
8
BLACK
6
CONTINUOUS
10
37.85
20
-34.1763
11
37.8465
21
-34.1634
0
LINE
8
BLACK
6
CONTINUOUS
10
37.8465
20
-34.1634
11
37.8337
21
-34.16
0
LINE
8
BLACK
6
CONTINUOUS
10
37.8337
20
-34.16
11
37.1555
21
-34.16
0
LINE
8
BLACK
6
CONTINUOUS
10
37.1555
20
-34.16
11
37.1489
21
-34.1604
0
LINE
8
BLACK
6
CONTINUOUS
10
37.1489
20
-34.1604
11
37.1003
21
-34.1656
0
LINE
8
BLACK
6
CONTINUOUS
10
37.1003
20
-34.1656
11
37.0854
21
-34.1691
0
LINE
8
BLACK
6
CONTINUOUS
10
37.0854
20
-34.1691
11
36.9662
21
-34.2135
0
LINE
8
BLACK
6
CONTINUOUS
10
36.9662
20
-34.2135
11
36.9508
21
-34.222
0
LINE
8
BLACK
6
CONTINUOUS
10
36.9508
20
-34.222
11
36.8499
21
-34.2975
0
LINE
8
BLACK
6
CONTINUOUS
10
36.8499
20
-34.2975
11
36.8375
21
-34.3099
0
LINE
8
BLACK
6
CONTINUOUS
10
36.8375
20
-34.3099
11
36.762
21
-34.4108
0
LINE
8
BLACK
6
CONTINUOUS
10
36.762
20
-34.4108
11
36.7535
21
-34.4262
0
LINE
8
BLACK
6
CONTINUOUS
10
36.7535
20
-34.4262
11
36.7091
21
-34.5454
0
LINE
8
BLACK
6
CONTINUOUS
10
36.7091
20
-34.5454
11
36.7056
21
-34.5603
0
LINE
8
BLACK
6
CONTINUOUS
10
36.7056
20
-34.5603
11
36.7004
21
-34.6089
0
LINE
8
BLACK
6
CONTINUOUS
10
36.7004
20
-34.6089
11
36.7
21
-34.6155
0
LINE
8
BLACK
6
CONTINUOUS
10
36.7
20
-34.6155
11
36.7
21
-35.2937
0
LINE
8
BLACK
6
CONTINUOUS
10
50.9355
20
-30.4839
11
50.954
21
-30.7775
0
LINE
8
BLACK
6
CONTINUOUS
10
50.954
20
-30.7775
11
50.9549
21
-30.7852
0
LINE
8
BLACK
6
CONTINUOUS
10
50.9549
20
-30.7852
11
51.0101
21
-31.0742
0
LINE
8
BLACK
6
CONTINUOUS
10
51.0101
20
-31.0742
11
51.012
21
-31.0817
0
LINE
8
BLACK
6
CONTINUOUS
10
51.012
20
-31.0817
11
51.1029
21
-31.3615
0
LINE
8
BLACK
6
CONTINUOUS
10
51.1029
20
-31.3615
11
51.1058
21
-31.3688
0
LINE
8
BLACK
6
CONTINUOUS
10
51.1058
20
-31.3688
11
51.231
21
-31.635
0
LINE
8
BLACK
6
CONTINUOUS
10
51.231
20
-31.635
11
51.2348
21
-31.6418
0
LINE
8
BLACK
6
CONTINUOUS
10
51.2348
20
-31.6418
11
51.3924
21
-31.8902
0
LINE
8
BLACK
6
CONTINUOUS
10
51.3924
20
-31.8902
11
51.397
21
-31.8965
0
LINE
8
BLACK
6
CONTINUOUS
10
51.397
20
-31.8965
11
51.4643
21
-31.9778
0
LINE
8
BLACK
6
CONTINUOUS
10
51.4643
20
-31.9778
11
51.4756
21
-31.9856
0
LINE
8
BLACK
6
CONTINUOUS
10
51.4756
20
-31.9856
11
51.4876
21
-31.9789
0
LINE
8
BLACK
6
CONTINUOUS
10
51.4876
20
-31.9789
11
51.8348
21
-31.6317
0
LINE
8
BLACK
6
CONTINUOUS
10
51.8348
20
-31.6317
11
51.7416
21
-31.5072
0
LINE
8
BLACK
6
CONTINUOUS
10
51.7416
20
-31.5072
11
51.6117
21
-31.2693
0
LINE
8
BLACK
6
CONTINUOUS
10
51.6117
20
-31.2693
11
51.517
21
-31.0153
0
LINE
8
BLACK
6
CONTINUOUS
10
51.517
20
-31.0153
11
51.4593
21
-30.7504
0
LINE
8
BLACK
6
CONTINUOUS
10
51.4593
20
-30.7504
11
51.44
21
-30.48
0
LINE
8
BLACK
6
CONTINUOUS
10
51.44
20
-30.48
11
51.4593
21
-30.2096
0
LINE
8
BLACK
6
CONTINUOUS
10
51.4593
20
-30.2096
11
51.517
21
-29.9447
0
LINE
8
BLACK
6
CONTINUOUS
10
51.517
20
-29.9447
11
51.6117
21
-29.6907
0
LINE
8
BLACK
6
CONTINUOUS
10
51.6117
20
-29.6907
11
51.7416
21
-29.4528
0
LINE
8
BLACK
6
CONTINUOUS
10
51.7416
20
-29.4528
11
51.8348
21
-29.3283
0
LINE
8
BLACK
6
CONTINUOUS
10
51.8348
20
-29.3283
11
51.4876
21
-28.9811
0
LINE
8
BLACK
6
CONTINUOUS
10
51.4876
20
-28.9811
11
51.4756
21
-28.9744
0
LINE
8
BLACK
6
CONTINUOUS
10
51.4756
20
-28.9744
11
51.4643
21
-28.9822
0
LINE
8
BLACK
6
CONTINUOUS
10
51.4643
20
-28.9822
11
51.397
21
-29.0635
0
LINE
8
BLACK
6
CONTINUOUS
10
51.397
20
-29.0635
11
51.3924
21
-29.0698
0
LINE
8
BLACK
6
CONTINUOUS
10
51.3924
20
-29.0698
11
51.2348
21
-29.3182
0
LINE
8
BLACK
6
CONTINUOUS
10
51.2348
20
-29.3182
11
51.231
21
-29.325
0
LINE
8
BLACK
6
CONTINUOUS
10
51.231
20
-29.325
11
51.1058
21
-29.5912
0
LINE
8
BLACK
6
CONTINUOUS
10
51.1058
20
-29.5912
11
51.1029
21
-29.5985
0
LINE
8
BLACK
6
CONTINUOUS
10
51.1029
20
-29.5985
11
51.012
21
-29.8783
0
LINE
8
BLACK
6
CONTINUOUS
10
51.012
20
-29.8783
11
51.0101
21
-29.8858
0
LINE
8
BLACK
6
CONTINUOUS
10
51.0101
20
-29.8858
11
50.9549
21
-30.1748
0
LINE
8
BLACK
6
CONTINUOUS
10
50.9549
20
-30.1748
11
50.954
21
-30.1825
0
LINE
8
BLACK
6
CONTINUOUS
10
50.954
20
-30.1825
11
50.9355
21
-30.4761
0
LINE
8
BLACK
6
CONTINUOUS
10
50.9355
20
-30.4761
11
50.9355
21
-30.4839
0
LINE
8
BLACK
6
CONTINUOUS
10
36.7
20
-26.3445
11
36.7004
21
-26.3511
0
LINE
8
BLACK
6
CONTINUOUS
10
36.7004
20
-26.3511
11
36.7056
21
-26.3997
0
LINE
8
BLACK
6
CONTINUOUS
10
36.7056
20
-26.3997
11
36.7091
21
-26.4146
0
LINE
8
BLACK
6
CONTINUOUS
10
36.7091
20
-26.4146
11
36.7535
21
-26.5338
0
LINE
8
BLACK
6
CONTINUOUS
10
36.7535
20
-26.5338
11
36.762
21
-26.5492
0
LINE
8
BLACK
6
CONTINUOUS
10
36.762
20
-26.5492
11
36.8375
21
-26.6501
0
LINE
8
BLACK
6
CONTINUOUS
10
36.8375
20
-26.6501
11
36.8499
21
-26.6625
0
LINE
8
BLACK
6
CONTINUOUS
10
36.8499
20
-26.6625
11
36.9508
21
-26.738
0
LINE
8
BLACK
6
CONTINUOUS
10
36.9508
20
-26.738
11
36.9662
21
-26.7465
0
LINE
8
BLACK
6
CONTINUOUS
10
36.9662
20
-26.7465
11
37.0854
21
-26.7909
0
LINE
8
BLACK
6
CONTINUOUS
10
37.0854
20
-26.7909
11
37.1003
21
-26.7944
0
LINE
8
BLACK
6
CONTINUOUS
10
37.1003
20
-26.7944
11
37.1489
21
-26.7996
0
LINE
8
BLACK
6
CONTINUOUS
10
37.1489
20
-26.7996
11
37.1555
21
-26.8
0
LINE
8
BLACK
6
CONTINUOUS
10
37.1555
20
-26.8
11
37.8337
21
-26.8
0
LINE
8
BLACK
6
CONTINUOUS
10
37.8337
20
-26.8
11
37.8465
21
-26.7965
0
LINE
8
BLACK
6
CONTINUOUS
10
37.8465
20
-26.7965
11
37.85
21
-26.7837
0
LINE
8
BLACK
6
CONTINUOUS
10
37.85
20
-26.7837
11
37.85
21
-26.3
0
LINE
8
BLACK
6
CONTINUOUS
10
37.85
20
-26.3
11
37.2
21
-26.3
0
LINE
8
BLACK
6
CONTINUOUS
10
37.2
20
-26.3
11
37.2
21
-25.65
0
LINE
8
BLACK
6
CONTINUOUS
10
37.2
20
-25.65
11
36.7163
21
-25.65
0
LINE
8
BLACK
6
CONTINUOUS
10
36.7163
20
-25.65
11
36.7034
21
-25.6534
0
LINE
8
BLACK
6
CONTINUOUS
10
36.7034
20
-25.6534
11
36.7
21
-25.6663
0
LINE
8
BLACK
6
CONTINUOUS
10
36.7
20
-25.6663
11
36.7
21
-26.3445
0
LINE
8
BLACK
6
CONTINUOUS
10
36.7
20
-25.1337
11
36.7034
21
-25.1465
0
LINE
8
BLACK
6
CONTINUOUS
10
36.7034
20
-25.1465
11
36.7163
21
-25.15
0
LINE
8
BLACK
6
CONTINUOUS
10
36.7163
20
-25.15
11
37.2
21
-25.15
0
LINE
8
BLACK
6
CONTINUOUS
10
37.2
20
-25.15
11
37.2
21
-24.5
0
LINE
8
BLACK
6
CONTINUOUS
10
37.2
20
-24.5
11
37.85
21
-24.5
0
LINE
8
BLACK
6
CONTINUOUS
10
37.85
20
-24.5
11
37.85
21
-24.0163
0
LINE
8
BLACK
6
CONTINUOUS
10
37.85
20
-24.0163
11
37.8465
21
-24.0034
0
LINE
8
BLACK
6
CONTINUOUS
10
37.8465
20
-24.0034
11
37.8337
21
-24
0
LINE
8
BLACK
6
CONTINUOUS
10
37.8337
20
-24
11
37.1555
21
-24
0
LINE
8
BLACK
6
CONTINUOUS
10
37.1555
20
-24
11
37.1489
21
-24.0004
0
LINE
8
BLACK
6
CONTINUOUS
10
37.1489
20
-24.0004
11
37.1003
21
-24.0056
0
LINE
8
BLACK
6
CONTINUOUS
10
37.1003
20
-24.0056
11
37.0854
21
-24.0091
0
LINE
8
BLACK
6
CONTINUOUS
10
37.0854
20
-24.0091
11
36.9662
21
-24.0535
0
LINE
8
BLACK
6
CONTINUOUS
10
36.9662
20
-24.0535
11
36.9508
21
-24.062
0
LINE
8
BLACK
6
CONTINUOUS
10
36.9508
20
-24.062
11
36.8499
21
-24.1375
0
LINE
8
BLACK
6
CONTINUOUS
10
36.8499
20
-24.1375
11
36.8375
21
-24.1499
0
LINE
8
BLACK
6
CONTINUOUS
10
36.8375
20
-24.1499
11
36.762
21
-24.2508
0
LINE
8
BLACK
6
CONTINUOUS
10
36.762
20
-24.2508
11
36.7535
21
-24.2662
0
LINE
8
BLACK
6
CONTINUOUS
10
36.7535
20
-24.2662
11
36.7091
21
-24.3854
0
LINE
8
BLACK
6
CONTINUOUS
10
36.7091
20
-24.3854
11
36.7056
21
-24.4003
0
LINE
8
BLACK
6
CONTINUOUS
10
36.7056
20
-24.4003
11
36.7004
21
-24.4489
0
LINE
8
BLACK
6
CONTINUOUS
10
36.7004
20
-24.4489
11
36.7
21
-24.4555
0
LINE
8
BLACK
6
CONTINUOUS
10
36.7
20
-24.4555
11
36.7
21
-25.1337
  0
ENDSEC
  0
EOF
