M48
; DRILL file {KiCad (6.0.7)} date Fri Mar 10 22:23:27 2023
; FORMAT={-:-/ absolute / inch / decimal}
; #@! TF.CreationDate,2023-03-10T22:23:27-08:00
; #@! TF.GenerationSoftware,Kicad,Pcbnew,(6.0.7)
; #@! TF.FileFunction,Plated,1,2,PTH
FMAT,2
INCH
; #@! TA.AperFunction,Plated,PTH,ComponentDrill
T1C0.0276
; #@! TA.AperFunction,Plated,PTH,ComponentDrill
T2C0.0315
; #@! TA.AperFunction,Plated,PTH,ComponentDrill
T3C0.0327
; #@! TA.AperFunction,Plated,PTH,ComponentDrill
T4C0.0354
; #@! TA.AperFunction,Plated,PTH,ComponentDrill
T5C0.0394
; #@! TA.AperFunction,Plated,PTH,ComponentDrill
T6C0.0669
%
G90
G05
T1
X6.4211Y-3.9695
X6.4211Y-4.2695
X6.5846Y-4.55
X6.5846Y-4.85
X6.6587Y-3.5494
X6.6587Y-3.8494
X6.7Y-4.55
X6.7Y-4.85
X6.8Y-4.549
X6.8Y-4.849
X6.9Y-4.5494
X6.9Y-4.8494
X7.0Y-4.5494
X7.0Y-4.8494
T2
X4.9Y-4.1071
X4.9Y-4.3
X6.1959Y-4.029
X6.1959Y-4.2219
T3
X5.145Y-3.35
X5.145Y-3.45
X5.145Y-3.55
X5.145Y-3.65
X5.145Y-3.75
X5.145Y-3.85
X5.145Y-3.95
X5.145Y-4.05
X5.145Y-4.15
X5.145Y-4.25
X5.145Y-4.35
X5.145Y-4.45
X5.145Y-4.55
X5.145Y-4.65
X5.455Y-3.35
X5.455Y-3.45
X5.455Y-3.55
X5.455Y-3.65
X5.455Y-3.75
X5.455Y-3.85
X5.455Y-3.95
X5.455Y-4.05
X5.455Y-4.15
X5.455Y-4.25
X5.455Y-4.35
X5.455Y-4.45
X5.455Y-4.55
X5.455Y-4.65
T4
X7.25Y-3.45
X7.3Y-3.55
X7.4Y-3.55
X7.45Y-3.45
X7.5Y-3.55
X7.55Y-3.45
X7.6Y-3.55
X7.65Y-3.45
X7.7Y-3.55
T5
X4.9Y-3.7
X4.9Y-3.8
X5.3Y-2.8
X5.3Y-2.9
X5.3Y-3.0
X5.4Y-2.8
X5.4Y-2.9
X5.4Y-3.0
X7.2142Y-3.0402
X7.3142Y-3.0402
X7.6362Y-3.0402
X7.7362Y-3.0402
T6
X7.1701Y-3.3201
X7.7803Y-3.3201
T0
M30
