%TF.GenerationSoftware,KiCad,Pcbnew,(6.0.7)*%
%TF.CreationDate,2023-03-10T22:23:24-08:00*%
%TF.ProjectId,WiznetDemo,57697a6e-6574-4446-956d-6f2e6b696361,rev?*%
%TF.SameCoordinates,Original*%
%TF.FileFunction,Copper,L1,Top*%
%TF.FilePolarity,Positive*%
%FSLAX46Y46*%
G04 Gerber Fmt 4.6, Leading zero omitted, Abs format (unit mm)*
G04 Created by KiCad (PCBNEW (6.0.7)) date 2023-03-10 22:23:24*
%MOMM*%
%LPD*%
G01*
G04 APERTURE LIST*
G04 Aperture macros list*
%AMRoundRect*
0 Rectangle with rounded corners*
0 $1 Rounding radius*
0 $2 $3 $4 $5 $6 $7 $8 $9 X,Y pos of 4 corners*
0 Add a 4 corners polygon primitive as box body*
4,1,4,$2,$3,$4,$5,$6,$7,$8,$9,$2,$3,0*
0 Add four circle primitives for the rounded corners*
1,1,$1+$1,$2,$3*
1,1,$1+$1,$4,$5*
1,1,$1+$1,$6,$7*
1,1,$1+$1,$8,$9*
0 Add four rect primitives between the rounded corners*
20,1,$1+$1,$2,$3,$4,$5,0*
20,1,$1+$1,$4,$5,$6,$7,0*
20,1,$1+$1,$6,$7,$8,$9,0*
20,1,$1+$1,$8,$9,$2,$3,0*%
G04 Aperture macros list end*
%TA.AperFunction,NonConductor*%
%ADD10C,0.200000*%
%TD*%
%TA.AperFunction,SMDPad,CuDef*%
%ADD11R,1.820000X1.160000*%
%TD*%
%TA.AperFunction,ComponentPad*%
%ADD12C,1.400000*%
%TD*%
%TA.AperFunction,ComponentPad*%
%ADD13O,1.400000X1.400000*%
%TD*%
%TA.AperFunction,ComponentPad*%
%ADD14R,1.800000X1.800000*%
%TD*%
%TA.AperFunction,ComponentPad*%
%ADD15C,1.800000*%
%TD*%
%TA.AperFunction,ComponentPad*%
%ADD16C,2.000000*%
%TD*%
%TA.AperFunction,ComponentPad*%
%ADD17C,3.000000*%
%TD*%
%TA.AperFunction,ComponentPad*%
%ADD18R,1.700000X1.700000*%
%TD*%
%TA.AperFunction,ComponentPad*%
%ADD19O,1.700000X1.700000*%
%TD*%
%TA.AperFunction,ComponentPad*%
%ADD20C,1.500000*%
%TD*%
%TA.AperFunction,ComponentPad*%
%ADD21R,1.250000X1.250000*%
%TD*%
%TA.AperFunction,ComponentPad*%
%ADD22C,1.250000*%
%TD*%
%TA.AperFunction,SMDPad,CuDef*%
%ADD23R,1.160000X1.820000*%
%TD*%
%TA.AperFunction,SMDPad,CuDef*%
%ADD24RoundRect,0.075000X0.662500X0.075000X-0.662500X0.075000X-0.662500X-0.075000X0.662500X-0.075000X0*%
%TD*%
%TA.AperFunction,SMDPad,CuDef*%
%ADD25RoundRect,0.075000X0.075000X0.662500X-0.075000X0.662500X-0.075000X-0.662500X0.075000X-0.662500X0*%
%TD*%
%TA.AperFunction,Conductor*%
%ADD26C,0.250000*%
%TD*%
G04 APERTURE END LIST*
D10*
X200660000Y-127000000D02*
X111760000Y-127000000D01*
X111760000Y-127000000D02*
X111760000Y-68580000D01*
X111760000Y-68580000D02*
X200660000Y-68580000D01*
X200660000Y-68580000D02*
X200660000Y-127000000D01*
D11*
%TO.P,C5,1*%
%TO.N,GND*%
X190500000Y-96930000D03*
%TO.P,C5,2*%
%TO.N,Net-(C5-Pad2)*%
X190500000Y-93980000D03*
%TD*%
D12*
%TO.P,R6,1*%
%TO.N,Net-(R6-Pad1)*%
X163097037Y-100824318D03*
D13*
%TO.P,R6,2*%
%TO.N,Net-(C4-Pad2)*%
X163097037Y-108444318D03*
%TD*%
D14*
%TO.P,J1,1,TD+*%
%TO.N,Net-(J1-Pad1)*%
X195580000Y-90170000D03*
D15*
%TO.P,J1,2,TD-*%
%TO.N,Net-(J1-Pad2)*%
X194310000Y-87630000D03*
%TO.P,J1,3,RD+*%
%TO.N,Net-(J1-Pad3)*%
X193040000Y-90170000D03*
%TO.P,J1,4,CT*%
%TO.N,Net-(C5-Pad2)*%
X191770000Y-87630000D03*
%TO.P,J1,5,CT*%
%TO.N,Net-(C6-Pad2)*%
X190500000Y-90170000D03*
%TO.P,J1,6,RD-*%
%TO.N,Net-(J1-Pad6)*%
X189230000Y-87630000D03*
%TO.P,J1,7,7*%
%TO.N,unconnected-(J1-Pad7)*%
X187960000Y-90170000D03*
%TO.P,J1,9,V+*%
%TO.N,unconnected-(J1-Pad9)*%
X185420000Y-90170000D03*
%TO.P,J1,10,V-*%
%TO.N,unconnected-(J1-Pad10)*%
X184150000Y-87630000D03*
D16*
%TO.P,J1,11,LLED+*%
%TO.N,Net-(J1-Pad11)*%
X196500000Y-77220000D03*
%TO.P,J1,12,LLED-*%
%TO.N,GND*%
X193960000Y-77220000D03*
%TO.P,J1,13,RLED+*%
%TO.N,Net-(J1-Pad13)*%
X185780000Y-77220000D03*
%TO.P,J1,14,RLED-*%
%TO.N,GND*%
X183240000Y-77220000D03*
D17*
%TO.P,J1,15,SHIELD*%
%TO.N,unconnected-(J1-Pad15)*%
X197620000Y-84330000D03*
X182120000Y-84330000D03*
%TD*%
D11*
%TO.P,C4,1*%
%TO.N,GND*%
X149551466Y-97110244D03*
%TO.P,C4,2*%
%TO.N,Net-(C4-Pad2)*%
X149551466Y-100060244D03*
%TD*%
D18*
%TO.P,J0,1,Pin_1*%
%TO.N,Net-(J0-Pad1)*%
X137160000Y-76200000D03*
D19*
%TO.P,J0,2,Pin_2*%
%TO.N,+5V*%
X134620000Y-76200000D03*
%TO.P,J0,3,Pin_3*%
%TO.N,Net-(J0-Pad3)*%
X137160000Y-73660000D03*
%TO.P,J0,4,Pin_4*%
%TO.N,Net-(J0-Pad4)*%
X134620000Y-73660000D03*
%TO.P,J0,5,Pin_5*%
%TO.N,Net-(J0-Pad5)*%
X137160000Y-71120000D03*
%TO.P,J0,6,Pin_6*%
%TO.N,GND*%
X134620000Y-71120000D03*
%TD*%
D12*
%TO.P,R4,1*%
%TO.N,Net-(R4-Pad1)*%
X170180000Y-115570000D03*
D13*
%TO.P,R4,2*%
%TO.N,GND*%
X170180000Y-123190000D03*
%TD*%
D11*
%TO.P,C2,1*%
%TO.N,Net-(C2-Pad1)*%
X173310000Y-95438858D03*
%TO.P,C2,2*%
%TO.N,GND*%
X173310000Y-92488858D03*
%TD*%
D18*
%TO.P,J2,1,Pin_1*%
%TO.N,GND*%
X124460000Y-96520000D03*
D19*
%TO.P,J2,2,Pin_2*%
%TO.N,+5V*%
X124460000Y-93980000D03*
%TD*%
D20*
%TO.P,Y0,1,1*%
%TO.N,Net-(C0-Pad2)*%
X124460000Y-109220000D03*
%TO.P,Y0,2,2*%
%TO.N,Net-(C1-Pad2)*%
X124460000Y-104320000D03*
%TD*%
D12*
%TO.P,R0,1*%
%TO.N,Net-(R0-Pad1)*%
X169130000Y-97773858D03*
D13*
%TO.P,R0,2*%
%TO.N,GND*%
X169130000Y-90153858D03*
%TD*%
D11*
%TO.P,C3,1*%
%TO.N,GND*%
X152902133Y-97272222D03*
%TO.P,C3,2*%
%TO.N,Net-(R6-Pad1)*%
X152902133Y-100222222D03*
%TD*%
D21*
%TO.P,U0,1,PC6(PCINT14/~{RESET~{)}*%
%TO.N,Net-(J0-Pad5)*%
X130683000Y-85090000D03*
D22*
%TO.P,U0,2,PD0(PCINT16/RXD)*%
%TO.N,unconnected-(U0-Pad2)*%
X130683000Y-87630000D03*
%TO.P,U0,3,PD1(PCINT17/TXD)*%
%TO.N,unconnected-(U0-Pad3)*%
X130683000Y-90170000D03*
%TO.P,U0,4,PD2(PCINT18/INT0)*%
%TO.N,unconnected-(U0-Pad4)*%
X130683000Y-92710000D03*
%TO.P,U0,5,PD3(PCINT19/OC2B/INT1)*%
%TO.N,unconnected-(U0-Pad5)*%
X130683000Y-95250000D03*
%TO.P,U0,6,PD4(PCINT20/XCK/T0)*%
%TO.N,unconnected-(U0-Pad6)*%
X130683000Y-97790000D03*
%TO.P,U0,7,VCC*%
%TO.N,+5V*%
X130683000Y-100330000D03*
%TO.P,U0,8,GND*%
%TO.N,GND*%
X130683000Y-102870000D03*
%TO.P,U0,9,PB6(PCINT6/XTAL1/TOSC1)*%
%TO.N,Net-(C1-Pad2)*%
X130683000Y-105410000D03*
%TO.P,U0,10,PB7(PCINT7/XTAL2/TOSC2)*%
%TO.N,Net-(C0-Pad2)*%
X130683000Y-107950000D03*
%TO.P,U0,11,PD5(PCINT21/OC0B/T1)*%
%TO.N,unconnected-(U0-Pad11)*%
X130683000Y-110490000D03*
%TO.P,U0,12,PD6(PCINT22/OC0A/AIN0)*%
%TO.N,unconnected-(U0-Pad12)*%
X130683000Y-113030000D03*
%TO.P,U0,13,PD7(PCINT23/AIN1)*%
%TO.N,unconnected-(U0-Pad13)*%
X130683000Y-115570000D03*
%TO.P,U0,14,PB0(PCINT0/CLKO/ICP1)*%
%TO.N,unconnected-(U0-Pad14)*%
X130683000Y-118110000D03*
%TO.P,U0,15,PB1(OC1A/PCINT1)*%
%TO.N,unconnected-(U0-Pad15)*%
X138557000Y-118110000D03*
%TO.P,U0,16,PB2(~{SS~{/OC1B/PCINT2)}*%
%TO.N,Net-(U0-Pad16)*%
X138557000Y-115570000D03*
%TO.P,U0,17,PB3(MOSI/OC2A/PCINT3)*%
%TO.N,Net-(J0-Pad4)*%
X138557000Y-113030000D03*
%TO.P,U0,18,PB4(MISO/PCINT4)*%
%TO.N,Net-(J0-Pad1)*%
X138557000Y-110490000D03*
%TO.P,U0,19,PB5(SCK/PCINT5)*%
%TO.N,Net-(J0-Pad3)*%
X138557000Y-107950000D03*
%TO.P,U0,20,AVCC*%
%TO.N,+5V*%
X138557000Y-105410000D03*
%TO.P,U0,21,AREF*%
%TO.N,unconnected-(U0-Pad21)*%
X138557000Y-102870000D03*
%TO.P,U0,22,GND*%
%TO.N,GND*%
X138557000Y-100330000D03*
%TO.P,U0,23,PC0(ADC0/PCINT8)*%
%TO.N,unconnected-(U0-Pad23)*%
X138557000Y-97790000D03*
%TO.P,U0,24,PC1(ADC1/PCINT9)*%
%TO.N,unconnected-(U0-Pad24)*%
X138557000Y-95250000D03*
%TO.P,U0,25,PC2(ADC2/PCINT10)*%
%TO.N,unconnected-(U0-Pad25)*%
X138557000Y-92710000D03*
%TO.P,U0,26,PC3(ADC3/PCINT11)*%
%TO.N,unconnected-(U0-Pad26)*%
X138557000Y-90170000D03*
%TO.P,U0,27,PC4(ADC4/SDA/PCINT12)*%
%TO.N,unconnected-(U0-Pad27)*%
X138557000Y-87630000D03*
%TO.P,U0,28,PC5(ADC5/SCL/PCINT13)*%
%TO.N,unconnected-(U0-Pad28)*%
X138557000Y-85090000D03*
%TD*%
D20*
%TO.P,Y1,1,1*%
%TO.N,Net-(C4-Pad2)*%
X157375037Y-107237318D03*
%TO.P,Y1,2,2*%
%TO.N,Net-(R6-Pad1)*%
X157375037Y-102337318D03*
%TD*%
D12*
%TO.P,R5,1*%
%TO.N,Net-(R5-Pad1)*%
X167248481Y-115570000D03*
D13*
%TO.P,R5,2*%
%TO.N,GND*%
X167248481Y-123190000D03*
%TD*%
D12*
%TO.P,R1,1*%
%TO.N,Net-(R1-Pad1)*%
X177800000Y-115553858D03*
D13*
%TO.P,R1,2*%
%TO.N,GND*%
X177800000Y-123173858D03*
%TD*%
D12*
%TO.P,R2,1*%
%TO.N,Net-(R2-Pad1)*%
X175260000Y-115553858D03*
D13*
%TO.P,R2,2*%
%TO.N,GND*%
X175260000Y-123173858D03*
%TD*%
D12*
%TO.P,R3,1*%
%TO.N,Net-(R3-Pad1)*%
X172720000Y-115543858D03*
D13*
%TO.P,R3,2*%
%TO.N,GND*%
X172720000Y-123163858D03*
%TD*%
D23*
%TO.P,C1,1*%
%TO.N,GND*%
X115055000Y-104772321D03*
%TO.P,C1,2*%
%TO.N,Net-(C1-Pad2)*%
X118005000Y-104772321D03*
%TD*%
D24*
%TO.P,U1,1,TXN*%
%TO.N,Net-(J1-Pad2)*%
X178372500Y-106873858D03*
%TO.P,U1,2,TXP*%
%TO.N,Net-(J1-Pad1)*%
X178372500Y-106373858D03*
%TO.P,U1,3,AGND*%
%TO.N,GND*%
X178372500Y-105873858D03*
%TO.P,U1,4,AVDD*%
%TO.N,+5V*%
X178372500Y-105373858D03*
%TO.P,U1,5,RXN*%
%TO.N,Net-(J1-Pad6)*%
X178372500Y-104873858D03*
%TO.P,U1,6,RXP*%
%TO.N,Net-(J1-Pad3)*%
X178372500Y-104373858D03*
%TO.P,U1,7,DNC*%
%TO.N,unconnected-(U1-Pad7)*%
X178372500Y-103873858D03*
%TO.P,U1,8,AVDD*%
%TO.N,+5V*%
X178372500Y-103373858D03*
%TO.P,U1,9,AGND*%
%TO.N,GND*%
X178372500Y-102873858D03*
%TO.P,U1,10,EXRES1*%
%TO.N,unconnected-(U1-Pad10)*%
X178372500Y-102373858D03*
%TO.P,U1,11,AVDD*%
%TO.N,+5V*%
X178372500Y-101873858D03*
%TO.P,U1,12,NC*%
%TO.N,unconnected-(U1-Pad12)*%
X178372500Y-101373858D03*
D25*
%TO.P,U1,13,NC*%
%TO.N,unconnected-(U1-Pad13)*%
X176960000Y-99961358D03*
%TO.P,U1,14,AGND*%
%TO.N,GND*%
X176460000Y-99961358D03*
%TO.P,U1,15,AVDD*%
%TO.N,+5V*%
X175960000Y-99961358D03*
%TO.P,U1,16,AGND*%
%TO.N,GND*%
X175460000Y-99961358D03*
%TO.P,U1,17,AVDD*%
%TO.N,+5V*%
X174960000Y-99961358D03*
%TO.P,U1,18,VBG*%
%TO.N,unconnected-(U1-Pad18)*%
X174460000Y-99961358D03*
%TO.P,U1,19,AGND*%
%TO.N,GND*%
X173960000Y-99961358D03*
%TO.P,U1,20,TOCAP*%
%TO.N,Net-(C2-Pad1)*%
X173460000Y-99961358D03*
%TO.P,U1,21,AVDD*%
%TO.N,+5V*%
X172960000Y-99961358D03*
%TO.P,U1,22,1V2O*%
%TO.N,unconnected-(U1-Pad22)*%
X172460000Y-99961358D03*
%TO.P,U1,23,RSVD*%
%TO.N,Net-(R0-Pad1)*%
X171960000Y-99961358D03*
%TO.P,U1,24,SPDLED*%
%TO.N,unconnected-(U1-Pad24)*%
X171460000Y-99961358D03*
D24*
%TO.P,U1,25,LINKLED*%
%TO.N,Net-(J1-Pad11)*%
X170047500Y-101373858D03*
%TO.P,U1,26,DUPLED*%
%TO.N,unconnected-(U1-Pad26)*%
X170047500Y-101873858D03*
%TO.P,U1,27,ACTLED*%
%TO.N,Net-(J1-Pad13)*%
X170047500Y-102373858D03*
%TO.P,U1,28,VDD*%
%TO.N,+5V*%
X170047500Y-102873858D03*
%TO.P,U1,29,GND*%
%TO.N,GND*%
X170047500Y-103373858D03*
%TO.P,U1,30,XI/CLKIN*%
%TO.N,Net-(R6-Pad1)*%
X170047500Y-103873858D03*
%TO.P,U1,31,XO*%
%TO.N,Net-(C4-Pad2)*%
X170047500Y-104373858D03*
%TO.P,U1,32,~{SCS}*%
%TO.N,Net-(U0-Pad16)*%
X170047500Y-104873858D03*
%TO.P,U1,33,SCLK*%
%TO.N,Net-(J0-Pad3)*%
X170047500Y-105373858D03*
%TO.P,U1,34,MISO*%
%TO.N,Net-(J0-Pad1)*%
X170047500Y-105873858D03*
%TO.P,U1,35,MOSI*%
%TO.N,Net-(J0-Pad4)*%
X170047500Y-106373858D03*
%TO.P,U1,36,~{INT}*%
%TO.N,unconnected-(U1-Pad36)*%
X170047500Y-106873858D03*
D25*
%TO.P,U1,37,~{RST}*%
%TO.N,unconnected-(U1-Pad37)*%
X171460000Y-108286358D03*
%TO.P,U1,38,RSVD*%
%TO.N,Net-(R5-Pad1)*%
X171960000Y-108286358D03*
%TO.P,U1,39,RSVD*%
%TO.N,Net-(R4-Pad1)*%
X172460000Y-108286358D03*
%TO.P,U1,40,RSVD*%
%TO.N,Net-(R3-Pad1)*%
X172960000Y-108286358D03*
%TO.P,U1,41,RSVD*%
%TO.N,Net-(R2-Pad1)*%
X173460000Y-108286358D03*
%TO.P,U1,42,RSVD*%
%TO.N,Net-(R1-Pad1)*%
X173960000Y-108286358D03*
%TO.P,U1,43,PMODE2*%
%TO.N,Net-(SW0-Pad3)*%
X174460000Y-108286358D03*
%TO.P,U1,44,PMODE1*%
%TO.N,Net-(SW0-Pad2)*%
X174960000Y-108286358D03*
%TO.P,U1,45,PMODE0*%
%TO.N,Net-(SW0-Pad1)*%
X175460000Y-108286358D03*
%TO.P,U1,46,NC*%
%TO.N,unconnected-(U1-Pad46)*%
X175960000Y-108286358D03*
%TO.P,U1,47,NC*%
%TO.N,unconnected-(U1-Pad47)*%
X176460000Y-108286358D03*
%TO.P,U1,48,AGND*%
%TO.N,GND*%
X176960000Y-108286358D03*
%TD*%
D23*
%TO.P,C0,1*%
%TO.N,GND*%
X115075000Y-108086487D03*
%TO.P,C0,2*%
%TO.N,Net-(C0-Pad2)*%
X118025000Y-108086487D03*
%TD*%
D11*
%TO.P,C6,1*%
%TO.N,GND*%
X187960000Y-96706174D03*
%TO.P,C6,2*%
%TO.N,Net-(C6-Pad2)*%
X187960000Y-93756174D03*
%TD*%
D26*
%TO.N,Net-(J0-Pad1)*%
X166953852Y-109269752D02*
X166953852Y-106406075D01*
X137157000Y-109090000D02*
X138557000Y-110490000D01*
X137160000Y-76200000D02*
X137157000Y-76203000D01*
X139113422Y-111046422D02*
X165177182Y-111046422D01*
X166953852Y-106406075D02*
X167486069Y-105873858D01*
X138557000Y-110490000D02*
X139113422Y-111046422D01*
X137157000Y-76203000D02*
X137157000Y-109090000D01*
X165177182Y-111046422D02*
X166953852Y-109269752D01*
X167486069Y-105873858D02*
X170047500Y-105873858D01*
%TO.N,+5V*%
X178372500Y-103373858D02*
X175608219Y-103373858D01*
X143510000Y-75849468D02*
X143510000Y-100330000D01*
X139885240Y-72224708D02*
X143510000Y-75849468D01*
X133445000Y-75025000D02*
X133445000Y-72983299D01*
X175608219Y-103373858D02*
X175608219Y-101919251D01*
X139805234Y-72304714D02*
X139885240Y-72224708D01*
X124460000Y-94107000D02*
X124460000Y-93980000D01*
X175608219Y-101919251D02*
X175562826Y-101873858D01*
X175608219Y-103412762D02*
X175608219Y-103373858D01*
X144780000Y-99060000D02*
X165100000Y-99060000D01*
X178372500Y-101873858D02*
X175562826Y-101873858D01*
X178372500Y-105373858D02*
X177569315Y-105373858D01*
X174960000Y-99961358D02*
X174960000Y-102354792D01*
X143510000Y-100457000D02*
X138557000Y-105410000D01*
X177569315Y-105373858D02*
X175608219Y-103412762D01*
X172960000Y-100764543D02*
X172960000Y-99961358D01*
X133445000Y-72983299D02*
X134123585Y-72304714D01*
X174440934Y-102873858D02*
X170850685Y-102873858D01*
X143510000Y-100330000D02*
X144780000Y-99060000D01*
X165100000Y-99060000D02*
X168913858Y-102873858D01*
X134493000Y-96520000D02*
X134620000Y-96520000D01*
X168913858Y-102873858D02*
X170047500Y-102873858D01*
X134620000Y-76200000D02*
X133445000Y-75025000D01*
X170850685Y-102873858D02*
X172960000Y-100764543D01*
X170047500Y-102873858D02*
X170850685Y-102873858D01*
X175562826Y-101873858D02*
X175501880Y-101812912D01*
X134620000Y-96520000D02*
X134620000Y-76200000D01*
X175960000Y-101354792D02*
X175960000Y-99961358D01*
X138557000Y-105410000D02*
X139077000Y-104890000D01*
X143510000Y-100330000D02*
X143510000Y-100457000D01*
X130683000Y-100330000D02*
X134493000Y-96520000D01*
X174440934Y-102873858D02*
X175501880Y-101812912D01*
X134123585Y-72304714D02*
X139805234Y-72304714D01*
X130683000Y-100330000D02*
X124460000Y-94107000D01*
X175501880Y-101812912D02*
X175960000Y-101354792D01*
%TO.N,Net-(J0-Pad3)*%
X137607000Y-84696497D02*
X137607000Y-107000000D01*
X166503852Y-105673899D02*
X166803893Y-105373858D01*
X166803893Y-105373858D02*
X170047500Y-105373858D01*
X166503852Y-109083356D02*
X166503852Y-105673899D01*
X138557000Y-83746497D02*
X137607000Y-84696497D01*
X137160000Y-73660000D02*
X138557000Y-75057000D01*
X140905599Y-110298599D02*
X165288609Y-110298599D01*
X165288609Y-110298599D02*
X166503852Y-109083356D01*
X138557000Y-75057000D02*
X138557000Y-83746497D01*
X138557000Y-107950000D02*
X140905599Y-110298599D01*
X137607000Y-107000000D02*
X138557000Y-107950000D01*
%TO.N,Net-(J0-Pad4)*%
X135981929Y-81558925D02*
X135981929Y-110454929D01*
X167640000Y-106680000D02*
X167946142Y-106373858D01*
X165100000Y-111760000D02*
X167640000Y-109220000D01*
X167640000Y-109220000D02*
X167640000Y-106680000D01*
X135985000Y-81555854D02*
X135981929Y-81558925D01*
X138557000Y-113030000D02*
X139827000Y-111760000D01*
X167946142Y-106373858D02*
X170047500Y-106373858D01*
X135981929Y-110454929D02*
X138557000Y-113030000D01*
X134620000Y-73660000D02*
X135985000Y-75025000D01*
X135985000Y-75025000D02*
X135985000Y-81555854D01*
X139827000Y-111760000D02*
X165100000Y-111760000D01*
%TO.N,Net-(J0-Pad5)*%
X135985000Y-69945000D02*
X133255000Y-69945000D01*
X133255000Y-69945000D02*
X130683000Y-72517000D01*
X130683000Y-72517000D02*
X130683000Y-85090000D01*
X137160000Y-71120000D02*
X135985000Y-69945000D01*
%TO.N,GND*%
X176960000Y-105997963D02*
X176835895Y-105873858D01*
X178386386Y-102859972D02*
X180527991Y-102859972D01*
X176960000Y-108286358D02*
X176960000Y-109941260D01*
X176134628Y-98399230D02*
X176455829Y-98399230D01*
X176460000Y-99961358D02*
X176460000Y-99158173D01*
X178372500Y-105873858D02*
X176835895Y-105873858D01*
X175460000Y-99073858D02*
X176134628Y-98399230D01*
X174335895Y-103373858D02*
X170047500Y-103373858D01*
X175721300Y-98812558D02*
X176134628Y-98399230D01*
X178372500Y-102873858D02*
X178386386Y-102859972D01*
X176960000Y-109941260D02*
X176966626Y-109947886D01*
X124460000Y-96647000D02*
X124460000Y-96520000D01*
X175460000Y-99961358D02*
X175460000Y-99073858D01*
X130683000Y-102870000D02*
X124460000Y-96647000D01*
X176460000Y-99158173D02*
X176455829Y-99154002D01*
X173960000Y-99961358D02*
X173960000Y-99158173D01*
X176835895Y-105873858D02*
X174335895Y-103373858D01*
X176960000Y-108286358D02*
X176960000Y-105997963D01*
X176455829Y-99154002D02*
X176455829Y-98399230D01*
X174305615Y-98812558D02*
X175721300Y-98812558D01*
X173960000Y-99158173D02*
X174305615Y-98812558D01*
%TO.N,Net-(R0-Pad1)*%
X170575685Y-97773858D02*
X169130000Y-97773858D01*
X171960000Y-99961358D02*
X171960000Y-99158173D01*
X171960000Y-99158173D02*
X170575685Y-97773858D01*
%TO.N,Net-(R1-Pad1)*%
X177800000Y-115553858D02*
X173960000Y-111713858D01*
X173960000Y-111713858D02*
X173960000Y-108286358D01*
%TO.N,Net-(R2-Pad1)*%
X175260000Y-115553858D02*
X173460000Y-113753858D01*
X173460000Y-113753858D02*
X173460000Y-108286358D01*
%TO.N,Net-(R3-Pad1)*%
X172960000Y-115303858D02*
X172960000Y-108286358D01*
X172720000Y-115543858D02*
X172960000Y-115303858D01*
%TO.N,Net-(R4-Pad1)*%
X172460000Y-113290000D02*
X172460000Y-108286358D01*
X170180000Y-115570000D02*
X172460000Y-113290000D01*
%TO.N,Net-(R5-Pad1)*%
X167248481Y-115570000D02*
X171960000Y-110858481D01*
X171960000Y-110858481D02*
X171960000Y-108286358D01*
%TO.N,Net-(R6-Pad1)*%
X152902133Y-101660991D02*
X152902133Y-100222222D01*
X163097037Y-100824318D02*
X158888037Y-100824318D01*
X166146577Y-103873858D02*
X163097037Y-100824318D01*
X153578460Y-102337318D02*
X152902133Y-101660991D01*
X157375037Y-102337318D02*
X153578460Y-102337318D01*
X158888037Y-100824318D02*
X157375037Y-102337318D01*
X170047500Y-103873858D02*
X166146577Y-103873858D01*
%TO.N,Net-(C4-Pad2)*%
X149551466Y-103175523D02*
X149551466Y-100060244D01*
X161890037Y-107237318D02*
X157375037Y-107237318D01*
X157375037Y-107237318D02*
X153613261Y-107237318D01*
X163097037Y-108444318D02*
X161890037Y-107237318D01*
X170047500Y-104373858D02*
X167167497Y-104373858D01*
X167167497Y-104373858D02*
X163097037Y-108444318D01*
X153613261Y-107237318D02*
X149551466Y-103175523D01*
%TO.N,Net-(J1-Pad2)*%
X196377963Y-87630000D02*
X194310000Y-87630000D01*
X178372500Y-106873858D02*
X186740539Y-106873858D01*
X186740539Y-106873858D02*
X197260886Y-96353511D01*
X197260886Y-96353511D02*
X197260886Y-88512923D01*
X197260886Y-88512923D02*
X196377963Y-87630000D01*
%TO.N,Net-(J1-Pad1)*%
X195580000Y-90170000D02*
X195580000Y-96520000D01*
X195580000Y-96520000D02*
X185726142Y-106373858D01*
X185726142Y-106373858D02*
X178372500Y-106373858D01*
%TO.N,Net-(J1-Pad6)*%
X194265000Y-91305000D02*
X195130000Y-92170000D01*
X193040000Y-88437588D02*
X194265000Y-89662588D01*
X179200685Y-104898858D02*
X179051920Y-104898858D01*
X179275685Y-104973858D02*
X179200685Y-104898858D01*
X189230000Y-87630000D02*
X189692412Y-87630000D01*
X194265000Y-89662588D02*
X194265000Y-91305000D01*
X189230000Y-87630000D02*
X190455000Y-86405000D01*
X193040000Y-87167588D02*
X193040000Y-88437588D01*
X195130000Y-92170000D02*
X195130000Y-96105436D01*
X186261578Y-104973858D02*
X179275685Y-104973858D01*
X192277412Y-86405000D02*
X193040000Y-87167588D01*
X195130000Y-96105436D02*
X186261578Y-104973858D01*
X190455000Y-86405000D02*
X192277412Y-86405000D01*
%TO.N,Net-(J1-Pad3)*%
X193040000Y-90170000D02*
X193040000Y-96520000D01*
X193040000Y-96520000D02*
X185186142Y-104373858D01*
X185186142Y-104373858D02*
X178372500Y-104373858D01*
%TO.N,Net-(C2-Pad1)*%
X173460000Y-99961358D02*
X173460000Y-95588858D01*
X173460000Y-95588858D02*
X173310000Y-95438858D01*
%TO.N,Net-(J1-Pad11)*%
X161339134Y-79304999D02*
X156244385Y-84399748D01*
X156244385Y-88395274D02*
X169219315Y-101370204D01*
X196500000Y-77220000D02*
X195175000Y-78545000D01*
X169219315Y-101370204D02*
X169219315Y-101398858D01*
X189483102Y-78545000D02*
X189329288Y-78698814D01*
X188723103Y-79304999D02*
X161339134Y-79304999D01*
X169219315Y-101398858D02*
X169546562Y-101398858D01*
X156244385Y-84399748D02*
X156244385Y-88395274D01*
X189329288Y-78698814D02*
X188723103Y-79304999D01*
X195175000Y-78545000D02*
X189483102Y-78545000D01*
%TO.N,Net-(J1-Pad13)*%
X162865000Y-75895000D02*
X184455000Y-75895000D01*
X154940000Y-83820000D02*
X162865000Y-75895000D01*
X154940000Y-87933147D02*
X154940000Y-83820000D01*
X164508558Y-97501705D02*
X154940000Y-87933147D01*
X170047500Y-102373858D02*
X169050254Y-102373858D01*
X184455000Y-75895000D02*
X185780000Y-77220000D01*
X169050254Y-102373858D02*
X164508558Y-97832162D01*
X164508558Y-97832162D02*
X164508558Y-97501705D01*
%TO.N,Net-(U0-Pad16)*%
X171763173Y-106680000D02*
X171763173Y-105736346D01*
X171763173Y-105736346D02*
X170900685Y-104873858D01*
X138557000Y-115570000D02*
X162873173Y-115570000D01*
X162873173Y-115570000D02*
X171763173Y-106680000D01*
X170900685Y-104873858D02*
X170047500Y-104873858D01*
%TO.N,Net-(C0-Pad2)*%
X119158513Y-109220000D02*
X118025000Y-108086487D01*
X124460000Y-109220000D02*
X129413000Y-109220000D01*
X129413000Y-109220000D02*
X130683000Y-107950000D01*
X124460000Y-109220000D02*
X119158513Y-109220000D01*
%TO.N,Net-(C1-Pad2)*%
X124460000Y-104320000D02*
X129593000Y-104320000D01*
X118457321Y-104320000D02*
X118005000Y-104772321D01*
X124460000Y-104320000D02*
X118457321Y-104320000D01*
X129593000Y-104320000D02*
X130683000Y-105410000D01*
%TO.N,Net-(C5-Pad2)*%
X190500000Y-91902412D02*
X190500000Y-93980000D01*
X191770000Y-87630000D02*
X191770000Y-90632412D01*
X191770000Y-90632412D02*
X190500000Y-91902412D01*
X191770000Y-87630000D02*
X191815000Y-87675000D01*
%TO.N,Net-(C6-Pad2)*%
X190500000Y-90170000D02*
X187960000Y-92710000D01*
X187960000Y-92710000D02*
X187960000Y-93756174D01*
%TD*%
%TA.AperFunction,Conductor*%
%TO.N,GND*%
G36*
X132897217Y-69208502D02*
G01*
X132943710Y-69262158D01*
X132953814Y-69332432D01*
X132924320Y-69397012D01*
X132893235Y-69422954D01*
X132870457Y-69436424D01*
X132870453Y-69436427D01*
X132863637Y-69440458D01*
X132849313Y-69454782D01*
X132834281Y-69467621D01*
X132817893Y-69479528D01*
X132789712Y-69513593D01*
X132781722Y-69522373D01*
X130290747Y-72013348D01*
X130282461Y-72020888D01*
X130275982Y-72025000D01*
X130270557Y-72030777D01*
X130229357Y-72074651D01*
X130226602Y-72077493D01*
X130206865Y-72097230D01*
X130204385Y-72100427D01*
X130196682Y-72109447D01*
X130166414Y-72141679D01*
X130162595Y-72148625D01*
X130162593Y-72148628D01*
X130156652Y-72159434D01*
X130145801Y-72175953D01*
X130133386Y-72191959D01*
X130130241Y-72199228D01*
X130130238Y-72199232D01*
X130115826Y-72232537D01*
X130110609Y-72243187D01*
X130089305Y-72281940D01*
X130087334Y-72289615D01*
X130087334Y-72289616D01*
X130084267Y-72301562D01*
X130077863Y-72320266D01*
X130069819Y-72338855D01*
X130068580Y-72346678D01*
X130068577Y-72346688D01*
X130062901Y-72382524D01*
X130060495Y-72394144D01*
X130049500Y-72436970D01*
X130049500Y-72457224D01*
X130047949Y-72476934D01*
X130044780Y-72496943D01*
X130045526Y-72504835D01*
X130048941Y-72540961D01*
X130049500Y-72552819D01*
X130049500Y-83840507D01*
X130029498Y-83908628D01*
X129975842Y-83955121D01*
X129954237Y-83962543D01*
X129947684Y-83963255D01*
X129940289Y-83966027D01*
X129940286Y-83966028D01*
X129825978Y-84008880D01*
X129811295Y-84014385D01*
X129694739Y-84101739D01*
X129607385Y-84218295D01*
X129556255Y-84354684D01*
X129549500Y-84416866D01*
X129549500Y-85763134D01*
X129556255Y-85825316D01*
X129607385Y-85961705D01*
X129694739Y-86078261D01*
X129811295Y-86165615D01*
X129947684Y-86216745D01*
X130009866Y-86223500D01*
X131356134Y-86223500D01*
X131418316Y-86216745D01*
X131554705Y-86165615D01*
X131671261Y-86078261D01*
X131758615Y-85961705D01*
X131809745Y-85825316D01*
X131816500Y-85763134D01*
X131816500Y-84416866D01*
X131809745Y-84354684D01*
X131758615Y-84218295D01*
X131671261Y-84101739D01*
X131554705Y-84014385D01*
X131540022Y-84008880D01*
X131425714Y-83966028D01*
X131425711Y-83966027D01*
X131418316Y-83963255D01*
X131412547Y-83962628D01*
X131351709Y-83927874D01*
X131318887Y-83864919D01*
X131316500Y-83840507D01*
X131316500Y-72831594D01*
X131336502Y-72763473D01*
X131353405Y-72742499D01*
X133192999Y-70902905D01*
X133255311Y-70868879D01*
X133282094Y-70866000D01*
X134748000Y-70866000D01*
X134816121Y-70886002D01*
X134862614Y-70939658D01*
X134874000Y-70992000D01*
X134874000Y-71248000D01*
X134853998Y-71316121D01*
X134800342Y-71362614D01*
X134748000Y-71374000D01*
X133303225Y-71374000D01*
X133289694Y-71377973D01*
X133288257Y-71387966D01*
X133318565Y-71522446D01*
X133321645Y-71532275D01*
X133401770Y-71729603D01*
X133406413Y-71738794D01*
X133501629Y-71894173D01*
X133520167Y-71962707D01*
X133498711Y-72030383D01*
X133483292Y-72049102D01*
X133052742Y-72479652D01*
X133044463Y-72487186D01*
X133037982Y-72491299D01*
X132991357Y-72540950D01*
X132988602Y-72543792D01*
X132968865Y-72563529D01*
X132966385Y-72566726D01*
X132958682Y-72575746D01*
X132928414Y-72607978D01*
X132924595Y-72614924D01*
X132924593Y-72614927D01*
X132918652Y-72625733D01*
X132907801Y-72642252D01*
X132895386Y-72658258D01*
X132892241Y-72665527D01*
X132892238Y-72665531D01*
X132877826Y-72698836D01*
X132872609Y-72709486D01*
X132851305Y-72748239D01*
X132849334Y-72755914D01*
X132849334Y-72755915D01*
X132846267Y-72767861D01*
X132839863Y-72786565D01*
X132831819Y-72805154D01*
X132830580Y-72812977D01*
X132830577Y-72812987D01*
X132824901Y-72848823D01*
X132822495Y-72860443D01*
X132811500Y-72903269D01*
X132811500Y-72923523D01*
X132809949Y-72943233D01*
X132806780Y-72963242D01*
X132807526Y-72971134D01*
X132810941Y-73007260D01*
X132811500Y-73019118D01*
X132811500Y-74946233D01*
X132810973Y-74957416D01*
X132809298Y-74964909D01*
X132809547Y-74972835D01*
X132809547Y-74972836D01*
X132811438Y-75032986D01*
X132811500Y-75036945D01*
X132811500Y-75064856D01*
X132811997Y-75068790D01*
X132811997Y-75068791D01*
X132812005Y-75068856D01*
X132812938Y-75080693D01*
X132814327Y-75124889D01*
X132819978Y-75144339D01*
X132823987Y-75163700D01*
X132826526Y-75183797D01*
X132829445Y-75191168D01*
X132829445Y-75191170D01*
X132842804Y-75224912D01*
X132846649Y-75236142D01*
X132853854Y-75260941D01*
X132858982Y-75278593D01*
X132863015Y-75285412D01*
X132863017Y-75285417D01*
X132869293Y-75296028D01*
X132877988Y-75313776D01*
X132885448Y-75332617D01*
X132890110Y-75339033D01*
X132890110Y-75339034D01*
X132911436Y-75368387D01*
X132917952Y-75378307D01*
X132935915Y-75408680D01*
X132940458Y-75416362D01*
X132954779Y-75430683D01*
X132967619Y-75445716D01*
X132979528Y-75462107D01*
X133004248Y-75482557D01*
X133013605Y-75490298D01*
X133022384Y-75498288D01*
X133269778Y-75745682D01*
X133303804Y-75807994D01*
X133302100Y-75868448D01*
X133280989Y-75944570D01*
X133280441Y-75949700D01*
X133280440Y-75949704D01*
X133275168Y-75999035D01*
X133257251Y-76166695D01*
X133257548Y-76171848D01*
X133257548Y-76171851D01*
X133267556Y-76345426D01*
X133270110Y-76389715D01*
X133271247Y-76394761D01*
X133271248Y-76394767D01*
X133295304Y-76501508D01*
X133319222Y-76607639D01*
X133403266Y-76814616D01*
X133405965Y-76819020D01*
X133506629Y-76983289D01*
X133519987Y-77005088D01*
X133666250Y-77173938D01*
X133838126Y-77316632D01*
X133842593Y-77319242D01*
X133924070Y-77366853D01*
X133972794Y-77418491D01*
X133986500Y-77475641D01*
X133986500Y-96078406D01*
X133966498Y-96146527D01*
X133949595Y-96167501D01*
X132012091Y-98105004D01*
X131949779Y-98139030D01*
X131878963Y-98133965D01*
X131822128Y-98091418D01*
X131797317Y-98024898D01*
X131798300Y-97997829D01*
X131800603Y-97981950D01*
X131819796Y-97849577D01*
X131821356Y-97790000D01*
X131802294Y-97582551D01*
X131790244Y-97539823D01*
X131747316Y-97387614D01*
X131745747Y-97382050D01*
X131653608Y-97195211D01*
X131636486Y-97172281D01*
X131532416Y-97032915D01*
X131532415Y-97032914D01*
X131528963Y-97028291D01*
X131375987Y-96886881D01*
X131199803Y-96775717D01*
X131006311Y-96698522D01*
X130801991Y-96657880D01*
X130796216Y-96657804D01*
X130796212Y-96657804D01*
X130691901Y-96656439D01*
X130593686Y-96655153D01*
X130587989Y-96656132D01*
X130587988Y-96656132D01*
X130394069Y-96689454D01*
X130388372Y-96690433D01*
X130192925Y-96762537D01*
X130187964Y-96765489D01*
X130187963Y-96765489D01*
X130025501Y-96862144D01*
X130013891Y-96869051D01*
X129857266Y-97006407D01*
X129853699Y-97010932D01*
X129853694Y-97010937D01*
X129733031Y-97163998D01*
X129728294Y-97170007D01*
X129725603Y-97175123D01*
X129725601Y-97175125D01*
X129662375Y-97295299D01*
X129631296Y-97354370D01*
X129612573Y-97414669D01*
X129573712Y-97539823D01*
X129569520Y-97553322D01*
X129545034Y-97760201D01*
X129558659Y-97968078D01*
X129560082Y-97973680D01*
X129562182Y-97981950D01*
X129559564Y-98052898D01*
X129519003Y-98111168D01*
X129453378Y-98138259D01*
X129383525Y-98125570D01*
X129350964Y-98102060D01*
X128094416Y-96845511D01*
X126469106Y-95220201D01*
X129545034Y-95220201D01*
X129558659Y-95428078D01*
X129609938Y-95629991D01*
X129697155Y-95819178D01*
X129817387Y-95989303D01*
X129821521Y-95993330D01*
X129927275Y-96096351D01*
X129966609Y-96134669D01*
X129971405Y-96137874D01*
X129971408Y-96137876D01*
X130050866Y-96190968D01*
X130139823Y-96250407D01*
X130145131Y-96252688D01*
X130145132Y-96252688D01*
X130325926Y-96330363D01*
X130325929Y-96330364D01*
X130331229Y-96332641D01*
X130336858Y-96333915D01*
X130336859Y-96333915D01*
X130528778Y-96377342D01*
X130528783Y-96377343D01*
X130534415Y-96378617D01*
X130540186Y-96378844D01*
X130540188Y-96378844D01*
X130602508Y-96381292D01*
X130742577Y-96386796D01*
X130852685Y-96370831D01*
X130943030Y-96357732D01*
X130943035Y-96357731D01*
X130948744Y-96356903D01*
X130954208Y-96355048D01*
X130954213Y-96355047D01*
X131100670Y-96305331D01*
X131146011Y-96289940D01*
X131327772Y-96188149D01*
X131332493Y-96184223D01*
X131483501Y-96058630D01*
X131487939Y-96054939D01*
X131554544Y-95974856D01*
X131617458Y-95899210D01*
X131621149Y-95894772D01*
X131722940Y-95713011D01*
X131750534Y-95631722D01*
X131788047Y-95521213D01*
X131788048Y-95521208D01*
X131789903Y-95515744D01*
X131790731Y-95510035D01*
X131790732Y-95510030D01*
X131808800Y-95385411D01*
X131819796Y-95309577D01*
X131821356Y-95250000D01*
X131802294Y-95042551D01*
X131745747Y-94842050D01*
X131653608Y-94655211D01*
X131528963Y-94488291D01*
X131375987Y-94346881D01*
X131199803Y-94235717D01*
X131006311Y-94158522D01*
X130801991Y-94117880D01*
X130796216Y-94117804D01*
X130796212Y-94117804D01*
X130691901Y-94116439D01*
X130593686Y-94115153D01*
X130587989Y-94116132D01*
X130587988Y-94116132D01*
X130394069Y-94149454D01*
X130388372Y-94150433D01*
X130192925Y-94222537D01*
X130187964Y-94225489D01*
X130187963Y-94225489D01*
X130116393Y-94268069D01*
X130013891Y-94329051D01*
X129857266Y-94466407D01*
X129853699Y-94470932D01*
X129853694Y-94470937D01*
X129731872Y-94625468D01*
X129728294Y-94630007D01*
X129725603Y-94635123D01*
X129725601Y-94635125D01*
X129650490Y-94777888D01*
X129631296Y-94814370D01*
X129569520Y-95013322D01*
X129545034Y-95220201D01*
X126469106Y-95220201D01*
X125781625Y-94532720D01*
X125747599Y-94470408D01*
X125750161Y-94406997D01*
X125790867Y-94273015D01*
X125792370Y-94268069D01*
X125821529Y-94046590D01*
X125823156Y-93980000D01*
X125804852Y-93757361D01*
X125750431Y-93540702D01*
X125661354Y-93335840D01*
X125621305Y-93273933D01*
X125542822Y-93152617D01*
X125542820Y-93152614D01*
X125540014Y-93148277D01*
X125389670Y-92983051D01*
X125385619Y-92979852D01*
X125385615Y-92979848D01*
X125218414Y-92847800D01*
X125218410Y-92847798D01*
X125214359Y-92844598D01*
X125018789Y-92736638D01*
X125013920Y-92734914D01*
X125013916Y-92734912D01*
X124859416Y-92680201D01*
X129545034Y-92680201D01*
X129558659Y-92888078D01*
X129609938Y-93089991D01*
X129697155Y-93279178D01*
X129817387Y-93449303D01*
X129821521Y-93453330D01*
X129948326Y-93576858D01*
X129966609Y-93594669D01*
X129971405Y-93597874D01*
X129971408Y-93597876D01*
X130041123Y-93644458D01*
X130139823Y-93710407D01*
X130145131Y-93712688D01*
X130145132Y-93712688D01*
X130325926Y-93790363D01*
X130325929Y-93790364D01*
X130331229Y-93792641D01*
X130336858Y-93793915D01*
X130336859Y-93793915D01*
X130528778Y-93837342D01*
X130528783Y-93837343D01*
X130534415Y-93838617D01*
X130540186Y-93838844D01*
X130540188Y-93838844D01*
X130602508Y-93841292D01*
X130742577Y-93846796D01*
X130845660Y-93831850D01*
X130943030Y-93817732D01*
X130943035Y-93817731D01*
X130948744Y-93816903D01*
X130954208Y-93815048D01*
X130954213Y-93815047D01*
X131099703Y-93765659D01*
X131146011Y-93749940D01*
X131327772Y-93648149D01*
X131487939Y-93514939D01*
X131621149Y-93354772D01*
X131722940Y-93173011D01*
X131749341Y-93095237D01*
X131788047Y-92981213D01*
X131788048Y-92981208D01*
X131789903Y-92975744D01*
X131790731Y-92970035D01*
X131790732Y-92970030D01*
X131812798Y-92817842D01*
X131819796Y-92769577D01*
X131821356Y-92710000D01*
X131802294Y-92502551D01*
X131782112Y-92430989D01*
X131767364Y-92378699D01*
X131745747Y-92302050D01*
X131653608Y-92115211D01*
X131528963Y-91948291D01*
X131375987Y-91806881D01*
X131347728Y-91789051D01*
X131204683Y-91698796D01*
X131199803Y-91695717D01*
X131006311Y-91618522D01*
X130801991Y-91577880D01*
X130796216Y-91577804D01*
X130796212Y-91577804D01*
X130691901Y-91576439D01*
X130593686Y-91575153D01*
X130587989Y-91576132D01*
X130587988Y-91576132D01*
X130507946Y-91589886D01*
X130388372Y-91610433D01*
X130192925Y-91682537D01*
X130187964Y-91685489D01*
X130187963Y-91685489D01*
X130156009Y-91704500D01*
X130013891Y-91789051D01*
X129857266Y-91926407D01*
X129853699Y-91930932D01*
X129853694Y-91930937D01*
X129731872Y-92085468D01*
X129728294Y-92090007D01*
X129725603Y-92095123D01*
X129725601Y-92095125D01*
X129653597Y-92231982D01*
X129631296Y-92274370D01*
X129569520Y-92473322D01*
X129545034Y-92680201D01*
X124859416Y-92680201D01*
X124813087Y-92663795D01*
X124813083Y-92663794D01*
X124808212Y-92662069D01*
X124803119Y-92661162D01*
X124803116Y-92661161D01*
X124593373Y-92623800D01*
X124593367Y-92623799D01*
X124588284Y-92622894D01*
X124514452Y-92621992D01*
X124370081Y-92620228D01*
X124370079Y-92620228D01*
X124364911Y-92620165D01*
X124144091Y-92653955D01*
X123931756Y-92723357D01*
X123901443Y-92739137D01*
X123770058Y-92807532D01*
X123733607Y-92826507D01*
X123729474Y-92829610D01*
X123729471Y-92829612D01*
X123562775Y-92954771D01*
X123554965Y-92960635D01*
X123400629Y-93122138D01*
X123397715Y-93126410D01*
X123397714Y-93126411D01*
X123369656Y-93167543D01*
X123274743Y-93306680D01*
X123227715Y-93407993D01*
X123206671Y-93453330D01*
X123180688Y-93509305D01*
X123120989Y-93724570D01*
X123097251Y-93946695D01*
X123097548Y-93951848D01*
X123097548Y-93951851D01*
X123103011Y-94046590D01*
X123110110Y-94169715D01*
X123111247Y-94174761D01*
X123111248Y-94174767D01*
X123121564Y-94220539D01*
X123159222Y-94387639D01*
X123243266Y-94594616D01*
X123284841Y-94662460D01*
X123337592Y-94748542D01*
X123359987Y-94785088D01*
X123506250Y-94953938D01*
X123510225Y-94957238D01*
X123510231Y-94957244D01*
X123515425Y-94961556D01*
X123555059Y-95020460D01*
X123556555Y-95091441D01*
X123519439Y-95151962D01*
X123479168Y-95176480D01*
X123371946Y-95216676D01*
X123356351Y-95225214D01*
X123254276Y-95301715D01*
X123241715Y-95314276D01*
X123165214Y-95416351D01*
X123156676Y-95431946D01*
X123111522Y-95552394D01*
X123107895Y-95567649D01*
X123102369Y-95618514D01*
X123102000Y-95625328D01*
X123102000Y-96247885D01*
X123106475Y-96263124D01*
X123107865Y-96264329D01*
X123115548Y-96266000D01*
X124588000Y-96266000D01*
X124656121Y-96286002D01*
X124702614Y-96339658D01*
X124714000Y-96392000D01*
X124714000Y-97859884D01*
X124718475Y-97875123D01*
X124719865Y-97876328D01*
X124727548Y-97877999D01*
X125354669Y-97877999D01*
X125361490Y-97877629D01*
X125412352Y-97872105D01*
X125427604Y-97868479D01*
X125548054Y-97823324D01*
X125563649Y-97814786D01*
X125665724Y-97738285D01*
X125678285Y-97725724D01*
X125754786Y-97623649D01*
X125763324Y-97608054D01*
X125808478Y-97487606D01*
X125812105Y-97472351D01*
X125817631Y-97421486D01*
X125818000Y-97414672D01*
X125817999Y-96665094D01*
X125838001Y-96596973D01*
X125891657Y-96550480D01*
X125961931Y-96540376D01*
X126026511Y-96569869D01*
X126033094Y-96575999D01*
X129524283Y-100067188D01*
X129558309Y-100129500D01*
X129560315Y-100171092D01*
X129545034Y-100300201D01*
X129558659Y-100508078D01*
X129609938Y-100709991D01*
X129697155Y-100899178D01*
X129817387Y-101069303D01*
X129891998Y-101141986D01*
X129958350Y-101206623D01*
X129966609Y-101214669D01*
X129971405Y-101217874D01*
X129971408Y-101217876D01*
X130094714Y-101300266D01*
X130139823Y-101330407D01*
X130145131Y-101332688D01*
X130145132Y-101332688D01*
X130325926Y-101410363D01*
X130325929Y-101410364D01*
X130331229Y-101412641D01*
X130336858Y-101413915D01*
X130336859Y-101413915D01*
X130528778Y-101457342D01*
X130528783Y-101457343D01*
X130534415Y-101458617D01*
X130540186Y-101458844D01*
X130540188Y-101458844D01*
X130602508Y-101461292D01*
X130742577Y-101466796D01*
X130845661Y-101451849D01*
X130943030Y-101437732D01*
X130943035Y-101437731D01*
X130948744Y-101436903D01*
X130954208Y-101435048D01*
X130954213Y-101435047D01*
X131103472Y-101384380D01*
X131146011Y-101369940D01*
X131327772Y-101268149D01*
X131335226Y-101261950D01*
X131483501Y-101138630D01*
X131487939Y-101134939D01*
X131601800Y-100998037D01*
X131617458Y-100979210D01*
X131621149Y-100974772D01*
X131722940Y-100793011D01*
X131749341Y-100715237D01*
X131788047Y-100601213D01*
X131788048Y-100601208D01*
X131789903Y-100595744D01*
X131790731Y-100590035D01*
X131790732Y-100590030D01*
X131815516Y-100419095D01*
X131819796Y-100389577D01*
X131821356Y-100330000D01*
X131806359Y-100166792D01*
X131820043Y-100097128D01*
X131842735Y-100066169D01*
X134746494Y-97162410D01*
X134789204Y-97134354D01*
X134831011Y-97117801D01*
X134838430Y-97115129D01*
X134891875Y-97097764D01*
X134898572Y-97093514D01*
X134898831Y-97093350D01*
X134919958Y-97082585D01*
X134920246Y-97082471D01*
X134920251Y-97082468D01*
X134927617Y-97079552D01*
X134934025Y-97074896D01*
X134934031Y-97074893D01*
X134973052Y-97046542D01*
X134979589Y-97042099D01*
X135027018Y-97012000D01*
X135032659Y-97005993D01*
X135050446Y-96990312D01*
X135050691Y-96990134D01*
X135050693Y-96990132D01*
X135057107Y-96985472D01*
X135062162Y-96979362D01*
X135092903Y-96942204D01*
X135098134Y-96936270D01*
X135130577Y-96901720D01*
X135191789Y-96865753D01*
X135262729Y-96868589D01*
X135320874Y-96909328D01*
X135347763Y-96975036D01*
X135348429Y-96987971D01*
X135348429Y-110376162D01*
X135347902Y-110387345D01*
X135346227Y-110394838D01*
X135346476Y-110402764D01*
X135346476Y-110402765D01*
X135348367Y-110462915D01*
X135348429Y-110466874D01*
X135348429Y-110494785D01*
X135348926Y-110498719D01*
X135348926Y-110498720D01*
X135348934Y-110498785D01*
X135349867Y-110510622D01*
X135351256Y-110554818D01*
X135356907Y-110574268D01*
X135360916Y-110593629D01*
X135363455Y-110613726D01*
X135366374Y-110621097D01*
X135366374Y-110621099D01*
X135379733Y-110654841D01*
X135383578Y-110666071D01*
X135395911Y-110708522D01*
X135399944Y-110715341D01*
X135399946Y-110715346D01*
X135406222Y-110725957D01*
X135414917Y-110743705D01*
X135422377Y-110762546D01*
X135427039Y-110768962D01*
X135427039Y-110768963D01*
X135448365Y-110798316D01*
X135454881Y-110808236D01*
X135477387Y-110846291D01*
X135491708Y-110860612D01*
X135504548Y-110875645D01*
X135516457Y-110892036D01*
X135522563Y-110897087D01*
X135550534Y-110920227D01*
X135559313Y-110928217D01*
X137398283Y-112767187D01*
X137432309Y-112829499D01*
X137434315Y-112871092D01*
X137419034Y-113000201D01*
X137432659Y-113208078D01*
X137483938Y-113409991D01*
X137571155Y-113599178D01*
X137691387Y-113769303D01*
X137840609Y-113914669D01*
X137845405Y-113917874D01*
X137845408Y-113917876D01*
X137915123Y-113964458D01*
X138013823Y-114030407D01*
X138019131Y-114032688D01*
X138019132Y-114032688D01*
X138199926Y-114110363D01*
X138199929Y-114110364D01*
X138205229Y-114112641D01*
X138210858Y-114113915D01*
X138210859Y-114113915D01*
X138402778Y-114157342D01*
X138402783Y-114157343D01*
X138408415Y-114158617D01*
X138414186Y-114158844D01*
X138414188Y-114158844D01*
X138476508Y-114161292D01*
X138616577Y-114166796D01*
X138719661Y-114151849D01*
X138817030Y-114137732D01*
X138817035Y-114137731D01*
X138822744Y-114136903D01*
X138828208Y-114135048D01*
X138828213Y-114135047D01*
X139014543Y-114071796D01*
X139020011Y-114069940D01*
X139201772Y-113968149D01*
X139361939Y-113834939D01*
X139495149Y-113674772D01*
X139596940Y-113493011D01*
X139623341Y-113415237D01*
X139662047Y-113301213D01*
X139662048Y-113301208D01*
X139663903Y-113295744D01*
X139664731Y-113290035D01*
X139664732Y-113290030D01*
X139693263Y-113093251D01*
X139693796Y-113089577D01*
X139695356Y-113030000D01*
X139680359Y-112866792D01*
X139694043Y-112797128D01*
X139716735Y-112766169D01*
X140052499Y-112430405D01*
X140114811Y-112396379D01*
X140141594Y-112393500D01*
X164849578Y-112393500D01*
X164917699Y-112413502D01*
X164964192Y-112467158D01*
X164974296Y-112537432D01*
X164944802Y-112602012D01*
X164938673Y-112608595D01*
X162647673Y-114899595D01*
X162585361Y-114933621D01*
X162558578Y-114936500D01*
X139561866Y-114936500D01*
X139493745Y-114916498D01*
X139460908Y-114885889D01*
X139406416Y-114812915D01*
X139406415Y-114812914D01*
X139402963Y-114808291D01*
X139249987Y-114666881D01*
X139073803Y-114555717D01*
X138880311Y-114478522D01*
X138675991Y-114437880D01*
X138670216Y-114437804D01*
X138670212Y-114437804D01*
X138565901Y-114436439D01*
X138467686Y-114435153D01*
X138461989Y-114436132D01*
X138461988Y-114436132D01*
X138445257Y-114439007D01*
X138262372Y-114470433D01*
X138066925Y-114542537D01*
X138061964Y-114545489D01*
X138061963Y-114545489D01*
X137895383Y-114644594D01*
X137887891Y-114649051D01*
X137731266Y-114786407D01*
X137727699Y-114790932D01*
X137727694Y-114790937D01*
X137612942Y-114936500D01*
X137602294Y-114950007D01*
X137599603Y-114955123D01*
X137599601Y-114955125D01*
X137507988Y-115129253D01*
X137505296Y-115134370D01*
X137443520Y-115333322D01*
X137419034Y-115540201D01*
X137432659Y-115748078D01*
X137483938Y-115949991D01*
X137571155Y-116139178D01*
X137691387Y-116309303D01*
X137840609Y-116454669D01*
X137845405Y-116457874D01*
X137845408Y-116457876D01*
X137877418Y-116479264D01*
X138013823Y-116570407D01*
X138019131Y-116572688D01*
X138019132Y-116572688D01*
X138199926Y-116650363D01*
X138199929Y-116650364D01*
X138205229Y-116652641D01*
X138210858Y-116653915D01*
X138210859Y-116653915D01*
X138402778Y-116697342D01*
X138402783Y-116697343D01*
X138408415Y-116698617D01*
X138414186Y-116698844D01*
X138414188Y-116698844D01*
X138476508Y-116701292D01*
X138616577Y-116706796D01*
X138722133Y-116691491D01*
X138817030Y-116677732D01*
X138817035Y-116677731D01*
X138822744Y-116676903D01*
X138828208Y-116675048D01*
X138828213Y-116675047D01*
X139014543Y-116611796D01*
X139020011Y-116609940D01*
X139201772Y-116508149D01*
X139240045Y-116476318D01*
X139357501Y-116378630D01*
X139361939Y-116374939D01*
X139466739Y-116248931D01*
X139525677Y-116209347D01*
X139563613Y-116203500D01*
X162794406Y-116203500D01*
X162805589Y-116204027D01*
X162813082Y-116205702D01*
X162821008Y-116205453D01*
X162821009Y-116205453D01*
X162881159Y-116203562D01*
X162885118Y-116203500D01*
X162913029Y-116203500D01*
X162916964Y-116203003D01*
X162917029Y-116202995D01*
X162928866Y-116202062D01*
X162961124Y-116201048D01*
X162965143Y-116200922D01*
X162973062Y-116200673D01*
X162992516Y-116195021D01*
X163011873Y-116191013D01*
X163024103Y-116189468D01*
X163024104Y-116189468D01*
X163031970Y-116188474D01*
X163039341Y-116185555D01*
X163039343Y-116185555D01*
X163073085Y-116172196D01*
X163084315Y-116168351D01*
X163119156Y-116158229D01*
X163119157Y-116158229D01*
X163126766Y-116156018D01*
X163133585Y-116151985D01*
X163133590Y-116151983D01*
X163144201Y-116145707D01*
X163161949Y-116137012D01*
X163180790Y-116129552D01*
X163216560Y-116103564D01*
X163226480Y-116097048D01*
X163257708Y-116078580D01*
X163257711Y-116078578D01*
X163264535Y-116074542D01*
X163278856Y-116060221D01*
X163293890Y-116047380D01*
X163303867Y-116040131D01*
X163310280Y-116035472D01*
X163338471Y-116001395D01*
X163346461Y-115992616D01*
X170586405Y-108752672D01*
X170648717Y-108718646D01*
X170719532Y-108723711D01*
X170776368Y-108766258D01*
X170801179Y-108832778D01*
X170801500Y-108841767D01*
X170801500Y-108987102D01*
X170816519Y-109101182D01*
X170819678Y-109108809D01*
X170819679Y-109108812D01*
X170821912Y-109114202D01*
X170875314Y-109243126D01*
X170968843Y-109365015D01*
X170975393Y-109370041D01*
X170975394Y-109370042D01*
X171015302Y-109400664D01*
X171090733Y-109458544D01*
X171178521Y-109494907D01*
X171225049Y-109514180D01*
X171225051Y-109514180D01*
X171232676Y-109517339D01*
X171235320Y-109517687D01*
X171293732Y-109553288D01*
X171324755Y-109617148D01*
X171326500Y-109638046D01*
X171326500Y-110543887D01*
X171306498Y-110612008D01*
X171289595Y-110632982D01*
X167580019Y-114342557D01*
X167517707Y-114376583D01*
X167469042Y-114377547D01*
X167464442Y-114376736D01*
X167459136Y-114375314D01*
X167453669Y-114374836D01*
X167453665Y-114374835D01*
X167253956Y-114357363D01*
X167248481Y-114356884D01*
X167037826Y-114375314D01*
X167032513Y-114376738D01*
X167032511Y-114376738D01*
X166838881Y-114428621D01*
X166838879Y-114428622D01*
X166833571Y-114430044D01*
X166828590Y-114432366D01*
X166828589Y-114432367D01*
X166646904Y-114517088D01*
X166646901Y-114517090D01*
X166641923Y-114519411D01*
X166468705Y-114640699D01*
X166319180Y-114790224D01*
X166197892Y-114963442D01*
X166195571Y-114968420D01*
X166195569Y-114968423D01*
X166194015Y-114971756D01*
X166108525Y-115155090D01*
X166107103Y-115160398D01*
X166107102Y-115160400D01*
X166058120Y-115343203D01*
X166053795Y-115359345D01*
X166035365Y-115570000D01*
X166053795Y-115780655D01*
X166055219Y-115785968D01*
X166055219Y-115785970D01*
X166107102Y-115979598D01*
X166108525Y-115984910D01*
X166110847Y-115989891D01*
X166110848Y-115989892D01*
X166194839Y-116170010D01*
X166197892Y-116176558D01*
X166319180Y-116349776D01*
X166468705Y-116499301D01*
X166641923Y-116620589D01*
X166646901Y-116622910D01*
X166646904Y-116622912D01*
X166826794Y-116706796D01*
X166833571Y-116709956D01*
X166838879Y-116711378D01*
X166838881Y-116711379D01*
X167032511Y-116763262D01*
X167032513Y-116763262D01*
X167037826Y-116764686D01*
X167248481Y-116783116D01*
X167459136Y-116764686D01*
X167464449Y-116763262D01*
X167464451Y-116763262D01*
X167658081Y-116711379D01*
X167658083Y-116711378D01*
X167663391Y-116709956D01*
X167670168Y-116706796D01*
X167850058Y-116622912D01*
X167850061Y-116622910D01*
X167855039Y-116620589D01*
X168028257Y-116499301D01*
X168177782Y-116349776D01*
X168299070Y-116176558D01*
X168302124Y-116170010D01*
X168386114Y-115989892D01*
X168386115Y-115989891D01*
X168388437Y-115984910D01*
X168389861Y-115979598D01*
X168441743Y-115785970D01*
X168441743Y-115785968D01*
X168443167Y-115780655D01*
X168461597Y-115570000D01*
X168458488Y-115534466D01*
X168443646Y-115364816D01*
X168443645Y-115364812D01*
X168443167Y-115359345D01*
X168441745Y-115354039D01*
X168440934Y-115349439D01*
X168448802Y-115278879D01*
X168475924Y-115238462D01*
X168995012Y-114719374D01*
X169057324Y-114685348D01*
X169128139Y-114690413D01*
X169184975Y-114732960D01*
X169209786Y-114799480D01*
X169194695Y-114868854D01*
X169187320Y-114880739D01*
X169129411Y-114963442D01*
X169127090Y-114968420D01*
X169127088Y-114968423D01*
X169125534Y-114971756D01*
X169040044Y-115155090D01*
X169038622Y-115160398D01*
X169038621Y-115160400D01*
X168989639Y-115343203D01*
X168985314Y-115359345D01*
X168966884Y-115570000D01*
X168985314Y-115780655D01*
X168986738Y-115785968D01*
X168986738Y-115785970D01*
X169038621Y-115979598D01*
X169040044Y-115984910D01*
X169042366Y-115989891D01*
X169042367Y-115989892D01*
X169126358Y-116170010D01*
X169129411Y-116176558D01*
X169250699Y-116349776D01*
X169400224Y-116499301D01*
X169573442Y-116620589D01*
X169578420Y-116622910D01*
X169578423Y-116622912D01*
X169758313Y-116706796D01*
X169765090Y-116709956D01*
X169770398Y-116711378D01*
X169770400Y-116711379D01*
X169964030Y-116763262D01*
X169964032Y-116763262D01*
X169969345Y-116764686D01*
X170180000Y-116783116D01*
X170390655Y-116764686D01*
X170395968Y-116763262D01*
X170395970Y-116763262D01*
X170589600Y-116711379D01*
X170589602Y-116711378D01*
X170594910Y-116709956D01*
X170601687Y-116706796D01*
X170781577Y-116622912D01*
X170781580Y-116622910D01*
X170786558Y-116620589D01*
X170959776Y-116499301D01*
X171109301Y-116349776D01*
X171230589Y-116176558D01*
X171233643Y-116170010D01*
X171317633Y-115989892D01*
X171317634Y-115989891D01*
X171319956Y-115984910D01*
X171321379Y-115979600D01*
X171321380Y-115979598D01*
X171331795Y-115940726D01*
X171368746Y-115880103D01*
X171432607Y-115849081D01*
X171503101Y-115857509D01*
X171557848Y-115902711D01*
X171575208Y-115940722D01*
X171578620Y-115953455D01*
X171578621Y-115953459D01*
X171580044Y-115958768D01*
X171582366Y-115963749D01*
X171582367Y-115963750D01*
X171666370Y-116143894D01*
X171669411Y-116150416D01*
X171790699Y-116323634D01*
X171940224Y-116473159D01*
X172113442Y-116594447D01*
X172118420Y-116596768D01*
X172118423Y-116596770D01*
X172174485Y-116622912D01*
X172305090Y-116683814D01*
X172310398Y-116685236D01*
X172310400Y-116685237D01*
X172504030Y-116737120D01*
X172504032Y-116737120D01*
X172509345Y-116738544D01*
X172720000Y-116756974D01*
X172930655Y-116738544D01*
X172935968Y-116737120D01*
X172935970Y-116737120D01*
X173129600Y-116685237D01*
X173129602Y-116685236D01*
X173134910Y-116683814D01*
X173265515Y-116622912D01*
X173321577Y-116596770D01*
X173321580Y-116596768D01*
X173326558Y-116594447D01*
X173499776Y-116473159D01*
X173649301Y-116323634D01*
X173770589Y-116150416D01*
X173773631Y-116143894D01*
X173857633Y-115963750D01*
X173857634Y-115963749D01*
X173859956Y-115958768D01*
X173861378Y-115953463D01*
X173861380Y-115953456D01*
X173866953Y-115932655D01*
X173903904Y-115872032D01*
X173967764Y-115841010D01*
X174038259Y-115849438D01*
X174093006Y-115894640D01*
X174110366Y-115932653D01*
X174118618Y-115963450D01*
X174118621Y-115963458D01*
X174120044Y-115968768D01*
X174122366Y-115973749D01*
X174122367Y-115973750D01*
X174206849Y-116154921D01*
X174209411Y-116160416D01*
X174330699Y-116333634D01*
X174480224Y-116483159D01*
X174653442Y-116604447D01*
X174658420Y-116606768D01*
X174658423Y-116606770D01*
X174840108Y-116691491D01*
X174845090Y-116693814D01*
X174850398Y-116695236D01*
X174850400Y-116695237D01*
X175044030Y-116747120D01*
X175044032Y-116747120D01*
X175049345Y-116748544D01*
X175260000Y-116766974D01*
X175470655Y-116748544D01*
X175475968Y-116747120D01*
X175475970Y-116747120D01*
X175669600Y-116695237D01*
X175669602Y-116695236D01*
X175674910Y-116693814D01*
X175679892Y-116691491D01*
X175861577Y-116606770D01*
X175861580Y-116606768D01*
X175866558Y-116604447D01*
X176039776Y-116483159D01*
X176189301Y-116333634D01*
X176310589Y-116160416D01*
X176313152Y-116154921D01*
X176397633Y-115973750D01*
X176397634Y-115973749D01*
X176399956Y-115968768D01*
X176402636Y-115958768D01*
X176408293Y-115937654D01*
X176445245Y-115877031D01*
X176509106Y-115846010D01*
X176579600Y-115854438D01*
X176634347Y-115899641D01*
X176651707Y-115937654D01*
X176657365Y-115958768D01*
X176660044Y-115968768D01*
X176662366Y-115973749D01*
X176662367Y-115973750D01*
X176746849Y-116154921D01*
X176749411Y-116160416D01*
X176870699Y-116333634D01*
X177020224Y-116483159D01*
X177193442Y-116604447D01*
X177198420Y-116606768D01*
X177198423Y-116606770D01*
X177380108Y-116691491D01*
X177385090Y-116693814D01*
X177390398Y-116695236D01*
X177390400Y-116695237D01*
X177584030Y-116747120D01*
X177584032Y-116747120D01*
X177589345Y-116748544D01*
X177800000Y-116766974D01*
X178010655Y-116748544D01*
X178015968Y-116747120D01*
X178015970Y-116747120D01*
X178209600Y-116695237D01*
X178209602Y-116695236D01*
X178214910Y-116693814D01*
X178219892Y-116691491D01*
X178401577Y-116606770D01*
X178401580Y-116606768D01*
X178406558Y-116604447D01*
X178579776Y-116483159D01*
X178729301Y-116333634D01*
X178850589Y-116160416D01*
X178853152Y-116154921D01*
X178937633Y-115973750D01*
X178937634Y-115973749D01*
X178939956Y-115968768D01*
X178942636Y-115958768D01*
X178993262Y-115769828D01*
X178993262Y-115769826D01*
X178994686Y-115764513D01*
X179013116Y-115553858D01*
X178994686Y-115343203D01*
X178993262Y-115337888D01*
X178941379Y-115144258D01*
X178941378Y-115144256D01*
X178939956Y-115138948D01*
X178858116Y-114963442D01*
X178852912Y-114952281D01*
X178852910Y-114952278D01*
X178850589Y-114947300D01*
X178729301Y-114774082D01*
X178579776Y-114624557D01*
X178406558Y-114503269D01*
X178401580Y-114500948D01*
X178401577Y-114500946D01*
X178219892Y-114416225D01*
X178219891Y-114416224D01*
X178214910Y-114413902D01*
X178209602Y-114412480D01*
X178209600Y-114412479D01*
X178015970Y-114360596D01*
X178015968Y-114360596D01*
X178010655Y-114359172D01*
X177800000Y-114340742D01*
X177794525Y-114341221D01*
X177594816Y-114358693D01*
X177594812Y-114358694D01*
X177589345Y-114359172D01*
X177584039Y-114360594D01*
X177579439Y-114361405D01*
X177508879Y-114353537D01*
X177468462Y-114326415D01*
X174630405Y-111488358D01*
X174596379Y-111426046D01*
X174593500Y-111399263D01*
X174593500Y-109642692D01*
X174613502Y-109574571D01*
X174667158Y-109528078D01*
X174735946Y-109517770D01*
X174842669Y-109531820D01*
X174842670Y-109531820D01*
X174846756Y-109532358D01*
X175073244Y-109532358D01*
X175077330Y-109531820D01*
X175077331Y-109531820D01*
X175187324Y-109517339D01*
X175187527Y-109518884D01*
X175232473Y-109518884D01*
X175232676Y-109517339D01*
X175342669Y-109531820D01*
X175342670Y-109531820D01*
X175346756Y-109532358D01*
X175573244Y-109532358D01*
X175577330Y-109531820D01*
X175577331Y-109531820D01*
X175687324Y-109517339D01*
X175687527Y-109518884D01*
X175732473Y-109518884D01*
X175732676Y-109517339D01*
X175842669Y-109531820D01*
X175842670Y-109531820D01*
X175846756Y-109532358D01*
X176073244Y-109532358D01*
X176077330Y-109531820D01*
X176077331Y-109531820D01*
X176187324Y-109517339D01*
X176187527Y-109518884D01*
X176232473Y-109518884D01*
X176232676Y-109517339D01*
X176342669Y-109531820D01*
X176342670Y-109531820D01*
X176346756Y-109532358D01*
X176573244Y-109532358D01*
X176577330Y-109531820D01*
X176577331Y-109531820D01*
X176687324Y-109517339D01*
X176687493Y-109518624D01*
X176732573Y-109518623D01*
X176732806Y-109516852D01*
X176792040Y-109524650D01*
X176806222Y-109522439D01*
X176811783Y-109503074D01*
X176849811Y-109443121D01*
X176856184Y-109437891D01*
X176907296Y-109398671D01*
X176973516Y-109373070D01*
X177043065Y-109387334D01*
X177093861Y-109436935D01*
X177110000Y-109498633D01*
X177110000Y-109508900D01*
X177114044Y-109522671D01*
X177127583Y-109524700D01*
X177179005Y-109517930D01*
X177194825Y-109513691D01*
X177321386Y-109461268D01*
X177335569Y-109453079D01*
X177444248Y-109369687D01*
X177455828Y-109358108D01*
X177539223Y-109249424D01*
X177547410Y-109235243D01*
X177599833Y-109108683D01*
X177604072Y-109092863D01*
X177617462Y-108991158D01*
X177618000Y-108982950D01*
X177618000Y-108454473D01*
X177613525Y-108439234D01*
X177612135Y-108438029D01*
X177604452Y-108436358D01*
X177244500Y-108436358D01*
X177176379Y-108416356D01*
X177129886Y-108362700D01*
X177118500Y-108310358D01*
X177118500Y-108262358D01*
X177138502Y-108194237D01*
X177192158Y-108147744D01*
X177244500Y-108136358D01*
X177599885Y-108136358D01*
X177615124Y-108131883D01*
X177616329Y-108130493D01*
X177618000Y-108122810D01*
X177618000Y-107658358D01*
X177638002Y-107590237D01*
X177691658Y-107543744D01*
X177744000Y-107532358D01*
X179073244Y-107532358D01*
X179077330Y-107531820D01*
X179077331Y-107531820D01*
X179179138Y-107518417D01*
X179179140Y-107518416D01*
X179187324Y-107517339D01*
X179194949Y-107514180D01*
X179202934Y-107512041D01*
X179203440Y-107513928D01*
X179236485Y-107507358D01*
X186661772Y-107507358D01*
X186672955Y-107507885D01*
X186680448Y-107509560D01*
X186688374Y-107509311D01*
X186688375Y-107509311D01*
X186748525Y-107507420D01*
X186752484Y-107507358D01*
X186780395Y-107507358D01*
X186784330Y-107506861D01*
X186784395Y-107506853D01*
X186796232Y-107505920D01*
X186828490Y-107504906D01*
X186832509Y-107504780D01*
X186840428Y-107504531D01*
X186859882Y-107498879D01*
X186879239Y-107494871D01*
X186891469Y-107493326D01*
X186891470Y-107493326D01*
X186899336Y-107492332D01*
X186906707Y-107489413D01*
X186906709Y-107489413D01*
X186940451Y-107476054D01*
X186951681Y-107472209D01*
X186986522Y-107462087D01*
X186986523Y-107462087D01*
X186994132Y-107459876D01*
X187000951Y-107455843D01*
X187000956Y-107455841D01*
X187011567Y-107449565D01*
X187029315Y-107440870D01*
X187048156Y-107433410D01*
X187083926Y-107407422D01*
X187093846Y-107400906D01*
X187125074Y-107382438D01*
X187125077Y-107382436D01*
X187131901Y-107378400D01*
X187146222Y-107364079D01*
X187161256Y-107351238D01*
X187171233Y-107343989D01*
X187177646Y-107339330D01*
X187205837Y-107305253D01*
X187213827Y-107296474D01*
X197653133Y-96857168D01*
X197661423Y-96849624D01*
X197667904Y-96845511D01*
X197714545Y-96795843D01*
X197717299Y-96793002D01*
X197737020Y-96773281D01*
X197739498Y-96770086D01*
X197747204Y-96761064D01*
X197772044Y-96734612D01*
X197777472Y-96728832D01*
X197787232Y-96711079D01*
X197798085Y-96694556D01*
X197805639Y-96684817D01*
X197810499Y-96678552D01*
X197828062Y-96637968D01*
X197833269Y-96627338D01*
X197854581Y-96588571D01*
X197856552Y-96580894D01*
X197856554Y-96580889D01*
X197859618Y-96568953D01*
X197866024Y-96550241D01*
X197870920Y-96538928D01*
X197874067Y-96531656D01*
X197876323Y-96517416D01*
X197880983Y-96487992D01*
X197883390Y-96476371D01*
X197892414Y-96441222D01*
X197892414Y-96441221D01*
X197894386Y-96433541D01*
X197894386Y-96413280D01*
X197895937Y-96393569D01*
X197897500Y-96383704D01*
X197899105Y-96373568D01*
X197894945Y-96329557D01*
X197894386Y-96317700D01*
X197894386Y-88591691D01*
X197894913Y-88580508D01*
X197896588Y-88573015D01*
X197896147Y-88558966D01*
X197894448Y-88504925D01*
X197894386Y-88500967D01*
X197894386Y-88473067D01*
X197893882Y-88469076D01*
X197892949Y-88457234D01*
X197892365Y-88438630D01*
X197891560Y-88413034D01*
X197888515Y-88402553D01*
X197885907Y-88393575D01*
X197881898Y-88374216D01*
X197881277Y-88369303D01*
X197879360Y-88354126D01*
X197876444Y-88346760D01*
X197876442Y-88346754D01*
X197863086Y-88313021D01*
X197859241Y-88301791D01*
X197849116Y-88266940D01*
X197849116Y-88266939D01*
X197846905Y-88259330D01*
X197839720Y-88247181D01*
X197836591Y-88241889D01*
X197827894Y-88224136D01*
X197824867Y-88216491D01*
X197820438Y-88205306D01*
X197801420Y-88179130D01*
X197794449Y-88169535D01*
X197787933Y-88159615D01*
X197772228Y-88133059D01*
X197765428Y-88121561D01*
X197751107Y-88107240D01*
X197738266Y-88092206D01*
X197731017Y-88082229D01*
X197726358Y-88075816D01*
X197720253Y-88070765D01*
X197720248Y-88070760D01*
X197692282Y-88047624D01*
X197683504Y-88039636D01*
X196881615Y-87237747D01*
X196874075Y-87229461D01*
X196869963Y-87222982D01*
X196820311Y-87176356D01*
X196817470Y-87173602D01*
X196797733Y-87153865D01*
X196794536Y-87151385D01*
X196785514Y-87143680D01*
X196759063Y-87118841D01*
X196753284Y-87113414D01*
X196746338Y-87109595D01*
X196746335Y-87109593D01*
X196735529Y-87103652D01*
X196719010Y-87092801D01*
X196718546Y-87092441D01*
X196703004Y-87080386D01*
X196695735Y-87077241D01*
X196695731Y-87077238D01*
X196662426Y-87062826D01*
X196651776Y-87057609D01*
X196613023Y-87036305D01*
X196593400Y-87031267D01*
X196574697Y-87024863D01*
X196563383Y-87019967D01*
X196563382Y-87019967D01*
X196556108Y-87016819D01*
X196548285Y-87015580D01*
X196548275Y-87015577D01*
X196512439Y-87009901D01*
X196500819Y-87007495D01*
X196465674Y-86998472D01*
X196465673Y-86998472D01*
X196457993Y-86996500D01*
X196437739Y-86996500D01*
X196418028Y-86994949D01*
X196405849Y-86993020D01*
X196398020Y-86991780D01*
X196390128Y-86992526D01*
X196354002Y-86995941D01*
X196342144Y-86996500D01*
X195646359Y-86996500D01*
X195578238Y-86976498D01*
X195540567Y-86938940D01*
X195483635Y-86850937D01*
X195429764Y-86767665D01*
X195396221Y-86730801D01*
X195373742Y-86706097D01*
X195273887Y-86596358D01*
X195269836Y-86593159D01*
X195269832Y-86593155D01*
X195096177Y-86456011D01*
X195096172Y-86456008D01*
X195092123Y-86452810D01*
X195087607Y-86450317D01*
X195087604Y-86450315D01*
X194893879Y-86343373D01*
X194893875Y-86343371D01*
X194889355Y-86340876D01*
X194884486Y-86339152D01*
X194884482Y-86339150D01*
X194675903Y-86265288D01*
X194675899Y-86265287D01*
X194671028Y-86263562D01*
X194665935Y-86262655D01*
X194665932Y-86262654D01*
X194448095Y-86223851D01*
X194448089Y-86223850D01*
X194443006Y-86222945D01*
X194370096Y-86222054D01*
X194216581Y-86220179D01*
X194216579Y-86220179D01*
X194211411Y-86220116D01*
X193982464Y-86255150D01*
X193762314Y-86327106D01*
X193757726Y-86329494D01*
X193757722Y-86329496D01*
X193731065Y-86343373D01*
X193556872Y-86434052D01*
X193552739Y-86437155D01*
X193552736Y-86437157D01*
X193441829Y-86520429D01*
X193375344Y-86545335D01*
X193305949Y-86530343D01*
X193277081Y-86508764D01*
X192781064Y-86012747D01*
X192773524Y-86004461D01*
X192769412Y-85997982D01*
X192719760Y-85951356D01*
X192716919Y-85948602D01*
X192697182Y-85928865D01*
X192693985Y-85926385D01*
X192684963Y-85918680D01*
X192680809Y-85914779D01*
X192652733Y-85888414D01*
X192645787Y-85884595D01*
X192645784Y-85884593D01*
X192634978Y-85878652D01*
X192618459Y-85867801D01*
X192617995Y-85867441D01*
X192602453Y-85855386D01*
X192595184Y-85852241D01*
X192595180Y-85852238D01*
X192561875Y-85837826D01*
X192551225Y-85832609D01*
X192512472Y-85811305D01*
X192492849Y-85806267D01*
X192474146Y-85799863D01*
X192462832Y-85794967D01*
X192462831Y-85794967D01*
X192455557Y-85791819D01*
X192447734Y-85790580D01*
X192447724Y-85790577D01*
X192411888Y-85784901D01*
X192400268Y-85782495D01*
X192365123Y-85773472D01*
X192365122Y-85773472D01*
X192357442Y-85771500D01*
X192337188Y-85771500D01*
X192317477Y-85769949D01*
X192305298Y-85768020D01*
X192297469Y-85766780D01*
X192268198Y-85769547D01*
X192253451Y-85770941D01*
X192241593Y-85771500D01*
X190533768Y-85771500D01*
X190522585Y-85770973D01*
X190515092Y-85769298D01*
X190507166Y-85769547D01*
X190507165Y-85769547D01*
X190447002Y-85771438D01*
X190443044Y-85771500D01*
X190415144Y-85771500D01*
X190411154Y-85772004D01*
X190399320Y-85772936D01*
X190355111Y-85774326D01*
X190347495Y-85776539D01*
X190347493Y-85776539D01*
X190335652Y-85779979D01*
X190316293Y-85783988D01*
X190314983Y-85784154D01*
X190296203Y-85786526D01*
X190288837Y-85789442D01*
X190288831Y-85789444D01*
X190255098Y-85802800D01*
X190243868Y-85806645D01*
X190227828Y-85811305D01*
X190201407Y-85818981D01*
X190194584Y-85823016D01*
X190183966Y-85829295D01*
X190166213Y-85837992D01*
X190158568Y-85841019D01*
X190147383Y-85845448D01*
X190133705Y-85855386D01*
X190111612Y-85871437D01*
X190101695Y-85877951D01*
X190063638Y-85900458D01*
X190049317Y-85914779D01*
X190034284Y-85927619D01*
X190017893Y-85939528D01*
X190004307Y-85955951D01*
X189989702Y-85973605D01*
X189981712Y-85982384D01*
X189728112Y-86235984D01*
X189665800Y-86270010D01*
X189601085Y-86265922D01*
X189600903Y-86266609D01*
X189597427Y-86265691D01*
X189596956Y-86265661D01*
X189595903Y-86265288D01*
X189595899Y-86265287D01*
X189591028Y-86263562D01*
X189585939Y-86262655D01*
X189585937Y-86262655D01*
X189368095Y-86223851D01*
X189368089Y-86223850D01*
X189363006Y-86222945D01*
X189290096Y-86222054D01*
X189136581Y-86220179D01*
X189136579Y-86220179D01*
X189131411Y-86220116D01*
X188902464Y-86255150D01*
X188682314Y-86327106D01*
X188677726Y-86329494D01*
X188677722Y-86329496D01*
X188651065Y-86343373D01*
X188476872Y-86434052D01*
X188472739Y-86437155D01*
X188472736Y-86437157D01*
X188337731Y-86538522D01*
X188291655Y-86573117D01*
X188288083Y-86576855D01*
X188158113Y-86712861D01*
X188131639Y-86740564D01*
X188128725Y-86744836D01*
X188128724Y-86744837D01*
X188113152Y-86767665D01*
X188001119Y-86931899D01*
X187903602Y-87141981D01*
X187841707Y-87365169D01*
X187817095Y-87595469D01*
X187817392Y-87600622D01*
X187817392Y-87600625D01*
X187829021Y-87802310D01*
X187830427Y-87826697D01*
X187831564Y-87831743D01*
X187831565Y-87831749D01*
X187862505Y-87969039D01*
X187881346Y-88052642D01*
X187883288Y-88057424D01*
X187883289Y-88057428D01*
X187940848Y-88199178D01*
X187968484Y-88267237D01*
X188089501Y-88464719D01*
X188096732Y-88473067D01*
X188166993Y-88554179D01*
X188196475Y-88618765D01*
X188186360Y-88689037D01*
X188139858Y-88742685D01*
X188070217Y-88762667D01*
X187924349Y-88760885D01*
X187866581Y-88760179D01*
X187866579Y-88760179D01*
X187861411Y-88760116D01*
X187632464Y-88795150D01*
X187412314Y-88867106D01*
X187407726Y-88869494D01*
X187407722Y-88869496D01*
X187211461Y-88971663D01*
X187206872Y-88974052D01*
X187202739Y-88977155D01*
X187202736Y-88977157D01*
X187025790Y-89110012D01*
X187021655Y-89113117D01*
X187018083Y-89116855D01*
X186888113Y-89252861D01*
X186861639Y-89280564D01*
X186794306Y-89379271D01*
X186739397Y-89424271D01*
X186668872Y-89432442D01*
X186605125Y-89401188D01*
X186584428Y-89376705D01*
X186542571Y-89312004D01*
X186539764Y-89307665D01*
X186506221Y-89270801D01*
X186486429Y-89249051D01*
X186383887Y-89136358D01*
X186379836Y-89133159D01*
X186379832Y-89133155D01*
X186206177Y-88996011D01*
X186206172Y-88996008D01*
X186202123Y-88992810D01*
X186197607Y-88990317D01*
X186197604Y-88990315D01*
X186003879Y-88883373D01*
X186003875Y-88883371D01*
X185999355Y-88880876D01*
X185994486Y-88879152D01*
X185994482Y-88879150D01*
X185785903Y-88805288D01*
X185785899Y-88805287D01*
X185781028Y-88803562D01*
X185775935Y-88802655D01*
X185775932Y-88802654D01*
X185558095Y-88763851D01*
X185558089Y-88763850D01*
X185553006Y-88762945D01*
X185454154Y-88761737D01*
X185326576Y-88760179D01*
X185326575Y-88760179D01*
X185321411Y-88760116D01*
X185321417Y-88759626D01*
X185255227Y-88745123D01*
X185205100Y-88694845D01*
X185190114Y-88625449D01*
X185215025Y-88558966D01*
X185219823Y-88552966D01*
X185222644Y-88549651D01*
X185226303Y-88546005D01*
X185229326Y-88541799D01*
X185309301Y-88430501D01*
X185361458Y-88357917D01*
X185370892Y-88338830D01*
X185461784Y-88154922D01*
X185461785Y-88154920D01*
X185464078Y-88150280D01*
X185531408Y-87928671D01*
X185561640Y-87699041D01*
X185561722Y-87695691D01*
X185563245Y-87633365D01*
X185563245Y-87633361D01*
X185563327Y-87630000D01*
X185546272Y-87422551D01*
X185544773Y-87404318D01*
X185544772Y-87404312D01*
X185544349Y-87399167D01*
X185500095Y-87222982D01*
X185489184Y-87179544D01*
X185489183Y-87179540D01*
X185487925Y-87174533D01*
X185480158Y-87156669D01*
X185397630Y-86966868D01*
X185397628Y-86966865D01*
X185395570Y-86962131D01*
X185269764Y-86767665D01*
X185236221Y-86730801D01*
X185213742Y-86706097D01*
X185113887Y-86596358D01*
X185109836Y-86593159D01*
X185109832Y-86593155D01*
X184936177Y-86456011D01*
X184936172Y-86456008D01*
X184932123Y-86452810D01*
X184927607Y-86450317D01*
X184927604Y-86450315D01*
X184733879Y-86343373D01*
X184733875Y-86343371D01*
X184729355Y-86340876D01*
X184724486Y-86339152D01*
X184724482Y-86339150D01*
X184515903Y-86265288D01*
X184515899Y-86265287D01*
X184511028Y-86263562D01*
X184505935Y-86262655D01*
X184505932Y-86262654D01*
X184288095Y-86223851D01*
X184288089Y-86223850D01*
X184283006Y-86222945D01*
X184210096Y-86222054D01*
X184056581Y-86220179D01*
X184056579Y-86220179D01*
X184051411Y-86220116D01*
X183822464Y-86255150D01*
X183602314Y-86327106D01*
X183597726Y-86329494D01*
X183597722Y-86329496D01*
X183571065Y-86343373D01*
X183396872Y-86434052D01*
X183392739Y-86437155D01*
X183392736Y-86437157D01*
X183257731Y-86538522D01*
X183211655Y-86573117D01*
X183208083Y-86576855D01*
X183078113Y-86712861D01*
X183051639Y-86740564D01*
X183048725Y-86744836D01*
X183048724Y-86744837D01*
X183033152Y-86767665D01*
X182921119Y-86931899D01*
X182823602Y-87141981D01*
X182761707Y-87365169D01*
X182737095Y-87595469D01*
X182737392Y-87600622D01*
X182737392Y-87600625D01*
X182749021Y-87802310D01*
X182750427Y-87826697D01*
X182751564Y-87831743D01*
X182751565Y-87831749D01*
X182782505Y-87969039D01*
X182801346Y-88052642D01*
X182803288Y-88057424D01*
X182803289Y-88057428D01*
X182860848Y-88199178D01*
X182888484Y-88267237D01*
X183009501Y-88464719D01*
X183161147Y-88639784D01*
X183339349Y-88787730D01*
X183539322Y-88904584D01*
X183544147Y-88906426D01*
X183544148Y-88906427D01*
X183618665Y-88934883D01*
X183755694Y-88987209D01*
X183760760Y-88988240D01*
X183760761Y-88988240D01*
X183797384Y-88995691D01*
X183982656Y-89033385D01*
X184110998Y-89038091D01*
X184208949Y-89041683D01*
X184208953Y-89041683D01*
X184214113Y-89041872D01*
X184243627Y-89038091D01*
X184313736Y-89049275D01*
X184366670Y-89096588D01*
X184385622Y-89165008D01*
X184364574Y-89232813D01*
X184350731Y-89250121D01*
X184321639Y-89280564D01*
X184318730Y-89284829D01*
X184318724Y-89284837D01*
X184303152Y-89307665D01*
X184191119Y-89471899D01*
X184093602Y-89681981D01*
X184031707Y-89905169D01*
X184007095Y-90135469D01*
X184007392Y-90140622D01*
X184007392Y-90140625D01*
X184012307Y-90225868D01*
X184020427Y-90366697D01*
X184021564Y-90371743D01*
X184021565Y-90371749D01*
X184035987Y-90435744D01*
X184071346Y-90592642D01*
X184073288Y-90597424D01*
X184073289Y-90597428D01*
X184128718Y-90733933D01*
X184158484Y-90807237D01*
X184279501Y-91004719D01*
X184431147Y-91179784D01*
X184609349Y-91327730D01*
X184809322Y-91444584D01*
X184814147Y-91446426D01*
X184814148Y-91446427D01*
X184888665Y-91474883D01*
X185025694Y-91527209D01*
X185030760Y-91528240D01*
X185030761Y-91528240D01*
X185067384Y-91535691D01*
X185252656Y-91573385D01*
X185383324Y-91578176D01*
X185478949Y-91581683D01*
X185478953Y-91581683D01*
X185484113Y-91581872D01*
X185489233Y-91581216D01*
X185489235Y-91581216D01*
X185563166Y-91571745D01*
X185713847Y-91552442D01*
X185718795Y-91550957D01*
X185718802Y-91550956D01*
X185930747Y-91487369D01*
X185935690Y-91485886D01*
X185940324Y-91483616D01*
X186139049Y-91386262D01*
X186139052Y-91386260D01*
X186143684Y-91383991D01*
X186332243Y-91249494D01*
X186496303Y-91086005D01*
X186499317Y-91081811D01*
X186499326Y-91081800D01*
X186586960Y-90959844D01*
X186642954Y-90916196D01*
X186713658Y-90909750D01*
X186776622Y-90942553D01*
X186796715Y-90967536D01*
X186816800Y-91000313D01*
X186816804Y-91000318D01*
X186819501Y-91004719D01*
X186971147Y-91179784D01*
X187149349Y-91327730D01*
X187349322Y-91444584D01*
X187354147Y-91446426D01*
X187354148Y-91446427D01*
X187428665Y-91474883D01*
X187565694Y-91527209D01*
X187570760Y-91528240D01*
X187570761Y-91528240D01*
X187607384Y-91535691D01*
X187792656Y-91573385D01*
X187897382Y-91577225D01*
X187964724Y-91599709D01*
X188009220Y-91655033D01*
X188016742Y-91725630D01*
X187981860Y-91792235D01*
X187567747Y-92206348D01*
X187559461Y-92213888D01*
X187552982Y-92218000D01*
X187547557Y-92223777D01*
X187506357Y-92267651D01*
X187503602Y-92270493D01*
X187483865Y-92290230D01*
X187481385Y-92293427D01*
X187473682Y-92302447D01*
X187443414Y-92334679D01*
X187439595Y-92341625D01*
X187439593Y-92341628D01*
X187433652Y-92352434D01*
X187422801Y-92368953D01*
X187410386Y-92384959D01*
X187407241Y-92392228D01*
X187407238Y-92392232D01*
X187392826Y-92425537D01*
X187387609Y-92436187D01*
X187366305Y-92474940D01*
X187364334Y-92482615D01*
X187364334Y-92482616D01*
X187361267Y-92494562D01*
X187354863Y-92513266D01*
X187346819Y-92531855D01*
X187345579Y-92539684D01*
X187345578Y-92539687D01*
X187342140Y-92561388D01*
X187311726Y-92625540D01*
X187251457Y-92663066D01*
X187217692Y-92667674D01*
X187001866Y-92667674D01*
X186939684Y-92674429D01*
X186803295Y-92725559D01*
X186686739Y-92812913D01*
X186599385Y-92929469D01*
X186548255Y-93065858D01*
X186541500Y-93128040D01*
X186541500Y-94384308D01*
X186548255Y-94446490D01*
X186599385Y-94582879D01*
X186686739Y-94699435D01*
X186803295Y-94786789D01*
X186939684Y-94837919D01*
X187001866Y-94844674D01*
X188918134Y-94844674D01*
X188980316Y-94837919D01*
X189034336Y-94817668D01*
X189105142Y-94812485D01*
X189167511Y-94846406D01*
X189179391Y-94860085D01*
X189226739Y-94923261D01*
X189343295Y-95010615D01*
X189479684Y-95061745D01*
X189541866Y-95068500D01*
X191458134Y-95068500D01*
X191520316Y-95061745D01*
X191656705Y-95010615D01*
X191773261Y-94923261D01*
X191860615Y-94806705D01*
X191911745Y-94670316D01*
X191918500Y-94608134D01*
X191918500Y-93351866D01*
X191911745Y-93289684D01*
X191860615Y-93153295D01*
X191773261Y-93036739D01*
X191656705Y-92949385D01*
X191520316Y-92898255D01*
X191458134Y-92891500D01*
X191259500Y-92891500D01*
X191191379Y-92871498D01*
X191144886Y-92817842D01*
X191133500Y-92765500D01*
X191133500Y-92217006D01*
X191153502Y-92148885D01*
X191170405Y-92127911D01*
X192006752Y-91291564D01*
X192069064Y-91257538D01*
X192139879Y-91262603D01*
X192176331Y-91283714D01*
X192217987Y-91318297D01*
X192229349Y-91327730D01*
X192325629Y-91383991D01*
X192344070Y-91394767D01*
X192392794Y-91446405D01*
X192406500Y-91503555D01*
X192406500Y-96205406D01*
X192386498Y-96273527D01*
X192369595Y-96294501D01*
X192133094Y-96531002D01*
X192070782Y-96565028D01*
X191999967Y-96559963D01*
X191943131Y-96517416D01*
X191918320Y-96450896D01*
X191917999Y-96441907D01*
X191917999Y-96305331D01*
X191917629Y-96298510D01*
X191912105Y-96247648D01*
X191908479Y-96232396D01*
X191863324Y-96111946D01*
X191854786Y-96096351D01*
X191778285Y-95994276D01*
X191765724Y-95981715D01*
X191663649Y-95905214D01*
X191648054Y-95896676D01*
X191527606Y-95851522D01*
X191512351Y-95847895D01*
X191461486Y-95842369D01*
X191454672Y-95842000D01*
X190772115Y-95842000D01*
X190756876Y-95846475D01*
X190755671Y-95847865D01*
X190754000Y-95855548D01*
X190754000Y-97058000D01*
X190733998Y-97126121D01*
X190680342Y-97172614D01*
X190628000Y-97184000D01*
X189168000Y-97184000D01*
X189099879Y-97163998D01*
X189053386Y-97110342D01*
X189042000Y-97058000D01*
X189042000Y-96978289D01*
X189037525Y-96963050D01*
X189036135Y-96961845D01*
X189028452Y-96960174D01*
X188232115Y-96960174D01*
X188216876Y-96964649D01*
X188215671Y-96966039D01*
X188214000Y-96973722D01*
X188214000Y-97776058D01*
X188218475Y-97791297D01*
X188219865Y-97792502D01*
X188227548Y-97794173D01*
X188914669Y-97794173D01*
X188921490Y-97793803D01*
X188972352Y-97788279D01*
X188987603Y-97784653D01*
X189034511Y-97767068D01*
X189105318Y-97761885D01*
X189167687Y-97795805D01*
X189179568Y-97809486D01*
X189221716Y-97865725D01*
X189234276Y-97878285D01*
X189336351Y-97954786D01*
X189351946Y-97963324D01*
X189472394Y-98008478D01*
X189487649Y-98012105D01*
X189538514Y-98017631D01*
X189545328Y-98018000D01*
X190341906Y-98017999D01*
X190410027Y-98038001D01*
X190456520Y-98091657D01*
X190466624Y-98161931D01*
X190437131Y-98226511D01*
X190431001Y-98233094D01*
X184960642Y-103703453D01*
X184898330Y-103737479D01*
X184871547Y-103740358D01*
X179728834Y-103740358D01*
X179660713Y-103720356D01*
X179614220Y-103666700D01*
X179603912Y-103597912D01*
X179617962Y-103491189D01*
X179617962Y-103491188D01*
X179618500Y-103487102D01*
X179618500Y-103260614D01*
X179615257Y-103235977D01*
X179603481Y-103146534D01*
X179604766Y-103146365D01*
X179604765Y-103101285D01*
X179602994Y-103101052D01*
X179610792Y-103041818D01*
X179608581Y-103027636D01*
X179589216Y-103022075D01*
X179529263Y-102984047D01*
X179524033Y-102977674D01*
X179503229Y-102950562D01*
X179477628Y-102884342D01*
X179491892Y-102814793D01*
X179503229Y-102797153D01*
X179524103Y-102769950D01*
X179581442Y-102728083D01*
X179588567Y-102725759D01*
X179608813Y-102719814D01*
X179610842Y-102706275D01*
X179602994Y-102646664D01*
X179604765Y-102646431D01*
X179604766Y-102601351D01*
X179603481Y-102601182D01*
X179617962Y-102491189D01*
X179617962Y-102491188D01*
X179618500Y-102487102D01*
X179618500Y-102260614D01*
X179603481Y-102146534D01*
X179605026Y-102146331D01*
X179605026Y-102101385D01*
X179603481Y-102101182D01*
X179617962Y-101991189D01*
X179617962Y-101991188D01*
X179618500Y-101987102D01*
X179618500Y-101760614D01*
X179617493Y-101752961D01*
X179603481Y-101646534D01*
X179605026Y-101646331D01*
X179605026Y-101601385D01*
X179603481Y-101601182D01*
X179617962Y-101491189D01*
X179617962Y-101491188D01*
X179618500Y-101487102D01*
X179618500Y-101260614D01*
X179616722Y-101247105D01*
X179604559Y-101154723D01*
X179603481Y-101146534D01*
X179600208Y-101138630D01*
X179547846Y-101012220D01*
X179544686Y-101004590D01*
X179451157Y-100882701D01*
X179427504Y-100864551D01*
X179335818Y-100794199D01*
X179329267Y-100789172D01*
X179187324Y-100730377D01*
X179116153Y-100721007D01*
X179077331Y-100715896D01*
X179077330Y-100715896D01*
X179073244Y-100715358D01*
X177744500Y-100715358D01*
X177676379Y-100695356D01*
X177629886Y-100641700D01*
X177618500Y-100589358D01*
X177618500Y-99260614D01*
X177615507Y-99237876D01*
X177604559Y-99154723D01*
X177603481Y-99146534D01*
X177592280Y-99119491D01*
X177566469Y-99057179D01*
X177544686Y-99004590D01*
X177451157Y-98882701D01*
X177438047Y-98872641D01*
X177378266Y-98826770D01*
X177329267Y-98789172D01*
X177187324Y-98730377D01*
X177093502Y-98718025D01*
X177077331Y-98715896D01*
X177077330Y-98715896D01*
X177073244Y-98715358D01*
X176846756Y-98715358D01*
X176842670Y-98715896D01*
X176842669Y-98715896D01*
X176732676Y-98730377D01*
X176732507Y-98729092D01*
X176687427Y-98729093D01*
X176687194Y-98730864D01*
X176627960Y-98723066D01*
X176613778Y-98725277D01*
X176608217Y-98744642D01*
X176570189Y-98804595D01*
X176563816Y-98809825D01*
X176536704Y-98830629D01*
X176470484Y-98856230D01*
X176400935Y-98841966D01*
X176383295Y-98830629D01*
X176356092Y-98809755D01*
X176314225Y-98752416D01*
X176311901Y-98745291D01*
X176305956Y-98725045D01*
X176292417Y-98723016D01*
X176232806Y-98730864D01*
X176232573Y-98729093D01*
X176187493Y-98729092D01*
X176187324Y-98730377D01*
X176077331Y-98715896D01*
X176077330Y-98715896D01*
X176073244Y-98715358D01*
X175846756Y-98715358D01*
X175842670Y-98715896D01*
X175842669Y-98715896D01*
X175732676Y-98730377D01*
X175732507Y-98729092D01*
X175687427Y-98729093D01*
X175687194Y-98730864D01*
X175627960Y-98723066D01*
X175613778Y-98725277D01*
X175608217Y-98744642D01*
X175570189Y-98804595D01*
X175563816Y-98809825D01*
X175536704Y-98830629D01*
X175470484Y-98856230D01*
X175400935Y-98841966D01*
X175383295Y-98830629D01*
X175356092Y-98809755D01*
X175314225Y-98752416D01*
X175311901Y-98745291D01*
X175305956Y-98725045D01*
X175292417Y-98723016D01*
X175232806Y-98730864D01*
X175232573Y-98729093D01*
X175187493Y-98729092D01*
X175187324Y-98730377D01*
X175077331Y-98715896D01*
X175077330Y-98715896D01*
X175073244Y-98715358D01*
X174846756Y-98715358D01*
X174842670Y-98715896D01*
X174842669Y-98715896D01*
X174732676Y-98730377D01*
X174732473Y-98728832D01*
X174687527Y-98728832D01*
X174687324Y-98730377D01*
X174577331Y-98715896D01*
X174577330Y-98715896D01*
X174573244Y-98715358D01*
X174346756Y-98715358D01*
X174342670Y-98715896D01*
X174342669Y-98715896D01*
X174235946Y-98729946D01*
X174165797Y-98719006D01*
X174112699Y-98671878D01*
X174093500Y-98605024D01*
X174093500Y-97330843D01*
X186542001Y-97330843D01*
X186542371Y-97337664D01*
X186547895Y-97388526D01*
X186551521Y-97403778D01*
X186596676Y-97524228D01*
X186605214Y-97539823D01*
X186681715Y-97641898D01*
X186694276Y-97654459D01*
X186796351Y-97730960D01*
X186811946Y-97739498D01*
X186932394Y-97784652D01*
X186947649Y-97788279D01*
X186998514Y-97793805D01*
X187005328Y-97794174D01*
X187687885Y-97794174D01*
X187703124Y-97789699D01*
X187704329Y-97788309D01*
X187706000Y-97780626D01*
X187706000Y-96978289D01*
X187701525Y-96963050D01*
X187700135Y-96961845D01*
X187692452Y-96960174D01*
X186560116Y-96960174D01*
X186544877Y-96964649D01*
X186543672Y-96966039D01*
X186542001Y-96973722D01*
X186542001Y-97330843D01*
X174093500Y-97330843D01*
X174093500Y-96653358D01*
X174113502Y-96585237D01*
X174167158Y-96538744D01*
X174219500Y-96527358D01*
X174268134Y-96527358D01*
X174330316Y-96520603D01*
X174466705Y-96469473D01*
X174513958Y-96434059D01*
X186542000Y-96434059D01*
X186546475Y-96449298D01*
X186547865Y-96450503D01*
X186555548Y-96452174D01*
X187687885Y-96452174D01*
X187703124Y-96447699D01*
X187704329Y-96446309D01*
X187706000Y-96438626D01*
X187706000Y-96434059D01*
X188214000Y-96434059D01*
X188218475Y-96449298D01*
X188219865Y-96450503D01*
X188227548Y-96452174D01*
X189292000Y-96452174D01*
X189360121Y-96472176D01*
X189406614Y-96525832D01*
X189418000Y-96578174D01*
X189418000Y-96657885D01*
X189422475Y-96673124D01*
X189423865Y-96674329D01*
X189431548Y-96676000D01*
X190227885Y-96676000D01*
X190243124Y-96671525D01*
X190244329Y-96670135D01*
X190246000Y-96662452D01*
X190246000Y-95860116D01*
X190241525Y-95844877D01*
X190240135Y-95843672D01*
X190232452Y-95842001D01*
X189545331Y-95842001D01*
X189538510Y-95842371D01*
X189487648Y-95847895D01*
X189472397Y-95851521D01*
X189425489Y-95869106D01*
X189354682Y-95874289D01*
X189292313Y-95840369D01*
X189280432Y-95826688D01*
X189238284Y-95770449D01*
X189225724Y-95757889D01*
X189123649Y-95681388D01*
X189108054Y-95672850D01*
X188987606Y-95627696D01*
X188972351Y-95624069D01*
X188921486Y-95618543D01*
X188914672Y-95618174D01*
X188232115Y-95618174D01*
X188216876Y-95622649D01*
X188215671Y-95624039D01*
X188214000Y-95631722D01*
X188214000Y-96434059D01*
X187706000Y-96434059D01*
X187706000Y-95636290D01*
X187701525Y-95621051D01*
X187700135Y-95619846D01*
X187692452Y-95618175D01*
X187005331Y-95618175D01*
X186998510Y-95618545D01*
X186947648Y-95624069D01*
X186932396Y-95627695D01*
X186811946Y-95672850D01*
X186796351Y-95681388D01*
X186694276Y-95757889D01*
X186681715Y-95770450D01*
X186605214Y-95872525D01*
X186596676Y-95888120D01*
X186551522Y-96008568D01*
X186547895Y-96023823D01*
X186542369Y-96074688D01*
X186542000Y-96081502D01*
X186542000Y-96434059D01*
X174513958Y-96434059D01*
X174583261Y-96382119D01*
X174670615Y-96265563D01*
X174721745Y-96129174D01*
X174728500Y-96066992D01*
X174728500Y-94810724D01*
X174721745Y-94748542D01*
X174670615Y-94612153D01*
X174583261Y-94495597D01*
X174466705Y-94408243D01*
X174330316Y-94357113D01*
X174268134Y-94350358D01*
X172351866Y-94350358D01*
X172289684Y-94357113D01*
X172153295Y-94408243D01*
X172036739Y-94495597D01*
X171949385Y-94612153D01*
X171898255Y-94748542D01*
X171891500Y-94810724D01*
X171891500Y-96066992D01*
X171898255Y-96129174D01*
X171949385Y-96265563D01*
X172036739Y-96382119D01*
X172153295Y-96469473D01*
X172289684Y-96520603D01*
X172351866Y-96527358D01*
X172700500Y-96527358D01*
X172768621Y-96547360D01*
X172815114Y-96601016D01*
X172826500Y-96653358D01*
X172826500Y-98605024D01*
X172806498Y-98673145D01*
X172752842Y-98719638D01*
X172684054Y-98729946D01*
X172577331Y-98715896D01*
X172577330Y-98715896D01*
X172573244Y-98715358D01*
X172465279Y-98715358D01*
X172397158Y-98695356D01*
X172376184Y-98678453D01*
X171729806Y-98032074D01*
X171079337Y-97381605D01*
X171071797Y-97373319D01*
X171067685Y-97366840D01*
X171053976Y-97353966D01*
X171018034Y-97320215D01*
X171015192Y-97317460D01*
X170995455Y-97297723D01*
X170992258Y-97295243D01*
X170983236Y-97287538D01*
X170956785Y-97262699D01*
X170951006Y-97257272D01*
X170944060Y-97253453D01*
X170944057Y-97253451D01*
X170933251Y-97247510D01*
X170916732Y-97236659D01*
X170916268Y-97236299D01*
X170900726Y-97224244D01*
X170893457Y-97221099D01*
X170893453Y-97221096D01*
X170860148Y-97206684D01*
X170849498Y-97201467D01*
X170810745Y-97180163D01*
X170791122Y-97175125D01*
X170772419Y-97168721D01*
X170761105Y-97163825D01*
X170761104Y-97163825D01*
X170753830Y-97160677D01*
X170746007Y-97159438D01*
X170745997Y-97159435D01*
X170710161Y-97153759D01*
X170698541Y-97151353D01*
X170663396Y-97142330D01*
X170663395Y-97142330D01*
X170655715Y-97140358D01*
X170635461Y-97140358D01*
X170615750Y-97138807D01*
X170603571Y-97136878D01*
X170595742Y-97135638D01*
X170552941Y-97139684D01*
X170551724Y-97139799D01*
X170539866Y-97140358D01*
X170227315Y-97140358D01*
X170159194Y-97120356D01*
X170124102Y-97086628D01*
X170115885Y-97074893D01*
X170059301Y-96994082D01*
X169909776Y-96844557D01*
X169736558Y-96723269D01*
X169731580Y-96720948D01*
X169731577Y-96720946D01*
X169549892Y-96636225D01*
X169549891Y-96636224D01*
X169544910Y-96633902D01*
X169539602Y-96632480D01*
X169539600Y-96632479D01*
X169345970Y-96580596D01*
X169345968Y-96580596D01*
X169340655Y-96579172D01*
X169130000Y-96560742D01*
X168919345Y-96579172D01*
X168914032Y-96580596D01*
X168914030Y-96580596D01*
X168720400Y-96632479D01*
X168720398Y-96632480D01*
X168715090Y-96633902D01*
X168710109Y-96636224D01*
X168710108Y-96636225D01*
X168528423Y-96720946D01*
X168528420Y-96720948D01*
X168523442Y-96723269D01*
X168350224Y-96844557D01*
X168200699Y-96994082D01*
X168079411Y-97167300D01*
X168077090Y-97172278D01*
X168077088Y-97172281D01*
X167999969Y-97337664D01*
X167990044Y-97358948D01*
X167988622Y-97364256D01*
X167988621Y-97364258D01*
X167936738Y-97557888D01*
X167935314Y-97563203D01*
X167916884Y-97773858D01*
X167935314Y-97984513D01*
X167936738Y-97989826D01*
X167936738Y-97989828D01*
X167975360Y-98133965D01*
X167990044Y-98188768D01*
X167992366Y-98193749D01*
X167992367Y-98193750D01*
X168070390Y-98361070D01*
X168079411Y-98380416D01*
X168200699Y-98553634D01*
X168350224Y-98703159D01*
X168523442Y-98824447D01*
X168528420Y-98826768D01*
X168528423Y-98826770D01*
X168701556Y-98907503D01*
X168715090Y-98913814D01*
X168720398Y-98915236D01*
X168720400Y-98915237D01*
X168914030Y-98967120D01*
X168914032Y-98967120D01*
X168919345Y-98968544D01*
X169130000Y-98986974D01*
X169340655Y-98968544D01*
X169345968Y-98967120D01*
X169345970Y-98967120D01*
X169539600Y-98915237D01*
X169539602Y-98915236D01*
X169544910Y-98913814D01*
X169558444Y-98907503D01*
X169731577Y-98826770D01*
X169731580Y-98826768D01*
X169736558Y-98824447D01*
X169909776Y-98703159D01*
X170059301Y-98553634D01*
X170124102Y-98461088D01*
X170179559Y-98416759D01*
X170227315Y-98407358D01*
X170261091Y-98407358D01*
X170329212Y-98427360D01*
X170350186Y-98444263D01*
X170826092Y-98920169D01*
X170860118Y-98982481D01*
X170853406Y-99057481D01*
X170816519Y-99146534D01*
X170815441Y-99154723D01*
X170804494Y-99237876D01*
X170801500Y-99260614D01*
X170801500Y-100589358D01*
X170781498Y-100657479D01*
X170727842Y-100703972D01*
X170675500Y-100715358D01*
X169512563Y-100715358D01*
X169444442Y-100695356D01*
X169423468Y-100678453D01*
X161858543Y-93113527D01*
X171892001Y-93113527D01*
X171892371Y-93120348D01*
X171897895Y-93171210D01*
X171901521Y-93186462D01*
X171946676Y-93306912D01*
X171955214Y-93322507D01*
X172031715Y-93424582D01*
X172044276Y-93437143D01*
X172146351Y-93513644D01*
X172161946Y-93522182D01*
X172282394Y-93567336D01*
X172297649Y-93570963D01*
X172348514Y-93576489D01*
X172355328Y-93576858D01*
X173037885Y-93576858D01*
X173053124Y-93572383D01*
X173054329Y-93570993D01*
X173056000Y-93563310D01*
X173056000Y-93558742D01*
X173564000Y-93558742D01*
X173568475Y-93573981D01*
X173569865Y-93575186D01*
X173577548Y-93576857D01*
X174264669Y-93576857D01*
X174271490Y-93576487D01*
X174322352Y-93570963D01*
X174337604Y-93567337D01*
X174458054Y-93522182D01*
X174473649Y-93513644D01*
X174575724Y-93437143D01*
X174588285Y-93424582D01*
X174664786Y-93322507D01*
X174673324Y-93306912D01*
X174718478Y-93186464D01*
X174722105Y-93171209D01*
X174727631Y-93120344D01*
X174728000Y-93113530D01*
X174728000Y-92760973D01*
X174723525Y-92745734D01*
X174722135Y-92744529D01*
X174714452Y-92742858D01*
X173582115Y-92742858D01*
X173566876Y-92747333D01*
X173565671Y-92748723D01*
X173564000Y-92756406D01*
X173564000Y-93558742D01*
X173056000Y-93558742D01*
X173056000Y-92760973D01*
X173051525Y-92745734D01*
X173050135Y-92744529D01*
X173042452Y-92742858D01*
X171910116Y-92742858D01*
X171894877Y-92747333D01*
X171893672Y-92748723D01*
X171892001Y-92756406D01*
X171892001Y-93113527D01*
X161858543Y-93113527D01*
X160961759Y-92216743D01*
X171892000Y-92216743D01*
X171896475Y-92231982D01*
X171897865Y-92233187D01*
X171905548Y-92234858D01*
X173037885Y-92234858D01*
X173053124Y-92230383D01*
X173054329Y-92228993D01*
X173056000Y-92221310D01*
X173056000Y-92216743D01*
X173564000Y-92216743D01*
X173568475Y-92231982D01*
X173569865Y-92233187D01*
X173577548Y-92234858D01*
X174709884Y-92234858D01*
X174725123Y-92230383D01*
X174726328Y-92228993D01*
X174727999Y-92221310D01*
X174727999Y-91864189D01*
X174727629Y-91857368D01*
X174722105Y-91806506D01*
X174718479Y-91791254D01*
X174673324Y-91670804D01*
X174664786Y-91655209D01*
X174588285Y-91553134D01*
X174575724Y-91540573D01*
X174473649Y-91464072D01*
X174458054Y-91455534D01*
X174337606Y-91410380D01*
X174322351Y-91406753D01*
X174271486Y-91401227D01*
X174264672Y-91400858D01*
X173582115Y-91400858D01*
X173566876Y-91405333D01*
X173565671Y-91406723D01*
X173564000Y-91414406D01*
X173564000Y-92216743D01*
X173056000Y-92216743D01*
X173056000Y-91418974D01*
X173051525Y-91403735D01*
X173050135Y-91402530D01*
X173042452Y-91400859D01*
X172355331Y-91400859D01*
X172348510Y-91401229D01*
X172297648Y-91406753D01*
X172282396Y-91410379D01*
X172161946Y-91455534D01*
X172146351Y-91464072D01*
X172044276Y-91540573D01*
X172031715Y-91553134D01*
X171955214Y-91655209D01*
X171946676Y-91670804D01*
X171901522Y-91791252D01*
X171897895Y-91806507D01*
X171892369Y-91857372D01*
X171892000Y-91864186D01*
X171892000Y-92216743D01*
X160961759Y-92216743D01*
X159165396Y-90420380D01*
X167950801Y-90420380D01*
X167989092Y-90563281D01*
X167992842Y-90573585D01*
X168077521Y-90755181D01*
X168082998Y-90764669D01*
X168197925Y-90928800D01*
X168204981Y-90937208D01*
X168346650Y-91078877D01*
X168355058Y-91085933D01*
X168519189Y-91200860D01*
X168528677Y-91206337D01*
X168710273Y-91291016D01*
X168720577Y-91294766D01*
X168858503Y-91331724D01*
X168872599Y-91331388D01*
X168876000Y-91323446D01*
X168876000Y-91318297D01*
X169384000Y-91318297D01*
X169387973Y-91331828D01*
X169396522Y-91333057D01*
X169539423Y-91294766D01*
X169549727Y-91291016D01*
X169731323Y-91206337D01*
X169740811Y-91200860D01*
X169904942Y-91085933D01*
X169913350Y-91078877D01*
X170055019Y-90937208D01*
X170062075Y-90928800D01*
X170177002Y-90764669D01*
X170182479Y-90755181D01*
X170267158Y-90573585D01*
X170270908Y-90563281D01*
X170307866Y-90425355D01*
X170307530Y-90411259D01*
X170299588Y-90407858D01*
X169402115Y-90407858D01*
X169386876Y-90412333D01*
X169385671Y-90413723D01*
X169384000Y-90421406D01*
X169384000Y-91318297D01*
X168876000Y-91318297D01*
X168876000Y-90425973D01*
X168871525Y-90410734D01*
X168870135Y-90409529D01*
X168862452Y-90407858D01*
X167965561Y-90407858D01*
X167952030Y-90411831D01*
X167950801Y-90420380D01*
X159165396Y-90420380D01*
X158627377Y-89882361D01*
X167952134Y-89882361D01*
X167952470Y-89896457D01*
X167960412Y-89899858D01*
X168857885Y-89899858D01*
X168873124Y-89895383D01*
X168874329Y-89893993D01*
X168876000Y-89886310D01*
X168876000Y-89881743D01*
X169384000Y-89881743D01*
X169388475Y-89896982D01*
X169389865Y-89898187D01*
X169397548Y-89899858D01*
X170294439Y-89899858D01*
X170307970Y-89895885D01*
X170309199Y-89887336D01*
X170270908Y-89744435D01*
X170267158Y-89734131D01*
X170182479Y-89552535D01*
X170177002Y-89543047D01*
X170062075Y-89378916D01*
X170055019Y-89370508D01*
X169913350Y-89228839D01*
X169904942Y-89221783D01*
X169740811Y-89106856D01*
X169731323Y-89101379D01*
X169549727Y-89016700D01*
X169539423Y-89012950D01*
X169401497Y-88975992D01*
X169387401Y-88976328D01*
X169384000Y-88984270D01*
X169384000Y-89881743D01*
X168876000Y-89881743D01*
X168876000Y-88989419D01*
X168872027Y-88975888D01*
X168863478Y-88974659D01*
X168720577Y-89012950D01*
X168710273Y-89016700D01*
X168528677Y-89101379D01*
X168519189Y-89106856D01*
X168355058Y-89221783D01*
X168346650Y-89228839D01*
X168204981Y-89370508D01*
X168197925Y-89378916D01*
X168082998Y-89543047D01*
X168077521Y-89552535D01*
X167992842Y-89734131D01*
X167989092Y-89744435D01*
X167952134Y-89882361D01*
X158627377Y-89882361D01*
X156914790Y-88169774D01*
X156880764Y-88107462D01*
X156877885Y-88080679D01*
X156877885Y-84714342D01*
X156897887Y-84646221D01*
X156914790Y-84625247D01*
X161564633Y-79975404D01*
X161626945Y-79941378D01*
X161653728Y-79938499D01*
X182274138Y-79938499D01*
X182342259Y-79958501D01*
X182388752Y-80012157D01*
X182398856Y-80082431D01*
X182381570Y-80130334D01*
X182279320Y-80297190D01*
X182279316Y-80297198D01*
X182277073Y-80300858D01*
X182161517Y-80564102D01*
X182082756Y-80840594D01*
X182042249Y-81125216D01*
X182042227Y-81129505D01*
X182042226Y-81129512D01*
X182040765Y-81408417D01*
X182040743Y-81412703D01*
X182041302Y-81416947D01*
X182041302Y-81416951D01*
X182057353Y-81538868D01*
X182078268Y-81697734D01*
X182154129Y-81975036D01*
X182155813Y-81978984D01*
X182227034Y-82145959D01*
X182235363Y-82216466D01*
X182204250Y-82280282D01*
X182143574Y-82317147D01*
X182110480Y-82321392D01*
X182058670Y-82321121D01*
X181997877Y-82320802D01*
X181997871Y-82320802D01*
X181993591Y-82320780D01*
X181989347Y-82321339D01*
X181989343Y-82321339D01*
X181870302Y-82337011D01*
X181722078Y-82356525D01*
X181717938Y-82357658D01*
X181717936Y-82357658D01*
X181645008Y-82377609D01*
X181457928Y-82428788D01*
X181453980Y-82430472D01*
X181209982Y-82534546D01*
X181209978Y-82534548D01*
X181206030Y-82536232D01*
X181186125Y-82548145D01*
X180974725Y-82674664D01*
X180974721Y-82674667D01*
X180971043Y-82676868D01*
X180757318Y-82848094D01*
X180568808Y-83046742D01*
X180409002Y-83269136D01*
X180280857Y-83511161D01*
X180279385Y-83515184D01*
X180279383Y-83515188D01*
X180189712Y-83760224D01*
X180186743Y-83768337D01*
X180128404Y-84035907D01*
X180128068Y-84040177D01*
X180109891Y-84271137D01*
X180106917Y-84308918D01*
X180122682Y-84582320D01*
X180123507Y-84586525D01*
X180123508Y-84586533D01*
X180153917Y-84741526D01*
X180175405Y-84851053D01*
X180176792Y-84855103D01*
X180176793Y-84855108D01*
X180197605Y-84915895D01*
X180264112Y-85110144D01*
X180387160Y-85354799D01*
X180389586Y-85358328D01*
X180389589Y-85358334D01*
X180539843Y-85576953D01*
X180542274Y-85580490D01*
X180726582Y-85783043D01*
X180729877Y-85785798D01*
X180729878Y-85785799D01*
X180827952Y-85867801D01*
X180936675Y-85958707D01*
X180940316Y-85960991D01*
X181165024Y-86101951D01*
X181165028Y-86101953D01*
X181168664Y-86104234D01*
X181236544Y-86134883D01*
X181414345Y-86215164D01*
X181414349Y-86215166D01*
X181418257Y-86216930D01*
X181440437Y-86223500D01*
X181676723Y-86293491D01*
X181676727Y-86293492D01*
X181680836Y-86294709D01*
X181685070Y-86295357D01*
X181685075Y-86295358D01*
X181947298Y-86335483D01*
X181947300Y-86335483D01*
X181951540Y-86336132D01*
X182090679Y-86338318D01*
X182221071Y-86340367D01*
X182221077Y-86340367D01*
X182225362Y-86340434D01*
X182497235Y-86307534D01*
X182762127Y-86238041D01*
X182766087Y-86236401D01*
X182766092Y-86236399D01*
X182949981Y-86160229D01*
X183015136Y-86133241D01*
X183251582Y-85995073D01*
X183467089Y-85826094D01*
X183485937Y-85806645D01*
X183654686Y-85632509D01*
X183657669Y-85629431D01*
X183660202Y-85625983D01*
X183660206Y-85625978D01*
X183817257Y-85412178D01*
X183819795Y-85408723D01*
X183848560Y-85355744D01*
X183948418Y-85171830D01*
X183948419Y-85171828D01*
X183950468Y-85168054D01*
X184047269Y-84911877D01*
X184101093Y-84676867D01*
X184107449Y-84649117D01*
X184107450Y-84649113D01*
X184108407Y-84644933D01*
X184129065Y-84413469D01*
X184132531Y-84374627D01*
X184132531Y-84374625D01*
X184132751Y-84372161D01*
X184132985Y-84349890D01*
X184133167Y-84332484D01*
X184133167Y-84332483D01*
X184133193Y-84330000D01*
X184126151Y-84226703D01*
X184114859Y-84061055D01*
X184114858Y-84061049D01*
X184114567Y-84056778D01*
X184113343Y-84050865D01*
X184075753Y-83869353D01*
X184059032Y-83788612D01*
X184024603Y-83691389D01*
X183976858Y-83556560D01*
X183972974Y-83485669D01*
X184008032Y-83423933D01*
X184070903Y-83390950D01*
X184095631Y-83388500D01*
X184222271Y-83388500D01*
X184224407Y-83388354D01*
X184224418Y-83388354D01*
X184432548Y-83374165D01*
X184432554Y-83374164D01*
X184436825Y-83373873D01*
X184441020Y-83373004D01*
X184441022Y-83373004D01*
X184630442Y-83333777D01*
X184718342Y-83315574D01*
X184989343Y-83219607D01*
X185244812Y-83087750D01*
X185248313Y-83085289D01*
X185248317Y-83085287D01*
X185362417Y-83005096D01*
X185480023Y-82922441D01*
X185690622Y-82726740D01*
X185872713Y-82504268D01*
X186022927Y-82259142D01*
X186041661Y-82216466D01*
X186136757Y-81999830D01*
X186136759Y-81999825D01*
X186138483Y-81995898D01*
X186217244Y-81719406D01*
X186251473Y-81478895D01*
X186257146Y-81439036D01*
X186257146Y-81439034D01*
X186257751Y-81434784D01*
X186257845Y-81416951D01*
X186259235Y-81151583D01*
X186259235Y-81151576D01*
X186259257Y-81147297D01*
X186221732Y-80862266D01*
X186145871Y-80584964D01*
X186033077Y-80320524D01*
X185918575Y-80129205D01*
X185900755Y-80060481D01*
X185922919Y-79993033D01*
X185978030Y-79948275D01*
X186026691Y-79938499D01*
X188644336Y-79938499D01*
X188655519Y-79939026D01*
X188663012Y-79940701D01*
X188670938Y-79940452D01*
X188670939Y-79940452D01*
X188731089Y-79938561D01*
X188735048Y-79938499D01*
X188762959Y-79938499D01*
X188766894Y-79938002D01*
X188766959Y-79937994D01*
X188778796Y-79937061D01*
X188811054Y-79936047D01*
X188815073Y-79935921D01*
X188822992Y-79935672D01*
X188842446Y-79930020D01*
X188861803Y-79926012D01*
X188874033Y-79924467D01*
X188874034Y-79924467D01*
X188881900Y-79923473D01*
X188889271Y-79920554D01*
X188889273Y-79920554D01*
X188923015Y-79907195D01*
X188934245Y-79903350D01*
X188969086Y-79893228D01*
X188969087Y-79893228D01*
X188976696Y-79891017D01*
X188983515Y-79886984D01*
X188983520Y-79886982D01*
X188994131Y-79880706D01*
X189011879Y-79872011D01*
X189030720Y-79864551D01*
X189066490Y-79838563D01*
X189076410Y-79832047D01*
X189107638Y-79813579D01*
X189107641Y-79813577D01*
X189114465Y-79809541D01*
X189128786Y-79795220D01*
X189143820Y-79782379D01*
X189153796Y-79775131D01*
X189160210Y-79770471D01*
X189188391Y-79736406D01*
X189196381Y-79727625D01*
X189708603Y-79215404D01*
X189770915Y-79181379D01*
X189797698Y-79178500D01*
X194535478Y-79178500D01*
X194603599Y-79198502D01*
X194650092Y-79252158D01*
X194660196Y-79322432D01*
X194630702Y-79387012D01*
X194593268Y-79416466D01*
X194485188Y-79472250D01*
X194481687Y-79474711D01*
X194481683Y-79474713D01*
X194471594Y-79481804D01*
X194249977Y-79637559D01*
X194234892Y-79651577D01*
X194064903Y-79809541D01*
X194039378Y-79833260D01*
X193857287Y-80055732D01*
X193707073Y-80300858D01*
X193591517Y-80564102D01*
X193512756Y-80840594D01*
X193472249Y-81125216D01*
X193472227Y-81129505D01*
X193472226Y-81129512D01*
X193470765Y-81408417D01*
X193470743Y-81412703D01*
X193471302Y-81416947D01*
X193471302Y-81416951D01*
X193487353Y-81538868D01*
X193508268Y-81697734D01*
X193584129Y-81975036D01*
X193585813Y-81978984D01*
X193670210Y-82176848D01*
X193696923Y-82239476D01*
X193746427Y-82322191D01*
X193814436Y-82435825D01*
X193844561Y-82486161D01*
X194024313Y-82710528D01*
X194232851Y-82908423D01*
X194466317Y-83076186D01*
X194470112Y-83078195D01*
X194470113Y-83078196D01*
X194491869Y-83089715D01*
X194720392Y-83210712D01*
X194990373Y-83309511D01*
X195271264Y-83370755D01*
X195299841Y-83373004D01*
X195494282Y-83388307D01*
X195494291Y-83388307D01*
X195496739Y-83388500D01*
X195645463Y-83388500D01*
X195713584Y-83408502D01*
X195760077Y-83462158D01*
X195770181Y-83532432D01*
X195763790Y-83557799D01*
X195746677Y-83604562D01*
X195690284Y-83758662D01*
X195686743Y-83768337D01*
X195628404Y-84035907D01*
X195628068Y-84040177D01*
X195609891Y-84271137D01*
X195606917Y-84308918D01*
X195622682Y-84582320D01*
X195623507Y-84586525D01*
X195623508Y-84586533D01*
X195653917Y-84741526D01*
X195675405Y-84851053D01*
X195676792Y-84855103D01*
X195676793Y-84855108D01*
X195697605Y-84915895D01*
X195764112Y-85110144D01*
X195887160Y-85354799D01*
X195889586Y-85358328D01*
X195889589Y-85358334D01*
X196039843Y-85576953D01*
X196042274Y-85580490D01*
X196226582Y-85783043D01*
X196229877Y-85785798D01*
X196229878Y-85785799D01*
X196327952Y-85867801D01*
X196436675Y-85958707D01*
X196440316Y-85960991D01*
X196665024Y-86101951D01*
X196665028Y-86101953D01*
X196668664Y-86104234D01*
X196736544Y-86134883D01*
X196914345Y-86215164D01*
X196914349Y-86215166D01*
X196918257Y-86216930D01*
X196940437Y-86223500D01*
X197176723Y-86293491D01*
X197176727Y-86293492D01*
X197180836Y-86294709D01*
X197185070Y-86295357D01*
X197185075Y-86295358D01*
X197447298Y-86335483D01*
X197447300Y-86335483D01*
X197451540Y-86336132D01*
X197590679Y-86338318D01*
X197721071Y-86340367D01*
X197721077Y-86340367D01*
X197725362Y-86340434D01*
X197997235Y-86307534D01*
X198262127Y-86238041D01*
X198266087Y-86236401D01*
X198266092Y-86236399D01*
X198449981Y-86160229D01*
X198515136Y-86133241D01*
X198751582Y-85995073D01*
X198967089Y-85826094D01*
X198985937Y-85806645D01*
X199154686Y-85632509D01*
X199157669Y-85629431D01*
X199160202Y-85625983D01*
X199160206Y-85625978D01*
X199317257Y-85412178D01*
X199319795Y-85408723D01*
X199348560Y-85355744D01*
X199448418Y-85171830D01*
X199448419Y-85171828D01*
X199450468Y-85168054D01*
X199547269Y-84911877D01*
X199601093Y-84676867D01*
X199607449Y-84649117D01*
X199607450Y-84649113D01*
X199608407Y-84644933D01*
X199629065Y-84413469D01*
X199632531Y-84374627D01*
X199632531Y-84374625D01*
X199632751Y-84372161D01*
X199632985Y-84349890D01*
X199633167Y-84332484D01*
X199633167Y-84332483D01*
X199633193Y-84330000D01*
X199626151Y-84226703D01*
X199614859Y-84061055D01*
X199614858Y-84061049D01*
X199614567Y-84056778D01*
X199613343Y-84050865D01*
X199575753Y-83869353D01*
X199559032Y-83788612D01*
X199467617Y-83530465D01*
X199342013Y-83287112D01*
X199332040Y-83272921D01*
X199187008Y-83066562D01*
X199184545Y-83063057D01*
X199114466Y-82987643D01*
X199001046Y-82865588D01*
X199001043Y-82865585D01*
X198998125Y-82862445D01*
X198994810Y-82859731D01*
X198994806Y-82859728D01*
X198789523Y-82691706D01*
X198786205Y-82688990D01*
X198552704Y-82545901D01*
X198548768Y-82544173D01*
X198305873Y-82437549D01*
X198305869Y-82437548D01*
X198301945Y-82435825D01*
X198038566Y-82360800D01*
X198034324Y-82360196D01*
X198034318Y-82360195D01*
X197821004Y-82329836D01*
X197767443Y-82322213D01*
X197654326Y-82321621D01*
X197617839Y-82321430D01*
X197549823Y-82301072D01*
X197503612Y-82247174D01*
X197493876Y-82176848D01*
X197503124Y-82144791D01*
X197568483Y-81995898D01*
X197647244Y-81719406D01*
X197681473Y-81478895D01*
X197687146Y-81439036D01*
X197687146Y-81439034D01*
X197687751Y-81434784D01*
X197687845Y-81416951D01*
X197689235Y-81151583D01*
X197689235Y-81151576D01*
X197689257Y-81147297D01*
X197651732Y-80862266D01*
X197575871Y-80584964D01*
X197463077Y-80320524D01*
X197348575Y-80129205D01*
X197317643Y-80077521D01*
X197317640Y-80077517D01*
X197315439Y-80073839D01*
X197135687Y-79849472D01*
X196927149Y-79651577D01*
X196693683Y-79483814D01*
X196671843Y-79472250D01*
X196566485Y-79416466D01*
X196439608Y-79349288D01*
X196169627Y-79250489D01*
X195888736Y-79189245D01*
X195855656Y-79186642D01*
X195732844Y-79176976D01*
X195666503Y-79151690D01*
X195624363Y-79094552D01*
X195619804Y-79023702D01*
X195653635Y-78962269D01*
X195921540Y-78694364D01*
X195983852Y-78660338D01*
X196040049Y-78660940D01*
X196258476Y-78713380D01*
X196258482Y-78713381D01*
X196263289Y-78714535D01*
X196500000Y-78733165D01*
X196736711Y-78714535D01*
X196741518Y-78713381D01*
X196741524Y-78713380D01*
X196910758Y-78672750D01*
X196967594Y-78659105D01*
X196974883Y-78656086D01*
X197182389Y-78570135D01*
X197182393Y-78570133D01*
X197186963Y-78568240D01*
X197191183Y-78565654D01*
X197385202Y-78446759D01*
X197385208Y-78446755D01*
X197389416Y-78444176D01*
X197569969Y-78289969D01*
X197724176Y-78109416D01*
X197726755Y-78105208D01*
X197726759Y-78105202D01*
X197845654Y-77911183D01*
X197848240Y-77906963D01*
X197850229Y-77902163D01*
X197937211Y-77692167D01*
X197937212Y-77692165D01*
X197939105Y-77687594D01*
X197979563Y-77519076D01*
X197993380Y-77461524D01*
X197993381Y-77461518D01*
X197994535Y-77456711D01*
X198013165Y-77220000D01*
X197994535Y-76983289D01*
X197986516Y-76949885D01*
X197940260Y-76757218D01*
X197939105Y-76752406D01*
X197918524Y-76702719D01*
X197850135Y-76537611D01*
X197850133Y-76537607D01*
X197848240Y-76533037D01*
X197757245Y-76384547D01*
X197726759Y-76334798D01*
X197726755Y-76334792D01*
X197724176Y-76330584D01*
X197584201Y-76166695D01*
X197573177Y-76153787D01*
X197569969Y-76150031D01*
X197389416Y-75995824D01*
X197385208Y-75993245D01*
X197385202Y-75993241D01*
X197191183Y-75874346D01*
X197186963Y-75871760D01*
X197182393Y-75869867D01*
X197182389Y-75869865D01*
X196972167Y-75782789D01*
X196972165Y-75782788D01*
X196967594Y-75780895D01*
X196887391Y-75761640D01*
X196741524Y-75726620D01*
X196741518Y-75726619D01*
X196736711Y-75725465D01*
X196500000Y-75706835D01*
X196263289Y-75725465D01*
X196258482Y-75726619D01*
X196258476Y-75726620D01*
X196112609Y-75761640D01*
X196032406Y-75780895D01*
X196027835Y-75782788D01*
X196027833Y-75782789D01*
X195817611Y-75869865D01*
X195817607Y-75869867D01*
X195813037Y-75871760D01*
X195808817Y-75874346D01*
X195614798Y-75993241D01*
X195614792Y-75993245D01*
X195610584Y-75995824D01*
X195430031Y-76150031D01*
X195426823Y-76153787D01*
X195426818Y-76153792D01*
X195296294Y-76306616D01*
X195236844Y-76345426D01*
X195202442Y-76347640D01*
X195183333Y-76355877D01*
X194049095Y-77490115D01*
X193986783Y-77524141D01*
X193915968Y-77519076D01*
X193870905Y-77490115D01*
X192739710Y-76358920D01*
X192727330Y-76352160D01*
X192719680Y-76357887D01*
X192614795Y-76529042D01*
X192610313Y-76537837D01*
X192523266Y-76747988D01*
X192520217Y-76757373D01*
X192467115Y-76978554D01*
X192465572Y-76988301D01*
X192447725Y-77215070D01*
X192447725Y-77224930D01*
X192465572Y-77451699D01*
X192467115Y-77461446D01*
X192520217Y-77682627D01*
X192523265Y-77692007D01*
X192542018Y-77737281D01*
X192549607Y-77807871D01*
X192517828Y-77871358D01*
X192456770Y-77907586D01*
X192425609Y-77911500D01*
X189561869Y-77911500D01*
X189550686Y-77910973D01*
X189543193Y-77909298D01*
X189535267Y-77909547D01*
X189535266Y-77909547D01*
X189475103Y-77911438D01*
X189471145Y-77911500D01*
X189443246Y-77911500D01*
X189439256Y-77912004D01*
X189427422Y-77912936D01*
X189383213Y-77914326D01*
X189375599Y-77916538D01*
X189375594Y-77916539D01*
X189363761Y-77919977D01*
X189344398Y-77923988D01*
X189324305Y-77926526D01*
X189316938Y-77929443D01*
X189316933Y-77929444D01*
X189283194Y-77942802D01*
X189271967Y-77946646D01*
X189229509Y-77958982D01*
X189222683Y-77963019D01*
X189212074Y-77969293D01*
X189194326Y-77977988D01*
X189175485Y-77985448D01*
X189169069Y-77990110D01*
X189169068Y-77990110D01*
X189139715Y-78011436D01*
X189129795Y-78017952D01*
X189098567Y-78036420D01*
X189098564Y-78036422D01*
X189091740Y-78040458D01*
X189077416Y-78054782D01*
X189062389Y-78067617D01*
X189045995Y-78079528D01*
X189040942Y-78085636D01*
X189040940Y-78085638D01*
X189017815Y-78113592D01*
X189009825Y-78122373D01*
X188853153Y-78279044D01*
X188853150Y-78279048D01*
X188497602Y-78634595D01*
X188435290Y-78668620D01*
X188408507Y-78671499D01*
X186743661Y-78671499D01*
X186675540Y-78651497D01*
X186629047Y-78597841D01*
X186618943Y-78527567D01*
X186648437Y-78462987D01*
X186667958Y-78445069D01*
X186669416Y-78444176D01*
X186849969Y-78289969D01*
X187004176Y-78109416D01*
X187006755Y-78105208D01*
X187006759Y-78105202D01*
X187125654Y-77911183D01*
X187128240Y-77906963D01*
X187130229Y-77902163D01*
X187217211Y-77692167D01*
X187217212Y-77692165D01*
X187219105Y-77687594D01*
X187259563Y-77519076D01*
X187273380Y-77461524D01*
X187273381Y-77461518D01*
X187274535Y-77456711D01*
X187293165Y-77220000D01*
X187274535Y-76983289D01*
X187266516Y-76949885D01*
X187220260Y-76757218D01*
X187219105Y-76752406D01*
X187198524Y-76702719D01*
X187130135Y-76537611D01*
X187130133Y-76537607D01*
X187128240Y-76533037D01*
X187037245Y-76384547D01*
X187006759Y-76334798D01*
X187006755Y-76334792D01*
X187004176Y-76330584D01*
X186864201Y-76166695D01*
X186853177Y-76153787D01*
X186849969Y-76150031D01*
X186669416Y-75995824D01*
X186665208Y-75993245D01*
X186665202Y-75993241D01*
X186656470Y-75987890D01*
X193092093Y-75987890D01*
X193095876Y-75996666D01*
X193947188Y-76847978D01*
X193961132Y-76855592D01*
X193962965Y-76855461D01*
X193969580Y-76851210D01*
X194821080Y-75999710D01*
X194827840Y-75987330D01*
X194822113Y-75979680D01*
X194650958Y-75874795D01*
X194642163Y-75870313D01*
X194432012Y-75783266D01*
X194422627Y-75780217D01*
X194201446Y-75727115D01*
X194191699Y-75725572D01*
X193964930Y-75707725D01*
X193955070Y-75707725D01*
X193728301Y-75725572D01*
X193718554Y-75727115D01*
X193497373Y-75780217D01*
X193487988Y-75783266D01*
X193277837Y-75870313D01*
X193269042Y-75874795D01*
X193101555Y-75977432D01*
X193092093Y-75987890D01*
X186656470Y-75987890D01*
X186471183Y-75874346D01*
X186466963Y-75871760D01*
X186462393Y-75869867D01*
X186462389Y-75869865D01*
X186252167Y-75782789D01*
X186252165Y-75782788D01*
X186247594Y-75780895D01*
X186167391Y-75761640D01*
X186021524Y-75726620D01*
X186021518Y-75726619D01*
X186016711Y-75725465D01*
X185780000Y-75706835D01*
X185543289Y-75725465D01*
X185538482Y-75726619D01*
X185538476Y-75726620D01*
X185372896Y-75766373D01*
X185320049Y-75779060D01*
X185249142Y-75775513D01*
X185201541Y-75745636D01*
X184958652Y-75502747D01*
X184951112Y-75494461D01*
X184947000Y-75487982D01*
X184897348Y-75441356D01*
X184894507Y-75438602D01*
X184874770Y-75418865D01*
X184871573Y-75416385D01*
X184862551Y-75408680D01*
X184849116Y-75396064D01*
X184830321Y-75378414D01*
X184823375Y-75374595D01*
X184823372Y-75374593D01*
X184812566Y-75368652D01*
X184796047Y-75357801D01*
X184795583Y-75357441D01*
X184780041Y-75345386D01*
X184772772Y-75342241D01*
X184772768Y-75342238D01*
X184739463Y-75327826D01*
X184728813Y-75322609D01*
X184690060Y-75301305D01*
X184670437Y-75296267D01*
X184651734Y-75289863D01*
X184640420Y-75284967D01*
X184640419Y-75284967D01*
X184633145Y-75281819D01*
X184625322Y-75280580D01*
X184625312Y-75280577D01*
X184589476Y-75274901D01*
X184577856Y-75272495D01*
X184542711Y-75263472D01*
X184542710Y-75263472D01*
X184535030Y-75261500D01*
X184514776Y-75261500D01*
X184495065Y-75259949D01*
X184492534Y-75259548D01*
X184475057Y-75256780D01*
X184467165Y-75257526D01*
X184431039Y-75260941D01*
X184419181Y-75261500D01*
X162943763Y-75261500D01*
X162932579Y-75260973D01*
X162925091Y-75259299D01*
X162917168Y-75259548D01*
X162857033Y-75261438D01*
X162853075Y-75261500D01*
X162825144Y-75261500D01*
X162821229Y-75261995D01*
X162821225Y-75261995D01*
X162821167Y-75262003D01*
X162821138Y-75262006D01*
X162809296Y-75262939D01*
X162765110Y-75264327D01*
X162747744Y-75269372D01*
X162745658Y-75269978D01*
X162726306Y-75273986D01*
X162714068Y-75275532D01*
X162714066Y-75275533D01*
X162706203Y-75276526D01*
X162665086Y-75292806D01*
X162653885Y-75296641D01*
X162611406Y-75308982D01*
X162604587Y-75313015D01*
X162604582Y-75313017D01*
X162593971Y-75319293D01*
X162576221Y-75327990D01*
X162557383Y-75335448D01*
X162550967Y-75340109D01*
X162550966Y-75340110D01*
X162521625Y-75361428D01*
X162511701Y-75367947D01*
X162480460Y-75386422D01*
X162480455Y-75386426D01*
X162473637Y-75390458D01*
X162459313Y-75404782D01*
X162444281Y-75417621D01*
X162427893Y-75429528D01*
X162408893Y-75452495D01*
X162399712Y-75463593D01*
X162391722Y-75472373D01*
X154547747Y-83316348D01*
X154539461Y-83323888D01*
X154532982Y-83328000D01*
X154527557Y-83333777D01*
X154486357Y-83377651D01*
X154483602Y-83380493D01*
X154463865Y-83400230D01*
X154461385Y-83403427D01*
X154453682Y-83412447D01*
X154423414Y-83444679D01*
X154419595Y-83451625D01*
X154419593Y-83451628D01*
X154413652Y-83462434D01*
X154402801Y-83478953D01*
X154390386Y-83494959D01*
X154387241Y-83502228D01*
X154387238Y-83502232D01*
X154372826Y-83535537D01*
X154367609Y-83546187D01*
X154346305Y-83584940D01*
X154344334Y-83592615D01*
X154344334Y-83592616D01*
X154341267Y-83604562D01*
X154334863Y-83623266D01*
X154326819Y-83641855D01*
X154325580Y-83649678D01*
X154325577Y-83649688D01*
X154319901Y-83685524D01*
X154317495Y-83697144D01*
X154310976Y-83722536D01*
X154306500Y-83739970D01*
X154306500Y-83760224D01*
X154304949Y-83779934D01*
X154301780Y-83799943D01*
X154302526Y-83807835D01*
X154305941Y-83843961D01*
X154306500Y-83855819D01*
X154306500Y-87854380D01*
X154305973Y-87865563D01*
X154304298Y-87873056D01*
X154304547Y-87880982D01*
X154304547Y-87880983D01*
X154306438Y-87941133D01*
X154306500Y-87945092D01*
X154306500Y-87973003D01*
X154306997Y-87976937D01*
X154306997Y-87976938D01*
X154307005Y-87977003D01*
X154307938Y-87988840D01*
X154309327Y-88033036D01*
X154314978Y-88052486D01*
X154318987Y-88071847D01*
X154321526Y-88091944D01*
X154324445Y-88099315D01*
X154324445Y-88099317D01*
X154337804Y-88133059D01*
X154341649Y-88144289D01*
X154349053Y-88169774D01*
X154353982Y-88186740D01*
X154358015Y-88193559D01*
X154358017Y-88193564D01*
X154364293Y-88204175D01*
X154372988Y-88221923D01*
X154380448Y-88240764D01*
X154385110Y-88247180D01*
X154385110Y-88247181D01*
X154406436Y-88276534D01*
X154412952Y-88286454D01*
X154435458Y-88324509D01*
X154449779Y-88338830D01*
X154462619Y-88353863D01*
X154474528Y-88370254D01*
X154480634Y-88375305D01*
X154508605Y-88398445D01*
X154517384Y-88406435D01*
X163837250Y-97726301D01*
X163871276Y-97788613D01*
X163874093Y-97811435D01*
X163874996Y-97840146D01*
X163875058Y-97844107D01*
X163875058Y-97872018D01*
X163875555Y-97875952D01*
X163875555Y-97875953D01*
X163875563Y-97876018D01*
X163876496Y-97887855D01*
X163877885Y-97932051D01*
X163883536Y-97951501D01*
X163887545Y-97970862D01*
X163890084Y-97990959D01*
X163893003Y-97998330D01*
X163893003Y-97998332D01*
X163906362Y-98032074D01*
X163910207Y-98043304D01*
X163922540Y-98085755D01*
X163926573Y-98092574D01*
X163926575Y-98092579D01*
X163932851Y-98103190D01*
X163941546Y-98120938D01*
X163949006Y-98139779D01*
X163953668Y-98146195D01*
X163953668Y-98146196D01*
X163974994Y-98175549D01*
X163981510Y-98185469D01*
X164004016Y-98223524D01*
X164005927Y-98225435D01*
X164031026Y-98289357D01*
X164017127Y-98358980D01*
X163967793Y-98410035D01*
X163905520Y-98426500D01*
X154266054Y-98426500D01*
X154197933Y-98406498D01*
X154151440Y-98352842D01*
X154141336Y-98282568D01*
X154170830Y-98217988D01*
X154176959Y-98211405D01*
X154180418Y-98207946D01*
X154256919Y-98105871D01*
X154265457Y-98090276D01*
X154310611Y-97969828D01*
X154314238Y-97954573D01*
X154319764Y-97903708D01*
X154320133Y-97896894D01*
X154320133Y-97544337D01*
X154315658Y-97529098D01*
X154314268Y-97527893D01*
X154306585Y-97526222D01*
X151502249Y-97526222D01*
X151487010Y-97530697D01*
X151485805Y-97532087D01*
X151484134Y-97539770D01*
X151484134Y-97896891D01*
X151484504Y-97903712D01*
X151490028Y-97954574D01*
X151493654Y-97969826D01*
X151538809Y-98090276D01*
X151547347Y-98105871D01*
X151623848Y-98207946D01*
X151627307Y-98211405D01*
X151661333Y-98273717D01*
X151656268Y-98344532D01*
X151613721Y-98401368D01*
X151547201Y-98426179D01*
X151538212Y-98426500D01*
X150639852Y-98426500D01*
X150571731Y-98406498D01*
X150525238Y-98352842D01*
X150515134Y-98282568D01*
X150544628Y-98217988D01*
X150595622Y-98182518D01*
X150699520Y-98143568D01*
X150715115Y-98135030D01*
X150817190Y-98058529D01*
X150829751Y-98045968D01*
X150906252Y-97943893D01*
X150914790Y-97928298D01*
X150959944Y-97807850D01*
X150963571Y-97792595D01*
X150969097Y-97741730D01*
X150969466Y-97734916D01*
X150969466Y-97382359D01*
X150964991Y-97367120D01*
X150963601Y-97365915D01*
X150955918Y-97364244D01*
X148151582Y-97364244D01*
X148136343Y-97368719D01*
X148135138Y-97370109D01*
X148133467Y-97377792D01*
X148133467Y-97734913D01*
X148133837Y-97741734D01*
X148139361Y-97792596D01*
X148142987Y-97807848D01*
X148188142Y-97928298D01*
X148196680Y-97943893D01*
X148273181Y-98045968D01*
X148285742Y-98058529D01*
X148387817Y-98135030D01*
X148403412Y-98143568D01*
X148507310Y-98182518D01*
X148564074Y-98225160D01*
X148588774Y-98291721D01*
X148573566Y-98361070D01*
X148523280Y-98411188D01*
X148463080Y-98426500D01*
X144858767Y-98426500D01*
X144847584Y-98425973D01*
X144840091Y-98424298D01*
X144832165Y-98424547D01*
X144832164Y-98424547D01*
X144772014Y-98426438D01*
X144768055Y-98426500D01*
X144740144Y-98426500D01*
X144736210Y-98426997D01*
X144736209Y-98426997D01*
X144736144Y-98427005D01*
X144724307Y-98427938D01*
X144692490Y-98428938D01*
X144688029Y-98429078D01*
X144680110Y-98429327D01*
X144662454Y-98434456D01*
X144660658Y-98434978D01*
X144641306Y-98438986D01*
X144634235Y-98439880D01*
X144621203Y-98441526D01*
X144613834Y-98444443D01*
X144613832Y-98444444D01*
X144580097Y-98457800D01*
X144568869Y-98461645D01*
X144526407Y-98473982D01*
X144519585Y-98478016D01*
X144519579Y-98478019D01*
X144508968Y-98484294D01*
X144491218Y-98492990D01*
X144479756Y-98497528D01*
X144479751Y-98497531D01*
X144472383Y-98500448D01*
X144465968Y-98505109D01*
X144436625Y-98526427D01*
X144426707Y-98532943D01*
X144408019Y-98543995D01*
X144388637Y-98555458D01*
X144374313Y-98569782D01*
X144359287Y-98582617D01*
X144343559Y-98594044D01*
X144276694Y-98617901D01*
X144207543Y-98601822D01*
X144158062Y-98550908D01*
X144143500Y-98492107D01*
X144143500Y-97000107D01*
X151484133Y-97000107D01*
X151488608Y-97015346D01*
X151489998Y-97016551D01*
X151497681Y-97018222D01*
X152630018Y-97018222D01*
X152645257Y-97013747D01*
X152646462Y-97012357D01*
X152648133Y-97004674D01*
X152648133Y-97000107D01*
X153156133Y-97000107D01*
X153160608Y-97015346D01*
X153161998Y-97016551D01*
X153169681Y-97018222D01*
X154302017Y-97018222D01*
X154317256Y-97013747D01*
X154318461Y-97012357D01*
X154320132Y-97004674D01*
X154320132Y-96647553D01*
X154319762Y-96640732D01*
X154314238Y-96589870D01*
X154310612Y-96574618D01*
X154265457Y-96454168D01*
X154256919Y-96438573D01*
X154180418Y-96336498D01*
X154167857Y-96323937D01*
X154065782Y-96247436D01*
X154050187Y-96238898D01*
X153929739Y-96193744D01*
X153914484Y-96190117D01*
X153863619Y-96184591D01*
X153856805Y-96184222D01*
X153174248Y-96184222D01*
X153159009Y-96188697D01*
X153157804Y-96190087D01*
X153156133Y-96197770D01*
X153156133Y-97000107D01*
X152648133Y-97000107D01*
X152648133Y-96202338D01*
X152643658Y-96187099D01*
X152642268Y-96185894D01*
X152634585Y-96184223D01*
X151947464Y-96184223D01*
X151940643Y-96184593D01*
X151889781Y-96190117D01*
X151874529Y-96193743D01*
X151754079Y-96238898D01*
X151738484Y-96247436D01*
X151636409Y-96323937D01*
X151623848Y-96336498D01*
X151547347Y-96438573D01*
X151538809Y-96454168D01*
X151493655Y-96574616D01*
X151490028Y-96589871D01*
X151484502Y-96640736D01*
X151484133Y-96647550D01*
X151484133Y-97000107D01*
X144143500Y-97000107D01*
X144143500Y-96838129D01*
X148133466Y-96838129D01*
X148137941Y-96853368D01*
X148139331Y-96854573D01*
X148147014Y-96856244D01*
X149279351Y-96856244D01*
X149294590Y-96851769D01*
X149295795Y-96850379D01*
X149297466Y-96842696D01*
X149297466Y-96838129D01*
X149805466Y-96838129D01*
X149809941Y-96853368D01*
X149811331Y-96854573D01*
X149819014Y-96856244D01*
X150951350Y-96856244D01*
X150966589Y-96851769D01*
X150967794Y-96850379D01*
X150969465Y-96842696D01*
X150969465Y-96485575D01*
X150969095Y-96478754D01*
X150963571Y-96427892D01*
X150959945Y-96412640D01*
X150914790Y-96292190D01*
X150906252Y-96276595D01*
X150829751Y-96174520D01*
X150817190Y-96161959D01*
X150715115Y-96085458D01*
X150699520Y-96076920D01*
X150579072Y-96031766D01*
X150563817Y-96028139D01*
X150512952Y-96022613D01*
X150506138Y-96022244D01*
X149823581Y-96022244D01*
X149808342Y-96026719D01*
X149807137Y-96028109D01*
X149805466Y-96035792D01*
X149805466Y-96838129D01*
X149297466Y-96838129D01*
X149297466Y-96040360D01*
X149292991Y-96025121D01*
X149291601Y-96023916D01*
X149283918Y-96022245D01*
X148596797Y-96022245D01*
X148589976Y-96022615D01*
X148539114Y-96028139D01*
X148523862Y-96031765D01*
X148403412Y-96076920D01*
X148387817Y-96085458D01*
X148285742Y-96161959D01*
X148273181Y-96174520D01*
X148196680Y-96276595D01*
X148188142Y-96292190D01*
X148142988Y-96412638D01*
X148139361Y-96427893D01*
X148133835Y-96478758D01*
X148133466Y-96485572D01*
X148133466Y-96838129D01*
X144143500Y-96838129D01*
X144143500Y-75928236D01*
X144144027Y-75917053D01*
X144145702Y-75909560D01*
X144143562Y-75841469D01*
X144143500Y-75837512D01*
X144143500Y-75809612D01*
X144142996Y-75805621D01*
X144142063Y-75793779D01*
X144141601Y-75779060D01*
X144140674Y-75749579D01*
X144138462Y-75741965D01*
X144138461Y-75741960D01*
X144135023Y-75730127D01*
X144131012Y-75710763D01*
X144129467Y-75698532D01*
X144128474Y-75690671D01*
X144125557Y-75683304D01*
X144125556Y-75683299D01*
X144112198Y-75649560D01*
X144108354Y-75638333D01*
X144098230Y-75603490D01*
X144096018Y-75595875D01*
X144085707Y-75578440D01*
X144077012Y-75560692D01*
X144069552Y-75541851D01*
X144043564Y-75506081D01*
X144037048Y-75496161D01*
X144018580Y-75464933D01*
X144018578Y-75464930D01*
X144014542Y-75458106D01*
X144000221Y-75443785D01*
X143987380Y-75428751D01*
X143984560Y-75424870D01*
X143975472Y-75412361D01*
X143941395Y-75384170D01*
X143932616Y-75376180D01*
X140383963Y-71827526D01*
X140368845Y-71809252D01*
X140368672Y-71808998D01*
X140368671Y-71808997D01*
X140364213Y-71802437D01*
X140322077Y-71765289D01*
X140316307Y-71759870D01*
X140305010Y-71748573D01*
X140292403Y-71738794D01*
X140292384Y-71738779D01*
X140286286Y-71733734D01*
X140250099Y-71701831D01*
X140250095Y-71701828D01*
X140244150Y-71696587D01*
X140237087Y-71692988D01*
X140236801Y-71692842D01*
X140216789Y-71680142D01*
X140216542Y-71679950D01*
X140216541Y-71679949D01*
X140210281Y-71675094D01*
X140158728Y-71652785D01*
X140151612Y-71649437D01*
X140101536Y-71623922D01*
X140093488Y-71622123D01*
X140070947Y-71614799D01*
X140063385Y-71611527D01*
X140007931Y-71602744D01*
X140000158Y-71601261D01*
X139992973Y-71599655D01*
X139945332Y-71589006D01*
X139937097Y-71589265D01*
X139913426Y-71587775D01*
X139913130Y-71587728D01*
X139913125Y-71587728D01*
X139905297Y-71586488D01*
X139897405Y-71587234D01*
X139849393Y-71591772D01*
X139841495Y-71592269D01*
X139793272Y-71593785D01*
X139785351Y-71594034D01*
X139777745Y-71596243D01*
X139777742Y-71596244D01*
X139777441Y-71596332D01*
X139754144Y-71600776D01*
X139753937Y-71600796D01*
X139745948Y-71601551D01*
X139738490Y-71604236D01*
X139693110Y-71620574D01*
X139685581Y-71623020D01*
X139631647Y-71638689D01*
X139624824Y-71642724D01*
X139624822Y-71642725D01*
X139624549Y-71642886D01*
X139603105Y-71652976D01*
X139602817Y-71653080D01*
X139602810Y-71653083D01*
X139595351Y-71655769D01*
X139592096Y-71657981D01*
X139536976Y-71671214D01*
X138582389Y-71671214D01*
X138514268Y-71651212D01*
X138467775Y-71597556D01*
X138457671Y-71527282D01*
X138461830Y-71508586D01*
X138490867Y-71413015D01*
X138492370Y-71408069D01*
X138521529Y-71186590D01*
X138523156Y-71120000D01*
X138504852Y-70897361D01*
X138450431Y-70680702D01*
X138361354Y-70475840D01*
X138240014Y-70288277D01*
X138089670Y-70123051D01*
X138085619Y-70119852D01*
X138085615Y-70119848D01*
X137918414Y-69987800D01*
X137918410Y-69987798D01*
X137914359Y-69984598D01*
X137718789Y-69876638D01*
X137713920Y-69874914D01*
X137713916Y-69874912D01*
X137513087Y-69803795D01*
X137513083Y-69803794D01*
X137508212Y-69802069D01*
X137503119Y-69801162D01*
X137503116Y-69801161D01*
X137293373Y-69763800D01*
X137293367Y-69763799D01*
X137288284Y-69762894D01*
X137214452Y-69761992D01*
X137070081Y-69760228D01*
X137070079Y-69760228D01*
X137064911Y-69760165D01*
X136844091Y-69793955D01*
X136831532Y-69798060D01*
X136760568Y-69800210D01*
X136703294Y-69767389D01*
X136488652Y-69552747D01*
X136481112Y-69544461D01*
X136477000Y-69537982D01*
X136427348Y-69491356D01*
X136424507Y-69488602D01*
X136404770Y-69468865D01*
X136401573Y-69466385D01*
X136392551Y-69458680D01*
X136379116Y-69446064D01*
X136360321Y-69428414D01*
X136353375Y-69424595D01*
X136346961Y-69419935D01*
X136347824Y-69418747D01*
X136303897Y-69374566D01*
X136289006Y-69305148D01*
X136314008Y-69238700D01*
X136370967Y-69196318D01*
X136414658Y-69188500D01*
X199925500Y-69188500D01*
X199993621Y-69208502D01*
X200040114Y-69262158D01*
X200051500Y-69314500D01*
X200051500Y-126265500D01*
X200031498Y-126333621D01*
X199977842Y-126380114D01*
X199925500Y-126391500D01*
X112494500Y-126391500D01*
X112426379Y-126371498D01*
X112379886Y-126317842D01*
X112368500Y-126265500D01*
X112368500Y-123456522D01*
X166069282Y-123456522D01*
X166107573Y-123599423D01*
X166111323Y-123609727D01*
X166196002Y-123791323D01*
X166201479Y-123800811D01*
X166316406Y-123964942D01*
X166323462Y-123973350D01*
X166465131Y-124115019D01*
X166473539Y-124122075D01*
X166637670Y-124237002D01*
X166647158Y-124242479D01*
X166828754Y-124327158D01*
X166839058Y-124330908D01*
X166976984Y-124367866D01*
X166991080Y-124367530D01*
X166994481Y-124359588D01*
X166994481Y-124354439D01*
X167502481Y-124354439D01*
X167506454Y-124367970D01*
X167515003Y-124369199D01*
X167657904Y-124330908D01*
X167668208Y-124327158D01*
X167849804Y-124242479D01*
X167859292Y-124237002D01*
X168023423Y-124122075D01*
X168031831Y-124115019D01*
X168173500Y-123973350D01*
X168180556Y-123964942D01*
X168295483Y-123800811D01*
X168300960Y-123791323D01*
X168385639Y-123609727D01*
X168389389Y-123599423D01*
X168426347Y-123461497D01*
X168426228Y-123456522D01*
X169000801Y-123456522D01*
X169039092Y-123599423D01*
X169042842Y-123609727D01*
X169127521Y-123791323D01*
X169132998Y-123800811D01*
X169247925Y-123964942D01*
X169254981Y-123973350D01*
X169396650Y-124115019D01*
X169405058Y-124122075D01*
X169569189Y-124237002D01*
X169578677Y-124242479D01*
X169760273Y-124327158D01*
X169770577Y-124330908D01*
X169908503Y-124367866D01*
X169922599Y-124367530D01*
X169926000Y-124359588D01*
X169926000Y-124354439D01*
X170434000Y-124354439D01*
X170437973Y-124367970D01*
X170446522Y-124369199D01*
X170589423Y-124330908D01*
X170599727Y-124327158D01*
X170781323Y-124242479D01*
X170790811Y-124237002D01*
X170954942Y-124122075D01*
X170963350Y-124115019D01*
X171105019Y-123973350D01*
X171112075Y-123964942D01*
X171227002Y-123800811D01*
X171232479Y-123791323D01*
X171317159Y-123609723D01*
X171320907Y-123599426D01*
X171331795Y-123558793D01*
X171368746Y-123498170D01*
X171432607Y-123467149D01*
X171503101Y-123475577D01*
X171557849Y-123520780D01*
X171575208Y-123558790D01*
X171579091Y-123573281D01*
X171582841Y-123583581D01*
X171667521Y-123765181D01*
X171672998Y-123774669D01*
X171787925Y-123938800D01*
X171794981Y-123947208D01*
X171936650Y-124088877D01*
X171945058Y-124095933D01*
X172109189Y-124210860D01*
X172118677Y-124216337D01*
X172300273Y-124301016D01*
X172310577Y-124304766D01*
X172448503Y-124341724D01*
X172462599Y-124341388D01*
X172466000Y-124333446D01*
X172466000Y-124328297D01*
X172974000Y-124328297D01*
X172977973Y-124341828D01*
X172986522Y-124343057D01*
X173129423Y-124304766D01*
X173139727Y-124301016D01*
X173321323Y-124216337D01*
X173330811Y-124210860D01*
X173494942Y-124095933D01*
X173503350Y-124088877D01*
X173645019Y-123947208D01*
X173652075Y-123938800D01*
X173767002Y-123774669D01*
X173772479Y-123765181D01*
X173857159Y-123583581D01*
X173860908Y-123573284D01*
X173866953Y-123550722D01*
X173903905Y-123490099D01*
X173967765Y-123459078D01*
X174038260Y-123467506D01*
X174093007Y-123512709D01*
X174110366Y-123550721D01*
X174119089Y-123583276D01*
X174122841Y-123593581D01*
X174207521Y-123775181D01*
X174212998Y-123784669D01*
X174327925Y-123948800D01*
X174334981Y-123957208D01*
X174476650Y-124098877D01*
X174485058Y-124105933D01*
X174649189Y-124220860D01*
X174658677Y-124226337D01*
X174840273Y-124311016D01*
X174850577Y-124314766D01*
X174988503Y-124351724D01*
X175002599Y-124351388D01*
X175006000Y-124343446D01*
X175006000Y-124338297D01*
X175514000Y-124338297D01*
X175517973Y-124351828D01*
X175526522Y-124353057D01*
X175669423Y-124314766D01*
X175679727Y-124311016D01*
X175861323Y-124226337D01*
X175870811Y-124220860D01*
X176034942Y-124105933D01*
X176043350Y-124098877D01*
X176185019Y-123957208D01*
X176192075Y-123948800D01*
X176307002Y-123784669D01*
X176312479Y-123775181D01*
X176397159Y-123593581D01*
X176400910Y-123583276D01*
X176408294Y-123555721D01*
X176445245Y-123495099D01*
X176509106Y-123464077D01*
X176579600Y-123472506D01*
X176634347Y-123517710D01*
X176651706Y-123555721D01*
X176659090Y-123583276D01*
X176662841Y-123593581D01*
X176747521Y-123775181D01*
X176752998Y-123784669D01*
X176867925Y-123948800D01*
X176874981Y-123957208D01*
X177016650Y-124098877D01*
X177025058Y-124105933D01*
X177189189Y-124220860D01*
X177198677Y-124226337D01*
X177380273Y-124311016D01*
X177390577Y-124314766D01*
X177528503Y-124351724D01*
X177542599Y-124351388D01*
X177546000Y-124343446D01*
X177546000Y-124338297D01*
X178054000Y-124338297D01*
X178057973Y-124351828D01*
X178066522Y-124353057D01*
X178209423Y-124314766D01*
X178219727Y-124311016D01*
X178401323Y-124226337D01*
X178410811Y-124220860D01*
X178574942Y-124105933D01*
X178583350Y-124098877D01*
X178725019Y-123957208D01*
X178732075Y-123948800D01*
X178847002Y-123784669D01*
X178852479Y-123775181D01*
X178937158Y-123593585D01*
X178940908Y-123583281D01*
X178977866Y-123445355D01*
X178977530Y-123431259D01*
X178969588Y-123427858D01*
X178072115Y-123427858D01*
X178056876Y-123432333D01*
X178055671Y-123433723D01*
X178054000Y-123441406D01*
X178054000Y-124338297D01*
X177546000Y-124338297D01*
X177546000Y-122901743D01*
X178054000Y-122901743D01*
X178058475Y-122916982D01*
X178059865Y-122918187D01*
X178067548Y-122919858D01*
X178964439Y-122919858D01*
X178977970Y-122915885D01*
X178979199Y-122907336D01*
X178940908Y-122764435D01*
X178937158Y-122754131D01*
X178852479Y-122572535D01*
X178847002Y-122563047D01*
X178732075Y-122398916D01*
X178725019Y-122390508D01*
X178583350Y-122248839D01*
X178574942Y-122241783D01*
X178410811Y-122126856D01*
X178401323Y-122121379D01*
X178219727Y-122036700D01*
X178209423Y-122032950D01*
X178071497Y-121995992D01*
X178057401Y-121996328D01*
X178054000Y-122004270D01*
X178054000Y-122901743D01*
X177546000Y-122901743D01*
X177546000Y-122009419D01*
X177542027Y-121995888D01*
X177533478Y-121994659D01*
X177390577Y-122032950D01*
X177380273Y-122036700D01*
X177198677Y-122121379D01*
X177189189Y-122126856D01*
X177025058Y-122241783D01*
X177016650Y-122248839D01*
X176874981Y-122390508D01*
X176867925Y-122398916D01*
X176752998Y-122563047D01*
X176747521Y-122572535D01*
X176662841Y-122754135D01*
X176659090Y-122764440D01*
X176651706Y-122791995D01*
X176614755Y-122852617D01*
X176550894Y-122883639D01*
X176480400Y-122875210D01*
X176425653Y-122830006D01*
X176408294Y-122791995D01*
X176400910Y-122764440D01*
X176397159Y-122754135D01*
X176312479Y-122572535D01*
X176307002Y-122563047D01*
X176192075Y-122398916D01*
X176185019Y-122390508D01*
X176043350Y-122248839D01*
X176034942Y-122241783D01*
X175870811Y-122126856D01*
X175861323Y-122121379D01*
X175679727Y-122036700D01*
X175669423Y-122032950D01*
X175531497Y-121995992D01*
X175517401Y-121996328D01*
X175514000Y-122004270D01*
X175514000Y-124338297D01*
X175006000Y-124338297D01*
X175006000Y-122009419D01*
X175002027Y-121995888D01*
X174993478Y-121994659D01*
X174850577Y-122032950D01*
X174840273Y-122036700D01*
X174658677Y-122121379D01*
X174649189Y-122126856D01*
X174485058Y-122241783D01*
X174476650Y-122248839D01*
X174334981Y-122390508D01*
X174327925Y-122398916D01*
X174212998Y-122563047D01*
X174207521Y-122572535D01*
X174122841Y-122754135D01*
X174119092Y-122764432D01*
X174113047Y-122786994D01*
X174076095Y-122847617D01*
X174012235Y-122878638D01*
X173941740Y-122870210D01*
X173886993Y-122825007D01*
X173869634Y-122786995D01*
X173860911Y-122754440D01*
X173857159Y-122744135D01*
X173772479Y-122562535D01*
X173767002Y-122553047D01*
X173652075Y-122388916D01*
X173645019Y-122380508D01*
X173503350Y-122238839D01*
X173494942Y-122231783D01*
X173330811Y-122116856D01*
X173321323Y-122111379D01*
X173139727Y-122026700D01*
X173129423Y-122022950D01*
X172991497Y-121985992D01*
X172977401Y-121986328D01*
X172974000Y-121994270D01*
X172974000Y-124328297D01*
X172466000Y-124328297D01*
X172466000Y-121999419D01*
X172462027Y-121985888D01*
X172453478Y-121984659D01*
X172310577Y-122022950D01*
X172300273Y-122026700D01*
X172118677Y-122111379D01*
X172109189Y-122116856D01*
X171945058Y-122231783D01*
X171936650Y-122238839D01*
X171794981Y-122380508D01*
X171787925Y-122388916D01*
X171672998Y-122553047D01*
X171667521Y-122562535D01*
X171582841Y-122744135D01*
X171579093Y-122754432D01*
X171568205Y-122795065D01*
X171531254Y-122855688D01*
X171467393Y-122886709D01*
X171396899Y-122878281D01*
X171342151Y-122833078D01*
X171324792Y-122795068D01*
X171320909Y-122780577D01*
X171317159Y-122770277D01*
X171232479Y-122588677D01*
X171227002Y-122579189D01*
X171112075Y-122415058D01*
X171105019Y-122406650D01*
X170963350Y-122264981D01*
X170954942Y-122257925D01*
X170790811Y-122142998D01*
X170781323Y-122137521D01*
X170599727Y-122052842D01*
X170589423Y-122049092D01*
X170451497Y-122012134D01*
X170437401Y-122012470D01*
X170434000Y-122020412D01*
X170434000Y-124354439D01*
X169926000Y-124354439D01*
X169926000Y-123462115D01*
X169921525Y-123446876D01*
X169920135Y-123445671D01*
X169912452Y-123444000D01*
X169015561Y-123444000D01*
X169002030Y-123447973D01*
X169000801Y-123456522D01*
X168426228Y-123456522D01*
X168426011Y-123447401D01*
X168418069Y-123444000D01*
X167520596Y-123444000D01*
X167505357Y-123448475D01*
X167504152Y-123449865D01*
X167502481Y-123457548D01*
X167502481Y-124354439D01*
X166994481Y-124354439D01*
X166994481Y-123462115D01*
X166990006Y-123446876D01*
X166988616Y-123445671D01*
X166980933Y-123444000D01*
X166084042Y-123444000D01*
X166070511Y-123447973D01*
X166069282Y-123456522D01*
X112368500Y-123456522D01*
X112368500Y-122918503D01*
X166070615Y-122918503D01*
X166070951Y-122932599D01*
X166078893Y-122936000D01*
X166976366Y-122936000D01*
X166991605Y-122931525D01*
X166992810Y-122930135D01*
X166994481Y-122922452D01*
X166994481Y-122917885D01*
X167502481Y-122917885D01*
X167506956Y-122933124D01*
X167508346Y-122934329D01*
X167516029Y-122936000D01*
X168412920Y-122936000D01*
X168426451Y-122932027D01*
X168427680Y-122923478D01*
X168426347Y-122918503D01*
X169002134Y-122918503D01*
X169002470Y-122932599D01*
X169010412Y-122936000D01*
X169907885Y-122936000D01*
X169923124Y-122931525D01*
X169924329Y-122930135D01*
X169926000Y-122922452D01*
X169926000Y-122025561D01*
X169922027Y-122012030D01*
X169913478Y-122010801D01*
X169770577Y-122049092D01*
X169760273Y-122052842D01*
X169578677Y-122137521D01*
X169569189Y-122142998D01*
X169405058Y-122257925D01*
X169396650Y-122264981D01*
X169254981Y-122406650D01*
X169247925Y-122415058D01*
X169132998Y-122579189D01*
X169127521Y-122588677D01*
X169042842Y-122770273D01*
X169039092Y-122780577D01*
X169002134Y-122918503D01*
X168426347Y-122918503D01*
X168389389Y-122780577D01*
X168385639Y-122770273D01*
X168300960Y-122588677D01*
X168295483Y-122579189D01*
X168180556Y-122415058D01*
X168173500Y-122406650D01*
X168031831Y-122264981D01*
X168023423Y-122257925D01*
X167859292Y-122142998D01*
X167849804Y-122137521D01*
X167668208Y-122052842D01*
X167657904Y-122049092D01*
X167519978Y-122012134D01*
X167505882Y-122012470D01*
X167502481Y-122020412D01*
X167502481Y-122917885D01*
X166994481Y-122917885D01*
X166994481Y-122025561D01*
X166990508Y-122012030D01*
X166981959Y-122010801D01*
X166839058Y-122049092D01*
X166828754Y-122052842D01*
X166647158Y-122137521D01*
X166637670Y-122142998D01*
X166473539Y-122257925D01*
X166465131Y-122264981D01*
X166323462Y-122406650D01*
X166316406Y-122415058D01*
X166201479Y-122579189D01*
X166196002Y-122588677D01*
X166111323Y-122770273D01*
X166107573Y-122780577D01*
X166070615Y-122918503D01*
X112368500Y-122918503D01*
X112368500Y-118080201D01*
X129545034Y-118080201D01*
X129558659Y-118288078D01*
X129609938Y-118489991D01*
X129697155Y-118679178D01*
X129817387Y-118849303D01*
X129966609Y-118994669D01*
X129971405Y-118997874D01*
X129971408Y-118997876D01*
X130041123Y-119044458D01*
X130139823Y-119110407D01*
X130145131Y-119112688D01*
X130145132Y-119112688D01*
X130325926Y-119190363D01*
X130325929Y-119190364D01*
X130331229Y-119192641D01*
X130336858Y-119193915D01*
X130336859Y-119193915D01*
X130528778Y-119237342D01*
X130528783Y-119237343D01*
X130534415Y-119238617D01*
X130540186Y-119238844D01*
X130540188Y-119238844D01*
X130602508Y-119241292D01*
X130742577Y-119246796D01*
X130845660Y-119231850D01*
X130943030Y-119217732D01*
X130943035Y-119217731D01*
X130948744Y-119216903D01*
X130954208Y-119215048D01*
X130954213Y-119215047D01*
X131140543Y-119151796D01*
X131146011Y-119149940D01*
X131327772Y-119048149D01*
X131487939Y-118914939D01*
X131621149Y-118754772D01*
X131722940Y-118573011D01*
X131749341Y-118495237D01*
X131788047Y-118381213D01*
X131788048Y-118381208D01*
X131789903Y-118375744D01*
X131790731Y-118370035D01*
X131790732Y-118370030D01*
X131819263Y-118173251D01*
X131819796Y-118169577D01*
X131821356Y-118110000D01*
X131818618Y-118080201D01*
X137419034Y-118080201D01*
X137432659Y-118288078D01*
X137483938Y-118489991D01*
X137571155Y-118679178D01*
X137691387Y-118849303D01*
X137840609Y-118994669D01*
X137845405Y-118997874D01*
X137845408Y-118997876D01*
X137915123Y-119044458D01*
X138013823Y-119110407D01*
X138019131Y-119112688D01*
X138019132Y-119112688D01*
X138199926Y-119190363D01*
X138199929Y-119190364D01*
X138205229Y-119192641D01*
X138210858Y-119193915D01*
X138210859Y-119193915D01*
X138402778Y-119237342D01*
X138402783Y-119237343D01*
X138408415Y-119238617D01*
X138414186Y-119238844D01*
X138414188Y-119238844D01*
X138476508Y-119241292D01*
X138616577Y-119246796D01*
X138719660Y-119231850D01*
X138817030Y-119217732D01*
X138817035Y-119217731D01*
X138822744Y-119216903D01*
X138828208Y-119215048D01*
X138828213Y-119215047D01*
X139014543Y-119151796D01*
X139020011Y-119149940D01*
X139201772Y-119048149D01*
X139361939Y-118914939D01*
X139495149Y-118754772D01*
X139596940Y-118573011D01*
X139623341Y-118495237D01*
X139662047Y-118381213D01*
X139662048Y-118381208D01*
X139663903Y-118375744D01*
X139664731Y-118370035D01*
X139664732Y-118370030D01*
X139693263Y-118173251D01*
X139693796Y-118169577D01*
X139695356Y-118110000D01*
X139676294Y-117902551D01*
X139619747Y-117702050D01*
X139527608Y-117515211D01*
X139402963Y-117348291D01*
X139249987Y-117206881D01*
X139073803Y-117095717D01*
X138880311Y-117018522D01*
X138675991Y-116977880D01*
X138670216Y-116977804D01*
X138670212Y-116977804D01*
X138565901Y-116976439D01*
X138467686Y-116975153D01*
X138461989Y-116976132D01*
X138461988Y-116976132D01*
X138445257Y-116979007D01*
X138262372Y-117010433D01*
X138066925Y-117082537D01*
X137887891Y-117189051D01*
X137731266Y-117326407D01*
X137727699Y-117330932D01*
X137727694Y-117330937D01*
X137605872Y-117485468D01*
X137602294Y-117490007D01*
X137599603Y-117495123D01*
X137599601Y-117495125D01*
X137507988Y-117669253D01*
X137505296Y-117674370D01*
X137443520Y-117873322D01*
X137419034Y-118080201D01*
X131818618Y-118080201D01*
X131802294Y-117902551D01*
X131745747Y-117702050D01*
X131653608Y-117515211D01*
X131528963Y-117348291D01*
X131375987Y-117206881D01*
X131199803Y-117095717D01*
X131006311Y-117018522D01*
X130801991Y-116977880D01*
X130796216Y-116977804D01*
X130796212Y-116977804D01*
X130691901Y-116976439D01*
X130593686Y-116975153D01*
X130587989Y-116976132D01*
X130587988Y-116976132D01*
X130571257Y-116979007D01*
X130388372Y-117010433D01*
X130192925Y-117082537D01*
X130013891Y-117189051D01*
X129857266Y-117326407D01*
X129853699Y-117330932D01*
X129853694Y-117330937D01*
X129731872Y-117485468D01*
X129728294Y-117490007D01*
X129725603Y-117495123D01*
X129725601Y-117495125D01*
X129633988Y-117669253D01*
X129631296Y-117674370D01*
X129569520Y-117873322D01*
X129545034Y-118080201D01*
X112368500Y-118080201D01*
X112368500Y-115540201D01*
X129545034Y-115540201D01*
X129558659Y-115748078D01*
X129609938Y-115949991D01*
X129697155Y-116139178D01*
X129817387Y-116309303D01*
X129966609Y-116454669D01*
X129971405Y-116457874D01*
X129971408Y-116457876D01*
X130003418Y-116479264D01*
X130139823Y-116570407D01*
X130145131Y-116572688D01*
X130145132Y-116572688D01*
X130325926Y-116650363D01*
X130325929Y-116650364D01*
X130331229Y-116652641D01*
X130336858Y-116653915D01*
X130336859Y-116653915D01*
X130528778Y-116697342D01*
X130528783Y-116697343D01*
X130534415Y-116698617D01*
X130540186Y-116698844D01*
X130540188Y-116698844D01*
X130602508Y-116701292D01*
X130742577Y-116706796D01*
X130848133Y-116691491D01*
X130943030Y-116677732D01*
X130943035Y-116677731D01*
X130948744Y-116676903D01*
X130954208Y-116675048D01*
X130954213Y-116675047D01*
X131140543Y-116611796D01*
X131146011Y-116609940D01*
X131327772Y-116508149D01*
X131366045Y-116476318D01*
X131483501Y-116378630D01*
X131487939Y-116374939D01*
X131621149Y-116214772D01*
X131722940Y-116033011D01*
X131749946Y-115953455D01*
X131788047Y-115841213D01*
X131788048Y-115841208D01*
X131789903Y-115835744D01*
X131790731Y-115830035D01*
X131790732Y-115830030D01*
X131819263Y-115633251D01*
X131819796Y-115629577D01*
X131821356Y-115570000D01*
X131802294Y-115362551D01*
X131777236Y-115273700D01*
X131747316Y-115167614D01*
X131745747Y-115162050D01*
X131653608Y-114975211D01*
X131636486Y-114952281D01*
X131532416Y-114812915D01*
X131532415Y-114812914D01*
X131528963Y-114808291D01*
X131375987Y-114666881D01*
X131199803Y-114555717D01*
X131006311Y-114478522D01*
X130801991Y-114437880D01*
X130796216Y-114437804D01*
X130796212Y-114437804D01*
X130691901Y-114436439D01*
X130593686Y-114435153D01*
X130587989Y-114436132D01*
X130587988Y-114436132D01*
X130571257Y-114439007D01*
X130388372Y-114470433D01*
X130192925Y-114542537D01*
X130187964Y-114545489D01*
X130187963Y-114545489D01*
X130021383Y-114644594D01*
X130013891Y-114649051D01*
X129857266Y-114786407D01*
X129853699Y-114790932D01*
X129853694Y-114790937D01*
X129738942Y-114936500D01*
X129728294Y-114950007D01*
X129725603Y-114955123D01*
X129725601Y-114955125D01*
X129633988Y-115129253D01*
X129631296Y-115134370D01*
X129569520Y-115333322D01*
X129545034Y-115540201D01*
X112368500Y-115540201D01*
X112368500Y-113000201D01*
X129545034Y-113000201D01*
X129558659Y-113208078D01*
X129609938Y-113409991D01*
X129697155Y-113599178D01*
X129817387Y-113769303D01*
X129966609Y-113914669D01*
X129971405Y-113917874D01*
X129971408Y-113917876D01*
X130041123Y-113964458D01*
X130139823Y-114030407D01*
X130145131Y-114032688D01*
X130145132Y-114032688D01*
X130325926Y-114110363D01*
X130325929Y-114110364D01*
X130331229Y-114112641D01*
X130336858Y-114113915D01*
X130336859Y-114113915D01*
X130528778Y-114157342D01*
X130528783Y-114157343D01*
X130534415Y-114158617D01*
X130540186Y-114158844D01*
X130540188Y-114158844D01*
X130602508Y-114161292D01*
X130742577Y-114166796D01*
X130845661Y-114151849D01*
X130943030Y-114137732D01*
X130943035Y-114137731D01*
X130948744Y-114136903D01*
X130954208Y-114135048D01*
X130954213Y-114135047D01*
X131140543Y-114071796D01*
X131146011Y-114069940D01*
X131327772Y-113968149D01*
X131487939Y-113834939D01*
X131621149Y-113674772D01*
X131722940Y-113493011D01*
X131749341Y-113415237D01*
X131788047Y-113301213D01*
X131788048Y-113301208D01*
X131789903Y-113295744D01*
X131790731Y-113290035D01*
X131790732Y-113290030D01*
X131819263Y-113093251D01*
X131819796Y-113089577D01*
X131821356Y-113030000D01*
X131802294Y-112822551D01*
X131745747Y-112622050D01*
X131653608Y-112435211D01*
X131528963Y-112268291D01*
X131375987Y-112126881D01*
X131199803Y-112015717D01*
X131006311Y-111938522D01*
X130801991Y-111897880D01*
X130796216Y-111897804D01*
X130796212Y-111897804D01*
X130691901Y-111896439D01*
X130593686Y-111895153D01*
X130587989Y-111896132D01*
X130587988Y-111896132D01*
X130530299Y-111906045D01*
X130388372Y-111930433D01*
X130192925Y-112002537D01*
X130013891Y-112109051D01*
X129857266Y-112246407D01*
X129853699Y-112250932D01*
X129853694Y-112250937D01*
X129742428Y-112392078D01*
X129728294Y-112410007D01*
X129725603Y-112415123D01*
X129725601Y-112415125D01*
X129633988Y-112589253D01*
X129631296Y-112594370D01*
X129569520Y-112793322D01*
X129545034Y-113000201D01*
X112368500Y-113000201D01*
X112368500Y-109041156D01*
X113987001Y-109041156D01*
X113987371Y-109047977D01*
X113992895Y-109098839D01*
X113996521Y-109114091D01*
X114041676Y-109234541D01*
X114050214Y-109250136D01*
X114126715Y-109352211D01*
X114139276Y-109364772D01*
X114241351Y-109441273D01*
X114256946Y-109449811D01*
X114377394Y-109494965D01*
X114392649Y-109498592D01*
X114443514Y-109504118D01*
X114450328Y-109504487D01*
X114802885Y-109504487D01*
X114818124Y-109500012D01*
X114819329Y-109498622D01*
X114821000Y-109490939D01*
X114821000Y-109486371D01*
X115329000Y-109486371D01*
X115333475Y-109501610D01*
X115334865Y-109502815D01*
X115342548Y-109504486D01*
X115699669Y-109504486D01*
X115706490Y-109504116D01*
X115757352Y-109498592D01*
X115772604Y-109494966D01*
X115893054Y-109449811D01*
X115908649Y-109441273D01*
X116010724Y-109364772D01*
X116023285Y-109352211D01*
X116099786Y-109250136D01*
X116108324Y-109234541D01*
X116153478Y-109114093D01*
X116157105Y-109098838D01*
X116162631Y-109047973D01*
X116162813Y-109044621D01*
X116936500Y-109044621D01*
X116943255Y-109106803D01*
X116994385Y-109243192D01*
X117081739Y-109359748D01*
X117198295Y-109447102D01*
X117334684Y-109498232D01*
X117396866Y-109504987D01*
X118495406Y-109504987D01*
X118563527Y-109524989D01*
X118584501Y-109541892D01*
X118654856Y-109612247D01*
X118662400Y-109620537D01*
X118666513Y-109627018D01*
X118672290Y-109632443D01*
X118716180Y-109673658D01*
X118719022Y-109676413D01*
X118738743Y-109696134D01*
X118741938Y-109698612D01*
X118750960Y-109706318D01*
X118783192Y-109736586D01*
X118790141Y-109740406D01*
X118800945Y-109746346D01*
X118817469Y-109757199D01*
X118833472Y-109769613D01*
X118874056Y-109787176D01*
X118884686Y-109792383D01*
X118923453Y-109813695D01*
X118931130Y-109815666D01*
X118931135Y-109815668D01*
X118943071Y-109818732D01*
X118961779Y-109825137D01*
X118980368Y-109833181D01*
X118988193Y-109834420D01*
X118988195Y-109834421D01*
X119024032Y-109840097D01*
X119035653Y-109842504D01*
X119067472Y-109850673D01*
X119078483Y-109853500D01*
X119098744Y-109853500D01*
X119118453Y-109855051D01*
X119138456Y-109858219D01*
X119146348Y-109857473D01*
X119151575Y-109856979D01*
X119182467Y-109854059D01*
X119194324Y-109853500D01*
X123301646Y-109853500D01*
X123369767Y-109873502D01*
X123404858Y-109907228D01*
X123492251Y-110032038D01*
X123647962Y-110187749D01*
X123828346Y-110314056D01*
X124027924Y-110407120D01*
X124240629Y-110464115D01*
X124460000Y-110483307D01*
X124679371Y-110464115D01*
X124892076Y-110407120D01*
X125091654Y-110314056D01*
X125272038Y-110187749D01*
X125427749Y-110032038D01*
X125515142Y-109907228D01*
X125570598Y-109862901D01*
X125618354Y-109853500D01*
X129334233Y-109853500D01*
X129345416Y-109854027D01*
X129352909Y-109855702D01*
X129360835Y-109855453D01*
X129360836Y-109855453D01*
X129420986Y-109853562D01*
X129424945Y-109853500D01*
X129452856Y-109853500D01*
X129456791Y-109853003D01*
X129456856Y-109852995D01*
X129468693Y-109852062D01*
X129512889Y-109850673D01*
X129514196Y-109850293D01*
X129581709Y-109859016D01*
X129636025Y-109904736D01*
X129657000Y-109972564D01*
X129642522Y-110033033D01*
X129631296Y-110054370D01*
X129569520Y-110253322D01*
X129545034Y-110460201D01*
X129558659Y-110668078D01*
X129609938Y-110869991D01*
X129697155Y-111059178D01*
X129817387Y-111229303D01*
X129966609Y-111374669D01*
X129971405Y-111377874D01*
X129971408Y-111377876D01*
X130003416Y-111399263D01*
X130139823Y-111490407D01*
X130145131Y-111492688D01*
X130145132Y-111492688D01*
X130325926Y-111570363D01*
X130325929Y-111570364D01*
X130331229Y-111572641D01*
X130336858Y-111573915D01*
X130336859Y-111573915D01*
X130528778Y-111617342D01*
X130528783Y-111617343D01*
X130534415Y-111618617D01*
X130540186Y-111618844D01*
X130540188Y-111618844D01*
X130602508Y-111621292D01*
X130742577Y-111626796D01*
X130845661Y-111611849D01*
X130943030Y-111597732D01*
X130943035Y-111597731D01*
X130948744Y-111596903D01*
X130954208Y-111595048D01*
X130954213Y-111595047D01*
X131140543Y-111531796D01*
X131146011Y-111529940D01*
X131327772Y-111428149D01*
X131487939Y-111294939D01*
X131621149Y-111134772D01*
X131722940Y-110953011D01*
X131749341Y-110875237D01*
X131788047Y-110761213D01*
X131788048Y-110761208D01*
X131789903Y-110755744D01*
X131790731Y-110750035D01*
X131790732Y-110750030D01*
X131819263Y-110553251D01*
X131819796Y-110549577D01*
X131821356Y-110490000D01*
X131802294Y-110282551D01*
X131745747Y-110082050D01*
X131653608Y-109895211D01*
X131620989Y-109851528D01*
X131532416Y-109732915D01*
X131532415Y-109732914D01*
X131528963Y-109728291D01*
X131375987Y-109586881D01*
X131288721Y-109531820D01*
X131204683Y-109478796D01*
X131199803Y-109475717D01*
X131006311Y-109398522D01*
X130801991Y-109357880D01*
X130796216Y-109357804D01*
X130796212Y-109357804D01*
X130691901Y-109356439D01*
X130593686Y-109355153D01*
X130587989Y-109356132D01*
X130587988Y-109356132D01*
X130477493Y-109375119D01*
X130406969Y-109366942D01*
X130352061Y-109321935D01*
X130330202Y-109254388D01*
X130348332Y-109185745D01*
X130367060Y-109161844D01*
X130416678Y-109112226D01*
X130478990Y-109078200D01*
X130522815Y-109078396D01*
X130523053Y-109076588D01*
X130528782Y-109077342D01*
X130534415Y-109078617D01*
X130540183Y-109078844D01*
X130540186Y-109078844D01*
X130619662Y-109081966D01*
X130742577Y-109086796D01*
X130845660Y-109071850D01*
X130943030Y-109057732D01*
X130943035Y-109057731D01*
X130948744Y-109056903D01*
X130954208Y-109055048D01*
X130954213Y-109055047D01*
X131140543Y-108991796D01*
X131146011Y-108989940D01*
X131327772Y-108888149D01*
X131487939Y-108754939D01*
X131621149Y-108594772D01*
X131722940Y-108413011D01*
X131745568Y-108346352D01*
X131788047Y-108221213D01*
X131788048Y-108221208D01*
X131789903Y-108215744D01*
X131790731Y-108210035D01*
X131790732Y-108210030D01*
X131816417Y-108032880D01*
X131819796Y-108009577D01*
X131821356Y-107950000D01*
X131802294Y-107742551D01*
X131795813Y-107719569D01*
X131747316Y-107547614D01*
X131745747Y-107542050D01*
X131653608Y-107355211D01*
X131574769Y-107249632D01*
X131532416Y-107192915D01*
X131532415Y-107192914D01*
X131528963Y-107188291D01*
X131375987Y-107046881D01*
X131337832Y-107022807D01*
X131204683Y-106938796D01*
X131199803Y-106935717D01*
X131006311Y-106858522D01*
X130801991Y-106817880D01*
X130796216Y-106817804D01*
X130796212Y-106817804D01*
X130691901Y-106816439D01*
X130593686Y-106815153D01*
X130587989Y-106816132D01*
X130587988Y-106816132D01*
X130419611Y-106845065D01*
X130388372Y-106850433D01*
X130192925Y-106922537D01*
X130187964Y-106925489D01*
X130187963Y-106925489D01*
X130031216Y-107018744D01*
X130013891Y-107029051D01*
X129857266Y-107166407D01*
X129853699Y-107170932D01*
X129853694Y-107170937D01*
X129731872Y-107325468D01*
X129728294Y-107330007D01*
X129725603Y-107335123D01*
X129725601Y-107335125D01*
X129634691Y-107507917D01*
X129631296Y-107514370D01*
X129569520Y-107713322D01*
X129545034Y-107920201D01*
X129557657Y-108112781D01*
X129558023Y-108118371D01*
X129542519Y-108187654D01*
X129521388Y-108215707D01*
X129187500Y-108549595D01*
X129125188Y-108583621D01*
X129098405Y-108586500D01*
X125618354Y-108586500D01*
X125550233Y-108566498D01*
X125515141Y-108532771D01*
X125492633Y-108500625D01*
X125468294Y-108465866D01*
X125430908Y-108412473D01*
X125430906Y-108412470D01*
X125427749Y-108407962D01*
X125272038Y-108252251D01*
X125253310Y-108239137D01*
X125179784Y-108187654D01*
X125091654Y-108125944D01*
X124892076Y-108032880D01*
X124679371Y-107975885D01*
X124460000Y-107956693D01*
X124240629Y-107975885D01*
X124027924Y-108032880D01*
X123984234Y-108053253D01*
X123833334Y-108123618D01*
X123833329Y-108123621D01*
X123828347Y-108125944D01*
X123823840Y-108129100D01*
X123823838Y-108129101D01*
X123652473Y-108249092D01*
X123652470Y-108249094D01*
X123647962Y-108252251D01*
X123492251Y-108407962D01*
X123489094Y-108412470D01*
X123489092Y-108412473D01*
X123451706Y-108465866D01*
X123427368Y-108500625D01*
X123404859Y-108532771D01*
X123349402Y-108577099D01*
X123301646Y-108586500D01*
X119473108Y-108586500D01*
X119404987Y-108566498D01*
X119384013Y-108549595D01*
X119150405Y-108315987D01*
X119116379Y-108253675D01*
X119113500Y-108226892D01*
X119113500Y-107128353D01*
X119106745Y-107066171D01*
X119055615Y-106929782D01*
X118968261Y-106813226D01*
X118851705Y-106725872D01*
X118715316Y-106674742D01*
X118653134Y-106667987D01*
X117396866Y-106667987D01*
X117334684Y-106674742D01*
X117198295Y-106725872D01*
X117081739Y-106813226D01*
X116994385Y-106929782D01*
X116943255Y-107066171D01*
X116936500Y-107128353D01*
X116936500Y-109044621D01*
X116162813Y-109044621D01*
X116163000Y-109041159D01*
X116163000Y-108358602D01*
X116158525Y-108343363D01*
X116157135Y-108342158D01*
X116149452Y-108340487D01*
X115347115Y-108340487D01*
X115331876Y-108344962D01*
X115330671Y-108346352D01*
X115329000Y-108354035D01*
X115329000Y-109486371D01*
X114821000Y-109486371D01*
X114821000Y-108358602D01*
X114816525Y-108343363D01*
X114815135Y-108342158D01*
X114807452Y-108340487D01*
X114005116Y-108340487D01*
X113989877Y-108344962D01*
X113988672Y-108346352D01*
X113987001Y-108354035D01*
X113987001Y-109041156D01*
X112368500Y-109041156D01*
X112368500Y-107814372D01*
X113987000Y-107814372D01*
X113991475Y-107829611D01*
X113992865Y-107830816D01*
X114000548Y-107832487D01*
X114802885Y-107832487D01*
X114818124Y-107828012D01*
X114819329Y-107826622D01*
X114821000Y-107818939D01*
X114821000Y-107814372D01*
X115329000Y-107814372D01*
X115333475Y-107829611D01*
X115334865Y-107830816D01*
X115342548Y-107832487D01*
X116144884Y-107832487D01*
X116160123Y-107828012D01*
X116161328Y-107826622D01*
X116162999Y-107818939D01*
X116162999Y-107131818D01*
X116162629Y-107124997D01*
X116157105Y-107074135D01*
X116153479Y-107058883D01*
X116108324Y-106938433D01*
X116099786Y-106922838D01*
X116023285Y-106820763D01*
X116010724Y-106808202D01*
X115908649Y-106731701D01*
X115893054Y-106723163D01*
X115772606Y-106678009D01*
X115757351Y-106674382D01*
X115706486Y-106668856D01*
X115699672Y-106668487D01*
X115347115Y-106668487D01*
X115331876Y-106672962D01*
X115330671Y-106674352D01*
X115329000Y-106682035D01*
X115329000Y-107814372D01*
X114821000Y-107814372D01*
X114821000Y-106686603D01*
X114816525Y-106671364D01*
X114815135Y-106670159D01*
X114807452Y-106668488D01*
X114450331Y-106668488D01*
X114443510Y-106668858D01*
X114392648Y-106674382D01*
X114377396Y-106678008D01*
X114256946Y-106723163D01*
X114241351Y-106731701D01*
X114139276Y-106808202D01*
X114126715Y-106820763D01*
X114050214Y-106922838D01*
X114041676Y-106938433D01*
X113996522Y-107058881D01*
X113992895Y-107074136D01*
X113987369Y-107125001D01*
X113987000Y-107131815D01*
X113987000Y-107814372D01*
X112368500Y-107814372D01*
X112368500Y-105726990D01*
X113967001Y-105726990D01*
X113967371Y-105733811D01*
X113972895Y-105784673D01*
X113976521Y-105799925D01*
X114021676Y-105920375D01*
X114030214Y-105935970D01*
X114106715Y-106038045D01*
X114119276Y-106050606D01*
X114221351Y-106127107D01*
X114236946Y-106135645D01*
X114357394Y-106180799D01*
X114372649Y-106184426D01*
X114423514Y-106189952D01*
X114430328Y-106190321D01*
X114782885Y-106190321D01*
X114798124Y-106185846D01*
X114799329Y-106184456D01*
X114801000Y-106176773D01*
X114801000Y-106172205D01*
X115309000Y-106172205D01*
X115313475Y-106187444D01*
X115314865Y-106188649D01*
X115322548Y-106190320D01*
X115679669Y-106190320D01*
X115686490Y-106189950D01*
X115737352Y-106184426D01*
X115752604Y-106180800D01*
X115873054Y-106135645D01*
X115888649Y-106127107D01*
X115990724Y-106050606D01*
X116003285Y-106038045D01*
X116079786Y-105935970D01*
X116088324Y-105920375D01*
X116133478Y-105799927D01*
X116137105Y-105784672D01*
X116142631Y-105733807D01*
X116142813Y-105730455D01*
X116916500Y-105730455D01*
X116923255Y-105792637D01*
X116974385Y-105929026D01*
X117061739Y-106045582D01*
X117178295Y-106132936D01*
X117314684Y-106184066D01*
X117376866Y-106190821D01*
X118633134Y-106190821D01*
X118695316Y-106184066D01*
X118831705Y-106132936D01*
X118948261Y-106045582D01*
X119035615Y-105929026D01*
X119086745Y-105792637D01*
X119093500Y-105730455D01*
X119093500Y-105079500D01*
X119113502Y-105011379D01*
X119167158Y-104964886D01*
X119219500Y-104953500D01*
X123301646Y-104953500D01*
X123369767Y-104973502D01*
X123404858Y-105007228D01*
X123492251Y-105132038D01*
X123647962Y-105287749D01*
X123652471Y-105290906D01*
X123652473Y-105290908D01*
X123687771Y-105315624D01*
X123828346Y-105414056D01*
X124027924Y-105507120D01*
X124240629Y-105564115D01*
X124460000Y-105583307D01*
X124679371Y-105564115D01*
X124892076Y-105507120D01*
X125091654Y-105414056D01*
X125232229Y-105315624D01*
X125267527Y-105290908D01*
X125267529Y-105290906D01*
X125272038Y-105287749D01*
X125427749Y-105132038D01*
X125515142Y-105007228D01*
X125570598Y-104962901D01*
X125618354Y-104953500D01*
X129278405Y-104953500D01*
X129346526Y-104973502D01*
X129367501Y-104990405D01*
X129524284Y-105147189D01*
X129558309Y-105209501D01*
X129560315Y-105251093D01*
X129545034Y-105380201D01*
X129558659Y-105588078D01*
X129609938Y-105789991D01*
X129697155Y-105979178D01*
X129817387Y-106149303D01*
X129853948Y-106184919D01*
X129944844Y-106273466D01*
X129966609Y-106294669D01*
X129971405Y-106297874D01*
X129971408Y-106297876D01*
X130041123Y-106344458D01*
X130139823Y-106410407D01*
X130145131Y-106412688D01*
X130145132Y-106412688D01*
X130325926Y-106490363D01*
X130325929Y-106490364D01*
X130331229Y-106492641D01*
X130336858Y-106493915D01*
X130336859Y-106493915D01*
X130528778Y-106537342D01*
X130528783Y-106537343D01*
X130534415Y-106538617D01*
X130540186Y-106538844D01*
X130540188Y-106538844D01*
X130602508Y-106541292D01*
X130742577Y-106546796D01*
X130845660Y-106531850D01*
X130943030Y-106517732D01*
X130943035Y-106517731D01*
X130948744Y-106516903D01*
X130954208Y-106515048D01*
X130954213Y-106515047D01*
X131140543Y-106451796D01*
X131146011Y-106449940D01*
X131327772Y-106348149D01*
X131487939Y-106214939D01*
X131621149Y-106054772D01*
X131722940Y-105873011D01*
X131750223Y-105792637D01*
X131788047Y-105681213D01*
X131788048Y-105681208D01*
X131789903Y-105675744D01*
X131790731Y-105670035D01*
X131790732Y-105670030D01*
X131814352Y-105507120D01*
X131819796Y-105469577D01*
X131821356Y-105410000D01*
X131802294Y-105202551D01*
X131745747Y-105002050D01*
X131653608Y-104815211D01*
X131528963Y-104648291D01*
X131375987Y-104506881D01*
X131199803Y-104395717D01*
X131006311Y-104318522D01*
X130801991Y-104277880D01*
X130796216Y-104277804D01*
X130796212Y-104277804D01*
X130691901Y-104276439D01*
X130593686Y-104275153D01*
X130587989Y-104276132D01*
X130587988Y-104276132D01*
X130530298Y-104286045D01*
X130459774Y-104277868D01*
X130419865Y-104250960D01*
X130367735Y-104198830D01*
X130333709Y-104136518D01*
X130338774Y-104065703D01*
X130381321Y-104008867D01*
X130447841Y-103984056D01*
X130484638Y-103986842D01*
X130528843Y-103996845D01*
X130540253Y-103998347D01*
X130736783Y-104006068D01*
X130748265Y-104005466D01*
X130942905Y-103977245D01*
X130954101Y-103974557D01*
X131140343Y-103911336D01*
X131150840Y-103906662D01*
X131269401Y-103840266D01*
X131279264Y-103830189D01*
X131276309Y-103822519D01*
X130324922Y-102871132D01*
X131047408Y-102871132D01*
X131047539Y-102872965D01*
X131051790Y-102879580D01*
X131631603Y-103459393D01*
X131643983Y-103466153D01*
X131650563Y-103461227D01*
X131719662Y-103337840D01*
X131724336Y-103327343D01*
X131787557Y-103141101D01*
X131790245Y-103129905D01*
X131818762Y-102933224D01*
X131819392Y-102925843D01*
X131820757Y-102873704D01*
X131820514Y-102866305D01*
X131802330Y-102668397D01*
X131800233Y-102657083D01*
X131746846Y-102467789D01*
X131742724Y-102457050D01*
X131655736Y-102280656D01*
X131654577Y-102278765D01*
X131645732Y-102272126D01*
X131633312Y-102278898D01*
X131055022Y-102857188D01*
X131047408Y-102871132D01*
X130324922Y-102871132D01*
X129733031Y-102279241D01*
X129720651Y-102272481D01*
X129714685Y-102276947D01*
X129634452Y-102429445D01*
X129630047Y-102440079D01*
X129571724Y-102627910D01*
X129569332Y-102639164D01*
X129546215Y-102834479D01*
X129545914Y-102845980D01*
X129558777Y-103042233D01*
X129560577Y-103053601D01*
X129608991Y-103244228D01*
X129612829Y-103255066D01*
X129695172Y-103433682D01*
X129700920Y-103443638D01*
X129729745Y-103484424D01*
X129752726Y-103551599D01*
X129735742Y-103620534D01*
X129684185Y-103669344D01*
X129622891Y-103683083D01*
X129620886Y-103683020D01*
X129613057Y-103681780D01*
X129605165Y-103682526D01*
X129569039Y-103685941D01*
X129557181Y-103686500D01*
X125618354Y-103686500D01*
X125550233Y-103666498D01*
X125515141Y-103632771D01*
X125509187Y-103624267D01*
X125451319Y-103541623D01*
X125430908Y-103512473D01*
X125430906Y-103512470D01*
X125427749Y-103507962D01*
X125272038Y-103352251D01*
X125091654Y-103225944D01*
X124892076Y-103132880D01*
X124679371Y-103075885D01*
X124460000Y-103056693D01*
X124240629Y-103075885D01*
X124027924Y-103132880D01*
X123945279Y-103171418D01*
X123833334Y-103223618D01*
X123833329Y-103223621D01*
X123828347Y-103225944D01*
X123823840Y-103229100D01*
X123823838Y-103229101D01*
X123652473Y-103349092D01*
X123652470Y-103349094D01*
X123647962Y-103352251D01*
X123492251Y-103507962D01*
X123489094Y-103512470D01*
X123489092Y-103512473D01*
X123468681Y-103541623D01*
X123410814Y-103624267D01*
X123404859Y-103632771D01*
X123349402Y-103677099D01*
X123301646Y-103686500D01*
X119147637Y-103686500D01*
X119079516Y-103666498D01*
X119037986Y-103621942D01*
X119035615Y-103615616D01*
X118948261Y-103499060D01*
X118831705Y-103411706D01*
X118695316Y-103360576D01*
X118633134Y-103353821D01*
X117376866Y-103353821D01*
X117314684Y-103360576D01*
X117178295Y-103411706D01*
X117061739Y-103499060D01*
X116974385Y-103615616D01*
X116923255Y-103752005D01*
X116916500Y-103814187D01*
X116916500Y-105730455D01*
X116142813Y-105730455D01*
X116143000Y-105726993D01*
X116143000Y-105044436D01*
X116138525Y-105029197D01*
X116137135Y-105027992D01*
X116129452Y-105026321D01*
X115327115Y-105026321D01*
X115311876Y-105030796D01*
X115310671Y-105032186D01*
X115309000Y-105039869D01*
X115309000Y-106172205D01*
X114801000Y-106172205D01*
X114801000Y-105044436D01*
X114796525Y-105029197D01*
X114795135Y-105027992D01*
X114787452Y-105026321D01*
X113985116Y-105026321D01*
X113969877Y-105030796D01*
X113968672Y-105032186D01*
X113967001Y-105039869D01*
X113967001Y-105726990D01*
X112368500Y-105726990D01*
X112368500Y-104500206D01*
X113967000Y-104500206D01*
X113971475Y-104515445D01*
X113972865Y-104516650D01*
X113980548Y-104518321D01*
X114782885Y-104518321D01*
X114798124Y-104513846D01*
X114799329Y-104512456D01*
X114801000Y-104504773D01*
X114801000Y-104500206D01*
X115309000Y-104500206D01*
X115313475Y-104515445D01*
X115314865Y-104516650D01*
X115322548Y-104518321D01*
X116124884Y-104518321D01*
X116140123Y-104513846D01*
X116141328Y-104512456D01*
X116142999Y-104504773D01*
X116142999Y-103817652D01*
X116142629Y-103810831D01*
X116137105Y-103759969D01*
X116133479Y-103744717D01*
X116088324Y-103624267D01*
X116079786Y-103608672D01*
X116003285Y-103506597D01*
X115990724Y-103494036D01*
X115888649Y-103417535D01*
X115873054Y-103408997D01*
X115752606Y-103363843D01*
X115737351Y-103360216D01*
X115686486Y-103354690D01*
X115679672Y-103354321D01*
X115327115Y-103354321D01*
X115311876Y-103358796D01*
X115310671Y-103360186D01*
X115309000Y-103367869D01*
X115309000Y-104500206D01*
X114801000Y-104500206D01*
X114801000Y-103372437D01*
X114796525Y-103357198D01*
X114795135Y-103355993D01*
X114787452Y-103354322D01*
X114430331Y-103354322D01*
X114423510Y-103354692D01*
X114372648Y-103360216D01*
X114357396Y-103363842D01*
X114236946Y-103408997D01*
X114221351Y-103417535D01*
X114119276Y-103494036D01*
X114106715Y-103506597D01*
X114030214Y-103608672D01*
X114021676Y-103624267D01*
X113976522Y-103744715D01*
X113972895Y-103759970D01*
X113967369Y-103810835D01*
X113967000Y-103817649D01*
X113967000Y-104500206D01*
X112368500Y-104500206D01*
X112368500Y-101910436D01*
X130087547Y-101910436D01*
X130091033Y-101918823D01*
X130670188Y-102497978D01*
X130684132Y-102505592D01*
X130685965Y-102505461D01*
X130692580Y-102501210D01*
X131271407Y-101922383D01*
X131278167Y-101910003D01*
X131272137Y-101901948D01*
X131204459Y-101859246D01*
X131194211Y-101854025D01*
X131011531Y-101781143D01*
X131000504Y-101777876D01*
X130807605Y-101739506D01*
X130796159Y-101738303D01*
X130599507Y-101735730D01*
X130588027Y-101736633D01*
X130394199Y-101769938D01*
X130383079Y-101772918D01*
X130198557Y-101840992D01*
X130188179Y-101845942D01*
X130097146Y-101900101D01*
X130087547Y-101910436D01*
X112368500Y-101910436D01*
X112368500Y-97414669D01*
X123102001Y-97414669D01*
X123102371Y-97421490D01*
X123107895Y-97472352D01*
X123111521Y-97487604D01*
X123156676Y-97608054D01*
X123165214Y-97623649D01*
X123241715Y-97725724D01*
X123254276Y-97738285D01*
X123356351Y-97814786D01*
X123371946Y-97823324D01*
X123492394Y-97868478D01*
X123507649Y-97872105D01*
X123558514Y-97877631D01*
X123565328Y-97878000D01*
X124187885Y-97878000D01*
X124203124Y-97873525D01*
X124204329Y-97872135D01*
X124206000Y-97864452D01*
X124206000Y-96792115D01*
X124201525Y-96776876D01*
X124200135Y-96775671D01*
X124192452Y-96774000D01*
X123120116Y-96774000D01*
X123104877Y-96778475D01*
X123103672Y-96779865D01*
X123102001Y-96787548D01*
X123102001Y-97414669D01*
X112368500Y-97414669D01*
X112368500Y-90140201D01*
X129545034Y-90140201D01*
X129558659Y-90348078D01*
X129609938Y-90549991D01*
X129697155Y-90739178D01*
X129817387Y-90909303D01*
X129821521Y-90913330D01*
X129919341Y-91008622D01*
X129966609Y-91054669D01*
X129971405Y-91057874D01*
X129971408Y-91057876D01*
X130018966Y-91089653D01*
X130139823Y-91170407D01*
X130145131Y-91172688D01*
X130145132Y-91172688D01*
X130325926Y-91250363D01*
X130325929Y-91250364D01*
X130331229Y-91252641D01*
X130336858Y-91253915D01*
X130336859Y-91253915D01*
X130528778Y-91297342D01*
X130528783Y-91297343D01*
X130534415Y-91298617D01*
X130540186Y-91298844D01*
X130540188Y-91298844D01*
X130602508Y-91301292D01*
X130742577Y-91306796D01*
X130851409Y-91291016D01*
X130943030Y-91277732D01*
X130943035Y-91277731D01*
X130948744Y-91276903D01*
X130954208Y-91275048D01*
X130954213Y-91275047D01*
X131140543Y-91211796D01*
X131146011Y-91209940D01*
X131327772Y-91108149D01*
X131487939Y-90974939D01*
X131621149Y-90814772D01*
X131722940Y-90633011D01*
X131749341Y-90555237D01*
X131788047Y-90441213D01*
X131788048Y-90441208D01*
X131789903Y-90435744D01*
X131790731Y-90430035D01*
X131790732Y-90430030D01*
X131819263Y-90233251D01*
X131819796Y-90229577D01*
X131821356Y-90170000D01*
X131802294Y-89962551D01*
X131745747Y-89762050D01*
X131653608Y-89575211D01*
X131528963Y-89408291D01*
X131375987Y-89266881D01*
X131304511Y-89221783D01*
X131204683Y-89158796D01*
X131199803Y-89155717D01*
X131006311Y-89078522D01*
X130801991Y-89037880D01*
X130796216Y-89037804D01*
X130796212Y-89037804D01*
X130691901Y-89036439D01*
X130593686Y-89035153D01*
X130587989Y-89036132D01*
X130587988Y-89036132D01*
X130511502Y-89049275D01*
X130388372Y-89070433D01*
X130192925Y-89142537D01*
X130187964Y-89145489D01*
X130187963Y-89145489D01*
X130041185Y-89232813D01*
X130013891Y-89249051D01*
X129857266Y-89386407D01*
X129853699Y-89390932D01*
X129853694Y-89390937D01*
X129766036Y-89502131D01*
X129728294Y-89550007D01*
X129725603Y-89555123D01*
X129725601Y-89555125D01*
X129661321Y-89677301D01*
X129631296Y-89734370D01*
X129629583Y-89739887D01*
X129579806Y-89900197D01*
X129569520Y-89933322D01*
X129545034Y-90140201D01*
X112368500Y-90140201D01*
X112368500Y-87600201D01*
X129545034Y-87600201D01*
X129558659Y-87808078D01*
X129609938Y-88009991D01*
X129697155Y-88199178D01*
X129817387Y-88369303D01*
X129821521Y-88373330D01*
X129956607Y-88504925D01*
X129966609Y-88514669D01*
X129971405Y-88517874D01*
X129971408Y-88517876D01*
X130032904Y-88558966D01*
X130139823Y-88630407D01*
X130145131Y-88632688D01*
X130145132Y-88632688D01*
X130325926Y-88710363D01*
X130325929Y-88710364D01*
X130331229Y-88712641D01*
X130336858Y-88713915D01*
X130336859Y-88713915D01*
X130528778Y-88757342D01*
X130528783Y-88757343D01*
X130534415Y-88758617D01*
X130540186Y-88758844D01*
X130540188Y-88758844D01*
X130599620Y-88761179D01*
X130742577Y-88766796D01*
X130845661Y-88751849D01*
X130943030Y-88737732D01*
X130943035Y-88737731D01*
X130948744Y-88736903D01*
X130954208Y-88735048D01*
X130954213Y-88735047D01*
X131140543Y-88671796D01*
X131146011Y-88669940D01*
X131327772Y-88568149D01*
X131359444Y-88541808D01*
X131483501Y-88438630D01*
X131487939Y-88434939D01*
X131621149Y-88274772D01*
X131722940Y-88093011D01*
X131749341Y-88015237D01*
X131788047Y-87901213D01*
X131788048Y-87901208D01*
X131789903Y-87895744D01*
X131790731Y-87890035D01*
X131790732Y-87890030D01*
X131817106Y-87708127D01*
X131819796Y-87689577D01*
X131821356Y-87630000D01*
X131802294Y-87422551D01*
X131745747Y-87222050D01*
X131653608Y-87035211D01*
X131648822Y-87028801D01*
X131532416Y-86872915D01*
X131532415Y-86872914D01*
X131528963Y-86868291D01*
X131375987Y-86726881D01*
X131199803Y-86615717D01*
X131006311Y-86538522D01*
X130801991Y-86497880D01*
X130796216Y-86497804D01*
X130796212Y-86497804D01*
X130691901Y-86496439D01*
X130593686Y-86495153D01*
X130587989Y-86496132D01*
X130587988Y-86496132D01*
X130394069Y-86529454D01*
X130388372Y-86530433D01*
X130192925Y-86602537D01*
X130013891Y-86709051D01*
X129857266Y-86846407D01*
X129853699Y-86850932D01*
X129853694Y-86850937D01*
X129738942Y-86996500D01*
X129728294Y-87010007D01*
X129725603Y-87015123D01*
X129725601Y-87015125D01*
X129640773Y-87176357D01*
X129631296Y-87194370D01*
X129629583Y-87199887D01*
X129579806Y-87360197D01*
X129569520Y-87393322D01*
X129545034Y-87600201D01*
X112368500Y-87600201D01*
X112368500Y-69314500D01*
X112388502Y-69246379D01*
X112442158Y-69199886D01*
X112494500Y-69188500D01*
X132829096Y-69188500D01*
X132897217Y-69208502D01*
G37*
%TD.AperFunction*%
%TA.AperFunction,Conductor*%
G36*
X174913495Y-103404618D02*
G01*
X174962975Y-103455533D01*
X174974001Y-103497223D01*
X174976056Y-103496897D01*
X174977297Y-103504731D01*
X174977546Y-103512651D01*
X174983197Y-103532101D01*
X174987206Y-103551462D01*
X174989745Y-103571559D01*
X174992664Y-103578930D01*
X174992664Y-103578932D01*
X175006023Y-103612674D01*
X175009868Y-103623904D01*
X175019990Y-103658745D01*
X175022201Y-103666355D01*
X175026234Y-103673174D01*
X175026236Y-103673179D01*
X175032512Y-103683790D01*
X175041207Y-103701538D01*
X175048667Y-103720379D01*
X175053329Y-103726795D01*
X175053329Y-103726796D01*
X175074655Y-103756149D01*
X175081171Y-103766069D01*
X175103677Y-103804124D01*
X175117998Y-103818445D01*
X175130838Y-103833478D01*
X175142747Y-103849869D01*
X175176824Y-103878060D01*
X175185603Y-103886050D01*
X177065658Y-105766105D01*
X177073202Y-105774395D01*
X177077315Y-105780876D01*
X177083092Y-105786301D01*
X177126982Y-105827516D01*
X177129824Y-105830271D01*
X177141444Y-105841891D01*
X177175470Y-105904203D01*
X177170405Y-105975018D01*
X177147573Y-106013499D01*
X177136416Y-106026375D01*
X177134158Y-106041441D01*
X177142006Y-106101052D01*
X177140235Y-106101285D01*
X177140234Y-106146365D01*
X177141519Y-106146534D01*
X177133098Y-106210501D01*
X177126500Y-106260614D01*
X177126500Y-106487102D01*
X177127038Y-106491188D01*
X177127038Y-106491189D01*
X177141519Y-106601182D01*
X177139974Y-106601385D01*
X177139974Y-106646331D01*
X177141519Y-106646534D01*
X177129531Y-106737595D01*
X177126500Y-106760614D01*
X177126500Y-106987102D01*
X177125502Y-106987102D01*
X177121667Y-107022807D01*
X177110000Y-107063435D01*
X177110000Y-107074082D01*
X177089998Y-107142203D01*
X177036342Y-107188696D01*
X176966068Y-107198800D01*
X176907297Y-107174045D01*
X176856094Y-107134756D01*
X176814226Y-107077418D01*
X176811901Y-107070291D01*
X176805956Y-107050045D01*
X176792417Y-107048016D01*
X176732806Y-107055864D01*
X176732573Y-107054093D01*
X176687493Y-107054092D01*
X176687324Y-107055377D01*
X176577331Y-107040896D01*
X176577330Y-107040896D01*
X176573244Y-107040358D01*
X176346756Y-107040358D01*
X176342670Y-107040896D01*
X176342669Y-107040896D01*
X176232676Y-107055377D01*
X176232473Y-107053832D01*
X176187527Y-107053832D01*
X176187324Y-107055377D01*
X176077331Y-107040896D01*
X176077330Y-107040896D01*
X176073244Y-107040358D01*
X175846756Y-107040358D01*
X175842670Y-107040896D01*
X175842669Y-107040896D01*
X175732676Y-107055377D01*
X175732473Y-107053832D01*
X175687527Y-107053832D01*
X175687324Y-107055377D01*
X175577331Y-107040896D01*
X175577330Y-107040896D01*
X175573244Y-107040358D01*
X175346756Y-107040358D01*
X175342670Y-107040896D01*
X175342669Y-107040896D01*
X175232676Y-107055377D01*
X175232473Y-107053832D01*
X175187527Y-107053832D01*
X175187324Y-107055377D01*
X175077331Y-107040896D01*
X175077330Y-107040896D01*
X175073244Y-107040358D01*
X174846756Y-107040358D01*
X174842670Y-107040896D01*
X174842669Y-107040896D01*
X174732676Y-107055377D01*
X174732473Y-107053832D01*
X174687527Y-107053832D01*
X174687324Y-107055377D01*
X174577331Y-107040896D01*
X174577330Y-107040896D01*
X174573244Y-107040358D01*
X174346756Y-107040358D01*
X174342670Y-107040896D01*
X174342669Y-107040896D01*
X174232676Y-107055377D01*
X174232473Y-107053832D01*
X174187527Y-107053832D01*
X174187324Y-107055377D01*
X174077331Y-107040896D01*
X174077330Y-107040896D01*
X174073244Y-107040358D01*
X173846756Y-107040358D01*
X173842670Y-107040896D01*
X173842669Y-107040896D01*
X173732676Y-107055377D01*
X173732473Y-107053832D01*
X173687527Y-107053832D01*
X173687324Y-107055377D01*
X173577331Y-107040896D01*
X173577330Y-107040896D01*
X173573244Y-107040358D01*
X173346756Y-107040358D01*
X173342670Y-107040896D01*
X173342669Y-107040896D01*
X173232676Y-107055377D01*
X173232473Y-107053832D01*
X173187527Y-107053832D01*
X173187324Y-107055377D01*
X173077331Y-107040896D01*
X173077330Y-107040896D01*
X173073244Y-107040358D01*
X172846756Y-107040358D01*
X172842670Y-107040896D01*
X172842669Y-107040896D01*
X172732676Y-107055377D01*
X172732473Y-107053832D01*
X172687527Y-107053832D01*
X172687324Y-107055377D01*
X172577331Y-107040896D01*
X172577330Y-107040896D01*
X172573244Y-107040358D01*
X172489320Y-107040358D01*
X172421199Y-107020356D01*
X172374706Y-106966700D01*
X172364602Y-106896426D01*
X172371202Y-106873089D01*
X172370995Y-106873029D01*
X172373206Y-106865419D01*
X172376354Y-106858145D01*
X172377593Y-106850322D01*
X172377596Y-106850312D01*
X172383272Y-106814476D01*
X172385678Y-106802856D01*
X172394701Y-106767711D01*
X172394701Y-106767710D01*
X172396673Y-106760030D01*
X172396673Y-106739776D01*
X172398224Y-106720065D01*
X172400153Y-106707886D01*
X172401393Y-106700057D01*
X172397232Y-106656038D01*
X172396673Y-106644181D01*
X172396673Y-105815113D01*
X172397200Y-105803930D01*
X172398875Y-105796437D01*
X172398557Y-105786301D01*
X172396735Y-105728360D01*
X172396673Y-105724401D01*
X172396673Y-105696490D01*
X172396168Y-105692490D01*
X172395235Y-105680647D01*
X172394902Y-105670030D01*
X172393846Y-105636456D01*
X172388195Y-105617004D01*
X172384187Y-105597652D01*
X172382640Y-105585409D01*
X172381647Y-105577549D01*
X172376518Y-105564594D01*
X172365373Y-105536443D01*
X172361528Y-105525216D01*
X172355595Y-105504795D01*
X172349191Y-105482753D01*
X172345157Y-105475931D01*
X172345154Y-105475925D01*
X172338879Y-105465314D01*
X172330183Y-105447564D01*
X172325645Y-105436102D01*
X172325642Y-105436097D01*
X172322725Y-105428729D01*
X172296746Y-105392971D01*
X172290230Y-105383053D01*
X172271748Y-105351803D01*
X172267715Y-105344983D01*
X172253391Y-105330659D01*
X172240549Y-105315624D01*
X172228645Y-105299239D01*
X172194579Y-105271057D01*
X172185800Y-105263068D01*
X171404337Y-104481605D01*
X171396797Y-104473319D01*
X171392685Y-104466840D01*
X171343033Y-104420214D01*
X171340192Y-104417460D01*
X171330405Y-104407673D01*
X171296379Y-104345361D01*
X171293500Y-104318578D01*
X171293500Y-104260614D01*
X171278481Y-104146534D01*
X171280026Y-104146331D01*
X171280026Y-104101385D01*
X171278481Y-104101182D01*
X171292962Y-103991189D01*
X171292962Y-103991188D01*
X171293500Y-103987102D01*
X171293500Y-103760614D01*
X171291407Y-103744715D01*
X171278912Y-103649804D01*
X171289852Y-103579655D01*
X171336980Y-103526557D01*
X171403834Y-103507358D01*
X174362167Y-103507358D01*
X174373350Y-103507885D01*
X174380843Y-103509560D01*
X174388769Y-103509311D01*
X174388770Y-103509311D01*
X174448920Y-103507420D01*
X174452879Y-103507358D01*
X174480790Y-103507358D01*
X174484725Y-103506861D01*
X174484790Y-103506853D01*
X174496627Y-103505920D01*
X174528885Y-103504906D01*
X174532904Y-103504780D01*
X174540823Y-103504531D01*
X174560277Y-103498879D01*
X174579634Y-103494871D01*
X174591864Y-103493326D01*
X174591865Y-103493326D01*
X174599731Y-103492332D01*
X174607102Y-103489413D01*
X174607104Y-103489413D01*
X174640846Y-103476054D01*
X174652076Y-103472209D01*
X174686917Y-103462087D01*
X174686918Y-103462087D01*
X174694527Y-103459876D01*
X174701346Y-103455843D01*
X174701351Y-103455841D01*
X174711962Y-103449565D01*
X174729710Y-103440870D01*
X174748551Y-103433410D01*
X174777476Y-103412395D01*
X174844344Y-103388537D01*
X174913495Y-103404618D01*
G37*
%TD.AperFunction*%
%TA.AperFunction,Conductor*%
G36*
X139718773Y-72958216D02*
G01*
X139739747Y-72975119D01*
X142839595Y-76074968D01*
X142873621Y-76137280D01*
X142876500Y-76164063D01*
X142876500Y-100142406D01*
X142856498Y-100210527D01*
X142839595Y-100231501D01*
X139886091Y-103185004D01*
X139823779Y-103219030D01*
X139752963Y-103213965D01*
X139696128Y-103171418D01*
X139671317Y-103104898D01*
X139672300Y-103077829D01*
X139672652Y-103075406D01*
X139693796Y-102929577D01*
X139695356Y-102870000D01*
X139676294Y-102662551D01*
X139671814Y-102646664D01*
X139625650Y-102482980D01*
X139619747Y-102462050D01*
X139527608Y-102275211D01*
X139414588Y-102123858D01*
X139406416Y-102112915D01*
X139406415Y-102112914D01*
X139402963Y-102108291D01*
X139249987Y-101966881D01*
X139245104Y-101963800D01*
X139078683Y-101858796D01*
X139073803Y-101855717D01*
X138880311Y-101778522D01*
X138690153Y-101740697D01*
X138681657Y-101739007D01*
X138675991Y-101737880D01*
X138670216Y-101737804D01*
X138670212Y-101737804D01*
X138565901Y-101736439D01*
X138467686Y-101735153D01*
X138387837Y-101748874D01*
X138317315Y-101740697D01*
X138262407Y-101695691D01*
X138240500Y-101624694D01*
X138240500Y-101577806D01*
X138260502Y-101509685D01*
X138314158Y-101463192D01*
X138384432Y-101453088D01*
X138394311Y-101454914D01*
X138402842Y-101456845D01*
X138414251Y-101458347D01*
X138610783Y-101466068D01*
X138622265Y-101465466D01*
X138816905Y-101437245D01*
X138828101Y-101434557D01*
X139014343Y-101371336D01*
X139024840Y-101366662D01*
X139143401Y-101300266D01*
X139153264Y-101290189D01*
X139150309Y-101282519D01*
X138286885Y-100419095D01*
X138252859Y-100356783D01*
X138254694Y-100331132D01*
X138921408Y-100331132D01*
X138921539Y-100332965D01*
X138925790Y-100339580D01*
X139505603Y-100919393D01*
X139517983Y-100926153D01*
X139524563Y-100921227D01*
X139593662Y-100797840D01*
X139598336Y-100787343D01*
X139661557Y-100601101D01*
X139664245Y-100589905D01*
X139692762Y-100393224D01*
X139693392Y-100385843D01*
X139694757Y-100333704D01*
X139694514Y-100326305D01*
X139676330Y-100128397D01*
X139674233Y-100117083D01*
X139620846Y-99927789D01*
X139616724Y-99917050D01*
X139529736Y-99740656D01*
X139528577Y-99738765D01*
X139519732Y-99732126D01*
X139507312Y-99738898D01*
X138929022Y-100317188D01*
X138921408Y-100331132D01*
X138254694Y-100331132D01*
X138257924Y-100285968D01*
X138286885Y-100240905D01*
X139145407Y-99382383D01*
X139152167Y-99370003D01*
X139146137Y-99361948D01*
X139078459Y-99319246D01*
X139068211Y-99314025D01*
X138885531Y-99241143D01*
X138874504Y-99237876D01*
X138681605Y-99199506D01*
X138670159Y-99198303D01*
X138473507Y-99195730D01*
X138462027Y-99196633D01*
X138387838Y-99209381D01*
X138317314Y-99201204D01*
X138262406Y-99156197D01*
X138240500Y-99085201D01*
X138240500Y-99038318D01*
X138260502Y-98970197D01*
X138314158Y-98923704D01*
X138384432Y-98913600D01*
X138394307Y-98915425D01*
X138401885Y-98917139D01*
X138408415Y-98918617D01*
X138414186Y-98918844D01*
X138414188Y-98918844D01*
X138476508Y-98921292D01*
X138616577Y-98926796D01*
X138722133Y-98911491D01*
X138817030Y-98897732D01*
X138817035Y-98897731D01*
X138822744Y-98896903D01*
X138828208Y-98895048D01*
X138828213Y-98895047D01*
X139014543Y-98831796D01*
X139020011Y-98829940D01*
X139201772Y-98728149D01*
X139217152Y-98715358D01*
X139357501Y-98598630D01*
X139361939Y-98594939D01*
X139495149Y-98434772D01*
X139596940Y-98253011D01*
X139623235Y-98175549D01*
X139662047Y-98061213D01*
X139662048Y-98061208D01*
X139663903Y-98055744D01*
X139664731Y-98050035D01*
X139664732Y-98050030D01*
X139689106Y-97881922D01*
X139693796Y-97849577D01*
X139695356Y-97790000D01*
X139676294Y-97582551D01*
X139664244Y-97539823D01*
X139621316Y-97387614D01*
X139619747Y-97382050D01*
X139527608Y-97195211D01*
X139510486Y-97172281D01*
X139406416Y-97032915D01*
X139406415Y-97032914D01*
X139402963Y-97028291D01*
X139249987Y-96886881D01*
X139073803Y-96775717D01*
X138880311Y-96698522D01*
X138675991Y-96657880D01*
X138670216Y-96657804D01*
X138670212Y-96657804D01*
X138565901Y-96656439D01*
X138467686Y-96655153D01*
X138387837Y-96668874D01*
X138317315Y-96660697D01*
X138262407Y-96615691D01*
X138240500Y-96544694D01*
X138240500Y-96498318D01*
X138260502Y-96430197D01*
X138314158Y-96383704D01*
X138384432Y-96373600D01*
X138394307Y-96375425D01*
X138401885Y-96377139D01*
X138408415Y-96378617D01*
X138414186Y-96378844D01*
X138414188Y-96378844D01*
X138476508Y-96381292D01*
X138616577Y-96386796D01*
X138726685Y-96370831D01*
X138817030Y-96357732D01*
X138817035Y-96357731D01*
X138822744Y-96356903D01*
X138828208Y-96355048D01*
X138828213Y-96355047D01*
X138974670Y-96305331D01*
X139020011Y-96289940D01*
X139201772Y-96188149D01*
X139206493Y-96184223D01*
X139357501Y-96058630D01*
X139361939Y-96054939D01*
X139428544Y-95974856D01*
X139491458Y-95899210D01*
X139495149Y-95894772D01*
X139596940Y-95713011D01*
X139624534Y-95631722D01*
X139662047Y-95521213D01*
X139662048Y-95521208D01*
X139663903Y-95515744D01*
X139664731Y-95510035D01*
X139664732Y-95510030D01*
X139682800Y-95385411D01*
X139693796Y-95309577D01*
X139695356Y-95250000D01*
X139676294Y-95042551D01*
X139619747Y-94842050D01*
X139527608Y-94655211D01*
X139402963Y-94488291D01*
X139249987Y-94346881D01*
X139073803Y-94235717D01*
X138880311Y-94158522D01*
X138675991Y-94117880D01*
X138670216Y-94117804D01*
X138670212Y-94117804D01*
X138565901Y-94116439D01*
X138467686Y-94115153D01*
X138387837Y-94128874D01*
X138317315Y-94120697D01*
X138262407Y-94075691D01*
X138240500Y-94004694D01*
X138240500Y-93958318D01*
X138260502Y-93890197D01*
X138314158Y-93843704D01*
X138384432Y-93833600D01*
X138394307Y-93835425D01*
X138401885Y-93837139D01*
X138408415Y-93838617D01*
X138414186Y-93838844D01*
X138414188Y-93838844D01*
X138476508Y-93841292D01*
X138616577Y-93846796D01*
X138719660Y-93831850D01*
X138817030Y-93817732D01*
X138817035Y-93817731D01*
X138822744Y-93816903D01*
X138828208Y-93815048D01*
X138828213Y-93815047D01*
X138973703Y-93765659D01*
X139020011Y-93749940D01*
X139201772Y-93648149D01*
X139361939Y-93514939D01*
X139495149Y-93354772D01*
X139596940Y-93173011D01*
X139623341Y-93095237D01*
X139662047Y-92981213D01*
X139662048Y-92981208D01*
X139663903Y-92975744D01*
X139664731Y-92970035D01*
X139664732Y-92970030D01*
X139686798Y-92817842D01*
X139693796Y-92769577D01*
X139695356Y-92710000D01*
X139676294Y-92502551D01*
X139656112Y-92430989D01*
X139641364Y-92378699D01*
X139619747Y-92302050D01*
X139527608Y-92115211D01*
X139402963Y-91948291D01*
X139249987Y-91806881D01*
X139221728Y-91789051D01*
X139078683Y-91698796D01*
X139073803Y-91695717D01*
X138880311Y-91618522D01*
X138675991Y-91577880D01*
X138670216Y-91577804D01*
X138670212Y-91577804D01*
X138565901Y-91576439D01*
X138467686Y-91575153D01*
X138387837Y-91588874D01*
X138317315Y-91580697D01*
X138262407Y-91535691D01*
X138240500Y-91464694D01*
X138240500Y-91418318D01*
X138260502Y-91350197D01*
X138314158Y-91303704D01*
X138384432Y-91293600D01*
X138394307Y-91295425D01*
X138401885Y-91297139D01*
X138408415Y-91298617D01*
X138414186Y-91298844D01*
X138414188Y-91298844D01*
X138476508Y-91301292D01*
X138616577Y-91306796D01*
X138725409Y-91291016D01*
X138817030Y-91277732D01*
X138817035Y-91277731D01*
X138822744Y-91276903D01*
X138828208Y-91275048D01*
X138828213Y-91275047D01*
X139014543Y-91211796D01*
X139020011Y-91209940D01*
X139201772Y-91108149D01*
X139361939Y-90974939D01*
X139495149Y-90814772D01*
X139596940Y-90633011D01*
X139623341Y-90555237D01*
X139662047Y-90441213D01*
X139662048Y-90441208D01*
X139663903Y-90435744D01*
X139664731Y-90430035D01*
X139664732Y-90430030D01*
X139693263Y-90233251D01*
X139693796Y-90229577D01*
X139695356Y-90170000D01*
X139676294Y-89962551D01*
X139619747Y-89762050D01*
X139527608Y-89575211D01*
X139402963Y-89408291D01*
X139249987Y-89266881D01*
X139178511Y-89221783D01*
X139078683Y-89158796D01*
X139073803Y-89155717D01*
X138880311Y-89078522D01*
X138675991Y-89037880D01*
X138670216Y-89037804D01*
X138670212Y-89037804D01*
X138565901Y-89036439D01*
X138467686Y-89035153D01*
X138387837Y-89048874D01*
X138317315Y-89040697D01*
X138262407Y-88995691D01*
X138240500Y-88924694D01*
X138240500Y-88878318D01*
X138260502Y-88810197D01*
X138314158Y-88763704D01*
X138384432Y-88753600D01*
X138394307Y-88755425D01*
X138401885Y-88757139D01*
X138408415Y-88758617D01*
X138414186Y-88758844D01*
X138414188Y-88758844D01*
X138473620Y-88761179D01*
X138616577Y-88766796D01*
X138719661Y-88751849D01*
X138817030Y-88737732D01*
X138817035Y-88737731D01*
X138822744Y-88736903D01*
X138828208Y-88735048D01*
X138828213Y-88735047D01*
X139014543Y-88671796D01*
X139020011Y-88669940D01*
X139201772Y-88568149D01*
X139233444Y-88541808D01*
X139357501Y-88438630D01*
X139361939Y-88434939D01*
X139495149Y-88274772D01*
X139596940Y-88093011D01*
X139623341Y-88015237D01*
X139662047Y-87901213D01*
X139662048Y-87901208D01*
X139663903Y-87895744D01*
X139664731Y-87890035D01*
X139664732Y-87890030D01*
X139691106Y-87708127D01*
X139693796Y-87689577D01*
X139695356Y-87630000D01*
X139676294Y-87422551D01*
X139619747Y-87222050D01*
X139527608Y-87035211D01*
X139522822Y-87028801D01*
X139406416Y-86872915D01*
X139406415Y-86872914D01*
X139402963Y-86868291D01*
X139249987Y-86726881D01*
X139073803Y-86615717D01*
X138880311Y-86538522D01*
X138675991Y-86497880D01*
X138670216Y-86497804D01*
X138670212Y-86497804D01*
X138565901Y-86496439D01*
X138467686Y-86495153D01*
X138387837Y-86508874D01*
X138317315Y-86500697D01*
X138262407Y-86455691D01*
X138240500Y-86384694D01*
X138240500Y-86338318D01*
X138260502Y-86270197D01*
X138314158Y-86223704D01*
X138384432Y-86213600D01*
X138394307Y-86215425D01*
X138400142Y-86216745D01*
X138408415Y-86218617D01*
X138414186Y-86218844D01*
X138414188Y-86218844D01*
X138476508Y-86221292D01*
X138616577Y-86226796D01*
X138719661Y-86211849D01*
X138817030Y-86197732D01*
X138817035Y-86197731D01*
X138822744Y-86196903D01*
X138828208Y-86195048D01*
X138828213Y-86195047D01*
X139005449Y-86134883D01*
X139020011Y-86129940D01*
X139201772Y-86028149D01*
X139238940Y-85997237D01*
X139295716Y-85950016D01*
X139361939Y-85894939D01*
X139437738Y-85803801D01*
X139491458Y-85739210D01*
X139495149Y-85734772D01*
X139596940Y-85553011D01*
X139612659Y-85506703D01*
X139662047Y-85361213D01*
X139662048Y-85361208D01*
X139663903Y-85355744D01*
X139664731Y-85350035D01*
X139664732Y-85350030D01*
X139691117Y-85168054D01*
X139693796Y-85149577D01*
X139695356Y-85090000D01*
X139676294Y-84882551D01*
X139619747Y-84682050D01*
X139527608Y-84495211D01*
X139466569Y-84413469D01*
X139406416Y-84332915D01*
X139406415Y-84332914D01*
X139402963Y-84328291D01*
X139249987Y-84186881D01*
X139245104Y-84183800D01*
X139245100Y-84183797D01*
X139192790Y-84150792D01*
X139145852Y-84097526D01*
X139135162Y-84027338D01*
X139145358Y-83996429D01*
X139143958Y-83995875D01*
X139146878Y-83988501D01*
X139150695Y-83981557D01*
X139155733Y-83961934D01*
X139162137Y-83943231D01*
X139167033Y-83931917D01*
X139167033Y-83931916D01*
X139170181Y-83924642D01*
X139171420Y-83916819D01*
X139171423Y-83916809D01*
X139177099Y-83880973D01*
X139179505Y-83869353D01*
X139188528Y-83834208D01*
X139188528Y-83834207D01*
X139190500Y-83826527D01*
X139190500Y-83806273D01*
X139192051Y-83786562D01*
X139193980Y-83774383D01*
X139195220Y-83766554D01*
X139191059Y-83722535D01*
X139190500Y-83710678D01*
X139190500Y-75135763D01*
X139191027Y-75124579D01*
X139192701Y-75117091D01*
X139190562Y-75049032D01*
X139190500Y-75045075D01*
X139190500Y-75017144D01*
X139189994Y-75013138D01*
X139189061Y-75001292D01*
X139187922Y-74965037D01*
X139187673Y-74957110D01*
X139182022Y-74937658D01*
X139178014Y-74918306D01*
X139176467Y-74906063D01*
X139175474Y-74898203D01*
X139172556Y-74890832D01*
X139159200Y-74857097D01*
X139155355Y-74845870D01*
X139154721Y-74843687D01*
X139143018Y-74803407D01*
X139138984Y-74796585D01*
X139138981Y-74796579D01*
X139132706Y-74785968D01*
X139124010Y-74768218D01*
X139119472Y-74756756D01*
X139119469Y-74756751D01*
X139116552Y-74749383D01*
X139090573Y-74713625D01*
X139084057Y-74703707D01*
X139065575Y-74672457D01*
X139061542Y-74665637D01*
X139047218Y-74651313D01*
X139034376Y-74636278D01*
X139022472Y-74619893D01*
X138988406Y-74591711D01*
X138979627Y-74583722D01*
X138511218Y-74115313D01*
X138477192Y-74053001D01*
X138479755Y-73989589D01*
X138490865Y-73953022D01*
X138492370Y-73948069D01*
X138521529Y-73726590D01*
X138523156Y-73660000D01*
X138504852Y-73437361D01*
X138450431Y-73220702D01*
X138404234Y-73114457D01*
X138395413Y-73044010D01*
X138426080Y-72979978D01*
X138486496Y-72942690D01*
X138519783Y-72938214D01*
X139650652Y-72938214D01*
X139718773Y-72958216D01*
G37*
%TD.AperFunction*%
%TA.AperFunction,Conductor*%
G36*
X181773730Y-76548502D02*
G01*
X181820223Y-76602158D01*
X181830327Y-76672432D01*
X181822018Y-76702719D01*
X181803265Y-76747993D01*
X181800217Y-76757373D01*
X181747115Y-76978554D01*
X181745572Y-76988301D01*
X181727725Y-77215070D01*
X181727725Y-77224930D01*
X181745572Y-77451699D01*
X181747115Y-77461446D01*
X181800217Y-77682627D01*
X181803266Y-77692012D01*
X181890313Y-77902163D01*
X181894795Y-77910958D01*
X181997432Y-78078445D01*
X182007890Y-78087907D01*
X182016666Y-78084124D01*
X183150905Y-76949885D01*
X183213217Y-76915859D01*
X183284032Y-76920924D01*
X183329095Y-76949885D01*
X184460290Y-78081080D01*
X184477102Y-78090260D01*
X184540350Y-78104020D01*
X184575775Y-78132776D01*
X184706823Y-78286213D01*
X184710031Y-78289969D01*
X184890584Y-78444176D01*
X184891134Y-78444513D01*
X184933756Y-78499790D01*
X184939828Y-78570526D01*
X184906694Y-78633317D01*
X184844873Y-78668226D01*
X184816339Y-78671499D01*
X184193330Y-78671499D01*
X184125209Y-78651497D01*
X184078716Y-78597841D01*
X184068612Y-78527567D01*
X184099894Y-78460967D01*
X184107907Y-78452110D01*
X184104124Y-78443334D01*
X183252812Y-77592022D01*
X183238868Y-77584408D01*
X183237035Y-77584539D01*
X183230420Y-77588790D01*
X182378920Y-78440290D01*
X182372160Y-78452669D01*
X182385126Y-78469989D01*
X182409937Y-78536510D01*
X182394846Y-78605884D01*
X182344644Y-78656086D01*
X182284258Y-78671499D01*
X161417901Y-78671499D01*
X161406718Y-78670972D01*
X161399225Y-78669297D01*
X161391299Y-78669546D01*
X161391298Y-78669546D01*
X161331148Y-78671437D01*
X161327189Y-78671499D01*
X161299278Y-78671499D01*
X161295708Y-78671950D01*
X161226545Y-78656281D01*
X161176776Y-78605649D01*
X161162281Y-78536148D01*
X161187662Y-78469844D01*
X161198783Y-78457121D01*
X163090499Y-76565405D01*
X163152811Y-76531379D01*
X163179594Y-76528500D01*
X181705609Y-76528500D01*
X181773730Y-76548502D01*
G37*
%TD.AperFunction*%
%TD*%
M02*
